<svg width="125" height="120" viewBox="0 0 125 120" fill="none" xmlns="http://www.w3.org/2000/svg">
<g clip-path="url(#clip0_1201_14495)">
<path d="M0 0H125V112C125 116.418 121.418 120 117 120H8C3.58172 120 0 116.418 0 112V0Z" fill="black"/>
<path d="M105.716 42.2266C105.717 42.1457 105.702 42.0653 105.672 41.9903C105.642 41.9153 105.597 41.8473 105.539 41.7903C105.34 41.5911 105.048 41.5532 104.834 41.5532C104.585 41.5586 104.337 41.5832 104.092 41.6269C103.871 41.6662 103.648 41.6888 103.425 41.6946C103.158 41.6889 102.892 41.6659 102.628 41.6259C102.341 41.5839 102.051 41.5599 101.761 41.5542C101.234 41.5542 100.881 41.8251 100.881 42.2276C100.881 42.6579 101.291 42.7176 101.591 42.7615C102.143 42.8421 102.831 42.9438 102.831 44.5176V49.5787L95.5265 42.0313C95.5156 42.0224 95.4807 41.9895 95.4807 41.9895C95.2616 41.7843 95.0126 41.5532 94.5842 41.5532C94.3492 41.5662 94.124 41.5841 93.9059 41.602C93.4527 41.6369 92.9845 41.6747 92.5253 41.6747C92.2115 41.6747 91.8818 41.6438 91.5631 41.615C91.2443 41.5861 90.8907 41.5532 90.553 41.5532C90.0261 41.5532 89.6725 41.8241 89.6725 42.2266C89.6725 42.7246 90.2273 42.7595 90.4694 42.7734L90.557 42.7794C91.4535 42.7794 91.6986 43.3631 91.9416 44.1869C91.9853 44.2918 92.0112 44.4032 92.0183 44.5166V52.5112C92.0183 53.4754 91.9545 54.1647 91.1328 54.2703H91.1646C90.8051 54.2703 90.5441 54.4945 90.5441 54.8042C90.5427 54.8877 90.5581 54.9705 90.5894 55.0479C90.6207 55.1253 90.6673 55.1955 90.7264 55.2545C90.9395 55.4676 91.2563 55.4995 91.4236 55.4995C91.7346 55.4938 92.0449 55.4695 92.353 55.4268C92.6416 55.3868 92.9323 55.3642 93.2236 55.3591C93.496 55.365 93.7678 55.3876 94.0374 55.4268C94.3278 55.4689 94.6205 55.4932 94.9139 55.4995C95.0484 55.4995 95.3861 55.4746 95.6112 55.2495C95.6697 55.1912 95.716 55.1217 95.7473 55.0453C95.7786 54.9688 95.7943 54.8869 95.7935 54.8042C95.7947 54.739 95.7828 54.6742 95.7585 54.6136C95.7342 54.553 95.698 54.498 95.652 54.4516C95.4528 54.2524 95.1142 54.2524 94.891 54.2524C94.0294 54.2255 93.6957 53.7384 93.6957 52.5162V45.8135L103.041 55.2415C103.215 55.4278 103.489 55.7177 103.87 55.7177C103.942 55.719 104.014 55.7058 104.081 55.679C104.148 55.6521 104.209 55.6121 104.26 55.5613C104.4 55.4228 104.469 55.2077 104.469 54.9228V44.1749C104.469 43.3731 104.582 42.8591 105.142 42.7804C105.503 42.7435 105.727 42.5373 105.727 42.2296L105.716 42.2266ZM31.413 30.7047C32.0106 30.5434 31.8303 29.2544 30.9279 29.5513C30.3551 29.7395 30.5882 30.9229 31.413 30.7047ZM32.3234 31.918C32.9001 31.7676 32.7477 30.6908 32.0804 30.7047C31.2068 30.7187 31.406 32.1531 32.3234 31.918ZM31.656 32.2826C31.0036 32.3941 31.2675 33.5018 31.8991 33.4958C32.6262 33.4858 32.5037 32.1341 31.656 32.2826ZM91.847 30.0971C92.1278 30.1402 92.4116 30.1606 92.6956 30.1579C92.9198 29.6997 93.0941 28.863 92.1508 29.0622C91.6956 29.1618 91.8011 29.7485 91.847 30.0931V30.0971ZM91.7254 31.7965C91.0371 31.912 91.0929 33.2089 91.9685 33.0097C92.6199 32.8603 92.3948 31.6829 91.7254 31.7965ZM91.7862 31.3711C92.346 31.161 92.0781 30.0672 91.2403 30.2754C90.6009 30.4348 90.8339 31.7228 91.7862 31.3711ZM104.528 34.9571C104.261 34.215 103.584 33.7827 102.891 33.44C102.636 33.3155 102.266 32.9868 101.98 32.8942C99.0916 31.9538 96.2467 33.446 94.0922 34.2289C93.613 34.4022 93.3531 34.5048 92.8789 34.6533C92.7146 34.7051 92.5681 34.7808 92.3928 34.8355C92.865 34.4242 93.3401 33.9391 93.7874 33.5008C94.4418 32.8553 95.7795 31.2875 96.6999 31.0733C97.5486 30.8741 98.3076 31.1151 98.9451 31.3163C99.0447 31.1629 99.1274 30.4677 99.1274 30.4677C99.0427 29.8511 98.8814 29.5632 98.5208 29.2534C98.0168 28.8191 97.1751 28.7096 96.3971 28.8899C94.7984 29.2574 93.9916 30.7326 93.3023 31.9837C93.0234 32.4818 92.8241 33.1043 92.3918 33.44C91.1537 34.3953 89.1804 35.241 86.992 34.8346C84.2368 34.3206 82.0623 32.5844 81.4707 30.4667C81.371 30.1041 81.0852 29.7535 81.2276 29.1927C81.3073 28.8719 81.5723 28.7335 81.7127 28.4645C81.9876 28.3788 82.2745 28.3378 82.5624 28.343C82.5624 30.2356 82.8503 31.5215 83.7756 32.5266C84.1641 32.9489 84.959 33.4878 85.5965 33.6223C85.966 33.696 86.4292 33.6223 86.8097 33.6223C86.5478 32.93 85.4929 30.2356 86.6284 29.6788C86.8894 29.5483 86.9562 29.6051 87.2351 29.6788C87.2729 30.6569 87.2809 30.9926 87.5986 31.6809C87.8975 32.3334 88.7312 33.1262 89.54 33.441C90.0799 33.6492 90.6118 33.6402 91.1776 33.7398C90.1725 32.1401 89.7313 29.8262 91.846 28.7644C92.1906 28.59 93.7475 28.2314 93.3023 27.8539C92.343 27.0431 90.557 26.1098 88.9334 26.823C88.9334 26.823 88.8198 27.06 88.8119 27.066C88.261 27.4017 87.8616 27.7254 87.1185 27.6726C86.7759 26.5032 87.7092 26.0789 88.7561 25.7312C88.3816 25.1764 88.0678 24.9772 87.6036 24.6355C87.5787 24.6166 87.5618 24.4005 87.5428 24.3925C85.5935 23.503 83.5585 24.6913 83.2955 26.4554C83.0116 26.3638 82.7178 26.3558 82.5674 26.1516C81.902 25.2661 82.4628 23.8197 83.174 23.1793C82.8911 22.989 82.402 22.6673 82.0783 22.5726C81.4677 22.3923 80.5841 22.6125 80.3182 22.6942C79.4107 22.9751 79.0173 23.1922 78.7404 23.7899C78.6856 23.7899 78.577 23.6903 78.4983 23.7899C78.3579 23.9662 78.2822 24.4931 78.1995 24.6395C77.9305 25.0758 77.1576 25.6804 76.3189 25.8528C75.765 25.9643 74.241 25.7352 73.9531 25.5539C73.5049 25.2631 73.8904 24.52 74.0747 24.4005C74.9423 23.8257 76.041 24.5429 76.6227 24.8248C76.6516 24.6634 76.7352 24.4433 76.7442 24.4005C76.7273 24.4005 76.6207 23.4452 76.5629 23.3048C76.3438 22.8067 75.7601 22.0666 74.9851 21.7877C74.4349 21.6204 73.8541 21.5792 73.2858 21.6672C73.2858 21.6672 72.712 21.966 72.5576 22.0308C72.4486 22.0776 72.3464 22.1389 72.2538 22.213C71.1113 23.0169 66.2434 25.6057 64.4843 23.245C64.3485 23.0307 64.2619 22.7889 64.2305 22.5372C64.1992 22.2854 64.2239 22.0298 64.303 21.7887C64.6646 20.7717 65.6856 19.9549 66.9098 20.7617C66.9098 20.7617 67.3192 21.3176 67.5164 21.4899C67.5606 21.065 67.5812 20.638 67.5781 20.2109C67.4586 19.5136 66.9715 18.4986 66.1836 18.148C64.9156 17.5822 63.8816 18.4209 63.3946 18.8761C63.3497 18.4707 63.1395 17.0762 63.1395 17.0762C62.9891 15.9387 62.7491 15.5591 62.3586 14.6278C62.247 14.3618 61.8755 13.8678 61.6912 13.4146C61.6464 13.4922 61.3924 13.7552 61.3446 13.8648C61.238 14.0869 60.8774 14.8011 60.8465 14.9316C60.8386 14.9545 60.726 15.2424 60.6643 15.4167C60.2798 16.4616 60.1802 17.7675 60.1184 18.8751C59.7867 18.4379 59.4311 18.3392 58.7826 18.147C56.2924 17.4109 55.8462 20.1093 55.9936 21.4839C56.5833 21.0476 57.2546 20.0595 58.2995 20.695C59.2737 21.2867 59.9381 23.3665 58.4211 24.0329C56.7337 24.77 53.2962 23.6215 52.4146 23.1225C52.3817 23.1036 52.054 22.8784 51.9285 22.8237C51.555 22.6454 51.2173 22.1264 50.8328 21.975C49.5887 21.4899 48.1234 22.0567 47.5567 22.5816C47.3873 22.735 46.9769 23.2091 46.8893 23.5518C46.7219 24.1903 46.8644 24.4064 46.8893 25.0081C47.6234 24.6286 49.2022 23.7968 49.6783 25.0081C49.6783 25.0081 49.8686 25.2392 49.7999 25.4324C49.6136 25.9464 47.4431 26.1665 46.5835 25.8568C46.0675 25.6705 45.4111 24.9603 45.2487 24.6435C45.1758 24.4867 45.1148 24.3245 45.0664 24.1584C44.93 24.0538 44.8792 23.8885 44.7626 23.7938C44.673 23.7201 44.7118 23.8108 44.6411 23.7331C44.5451 23.6267 44.4437 23.5252 44.3373 23.4293C44.1426 23.296 43.94 23.1746 43.7307 23.0657C43.2077 22.8854 42.3142 22.6852 41.4855 22.8227C40.9456 22.9103 40.6288 23.3406 40.2722 23.6116C40.5491 23.7978 40.7035 23.7869 40.8788 24.0369C40.9037 24.0708 41.0004 24.2192 41.0004 24.2192C41.2175 24.6007 41.2683 25.5141 41.1219 26.039C41.0322 26.3558 40.7235 26.5929 40.2722 26.7672C40.0053 25.3986 38.1944 23.7849 36.0249 24.7043C35.8804 24.763 35.7808 25.04 35.6613 25.1296C33.8594 26.4415 35.6613 25.9902 36.3287 27.071C36.5279 27.3878 36.7391 28.1288 36.0866 28.1667C35.4989 28.1946 34.8166 27.325 34.3265 27.1347C32.5913 26.4594 30.6769 27.7981 30.0792 28.591C30.64 28.8072 31.4737 28.9446 32.0206 29.2584C32.0505 29.2754 32.0485 29.4805 32.0813 29.5015C32.8981 30.0174 33.6014 31.1092 33.2338 32.5963C33.1143 33.0745 32.68 33.6562 32.5057 34.1134C34.1642 34.1134 35.8486 32.9858 36.2669 31.8074C36.502 31.144 36.1952 30.3272 36.5658 29.865C38.2402 30.4478 37.1843 32.6202 36.8696 34.0486C40.0889 34.0486 40.9954 31.7467 40.9954 28.6488C42.0064 28.5353 41.8451 29.0223 42.3302 29.4377C42.362 29.6386 42.3823 29.8411 42.3909 30.0443C42.3441 31.0793 41.7674 32.0863 41.1777 32.8334C40.9277 33.1462 40.59 33.2508 40.2672 33.5008C39.9684 33.7279 39.6905 34.1532 39.3568 34.3495C37.8208 35.2459 35.2937 35.9044 32.9818 34.9561C32.6162 34.8047 32.2098 34.3246 31.8861 34.1064C31.5086 33.8504 30.8243 33.4579 30.5513 33.1352C30.4219 32.9838 30.4846 32.7487 30.3691 32.5894C29.6937 31.664 28.5562 29.62 27.335 29.374C27.062 29.3172 26.4753 29.359 26.5461 29.374C25.5898 29.374 24.9304 29.6728 24.6047 30.2844C24.3805 30.6958 24.4224 31.3801 24.4831 31.923C25.4613 31.5136 26.3428 31.4757 27.335 31.923C28.865 32.6113 29.5174 34.3704 30.9149 35.2001C30.0822 34.8017 29.1937 34.6592 28.2454 34.3504C25.1436 33.3394 22.98 32.4848 20.177 34.5327C19.679 34.8913 19.1431 35.3525 19.0236 36.0498C18.8642 36.9672 19.422 37.5379 19.7517 37.9912C20.1711 38.5599 20.7478 38.9215 21.4451 39.2054C21.7439 38.4733 22.0427 37.9912 23.0836 37.9912C22.8217 37.3656 22.6663 36.5727 22.9621 35.8675C23.233 36.5498 23.5598 37.4523 24.1146 37.8696C26.5052 36.7112 29.2076 36.7421 32.3065 37.263C32.9848 37.3766 34.5098 37.7431 35.6434 37.5619C38.4324 37.1266 42.5742 34.5895 45.2298 36.4662C44.8702 36.7979 44.5554 36.9642 44.4419 37.4363C44.0962 38.8438 46.1143 40.0013 47.475 39.56C48.5408 39.2134 48.8835 38.1037 49.2948 37.2541C51.4564 37.2541 51.7462 36.0468 52.6318 35.2519C52.5858 35.1955 52.5454 35.1348 52.5112 35.0706C52.7842 35.1254 52.6975 33.8474 52.7543 34.0387L52.815 33.7956C52.3598 33.6054 51.2472 33.8434 50.8736 33.4968C50.6973 33.3295 50.6914 32.8902 50.6914 32.8902C50.0937 30.3641 53.9337 28.0282 56.0304 27.4296C56.8403 27.1965 59.1572 26.4225 60.214 26.7622C60.3136 26.7941 60.208 27.1487 60.2748 27.4296C60.2748 27.4296 60.5497 27.6039 60.5736 27.6716C60.6921 27.1845 60.7091 27.1736 60.3913 26.6397H63.1216C63.0499 26.8279 62.9852 26.81 62.9393 27.064C62.9164 27.1776 62.9792 27.1875 63.0001 27.3071C62.9662 27.2832 63.0838 28.1249 63.2989 27.4286C63.3218 27.3549 63.2939 26.8409 63.2989 26.7612C65.825 26.7612 67.619 27.3638 69.3064 28.1557C71.0356 28.9676 73.2648 30.3113 73.0069 32.5844L73.1284 32.7059C73.0049 32.9997 72.4311 33.961 71.4908 33.7369C71.1591 33.6582 71.1591 33.4868 70.8832 33.6163C71.0306 34.0397 70.9459 33.8624 71.0047 34.5875C71.0485 34.5716 71.1701 34.8983 71.3035 35.1941C71.5406 35.6982 72.0008 36.4891 72.6981 36.771C73.2499 36.9911 73.731 37.0748 74.4572 37.0748C75.0867 38.4474 76.286 40.4615 78.4625 38.8946C79.7703 37.9523 79.3589 36.75 78.4017 36.1643C78.8111 35.8944 79.331 35.6085 80.0403 35.5577C83.1282 35.3266 84.707 36.4343 87.26 36.8317C87.8765 36.9263 88.6545 37.2053 89.5051 37.0748C90.3319 36.9443 91.2772 36.9194 92.2354 36.771C93.3311 36.5986 94.6091 35.8247 95.9977 36.0428C97.2578 36.242 98.5796 36.5409 99.2131 37.3776C99.5838 37.1158 99.8982 36.7822 100.138 36.3968C100.377 36.0113 100.537 35.5817 100.608 35.1334C100.871 35.9711 100.78 36.3825 100.425 37.0748C100.213 36.9413 100.419 37.2551 100.425 37.2561C100.839 37.3915 101.129 37.266 101.457 37.4383C101.734 37.5848 101.89 37.9713 102.125 38.1665C103.036 38.9205 105.04 36.4731 104.492 34.9491L104.528 34.9571ZM46.6432 32.5854C46.728 32.5855 46.8115 32.5646 46.8863 32.5246C47.1522 32.3503 47.4282 32.1491 47.6752 31.9788C47.9003 32.0963 47.736 32.3423 47.736 32.3423C47.6961 32.4957 47.7569 32.6272 47.6752 32.8882C47.476 32.8653 46.7648 32.7667 46.7648 32.7667C46.7299 32.7026 46.6892 32.6419 46.6432 32.5854ZM47.8555 28.6408C47.1951 29.0542 46.7707 29.5204 45.8533 29.8541C45.9898 29.3122 45.9749 29.0572 45.9749 28.337C46.6572 28.4157 47.1702 28.5482 47.8555 28.6359V28.6408ZM75.8876 31.7965C76.1575 31.9419 76.4852 32.1491 76.6157 32.2208C77.291 32.5904 76.6516 32.5844 76.0091 32.5844C75.9593 32.172 75.9095 32.2009 75.8876 31.7965ZM77.8289 29.6728C77.0062 29.2684 76.4623 28.8251 75.766 28.4595C76.03 28.3779 76.8617 28.1787 77.2223 28.1607C78.0371 28.1069 77.57 29.4556 77.8289 29.4955C77.821 29.5557 77.821 29.6166 77.8289 29.6768V29.6728ZM18.392 48.5338C18.392 50.526 19.1072 52.3359 20.4061 53.6358C21.7738 55.0035 23.743 55.7575 25.9494 55.7575C27.5431 55.7575 29.8899 55.4965 32.0156 54.2564C32.2766 54.095 32.4967 53.8799 32.4967 53.596C32.4967 53.2035 32.4858 52.7991 32.4758 52.4086C32.4658 52.0182 32.4539 51.6118 32.4539 51.2054C32.4539 51.1147 32.4539 51.0221 32.4439 50.9254C32.434 50.8288 32.433 50.7053 32.433 50.5828C32.433 49.6534 32.9529 49.8009 33.181 49.757C33.3912 49.7132 33.7787 49.6345 33.7787 49.2271C33.7797 49.1446 33.764 49.0628 33.7327 48.9864C33.7014 48.9101 33.6551 48.8409 33.5964 48.7829C33.3703 48.5567 33.0326 48.5328 32.8991 48.5328C32.5343 48.5396 32.1702 48.5668 31.8084 48.6145C31.4538 48.6554 30.8053 48.6932 30.4627 48.6932C30.0065 48.6932 29.104 48.6583 28.6508 48.6235C28.1976 48.5886 27.7095 48.5528 27.2344 48.5528C26.7074 48.5528 26.3528 48.8237 26.3528 49.2271C26.3528 49.6744 26.7742 49.7341 27.0501 49.774C27.6079 49.8537 28.4446 49.6415 28.4446 51.4853C28.4446 51.6536 28.4396 51.8199 28.4337 51.9833C28.4337 52.1238 28.4237 52.2552 28.4237 52.3718C28.4237 52.8698 28.4237 53.346 28.1348 53.6986C27.6826 54.2454 27.0869 54.5871 26.3877 54.5871C25.5659 54.5871 24.8258 54.1887 24.2351 53.6C23.0498 52.4146 22.9761 50.1714 22.9761 48.4751C22.9761 46.9809 22.988 44.9838 24.1714 43.8034C24.4838 43.4741 24.8608 43.2129 25.2789 43.036C25.6969 42.8591 26.147 42.7704 26.6008 42.7754C28.864 42.7754 30.0244 44.927 30.7924 46.0625C31.2147 46.6881 31.3253 47.1024 31.7008 47.1024C31.7803 47.1032 31.8591 47.0882 31.9327 47.0585C32.0064 47.0288 32.0735 46.9848 32.1302 46.9291C32.185 46.8736 32.2283 46.8078 32.2575 46.7355C32.2868 46.6632 32.3014 46.5858 32.3005 46.5078C32.2967 46.3995 32.281 46.2919 32.2537 46.187C32.2447 46.1492 32.2377 46.1133 32.2318 46.0814C32.0554 45.1013 32.0405 43.8572 32.0405 42.9936C32.0405 42.8133 32.0196 42.5871 31.8582 42.4258C31.7477 42.3152 31.7586 42.2584 31.5664 42.2584H31.5305L31.4966 42.2684C31.3322 42.3252 31.1901 42.433 31.0912 42.5762C30.9986 42.6878 30.9637 42.9597 30.903 42.9627C30.7787 42.9179 30.657 42.8663 30.5384 42.8083C29.8043 42.4746 28.2753 41.6588 26.1904 41.6588C21.8166 41.6588 18.392 44.5036 18.392 48.5318V48.5338ZM18.5275 57.5724C18.5275 58.0565 19.0594 58.0894 19.2865 58.1033L19.3712 58.1093C20.2348 58.1093 20.4669 58.6761 20.7 59.4759C20.7417 59.5784 20.7663 59.6871 20.7727 59.7977V67.5672C20.7727 68.5025 20.7119 69.1729 19.924 69.2755H19.9549C19.6103 69.2755 19.3572 69.4936 19.3572 69.7935C19.3559 69.8743 19.3707 69.9547 19.4008 70.0298C19.4309 70.1049 19.4757 70.1732 19.5326 70.2307C19.7318 70.4379 20.0396 70.4688 20.2029 70.4688C20.5029 70.4633 20.8022 70.44 21.0994 70.3991C21.3761 70.3604 21.6548 70.3381 21.9341 70.3323C22.1956 70.3379 22.4565 70.3602 22.7151 70.3991C22.9936 70.4396 23.2744 70.4629 23.5558 70.4688C23.6853 70.4688 24.009 70.4449 24.2262 70.2258C24.2827 70.1693 24.3274 70.102 24.3575 70.0279C24.3876 69.9538 24.4026 69.8744 24.4015 69.7945C24.4026 69.7311 24.3912 69.6682 24.3678 69.6094C24.3443 69.5505 24.3094 69.497 24.265 69.4518C24.0728 69.2526 23.749 69.2526 23.5349 69.2526C22.7091 69.2247 22.3844 68.7545 22.3844 67.5662V61.0567L31.3492 70.5535C31.5176 70.7338 31.7795 71.0157 32.1461 71.0157C32.2146 71.0167 32.2827 71.0039 32.3462 70.978C32.4096 70.9522 32.4673 70.9138 32.5156 70.8653C32.6481 70.7318 32.7149 70.5226 32.7149 70.2457V59.465C32.7149 58.686 32.8234 58.186 33.3603 58.1073C33.707 58.0704 33.9211 57.8702 33.9211 57.5724C33.9228 57.4938 33.9088 57.4158 33.8799 57.3427C33.851 57.2697 33.8078 57.2032 33.7528 57.1471C33.5645 56.9568 33.2806 56.917 33.0764 56.917C32.8376 56.9223 32.5995 56.946 32.3642 56.9877C32.153 57.0255 31.9392 57.0471 31.7247 57.0524C31.4669 57.0476 31.2096 57.0253 30.9548 56.9857C30.6798 56.9463 30.4027 56.9244 30.125 56.9199C29.619 56.9199 29.2793 57.1829 29.2793 57.5754C29.2793 57.9927 29.6778 58.0515 29.9607 58.0943C30.4906 58.173 31.151 58.2706 31.151 59.8006V64.4763L24.6246 57.3851C24.6156 57.3762 24.1265 56.9199 23.7231 56.9199C23.498 56.9329 23.2819 56.9508 23.0727 56.9668C22.6374 57.0016 21.708 57.0365 21.2678 57.0365C20.9689 57.0365 20.6502 57.0076 20.3434 56.9797C20.0366 56.9518 19.6979 56.9199 19.3752 56.9199C18.8682 56.9199 18.5285 57.1839 18.5285 57.5764L18.5275 57.5724ZM92.7116 58.8952C92.6394 59.4933 92.5975 60.0948 92.5861 60.6971C92.587 60.8521 92.648 61.0007 92.7564 61.1115C92.8018 61.1588 92.8562 61.1965 92.9164 61.2224C92.9766 61.2482 93.0415 61.2617 93.107 61.2619C93.5513 61.2619 93.7435 60.8336 93.9298 60.4202C94.2047 59.8076 94.5175 58.7269 95.5923 58.7269H96.688C96.932 58.7269 97.0765 58.7537 97.1312 58.8085C97.186 58.8633 97.203 58.9689 97.203 59.1452V68.0354C97.203 69.0504 97.0844 69.6122 96.4639 69.6799C96.2547 69.7008 95.7517 69.7506 95.7517 70.2238C95.7504 70.3067 95.7657 70.3891 95.7966 70.4661C95.8276 70.543 95.8736 70.613 95.932 70.672C96.1065 70.8294 96.3345 70.9142 96.5695 70.9091C97.0376 70.9091 97.5088 70.8682 97.964 70.8284C98.4192 70.7886 98.8684 70.7487 99.3147 70.7487C99.741 70.7487 100.175 70.7896 100.595 70.8284C101.014 70.8672 101.471 70.9091 101.92 70.9091C102.158 70.9162 102.388 70.8312 102.564 70.672C102.62 70.6164 102.664 70.5503 102.695 70.4775C102.725 70.4046 102.74 70.3265 102.74 70.2477C102.742 70.179 102.73 70.1108 102.705 70.0468C102.68 69.9828 102.643 69.9245 102.595 69.8751C102.403 69.6819 102.089 69.6819 101.898 69.6819C101.101 69.654 100.807 69.1838 100.807 67.9597V59.194C100.794 59.0703 100.83 58.9463 100.906 58.8484C101.006 58.7438 101.216 58.695 101.554 58.695C101.716 58.695 101.89 58.7049 102.057 58.7139C102.224 58.7229 102.413 58.7348 102.588 58.7348C103.695 58.7348 104.048 59.8923 104.332 60.5129C104.508 60.9013 104.676 61.2669 105.029 61.2669C105.098 61.2668 105.167 61.2528 105.23 61.2258C105.294 61.1987 105.352 61.1592 105.4 61.1095C105.455 61.0529 105.498 60.9858 105.527 60.9123C105.556 60.8388 105.571 60.7602 105.569 60.6812C105.569 60.3365 105.495 59.3355 105.423 58.7368C105.377 58.3503 105.332 57.9858 105.309 57.7079C105.258 57.0893 104.874 57.0225 104.712 57.0225C104.56 57.0255 104.409 57.0395 104.26 57.0644C104.133 57.0858 104.005 57.0984 103.876 57.1022L99.0198 57.162C98.1234 57.1819 97.2159 57.1819 96.3374 57.1819C95.5255 57.1819 94.6848 57.1819 93.9079 57.0644C93.738 57.0391 93.5666 57.0247 93.3949 57.0215H93.376H93.358C93.0363 57.0723 92.854 57.3283 92.8162 57.7845C92.8012 58.1511 92.7514 58.5306 92.7036 58.8972L92.7116 58.8952ZM77.5889 58.0694C76.8548 57.7347 75.3268 56.9189 73.2409 56.9189C68.8701 56.9189 65.4455 59.7618 65.4455 63.792C65.4455 65.7842 66.1607 67.5941 67.4596 68.893C68.8272 70.2606 70.7955 71.0137 73.0029 71.0137C74.5966 71.0137 76.9434 70.7537 79.0691 69.5126C79.3291 69.3512 79.5502 69.137 79.5502 68.8521C79.5502 68.4607 79.5392 68.0553 79.5293 67.6658C79.5193 67.2763 79.5074 66.8639 79.5074 66.4635C79.5074 66.3719 79.5074 66.2802 79.4974 66.1826C79.4874 66.085 79.4854 65.9635 79.4854 65.84C79.4854 64.9116 80.0054 65.058 80.2345 65.0152C80.4447 64.9724 80.8322 64.8927 80.8322 64.4863C80.8333 64.4038 80.8177 64.3219 80.7864 64.2455C80.755 64.1692 80.7086 64.1 80.6499 64.042C80.4248 63.8159 80.0861 63.792 79.9526 63.792C79.5861 63.7984 79.2202 63.826 78.8569 63.8747C78.5023 63.9155 77.8538 63.9534 77.5112 63.9534C77.054 63.9534 76.1525 63.9175 75.6983 63.8836C75.2441 63.8498 74.757 63.8129 74.2818 63.8129C73.7549 63.8129 73.4003 64.0829 73.4003 64.4873C73.4003 64.9335 73.8207 64.9933 74.0976 65.0331C74.6554 65.1138 75.4921 64.9006 75.4921 66.7444C75.4921 66.9118 75.4851 67.0791 75.4802 67.2425C75.4802 67.3819 75.4702 67.5144 75.4702 67.6309C75.4702 68.129 75.4702 68.6041 75.1813 68.9567C74.7281 69.5026 74.1334 69.8453 73.4342 69.8453C72.6124 69.8453 71.8713 69.4468 71.2816 68.8581C70.0963 67.6738 70.0226 65.4306 70.0226 63.7342C70.0226 62.2401 70.0345 60.2429 71.2179 59.0625C71.5311 58.7324 71.9093 58.4708 72.3286 58.294C72.7479 58.1173 73.1993 58.0293 73.6543 58.0356C75.9174 58.0356 77.0769 60.1881 77.8449 61.3227C78.2682 61.9492 78.3778 62.3626 78.7543 62.3626C78.8336 62.3636 78.9124 62.3488 78.9859 62.319C79.0594 62.2892 79.1263 62.2452 79.1826 62.1893C79.2376 62.1341 79.281 62.0685 79.3102 61.9963C79.3395 61.9241 79.354 61.8468 79.353 61.7689C79.3491 61.6603 79.3334 61.5524 79.3061 61.4472C79.2982 61.4093 79.2902 61.3735 79.2842 61.3416C79.1079 60.3614 79.093 59.1173 79.093 58.2537C79.093 58.0744 79.0721 57.8473 78.9107 57.6869C78.8001 57.5754 78.8111 57.5196 78.6188 57.5196H78.584L78.5501 57.5296C78.3856 57.5853 78.2435 57.6925 78.1447 57.8354C78.0521 57.9469 78.0172 58.2179 77.9564 58.2208C77.8312 58.1762 77.7085 58.1246 77.5889 58.0664V58.0694ZM74.4671 42.63C72.7867 41.6339 70.666 41.5502 68.8103 41.5502C68.2724 41.5502 67.7236 41.7006 67.1927 41.7315C66.6617 41.7624 66.1507 41.8152 65.6258 41.8152C65.1566 41.8152 64.6466 41.6409 64.1765 41.611C63.7063 41.5811 63.2033 41.5502 62.7182 41.5502C62.0688 41.5502 61.8377 41.8879 61.8377 42.2046C61.8377 42.7156 62.3835 42.7555 62.6176 42.7724L62.6764 42.7774C63.5549 42.8073 63.7243 43.4298 63.7243 44.4947V52.8708C63.7243 54.0661 63.2531 54.1817 62.8377 54.2843C62.6036 54.3421 62.25 54.4307 62.25 54.8192C62.2482 54.9002 62.2629 54.9808 62.2932 55.0559C62.3236 55.1311 62.3688 55.1993 62.4263 55.2565C62.6256 55.4557 62.9174 55.4935 63.1306 55.4935C63.544 55.4935 63.9583 55.4517 64.3588 55.4119C64.7592 55.372 65.1487 55.3322 65.5371 55.3322C66.083 55.3322 66.6418 55.3621 67.1817 55.3919C67.7216 55.4218 68.2943 55.4527 68.8541 55.4527C71.0226 55.4527 72.8226 54.9636 74.2012 54.0004C75.141 53.3262 75.9078 52.439 76.4388 51.4115C76.9698 50.3839 77.2499 49.2452 77.2562 48.0886C77.2562 45.7059 76.2133 43.6649 74.4671 42.63ZM73.1632 49.2401C73.1632 51.3079 72.1363 54.3829 69.3064 54.3829C68.7316 54.3829 68.3252 54.2514 68.0632 53.9795C67.8013 53.7075 67.6578 53.2364 67.6578 52.575V44.148C67.6578 43.7904 67.6887 43.5504 67.8451 43.3691C68.0881 43.1041 68.5095 43.0703 68.9269 43.0703C72.2757 43.2565 73.1632 47.1911 73.1632 49.246V49.2401ZM71.5207 32.2168C71.2497 32.2357 70.5824 32.177 70.2457 32.2776C70.2402 32.3379 70.2402 32.3986 70.2457 32.4589C70.174 32.417 71.8295 32.687 72.5516 32.5196C73.6473 32.2626 71.8464 32.1929 71.5207 32.2208V32.2168ZM69.6391 30.3362C69.6391 30.3362 69.5823 30.4448 69.5175 30.5792C69.9439 30.4876 69.7397 30.5633 70.1242 30.4577C70.4808 30.3581 70.4001 30.3342 70.8523 30.2754C70.8523 30.2754 70.6989 30.1619 70.7308 30.1539C71.0535 30.0633 71.1651 30.2475 71.4589 30.0931C71.5476 30.0443 71.4739 29.8531 71.6402 29.8501C71.6402 29.8501 71.0754 29.7903 71.0943 29.7903C70.7846 29.8621 70.6063 30.0384 70.427 30.0892C70.0285 30.2087 69.6391 30.3322 69.6391 30.3322V30.3362ZM69.2137 35.737C69.7297 36.006 69.4777 35.983 69.9419 35.8575C69.402 35.6962 68.8462 35.0886 68.3651 35.1294C68.0662 35.1543 69.0175 35.6324 69.2137 35.737ZM69.3363 37.8597C68.883 37.5379 67.4506 35.8884 67.0303 35.8575C66.4326 35.8117 68.9169 37.7312 69.3363 37.8597ZM65.0281 35.9223C64.9644 35.9312 64.9285 36.1135 64.9076 36.1653C65.2423 36.3775 65.6049 37.026 66.0601 37.4393C65.9944 37.1574 65.2254 35.8864 65.0281 35.9223ZM63.5111 36.1653C63.47 36.303 63.4495 36.446 63.4503 36.5897C63.5788 37.3078 63.7033 37.785 63.7492 38.288C63.7561 38.288 63.9295 38.288 63.9314 38.288C63.8986 37.525 63.8368 36.245 63.5071 36.1653H63.5111ZM62.4154 35.9223C62.2271 36.4094 62.3158 37.3577 62.3546 37.3786C62.5099 36.9082 62.531 36.4039 62.4154 35.9223ZM55.378 35.5587C55.2694 35.5069 55.6509 35.234 55.2565 35.2549C55.0005 35.2688 54.6987 35.4999 54.4676 35.6195C54.3679 35.6703 54.2036 35.8605 54.104 35.9233C53.2553 36.4273 55.3053 35.5756 55.378 35.5587ZM55.4985 37.0758C55.5981 37.004 55.4378 37.015 55.4378 37.015C55.0393 37.3347 54.6927 37.8188 54.4666 37.9852C55.3879 37.6156 56.1111 36.7998 56.652 36.2859C56.7934 36.1474 56.9986 35.8326 56.7118 35.9223C56.151 36.0946 55.7157 36.9542 55.4985 37.0758ZM57.8045 37.4393C58.2617 37.2162 58.6462 36.5598 58.9002 36.0448C58.8197 36.0523 58.7386 36.0523 58.6581 36.0448C58.51 36.2932 58.3257 36.5182 58.1113 36.7122C58.1113 36.7122 57.8672 37.2411 57.8124 37.4403L57.8045 37.4393ZM59.9919 37.1973C59.8923 37.2451 59.9919 37.3228 59.9919 37.3188C59.9381 37.3437 59.9919 37.5609 59.9919 37.5609C59.9859 37.6864 59.9311 38.0589 59.9311 38.289C59.9311 38.283 60.0935 38.289 60.1134 38.289C60.2688 37.6366 60.3953 36.5289 60.2349 36.1663C60.1592 36.504 60.0546 36.7261 59.9919 36.9552C59.9698 37.0344 59.9698 37.1181 59.9919 37.1973ZM61.3864 35.9233C61.3188 36.2217 61.2983 36.5289 61.3257 36.8337C61.3536 37.791 61.8456 36.2361 61.3864 35.9233ZM49.513 42.2475C49.513 42.6868 49.9642 42.7455 50.263 42.7864C50.7282 42.8481 51.288 42.9059 51.3926 43.5922C51.4595 43.9033 51.4955 44.2203 51.5002 44.5385V52.7363C51.5002 53.6826 51.3697 54.2305 50.7033 54.2305H50.6884H50.6734C50.3039 54.2723 50.0758 54.4845 50.0758 54.7823C50.0749 54.865 50.0908 54.9469 50.1225 55.0233C50.1542 55.0996 50.201 55.1688 50.2601 55.2266C50.4892 55.4527 50.8318 55.4766 50.9683 55.4766C51.4504 55.4766 51.9345 55.4308 52.4037 55.386C52.8728 55.3411 53.3489 55.2963 53.8231 55.2963C54.6797 55.2963 55.5503 55.367 56.393 55.4358C57.2357 55.5045 58.1272 55.5782 59.0058 55.5782C59.958 55.5782 60.9133 55.2983 61.5418 54.6817C62.1883 54.0442 62.4712 52.323 62.3755 51.3388C62.3703 51.1688 62.3062 51.0058 62.1943 50.8776C62.1439 50.8283 62.0842 50.7894 62.0187 50.7633C61.9533 50.7371 61.8833 50.7242 61.8128 50.7252C61.4562 50.7252 61.236 51.0549 61.1055 51.2522L61.0737 51.299C60.232 52.6268 58.9231 54.2972 57.4001 54.2972C56.897 54.2972 56.0723 54.0193 55.886 53.836C55.7147 53.6667 55.635 53.1995 55.635 52.7782V44.157C55.6387 43.7197 55.8028 43.2989 56.0962 42.9746C56.1645 42.9139 56.2443 42.8675 56.3309 42.8382C56.4175 42.809 56.5091 42.7974 56.6002 42.8043H56.6271C57.0883 42.7575 57.2516 42.4885 57.2516 42.2515C57.2525 42.1688 57.2366 42.0868 57.2049 42.0105C57.1733 41.9341 57.1265 41.865 57.0674 41.8072C56.8383 41.5821 56.4966 41.5572 56.3601 41.5572C55.9008 41.5656 55.4423 41.5988 54.9865 41.6568C54.5443 41.7056 53.6786 41.7564 53.2284 41.7564C52.7863 41.747 52.3451 41.7138 51.9066 41.6568C51.4089 41.5978 50.9086 41.5645 50.4075 41.5572C49.8815 41.5572 49.511 41.8421 49.511 42.2545L49.513 42.2475ZM34.2728 48.8934C34.2699 49.8138 34.4574 50.7248 34.8236 51.5692C35.1897 52.4137 35.7266 53.1732 36.4004 53.8002C37.8856 55.1439 39.7094 55.7426 42.3172 55.7426C44.5495 55.7426 46.4859 55.0045 47.9172 53.6069C49.3486 52.2094 50.1266 50.285 50.1266 48.1693C50.1333 47.3886 49.9804 46.6147 49.6772 45.8953C49.3741 45.1759 48.927 44.526 48.3635 43.9857C46.9092 42.5652 44.6899 41.7504 42.2744 41.7504C37.6366 41.7504 34.2708 44.7547 34.2708 48.8934H34.2728ZM38.556 47.2897C38.556 46.188 38.8618 44.674 39.7214 43.7277C39.9586 43.4559 40.252 43.2388 40.5814 43.0916C40.9108 42.9444 41.2682 42.8705 41.6289 42.875C42.0817 42.8701 42.5301 42.9638 42.943 43.1498C43.3558 43.3358 43.7232 43.6094 44.0195 43.9518C45.3443 45.4111 45.8125 48.0627 45.8125 50.0569C45.8125 51.1257 45.5894 54.612 42.7176 54.612C39.6586 54.612 38.8448 50.8169 38.6337 48.5557C38.5948 48.1454 38.555 47.721 38.555 47.2887L38.556 47.2897ZM63.537 66.1836C63.537 66.076 63.526 65.9645 63.526 65.841C63.526 64.9126 64.046 65.059 64.2741 65.0162C64.4843 64.9734 64.8718 64.8937 64.8718 64.4873C64.8726 64.4048 64.8569 64.323 64.8256 64.2467C64.7943 64.1704 64.748 64.1011 64.6895 64.043C64.4634 63.8169 64.1257 63.793 63.9922 63.793C63.6257 63.7993 63.2598 63.8269 62.8965 63.8757C62.5419 63.9165 61.8934 63.9544 61.5508 63.9544C61.0936 63.9544 60.1931 63.9185 59.7389 63.8846C59.2847 63.8508 58.7966 63.8139 58.3214 63.8139C57.7935 63.8139 57.4399 64.0838 57.4399 64.4883C57.4399 64.9345 57.8603 64.9943 58.1372 65.0341C58.696 65.1148 59.5317 64.9016 59.5317 66.7454C59.5317 66.9128 59.5257 67.0801 59.5197 67.2435C59.5148 67.3829 59.5098 67.5154 59.5098 67.6319C59.5098 68.13 59.5098 68.6051 59.2209 68.9577C58.7677 69.5036 58.172 69.8463 57.4728 69.8463C56.652 69.8463 55.9119 69.4478 55.3202 68.8591C54.1349 67.6748 54.0611 65.4316 54.0611 63.7352C54.0611 62.2411 54.0731 60.2439 55.2565 59.0635C55.5697 58.7347 55.9476 58.4741 56.3664 58.2982C56.7852 58.1224 57.2358 58.035 57.6899 58.0415C59.953 58.0415 61.1125 60.1941 61.8805 61.3287C62.3028 61.9552 62.4134 62.3686 62.7889 62.3686C62.8684 62.3694 62.9472 62.3545 63.0209 62.3248C63.0946 62.295 63.1616 62.251 63.2182 62.1953C63.273 62.1399 63.3162 62.0743 63.3454 62.0021C63.3747 61.93 63.3893 61.8527 63.3886 61.7749C63.3847 61.6663 63.369 61.5584 63.3418 61.4532C63.3328 61.4153 63.3258 61.3795 63.3198 61.3476C63.1435 60.3674 63.1286 59.1233 63.1286 58.2597C63.1286 58.0804 63.1087 57.8533 62.9473 57.6929C62.8367 57.5813 62.8477 57.5256 62.6554 57.5256H62.6196L62.5857 57.5355C62.4217 57.5915 62.2799 57.6987 62.1813 57.8413C62.0887 57.9529 62.0548 58.2238 61.993 58.2268C61.8689 58.1822 61.7472 58.131 61.6285 58.0734C60.8934 57.7387 59.3653 56.9229 57.2795 56.9229C52.9087 56.9229 49.4841 59.7658 49.4841 63.796C49.4841 65.7882 50.1993 67.5981 51.4982 68.897C52.8658 70.2646 54.8351 71.0177 57.0405 71.0177C58.6342 71.0177 60.981 70.7577 63.1067 69.5165C63.3686 69.3552 63.5878 69.141 63.5878 68.8561C63.5878 68.4647 63.5768 68.0593 63.5669 67.6698C63.5569 67.2803 63.545 66.8729 63.545 66.4675C63.545 66.3759 63.545 66.2832 63.534 66.1856L63.537 66.1836ZM48.3764 59.9252V59.6492C48.3764 59.0516 48.4243 58.2457 48.8366 58.2079C49.0508 58.187 49.519 58.1402 49.519 57.671C49.5209 57.59 49.5063 57.5095 49.4762 57.4344C49.4461 57.3592 49.401 57.2909 49.3437 57.2337C49.1614 57.0534 48.8894 57.0156 48.6942 57.0156C48.4654 57.0203 48.2375 57.0447 48.0129 57.0883C47.8158 57.1267 47.6159 57.1491 47.4152 57.155C47.1541 57.1486 46.8936 57.126 46.6353 57.0873C46.3562 57.0459 46.0747 57.0223 45.7926 57.0166C45.2995 57.0166 44.9678 57.2795 44.9678 57.672C44.9678 58.17 45.436 58.188 45.7159 58.1969C46.0775 58.2089 46.452 58.2188 46.7 58.6761C46.8415 58.955 46.9112 59.3654 46.9112 59.9262V64.7074C46.9112 67.8521 45.8035 69.1898 43.2067 69.1898C42.1409 69.1898 41.3072 68.901 40.7304 68.3312C40.062 67.6718 39.7224 66.6378 39.7224 65.2582V59.6672C39.7224 58.678 39.8867 58.2467 40.2732 58.2268C40.5073 58.2069 41.0044 58.1621 41.0044 57.67C41.0057 57.5903 40.9909 57.5112 40.9608 57.4374C40.9306 57.3636 40.8858 57.2966 40.829 57.2407C40.6298 57.0415 40.337 57.0146 40.1796 57.0146C39.7586 57.022 39.3383 57.0522 38.9205 57.1052C38.5206 57.1557 38.1183 57.185 37.7153 57.1929C37.3036 57.1854 36.8926 57.1558 36.4841 57.1042C36.0683 57.0522 35.65 57.0222 35.231 57.0146C34.7329 57.0146 34.4062 57.2775 34.4062 57.67C34.4062 58.1601 34.8585 58.187 35.1035 58.2009C35.5617 58.2288 36.1325 58.2627 36.1325 59.9242V65.4863C36.1325 67.1857 36.5956 68.5065 37.5091 69.408C38.545 70.43 40.1208 70.926 42.3272 70.926C44.3512 70.926 45.8254 70.4429 46.8345 69.4478C47.8754 68.4198 48.3824 66.8779 48.3824 64.7343V59.9222L48.3764 59.9252ZM51.0111 32.3453C50.272 32.5555 53.2314 32.7089 53.5601 32.7089C53.4725 32.6312 53.5462 32.5664 53.5601 32.4101C52.7881 32.4101 51.5799 32.1481 51.0111 32.2895C50.9414 32.3055 50.9055 32.3503 51.0111 32.3503V32.3453ZM55.381 29.372C55.3371 29.366 55.381 29.0731 55.381 29.0731C55.1738 29.0104 54.5273 28.3091 54.2853 28.345C53.5761 28.4446 55.1818 29.2773 55.381 29.376V29.372ZM56.7755 28.341C56.6525 28.1998 56.5096 28.0773 56.3512 27.9774C55.7953 28.3829 57.5913 29.4576 56.7755 28.341ZM58.1103 28.2803C58.1103 28.2803 58.1103 28.4526 58.1103 28.4625C58.211 28.4476 58.3134 28.4476 58.4141 28.4625C58.1819 28.0001 57.9183 27.5542 57.6252 27.1278C57.5704 27.6099 57.8035 28.1398 58.1103 28.2803ZM59.5098 28.0332C59.7379 27.8111 59.5098 27.1855 59.3883 27.1228C59.2747 27.2324 59.0107 27.4166 59.2667 27.6079C59.2528 27.5083 59.4719 27.9366 59.5098 28.0332ZM61.754 27.1238C61.754 27.071 61.8147 26.825 61.8147 26.825C61.7271 26.7931 61.5966 26.8558 61.5159 26.825C61.5159 26.8459 61.4611 27.1238 61.4552 27.2493V27.4316C61.5956 27.3758 61.7948 27.2553 61.8187 27.2493C61.7649 27.2493 61.76 27.1069 61.758 27.1278L61.754 27.1238ZM63.9384 27.8519V28.0332C64.0729 27.9804 64.2811 27.8549 64.303 27.8509C64.303 27.8509 64.3558 27.5651 64.3628 27.5521C64.3896 27.4664 64.5958 27.332 64.303 27.1268C64.1904 27.4605 64.1516 27.4724 63.9384 27.7942C64.0809 27.7673 64.0998 27.8549 63.9384 27.8549V27.8519ZM65.3947 28.5801C65.6716 28.2314 66.345 27.328 65.9406 27.1238C65.7413 27.4515 65.7792 27.5491 65.577 27.9127C65.487 28.0049 65.3868 28.0865 65.2782 28.1557C65.3658 28.2155 65.2612 28.4645 65.3997 28.5801H65.3947ZM66.9118 28.4586C66.8759 28.5193 66.6687 28.597 66.6129 28.6408C66.6129 28.6408 66.9008 28.7494 66.9765 28.7624C67.115 28.5392 67.623 28.1478 67.2753 27.9735C67.101 28.1099 66.9835 28.1727 66.9118 28.2773C66.7872 28.4526 66.9546 28.3829 66.9118 28.4586ZM68.3063 29.1867C68.6569 29.1996 69.155 28.9018 69.5195 28.5801L69.398 28.2763C69.0793 28.3958 69.1211 28.5143 68.7306 28.7006C68.7306 28.7006 68.4109 28.9666 68.3063 29.1867ZM69.5195 31.1281L69.398 30.643C68.7236 30.0453 68.3093 29.7744 68.124 29.1867C67.2564 29.1867 66.5731 28.8879 65.8788 28.7614C65.3409 28.6618 64.809 28.8012 64.3618 28.5791C64.312 28.5542 64.2313 28.2942 64.1805 28.2753C63.5948 28.0611 63.8279 28.34 63.27 28.1538C63.1961 28.047 63.1149 27.9455 63.027 27.8499C62.7282 27.7214 61.8317 27.5661 61.2061 27.6677C60.8714 27.7204 60.3853 28.1239 60.2967 28.1538C59.8684 28.2862 59.6263 28.1836 59.3863 28.335C59.1671 28.4705 59.1004 28.6976 58.7796 28.7604C58.0017 28.9088 57.0793 29.113 56.656 29.1857C56.2984 29.2445 55.8402 29.0921 55.5603 29.2465C55.375 29.3461 55.386 29.8053 55.2614 29.9746C55.117 30.1609 54.8521 30.136 54.6548 30.2784C54.5199 30.3907 54.4125 30.5325 54.3411 30.6928C54.3005 30.6389 54.2635 30.5823 54.2305 30.5235C54.3301 30.5733 52.6367 29.7844 52.1676 29.8561C51.9176 29.8919 52.2164 30.12 52.1068 30.1599C53.0083 30.3322 53.2862 30.5822 54.3371 30.7037C54.1967 30.9921 54.0994 31.2995 54.0482 31.6162C54.0346 31.6963 54.0346 31.7781 54.0482 31.8582C53.4167 33.9191 55.1519 33.7269 56.2934 34.5278C56.6002 34.7439 56.4807 35.1912 56.9 35.3167C57.2596 35.4252 57.921 35.2669 58.1133 35.3167L58.3563 35.5597C58.8205 35.6962 59.8744 35.7191 60.4192 35.5597C60.4949 35.4735 60.5761 35.3924 60.6623 35.3167C61.3765 35.1324 61.4014 35.5328 61.8147 35.5597C62.268 35.5866 62.526 35.1842 63.1495 35.3167C63.1993 35.3266 63.3926 35.5597 63.3926 35.5597C63.8966 35.6434 64.6875 35.7211 65.1517 35.6205C65.2433 35.5996 65.5989 35.3416 65.6975 35.3216C66.1358 35.2081 66.5562 35.4212 66.9118 35.2609C67.2016 35.1264 67.3102 34.5885 67.5791 34.4122C68.1459 34.0387 68.891 33.9341 69.399 33.5028C69.7466 33.2039 69.7068 32.9489 69.9449 32.7139C69.7456 32.0684 69.6351 31.412 69.5205 31.1351L69.5195 31.1281ZM64.7263 30.2784C65.0339 30.3433 65.3378 30.4244 65.6368 30.5215C65.6517 30.5882 65.7005 30.9139 65.6965 30.886C65.7433 31.9339 64.1675 31.3363 64.7263 30.2784ZM65.2114 34.222C65.8848 34.222 65.3997 35.0019 64.7861 35.1324C64.5391 34.7339 64.5191 34.2249 65.2114 34.222ZM64.1157 31.3701C64.9425 31.8363 65.4375 31.5016 64.9644 32.2198C64.1366 33.4759 63.6874 32.3642 64.1157 31.3701ZM64.298 29.8541L64.5401 30.0364C64.3727 30.6031 63.9314 30.4478 64.298 29.8541ZM63.9354 34.4082C64.559 34.3624 64.3339 34.984 64.1785 35.0148C63.0748 35.226 63.1824 34.46 63.9354 34.4082ZM62.4184 31.4927C61.9841 31.2536 62.0199 31.1869 62.2361 30.7645C62.5459 30.8233 63.0858 30.886 63.0858 30.886C64.2054 31.0135 63.3687 32.0126 62.4184 31.4927ZM63.5141 30.5832L63.4533 30.7655C62.2092 31.1221 62.0807 30.0433 63.1545 29.8551C63.9075 29.7206 63.5191 30.5832 63.5191 30.5832H63.5141ZM60.1762 30.887C60.8416 31.0135 60.736 30.7954 61.2081 30.7655C62.0857 30.7047 61.5289 31.5863 61.0876 31.6759C59.9281 31.903 60.2349 31.16 60.1762 30.887ZM61.5707 30.5245C61.5797 30.4956 61.6026 30.2545 61.6275 30.0971C62.4762 30.1768 62.1773 30.9936 61.5707 30.5245ZM62.1743 31.9788C63.1216 31.7208 63.7083 32.3423 63.3268 32.8284C63.1336 33.0705 63.0409 32.944 62.6594 33.1272C62.6305 33.1412 62.6475 33.3026 62.5987 33.3095C62.248 33.3494 62.001 32.0146 62.1743 31.9748V31.9788ZM61.4462 35.0129C61.4597 34.95 61.48 34.8889 61.507 34.8306C61.8396 34.8306 62.8268 35.0397 62.2351 35.3167C61.9691 35.4392 61.4213 35.2439 61.4462 35.0129ZM61.1474 33.2528C61.1474 33.2528 59.6283 32.2726 60.6015 31.9788C61.6823 31.651 61.9173 32.2178 61.4502 32.6461C61.6056 32.7238 61.4392 33.1442 61.3894 33.3135L61.1474 33.2528ZM60.5407 34.1024C61.1105 34.2498 61.0069 34.21 60.8445 34.5268C60.7151 34.453 60.6324 34.1662 60.5407 34.1024ZM59.5705 34.4012C59.7698 34.46 59.8963 34.5656 60.2987 34.5835C60.2917 34.5835 60.7061 34.8087 60.4192 34.9471C59.712 35.2838 59.4689 34.8126 59.5705 34.4012ZM58.7806 32.2786C58.4599 31.91 58.4529 31.7078 59.3265 31.6112C59.3474 31.5385 59.3404 31.406 59.3873 31.3681C59.4171 31.393 59.5865 31.3681 59.6303 31.3681C59.704 31.7556 60.1473 32.7487 59.448 32.7029C58.9878 32.672 58.9948 32.5226 58.7806 32.2786ZM58.2955 34.219C59.0406 34.453 59.1831 34.4242 59.0845 34.8256C58.933 35.4372 58.3961 35.1035 58.2955 34.219ZM57.3184 31.7965L57.5614 31.918C57.5614 33.2657 56.8831 32.2098 57.3184 31.7965ZM55.2594 32.2168C55.9268 32.1561 55.9856 32.941 55.6838 33.0057C55.2415 33.0984 54.6289 32.2726 55.2594 32.2168ZM55.1379 30.7008C54.8391 31.407 54.5692 31.3373 54.8341 30.7008C54.9058 30.7306 55.0543 30.7008 55.1379 30.7008ZM55.8661 31.7965C55.2495 31.8642 55.0692 32.0953 54.8351 31.5534C54.8351 31.5534 55.127 31.3731 55.1389 31.3711C55.5772 31.2506 55.7515 31.5704 55.8661 31.7965ZM56.8363 30.2246C56.649 30.5782 55.124 30.8621 55.8651 29.8003C55.9846 29.628 56.0792 29.4168 56.2904 29.375C57.0136 29.2246 57.0654 29.7863 56.8363 30.2246ZM57.0186 30.2844C57.7308 30.2844 57.8503 30.3153 57.7467 30.7087C56.903 30.7705 57.1341 30.3491 57.0186 30.2844ZM58.5964 29.8601C57.8244 30.122 56.2008 29.356 57.9897 29.0721C58.6113 28.9725 58.9032 29.7535 58.5964 29.8601ZM59.0207 30.9558C59.0307 30.9259 58.9759 31.2616 58.9599 31.3193C58.0794 31.4907 57.8254 31.3084 58.1113 30.7735C58.2258 30.5573 58.3653 30.3242 58.5974 30.2884C59.195 30.1888 59.0476 30.6051 59.0207 30.9558ZM59.9919 29.4995C59.2717 29.7365 59.0227 29.3311 58.7777 29.1359C58.8633 29.0811 59.1761 29.0263 59.3843 28.8938C59.4978 28.8191 59.5088 28.6239 59.6831 28.59C60.5905 28.4058 60.1582 29.4427 59.9879 29.4995H59.9919ZM60.9023 30.1061C62.1494 30.643 59.7488 31.5166 60.2349 29.863C60.4643 29.9236 60.6877 30.005 60.9023 30.1061ZM60.5985 28.9536C61.4611 28.7355 61.2868 29.6957 60.8416 29.8033C60.3505 29.9188 60.0596 29.0881 60.5985 28.9536ZM61.4482 28.7713H60.5378C60.3694 28.4297 60.6374 27.842 61.2051 27.8609C61.6474 27.8748 61.5119 28.4725 61.4482 28.7713ZM62.0548 29.867C61.5787 29.7455 61.5617 29.877 61.4482 29.5682C61.4053 29.4507 61.4053 29.2196 61.4482 29.3262C61.4482 29.3262 61.3486 28.9964 61.4482 28.9616C62.5439 28.5631 62.2859 29.4885 62.0548 29.872V29.867ZM62.2371 27.9864C62.77 28.0282 62.9344 27.9864 63.1475 28.35C63.4463 28.8809 61.8137 29.2654 62.2371 27.9864ZM63.1465 29.8063C62.3845 29.9537 62.3825 29.0094 62.5399 28.9566C63.291 28.7066 63.5639 29.7226 63.1465 29.8063ZM63.5719 28.593C64.057 28.6189 64.0838 28.6369 64.3 28.7753C64.4345 28.861 64.798 29.0353 64.7243 29.0184C65.307 29.1349 63.1455 30.4448 63.5719 28.593ZM66.2414 29.8063C64.1924 30.3292 65.2144 28.9646 65.331 28.9566C65.8151 28.9227 67.1329 29.5772 66.2414 29.8063ZM66.4844 30.7167C65.8738 30.895 65.6876 30.2764 66.1209 30.1708C66.7434 30.0135 66.7763 30.629 66.4844 30.7167ZM68.0612 29.9278C68.0612 29.9278 68.0314 30.3362 68.0005 30.4737C67.1279 30.5225 66.3261 30.0374 66.9048 29.2594C67.4925 29.4138 67.8013 29.4646 68.0573 29.9278H68.0612ZM68.8502 31.8084C68.3402 31.7875 67.4247 31.4847 68.2435 31.3233C68.7515 31.2237 68.7854 31.4747 68.8502 31.8084ZM69.0324 31.0803C69.0324 31.0803 68.6898 31.154 68.6071 31.0195C68.5792 30.9727 68.5673 30.642 68.5463 30.5952C69.2297 30.8791 69.0324 31.0803 69.0324 31.0803ZM88.8149 51.3329L88.8358 51.3C87.765 52.7134 86.8107 54.2305 84.4221 54.2305C84.1083 54.2305 83.5007 53.9665 83.3533 53.8191C83.181 53.6468 83.0973 53.1856 83.0973 52.7553V49.519C83.0973 49.2929 83.1371 49.1385 83.2158 49.0598C83.2945 48.9811 83.4379 48.9482 83.7139 48.9482C86.0387 48.9482 85.9491 49.6455 86.1284 50.1505C86.228 50.4384 86.3575 50.796 86.8466 50.796H86.8615H86.8765C87.4681 50.7282 87.4681 50.1714 87.4681 49.9632C87.4681 49.5349 87.4452 49.0976 87.4243 48.6753C87.4034 48.2529 87.3805 47.8276 87.3805 47.4122C87.3805 47.1512 87.3805 46.8803 87.4014 46.6293C87.4014 46.3982 87.4014 46.0804 87.1962 45.8753C87.1414 45.8217 87.0764 45.7799 87.005 45.7521C86.9336 45.7244 86.8574 45.7114 86.7808 45.7139C86.3505 45.7139 86.216 46.1303 86.1513 46.3305C85.8425 47.3375 85.0925 47.4212 83.9101 47.4212H83.4957C83.2606 47.4212 83.1829 47.3794 83.1571 47.3535C83.1311 47.3276 83.0973 47.212 83.0973 47.0546V43.8343C83.0962 43.785 83.0925 43.7358 83.0863 43.6868C83.0796 43.636 83.0759 43.5847 83.0754 43.5334C83.072 43.4963 83.0766 43.4589 83.0888 43.4237C83.101 43.3885 83.1205 43.3563 83.1461 43.3292C83.2298 43.2446 83.4867 43.1021 84.2537 43.1021H84.3125C85.9162 43.1021 86.9253 43.5862 87.4353 44.9688L87.4452 45.0017C87.508 45.2009 87.6395 45.6163 88.1056 45.6163H88.1226H88.1395C88.5071 45.5675 88.7262 45.2417 88.7262 44.7437C88.7172 44.2438 88.6786 43.7449 88.6107 43.2496C88.5678 42.9806 88.527 42.7276 88.5111 42.4716C88.4951 42.2525 88.4483 41.5871 87.7729 41.5542C87.3596 41.5542 86.9571 41.5901 86.5667 41.6259C86.2509 41.6548 85.9242 41.6847 85.6074 41.6937L84.7996 41.7245C83.935 41.7584 83.3055 41.7943 82.4319 41.7943C81.7077 41.7943 80.9646 41.7305 80.2405 41.6697C79.5432 41.61 78.8758 41.5532 78.2483 41.5532C77.7214 41.5532 77.3678 41.8241 77.3678 42.2266C77.3678 42.7176 77.8429 42.7595 78.1278 42.7844C78.5521 42.8212 78.842 42.874 79.0243 43.2416C79.2065 43.6091 79.2324 44.0703 79.2324 44.5176V52.8539C79.2324 54.0213 78.7693 54.1488 78.3619 54.2594C78.1298 54.3221 77.7801 54.4168 77.7801 54.8022C77.7787 54.8832 77.7936 54.9637 77.8239 55.0388C77.8542 55.1139 77.8993 55.1822 77.9564 55.2395C78.1557 55.4388 78.4475 55.4766 78.6607 55.4766C79.1498 55.4766 79.6408 55.4298 80.115 55.385C80.5891 55.3401 81.0563 55.2953 81.5215 55.2953C82.3781 55.2953 83.2367 55.365 84.0675 55.4328C84.8514 55.4965 85.5925 55.5563 86.2898 55.5563C87.3456 55.5563 88.3427 55.5563 89.0699 54.615C89.6675 53.8769 89.9385 52.3857 89.9385 51.5331C89.9407 51.4597 89.9281 51.3866 89.9016 51.3182C89.8751 51.2498 89.8351 51.1873 89.7841 51.1346C89.7311 51.0838 89.6687 51.044 89.6003 51.0175C89.5319 50.991 89.4589 50.9784 89.3856 50.9802C89.2678 50.9832 89.1529 51.0176 89.0528 51.0798C88.9526 51.1419 88.8709 51.2296 88.8159 51.3339L88.8149 51.3329ZM91.8828 66.7444L91.9047 66.7115C90.8339 68.125 89.8787 69.6391 87.4901 69.6391C87.1773 69.6391 86.5697 69.3751 86.4222 69.2277C86.2499 69.0563 86.1662 68.5942 86.1662 68.1638V64.9305C86.1662 64.7044 86.2061 64.55 86.2868 64.4713C86.3675 64.3926 86.5089 64.3598 86.7848 64.3598C89.1097 64.3598 89.0191 65.057 89.1993 65.5621C89.299 65.8489 89.4285 66.2075 89.9165 66.2075H89.9315H89.9464C90.5381 66.1398 90.5381 65.584 90.5381 65.3738C90.5381 64.9455 90.5152 64.5092 90.4943 64.0848C90.4734 63.6605 90.4514 63.2392 90.4514 62.8228C90.4514 62.5608 90.4514 62.2909 90.4724 62.0399C90.4724 61.8098 90.4724 61.492 90.2731 61.2858C90.2183 61.2327 90.1534 61.191 90.0823 61.1633C90.0111 61.1356 89.9351 61.1224 89.8588 61.1245C89.4275 61.1245 89.293 61.5408 89.2282 61.741C88.9194 62.7491 88.1694 62.8367 86.986 62.8367H86.5746C86.3396 62.8367 86.2619 62.7949 86.236 62.769C86.2101 62.7431 86.1762 62.6276 86.1762 62.4702V59.2458C86.1756 59.1965 86.1719 59.1473 86.1652 59.0984C86.159 59.0475 86.1553 58.9963 86.1543 58.945C86.1515 58.9087 86.1563 58.8722 86.1685 58.8379C86.1807 58.8036 86.1999 58.7722 86.225 58.7458C86.3097 58.6611 86.5657 58.5187 87.3327 58.5187H87.3934C88.9961 58.5187 90.0062 59.0028 90.5162 60.3854C90.5189 60.3965 90.5222 60.4075 90.5261 60.4182C90.5889 60.6174 90.7194 61.0328 91.1866 61.0328H91.2035H91.2194C91.588 60.984 91.8071 60.6583 91.8071 60.1592C91.7977 59.6593 91.7588 59.1604 91.6906 58.6651C91.6478 58.3962 91.6069 58.1421 91.591 57.8871C91.576 57.668 91.5272 57.0026 90.8529 56.9697C90.4385 56.9697 90.0361 57.0066 89.6466 57.0425C89.3308 57.0723 89.0041 57.1022 88.6864 57.1102L87.8785 57.1411C87.0139 57.1749 86.3844 57.2108 85.5108 57.2108C84.7867 57.2108 84.0436 57.148 83.3194 57.0853C82.6221 57.0255 81.9558 56.9688 81.3272 56.9688C80.8003 56.9688 80.4457 57.2397 80.4457 57.6431C80.4457 58.1342 80.9218 58.175 81.2057 58.2009C81.63 58.2378 81.9209 58.2906 82.0962 58.6571C82.2715 59.0237 82.3104 59.4869 82.3104 59.9331V68.2655C82.3104 69.4319 81.8472 69.5604 81.4388 69.6699C81.2077 69.7327 80.8581 69.8293 80.8581 70.2148C80.8568 70.2958 80.8717 70.3762 80.902 70.4513C80.9323 70.5264 80.9773 70.5947 81.0344 70.6521C81.2336 70.8513 81.5254 70.8892 81.7396 70.8892C82.2287 70.8892 82.7198 70.8423 83.1939 70.7975C83.668 70.7527 84.1362 70.7079 84.6004 70.7079C85.457 70.7079 86.3157 70.7776 87.1464 70.8453C87.9303 70.9091 88.6704 70.9688 89.3687 70.9688C90.4255 70.9688 91.4216 70.9688 92.1478 70.0265C92.7454 69.2894 93.0174 67.7973 93.0174 66.9456C93.021 66.8718 93.009 66.798 92.9823 66.7291C92.9556 66.6601 92.9148 66.5975 92.8624 66.5453C92.81 66.4931 92.7473 66.4525 92.6783 66.4261C92.6092 66.3996 92.5354 66.388 92.4616 66.3918C92.3439 66.3945 92.2291 66.4286 92.1291 66.4906C92.0291 66.5526 91.9475 66.6402 91.8928 66.7444H91.8828ZM70.0963 84.0286C70.1965 83.9178 70.2875 83.7988 70.3682 83.673C70.1022 83.5943 69.1968 83.3832 68.9119 83.1879C68.8322 83.1321 68.887 82.9618 68.7296 82.8234C69.5962 82.4558 70.2596 82.1988 70.9141 81.6709C71.5685 82.0902 72.209 82.654 73.0377 82.8841C73.8665 83.1142 75.1983 82.7845 75.9503 82.6411C78.6507 82.1311 80.9109 81.3711 83.4748 81.124C84.9948 80.9756 87.3805 80.3341 89.0529 81.124C89.0748 81.134 89.0888 81.3511 89.1137 81.3671C89.3129 81.4916 89.4753 81.4139 89.6595 81.5494C90.6307 82.2586 89.8817 82.92 91.6617 82.2775C91.586 82.4707 91.2105 82.8254 91.1756 82.9449C91.1089 83.168 91.3579 83.6123 91.3579 83.6123C91.3805 83.7495 91.3885 83.8887 91.3818 84.0276C91.3559 84.5695 91.1198 85.0397 90.9335 85.3704C91.83 85.2379 92.6797 84.7727 93.0502 84.0276C93.3082 83.5127 93.3371 82.8622 92.9965 82.0942L92.5801 81.6699C92.5422 81.6051 92.6319 81.4129 92.5801 81.3661C92.0014 80.8232 91.0272 80.1797 90.3349 79.5452C90.4494 79.5512 90.7592 79.606 90.7592 79.606C91.5554 79.7508 92.3302 79.9955 93.0652 80.3341C93.7943 80.6708 95.2078 81.2306 95.4309 82.0335C95.6032 82.659 95.0175 82.667 95.1271 83.1869C95.1899 83.4858 95.5385 83.7358 95.671 84.0276C95.7706 84.2378 95.7487 84.4709 95.4309 84.7638C94.9876 85.1702 94.4537 84.8086 93.9746 84.7638C93.7963 85.9641 94.9946 86.6484 96.2198 86.5229C97.7269 86.3675 97.9789 85.0646 98.4112 84.0326C98.4783 83.8683 98.5561 83.7085 98.6443 83.5545C98.9501 83.0296 99.2101 82.9668 99.6155 82.5833C99.8675 82.3403 100.512 80.87 100.586 80.3989C100.627 80.0564 100.647 79.7118 100.646 79.3669C100.667 79.3311 100.876 79.079 100.829 79.1846C100.873 79.1097 100.936 79.047 101.011 79.0023C101.326 78.7742 101.569 78.4176 102.042 78.2134C102.666 77.9435 103.208 78.2194 103.498 78.6388C103.939 79.2763 103.908 79.9964 103.797 80.9447C104.123 80.9069 104.295 80.9547 104.525 80.8232C104.739 80.7007 104.743 80.5294 104.889 80.3371C105.481 79.5542 105.785 78.2732 105.495 77.1825C105.429 76.9384 105.029 76.5968 105.01 76.3338C105.005 76.2571 105.18 75.8985 105.193 75.7879C105.32 74.6783 105.117 73.9372 104.586 73.482C104.565 73.4651 104.547 73.2469 104.525 73.2389C103.529 72.8086 102.468 73.9691 102.28 74.5737C103.537 74.9154 102.632 76.5559 101.066 75.6694C99.6633 74.8725 100.813 73.8207 100.278 72.3325C100.199 72.1183 100.028 72.0825 99.9133 71.8464C99.3466 72.4022 98.7409 73.0905 98.0327 73.485C94.908 75.2152 88.8686 75.4772 84.2597 74.759C83.0913 74.5757 81.1479 74.6853 80.4975 74.5767C79.6916 74.4412 78.5053 74.6016 77.8887 74.6972C76.9823 74.8377 76.1575 74.6195 75.2799 74.758C74.1942 74.9273 73.0836 75.3148 71.8823 75.3646C71.6542 74.4552 70.2885 72.6911 68.4846 73.6663C68.4457 73.6852 68.2854 73.734 68.2854 73.734C68.135 73.7838 68.385 73.8685 68.2993 73.9083C68.9836 74.5817 69.2954 75.1694 69.0265 75.9105C68.6938 76.8299 67.2494 77.3588 65.6288 77.4873L64.8399 77.548C63.0569 77.6198 60.8764 77.8997 59.0147 77.6088C58.5735 77.5391 57.8513 77.5202 57.2556 77.4265C56.7954 77.3548 55.5433 76.8498 55.2535 76.5171C54.5313 75.6854 55.5184 74.2579 55.9816 73.9671C55.8222 73.8844 55.3461 73.5975 55.0712 73.5428C53.4486 73.2111 52.6108 74.6853 52.4017 75.6664C49.6953 75.2979 46.3414 74.745 43.1181 74.999C36.1016 75.5469 28.2075 76.4593 24.013 72.5646C23.2868 74.0518 24.3776 75.2949 22.7997 76.2053C22.5945 76.3228 22.3635 76.5749 22.0108 76.5699C21.0078 76.549 21.2199 75.3985 21.7678 75.0528C21.4112 74.5548 20.6243 73.3784 19.5834 73.8396C18.388 74.3685 19.2556 76.0848 19.0375 77.1167C19.0096 77.2472 18.7686 77.3877 18.7387 77.4803C18.4518 78.2124 18.6261 79.0332 18.7387 79.7255C18.898 80.7326 19.3114 81.2973 20.2547 81.5464C20.2547 81.5324 20.4011 81.2595 20.3762 81.0613C20.2846 80.3271 20.3005 79.7663 20.6751 79.2404C21.5377 78.0262 22.5507 79.0641 23.1016 79.604C23.1135 79.6159 23.4522 79.7126 23.5269 79.847C23.6554 80.0821 23.5269 80.3451 23.5877 80.7565C23.6653 81.2645 24.006 82.2506 24.1943 82.5773C24.2052 82.5982 24.4204 82.6132 24.4373 82.6381C24.6156 82.921 24.7421 83.3971 25.1047 83.5485C25.1615 83.5714 25.2979 83.5067 25.3468 83.5485C25.4952 83.6795 25.6117 83.8427 25.6874 84.0256C25.9086 84.5237 25.9444 85.1662 26.1357 85.6114C26.2283 85.8296 26.556 86.3645 26.7423 86.5209C27.4595 87.1315 29.7644 87.1474 30.2007 86.2788C30.3292 86.0168 30.2196 85.5546 30.2007 85.3076C29.7933 85.3674 29.4766 85.6174 28.9875 85.4899C28.2613 85.2997 28.5781 84.5566 28.8819 84.0276C29.0014 83.8175 29.119 83.6432 29.1688 83.5495C28.8052 83.0674 28.7893 82.5146 29.1688 82.0325C29.618 81.4557 30.7894 80.9447 31.4747 80.6379C32.1003 80.355 33.0884 80.0134 33.7189 79.9098C33.8086 79.8919 34.1363 80.0034 34.0227 80.0303C33.6811 80.106 33.2039 80.6021 32.9918 80.7575C31.8512 81.5862 30.8303 82.8781 31.0414 84.0266H32.9848C32.9848 83.9709 32.9848 83.9131 32.9918 83.8543C33.0147 83.4121 32.8593 83.1132 32.6272 82.9449C32.5475 82.8861 32.688 82.7626 32.688 82.7626C33.1372 82.8981 33.8126 83.1092 34.1443 82.6411C34.9103 81.5513 35.8804 81.1549 37.6635 81.0643C38.6795 81.0105 40.5173 81.2117 41.4257 81.4288L42.0532 81.5653C42.4836 81.6529 42.5144 81.6549 42.9428 81.7316C44.7357 82.0434 46.9889 82.7785 48.7071 83.0674C49.6036 83.2178 51.1476 83.0903 51.6197 82.8861C51.9574 82.7377 52.9943 81.636 53.2573 81.6729C53.5203 81.7097 53.6179 82.1012 53.9257 82.2795C54.3052 82.4986 55.0323 82.7397 55.5633 82.8861C55.1349 83.5376 54.7365 83.7368 53.9257 83.7955C54.0104 83.8687 54.0902 83.9472 54.1647 84.0306C54.3689 84.2428 54.6439 84.5287 54.7734 84.5844C55.9099 85.0885 58.1959 85.211 59.9311 84.5844C60.6802 85.9043 61.2828 85.6303 61.8118 87.497L61.9572 87.7959L62.1156 87.9164C62.7839 87.3994 62.6634 86.5836 63.0858 86.0955C63.4304 85.6971 63.9822 85.3256 64.3598 84.6392C66.3002 84.7916 68.7824 85.46 70.0943 84.0266L70.0963 84.0286ZM96.3912 84.1571C96.4029 84.1103 96.4239 84.0663 96.4529 84.0276C96.5393 83.9133 96.6197 83.7946 96.694 83.672C96.8264 83.7585 96.9304 83.8822 96.9928 84.0276C97.1442 84.4749 96.3214 84.6651 96.3951 84.1571H96.3912ZM96.3912 82.6401C96.4151 82.6849 96.5754 82.7247 96.6342 82.7616C96.429 83.2915 96.435 83.2597 96.3912 82.6401ZM95.7845 80.3331C96.0345 80.4168 96.2617 80.3999 96.5127 80.5154C97.0655 80.7714 98.4162 82.3413 97.6652 83.0634C97.6373 82.9519 97.4829 82.5176 97.4829 82.5176C97.3673 81.0523 96.9908 81.6091 96.2089 81.0623C96.0465 80.9467 95.8891 80.5054 95.7845 80.3331ZM96.8802 79.9705C96.5695 79.8201 96.3095 79.5592 96.0306 79.4237C96.3356 79.4482 96.6392 79.4887 96.94 79.5452C96.9719 79.8769 96.8802 79.9705 96.8802 79.9705ZM90.813 78.3917C92.1309 78.3917 93.2156 78.3917 94.393 78.2094C95.411 78.0501 96.6133 77.811 97.7299 77.7253C98.5457 77.6606 99.1354 78.1059 99.8536 78.332C99.8536 78.332 99.6394 78.5013 99.732 78.5143C96.9131 78.5143 93.2574 78.7135 90.813 78.3917ZM72.6712 77.296C73.4073 76.3876 74.6414 76.0011 76.0688 75.78C76.7283 75.6804 77.6626 75.8268 78.1318 75.9005C79.0003 76.035 79.7743 75.8288 80.622 75.9613C82.0325 76.1814 83.7278 76.4733 85.1114 76.6894C86.1583 76.8518 87.004 77.0211 88.024 77.1138C88.3427 77.1416 88.7979 77.3658 89.0559 77.4126C90.0171 77.5988 88.9991 77.5122 88.5101 77.5949C88.0001 77.6716 86.9223 77.813 86.3864 77.8937C84.2508 78.2254 81.1549 77.8937 78.9227 77.8937C78.1088 77.8937 77.0301 77.7881 76.4952 78.076C76.533 78.3639 76.5051 78.5929 76.6775 78.6218C76.9145 78.6587 77.0699 78.5123 77.4056 78.5003C79.0262 78.4435 80.9617 78.2503 82.5634 78.5003C83.932 78.7125 85.9272 78.9246 87.2958 78.9246C85.7021 79.4735 83.8583 79.5084 82.139 79.8968C80.4457 80.2754 78.9515 80.8013 76.9813 81.1101C76.2073 81.2296 74.9891 81.647 73.9472 81.3531C72.8794 81.0543 72.5586 80.2853 72.3086 79.7146C72.0377 79.099 72.1482 77.9325 72.6732 77.2881L72.6712 77.296ZM68.8482 79.602C70.4738 79.1169 69.8034 80.3521 69.3343 80.4517C68.4936 80.628 68.2435 79.7803 68.8482 79.602ZM68.4228 78.2075C68.8571 78.5153 68.9099 78.7374 68.4846 78.9964C68.4846 78.9964 68.4288 78.8968 68.3939 78.9077C68.0274 78.6089 68.2774 78.4276 68.4228 78.2104V78.2075ZM66.0571 78.5063C66.1549 78.5346 66.2548 78.5549 66.3559 78.5671C66.3559 79.3878 66.1318 80.0154 65.9316 79.1737C65.8429 79.1537 65.9436 78.7185 66.0531 78.5063H66.0571ZM63.7512 79.4775C63.9504 79.3779 63.5848 79.1787 63.8727 79.1727C63.78 79.1239 63.7282 78.7822 63.8727 78.6876C64.4155 79.1946 64.2233 80.617 63.7512 79.4775ZM62.1136 78.9336C62.3516 79.4227 62.3317 79.2105 62.2949 79.601C62.1873 80.7186 61.5299 79.5014 62.1136 78.9336ZM60.1961 78.6936C60.3405 78.7932 60.2887 79.1298 60.1961 79.1787C60.484 79.1846 60.1124 79.3779 60.3176 79.4835C59.8455 80.623 59.6532 79.2006 60.1961 78.6936ZM58.1153 78.5163C58.3543 79.0063 58.3334 78.7932 58.2975 79.1836C58.189 80.3022 57.5315 79.084 58.1153 78.5163ZM55.8711 79.2444C55.7232 79.1528 55.5987 79.0279 55.5075 78.8798L55.6848 78.336C56.152 78.6139 56.0892 78.7145 55.8661 79.2474L55.8711 79.2444ZM54.349 79.7305C56.5942 79.7305 55.7196 80.9109 54.7734 80.4586C54.4795 80.3162 54.4327 79.8102 54.349 79.7305ZM47.7957 78.6348C47.72 78.4356 47.72 78.3539 47.6742 78.2094C43.7307 77.7612 38.6167 78.8719 34.9322 77.9106C35.0607 77.8957 35.5707 77.7841 35.8426 77.7293C37.536 77.3787 39.5281 76.8528 41.3032 76.5769C43.0623 76.3009 44.7527 76.3557 46.461 76.0908C48.8257 75.7212 51.028 76.5838 51.8608 77.9714C52.2512 78.6218 52.2951 79.3659 51.9215 80.2166C50.5619 83.2826 44.5933 80.7266 41.9098 80.2166C40.2164 79.8919 38.3298 79.8869 36.8736 79.3052C37.786 79.3052 38.6237 79.1169 39.3638 79.0063C40.1716 78.8798 40.9057 79.0731 41.7305 78.9456C43.5304 78.6627 46.1761 79.084 47.7987 78.6467L47.7957 78.6348ZM27.6517 83.2487C27.7124 83.2522 27.7733 83.2522 27.834 83.2487C27.8196 83.3698 27.8196 83.4922 27.834 83.6133C27.8619 83.6282 27.2095 83.4061 27.6517 83.2487ZM26.317 83.5475C26.317 82.153 26.9375 81.4488 27.9555 81.0573L28.2544 80.8142C28.5771 80.7764 28.2544 81.0573 28.2544 81.0573C28.1956 81.1888 28.1767 81.1689 28.1328 81.2396C27.8539 81.6639 27.0023 81.8711 26.9196 82.0275C26.5311 82.7506 27.1547 83.2885 26.313 83.5455L26.317 83.5475ZM27.4127 80.5134C26.8648 80.102 27.4276 79.9456 27.837 79.9068C28.6797 79.8201 27.576 80.4317 27.4127 80.5134ZM24.1973 78.9964C24.6465 78.8151 25.284 78.3061 25.7143 78.2075C25.9494 78.1507 26.2124 78.322 26.2602 78.329C27.4714 78.5173 28.5183 78.5282 29.9009 78.6278C30.9876 78.7075 32.165 78.7812 33.2986 78.8709C30.7844 79.4346 27.1567 78.9914 24.1973 78.9914V78.9964ZM49.0129 78.8141C48.5806 79.1727 48.0746 79.611 47.3754 79.7235C46.0705 79.9407 44.3871 79.7175 43.4318 79.4197C43.4318 79.4197 43.6779 79.5641 43.7307 79.602C43.9299 79.7305 44.1022 79.8879 44.398 79.9666C44.1819 79.8241 45.0764 80.1728 45.429 80.3291C46.7737 80.9268 49.1145 81.395 50.526 80.5722C51.0051 80.2903 51.1615 79.8749 51.3149 79.4187C51.9614 77.5102 48.7251 76.2163 45.7368 76.6894C45.5695 76.7143 43.7854 76.9235 43.3243 76.9763C43.3342 76.9763 44.2207 77.0938 44.2207 77.1138C46.4978 77.1138 48.3466 77.1456 48.8934 78.6906C48.9084 78.6358 49.0139 78.8141 49.0139 78.8141H49.0129ZM73.7649 80.4576C74.6046 80.8401 75.9244 80.8033 76.9813 80.6399C77.9774 80.4825 79.1428 80.0901 79.9546 79.9118C80.4527 79.7992 80.861 79.4924 81.1071 79.3042C79.4576 79.7365 75.5728 80.0363 75.4642 78.7593C75.4284 78.334 75.5947 78.1836 76.0101 77.9096C76.7073 77.4435 77.8329 77.045 78.7991 76.8777C79.2145 76.804 79.5223 76.8169 79.9526 76.8169C79.9526 76.8169 79.9984 76.6326 80.0134 76.5749C78.9177 76.528 77.8728 76.2193 76.7362 76.3926C75.5997 76.5659 74.3854 76.7303 73.6424 77.302C72.5327 78.1517 72.7837 80.0104 73.7629 80.4576H73.7649ZM22.7978 80.6399C23.3456 80.4507 23.1404 79.3809 22.3127 79.5442C21.6562 79.6757 21.8684 80.9537 22.7978 80.6399ZM23.2221 82.2785C23.8197 82.1032 23.6205 80.8312 22.736 81.125C22.1702 81.3103 22.3535 82.5315 23.2221 82.2785ZM23.8287 83.673C24.0449 83.2686 24.1345 82.4777 23.3436 82.5773C22.6782 82.664 22.6324 83.673 23.8287 83.673ZM24.013 84.0286H25.1226C25.1226 83.7298 24.9523 83.5037 24.3756 83.673C24.2877 83.6916 24.207 83.7349 24.1428 83.7977C24.0785 83.8604 24.0335 83.9402 24.013 84.0276V84.0286ZM24.013 84.0286C23.9472 84.3534 24.257 84.7647 24.9214 84.7647C25.0412 84.5374 25.1092 84.2864 25.1206 84.0296L24.013 84.0286ZM32.9838 84.0286H31.0404C31.1759 84.7717 31.8273 85.454 33.2936 85.9212C33.0944 85.2877 32.9619 84.8255 32.9838 84.0286ZM99.1663 84.0286C99.2164 84.1159 99.2914 84.1863 99.3817 84.2309C99.472 84.2754 99.5735 84.292 99.6733 84.2786C99.7513 84.2704 99.8261 84.2433 99.8913 84.1997C99.9565 84.1562 100.01 84.0975 100.048 84.0286C100.283 83.6302 100.117 82.917 99.4292 83.0664C99.0467 83.1471 98.9621 83.6959 99.1653 84.0286H99.1663ZM100.947 83.1879C101.488 83.0345 101.469 81.9627 100.705 81.9747C99.8625 81.9837 100.108 83.423 100.947 83.1879ZM101.494 81.6719C101.998 81.4816 101.836 80.2694 100.947 80.5184C100.384 80.6738 100.575 82.0125 101.494 81.6719ZM101.793 80.1538C102.426 80.0134 102.391 78.7095 101.429 78.9406C100.806 79.089 101.064 80.3142 101.793 80.1538Z" fill="url(#paint0_linear_1201_14495)"/>
<path d="M24.5654 97.3601C23.0955 96.6778 22.5075 96.0931 22.5075 95.2159C22.4956 95.0034 22.5272 94.7907 22.6005 94.5908C22.6738 94.3908 22.7872 94.2078 22.9339 94.0528C23.0806 93.8978 23.2574 93.7741 23.4536 93.6892C23.6499 93.6044 23.8615 93.5601 24.0755 93.5591C25.4474 93.5591 26.0354 94.8261 26.4274 95.8007L27.0154 95.7032C26.9174 94.6312 26.8194 93.9489 26.7214 93.3642C26.002 93.0801 25.2405 92.9154 24.4675 92.8769C22.1155 92.8769 20.6456 94.3388 20.6456 96.1905C20.6456 97.7499 21.8215 98.7245 23.4875 99.6017C24.7614 100.284 25.4474 100.869 25.4474 101.843C25.4668 102.07 25.4378 102.299 25.3623 102.514C25.2868 102.729 25.1665 102.926 25.0092 103.091C24.8519 103.257 24.6613 103.388 24.4497 103.475C24.2381 103.562 24.0104 103.604 23.7815 103.598C22.2135 103.598 21.2336 101.746 20.8416 100.674L20.2536 100.869C20.3176 101.825 20.4818 102.772 20.7436 103.695C20.9396 103.792 21.3316 103.89 21.7235 104.085C22.2712 104.203 22.8291 104.269 23.3895 104.28C25.8394 104.28 27.4073 102.818 27.4073 100.869C27.4073 98.9194 26.5254 98.3347 24.5654 97.3601Z" fill="url(#paint1_linear_1201_14495)"/>
<path d="M70.3297 93.4617C70.3297 93.3642 70.2317 93.2668 70.0357 93.1693H61.314C61.216 93.1693 60.922 93.0718 60.824 93.1693C60.726 93.2668 60.628 93.3642 60.53 93.4617C60.432 94.0464 60.334 94.8261 60.236 95.8007V95.8982L60.824 95.9957H60.922C61.1536 95.4224 61.4854 94.8945 61.902 94.4363C61.928 94.4363 61.9529 94.426 61.9713 94.4077C61.9897 94.3895 62 94.3647 62 94.3388C62.098 94.3388 62.196 94.2414 62.294 94.2414H64.1559C64.3519 94.2414 64.3519 94.2414 64.4499 94.3388V102.331C64.4755 102.499 64.4408 102.672 64.3519 102.818C64.2539 103.305 63.8619 103.403 63.0779 103.5V104.085H68.0758V103.5C67.4878 103.403 67.1938 103.403 66.9978 103.208C66.8593 103.045 66.7891 102.836 66.8018 102.623C66.8018 102.428 66.7038 94.5337 66.7038 94.5337C66.7038 94.5337 66.7038 94.3388 66.8018 94.3388C66.8998 94.3388 66.9978 94.2414 67.1938 94.2414H68.9577C69.0557 94.2414 69.1537 94.2414 69.1537 94.3388C69.1797 94.3388 69.2046 94.3491 69.223 94.3674C69.2414 94.3856 69.2517 94.4104 69.2517 94.4363C69.6892 94.8785 70.0237 95.4108 70.2317 95.9957H70.3297L70.9177 95.8982V95.8007C70.7809 95.0075 70.5843 94.2256 70.3297 93.4617Z" fill="url(#paint2_linear_1201_14495)"/>
<path d="M60.2362 103.403C59.8073 103.248 59.4558 102.933 59.2562 102.525C58.5702 101.356 57.0023 98.7245 57.0023 98.627C57.6272 98.4465 58.177 98.0705 58.5702 97.5549C58.8792 97.092 59.0492 96.5511 59.0602 95.9955C59.0743 95.615 58.992 95.237 58.8207 94.8964C58.6495 94.5558 58.3948 94.2634 58.0803 94.0463C57.735 93.7398 57.332 93.5044 56.8947 93.3538C56.4573 93.2033 55.9943 93.1405 55.5324 93.1692C55.0424 93.1692 50.5345 93.1692 50.1425 93.2666V93.8514C51.3185 93.9489 51.5145 94.0463 51.5145 95.5082V101.843C51.5145 103.208 51.4165 103.403 50.1425 103.5V104.085H55.1404V103.5C53.9644 103.403 53.7684 103.305 53.7684 101.843V98.9194H54.2584C54.5021 98.9101 54.7424 98.9784 54.9444 99.1143C55.0424 99.2118 57.3943 104.085 57.3943 104.085H60.7262V103.5C60.5611 103.477 60.3974 103.445 60.2362 103.403ZM56.0223 97.6524C55.5015 97.9974 54.8835 98.1681 54.2584 98.1397H53.7684V95.4108C53.7684 94.5336 53.8664 94.1438 54.1604 93.9489H54.2584C54.6207 93.9171 54.9858 93.9501 55.3364 94.0463C55.6303 94.1499 55.8979 94.3162 56.1203 94.5336C56.2361 94.7531 56.3343 94.9812 56.4143 95.2159C56.4954 95.5341 56.5284 95.8626 56.5123 96.1905C56.5542 96.4554 56.5315 96.7264 56.4463 96.9807C56.361 97.2351 56.2156 97.4654 56.0223 97.6524Z" fill="url(#paint3_linear_1201_14495)"/>
<path d="M44.1647 92.9744C43.4043 92.9392 42.6448 93.0605 41.9338 93.3309C41.2228 93.6012 40.5757 94.0147 40.0328 94.5453C39.49 95.076 39.0633 95.7125 38.7794 96.4149C38.4954 97.1173 38.3605 97.8705 38.3829 98.6271C38.3474 99.3705 38.4669 100.113 38.7337 100.809C39.0006 101.504 39.4091 102.137 39.9337 102.668C40.4582 103.198 41.0874 103.616 41.7818 103.893C42.4761 104.171 43.2207 104.302 43.9687 104.28C44.7315 104.31 45.4921 104.18 46.2018 103.901C46.9114 103.621 47.5545 103.197 48.0896 102.655C48.6248 102.114 49.0403 101.467 49.3094 100.757C49.5785 100.046 49.6954 99.2877 49.6525 98.5297C49.6807 97.8009 49.5588 97.074 49.2942 96.3938C49.0297 95.7136 48.6281 95.0943 48.1142 94.574C47.6003 94.0538 46.9848 93.6435 46.3056 93.3684C45.6264 93.0933 44.8979 92.9593 44.1647 92.9744ZM44.2627 103.598C42.1067 103.598 40.9308 101.161 40.9308 98.3348C40.9308 95.5084 42.2047 93.6566 43.8707 93.6566C45.7326 93.6566 47.1046 95.7033 47.1046 99.017C47.1046 102.038 45.8306 103.598 44.2627 103.598Z" fill="url(#paint4_linear_1201_14495)"/>
<path d="M37.1091 94.9236C36.9299 94.5134 36.6623 94.1474 36.3251 93.8515C35.9914 93.575 35.5815 93.4052 35.1491 93.3642C34.6656 93.268 34.1714 93.2353 33.6792 93.2668H28.6814V93.8515C29.5633 93.949 29.8573 94.0465 29.9553 94.5338V94.6312C29.9553 94.8262 30.0533 101.843 30.0533 101.843C30.0533 103.208 29.9553 103.403 28.6814 103.5V104.085H33.6792V103.5C32.5032 103.403 32.3072 103.305 32.3072 101.843V95.1185C32.3072 94.5338 32.4052 94.2414 32.6992 94.1439H33.6792C33.9186 94.1631 34.1518 94.2293 34.3652 94.3388C34.608 94.5217 34.8086 94.7544 34.9532 95.0211C35.1643 95.4443 35.2654 95.9134 35.2471 96.3855C35.2723 96.6873 35.233 96.991 35.1316 97.2766C35.0303 97.5622 34.8693 97.8232 34.6592 98.0424C34.5149 98.1759 34.3452 98.2792 34.16 98.3462C33.9748 98.4131 33.778 98.4424 33.5812 98.4322H32.9932V99.1144C33.2216 99.3016 33.4896 99.4349 33.7772 99.5043C34.0638 99.5847 34.3618 99.6176 34.6592 99.6017C35.0601 99.6128 35.459 99.5406 35.8302 99.3895C36.2015 99.2385 36.5369 99.012 36.8151 98.7246C37.1143 98.4149 37.3469 98.0477 37.4985 97.6455C37.6502 97.2433 37.7177 96.8146 37.6971 96.3855C37.4758 95.9087 37.2795 95.4207 37.1091 94.9236Z" fill="url(#paint5_linear_1201_14495)"/>
<path d="M76.0136 97.3601C74.5437 96.6778 73.9557 96.0931 73.9557 95.2159C73.9437 95.0034 73.9754 94.7907 74.0487 94.5908C74.122 94.3908 74.2354 94.2078 74.3821 94.0528C74.5287 93.8978 74.7056 93.7741 74.9018 93.6892C75.0981 93.6044 75.3097 93.5601 75.5237 93.5591C76.8956 93.5591 77.4836 94.8261 77.8756 95.8007L78.4636 95.7032C78.3656 94.6312 78.2676 93.9489 78.1696 93.3642C77.4502 93.0801 76.6887 92.9154 75.9156 92.8769C73.5637 92.8769 72.0938 94.3388 72.0938 96.1905C72.0938 97.7499 73.2697 98.7245 74.9357 99.6017C76.2096 100.284 76.8956 100.869 76.8956 101.843C76.915 102.07 76.886 102.299 76.8105 102.514C76.735 102.729 76.6146 102.926 76.4574 103.091C76.3001 103.257 76.1095 103.388 75.8979 103.475C75.6863 103.562 75.4586 103.604 75.2297 103.598C73.6617 103.598 72.6818 101.746 72.2898 100.674L71.7018 100.869C71.7658 101.825 71.93 102.772 72.1918 103.695C72.3878 103.792 72.7798 103.89 73.1717 104.085C73.7194 104.203 74.2773 104.269 74.8377 104.28C77.2876 104.28 78.8555 102.818 78.8555 100.869C78.9535 99.2118 77.7776 98.2372 76.0136 97.3601Z" fill="url(#paint6_linear_1201_14495)"/>
<path d="M88.2629 103.695C89.3408 103.5 89.3408 103.305 89.1448 102.526C88.9488 102.038 88.7528 101.259 88.4588 100.576H85.127C84.931 101.161 84.735 101.746 84.539 102.428C84.245 103.305 84.343 103.5 85.617 103.695V104.28H81.6971V103.695C82.873 103.598 83.069 103.403 83.657 101.941L87.2829 92.9743L88.1649 92.7794C89.2428 95.8007 90.4188 98.9195 91.4967 101.843C92.0847 103.403 92.2807 103.598 93.4567 103.793V104.377H88.2629V103.695ZM86.6949 95.8982C86.1069 97.1652 85.7149 98.4322 85.225 99.6991H87.9689L86.6949 95.8982Z" fill="url(#paint7_linear_1201_14495)"/>
<path d="M103.746 101.064C103.595 102.151 103.366 103.225 103.06 104.28H93.7507L93.5547 103.988C95.8087 100.576 98.0626 97.0678 100.316 93.6566H98.0626C96.2986 93.6566 95.9067 93.8516 95.6127 94.2414C95.2961 94.7535 95.0645 95.3129 94.9267 95.8982H94.3387C94.4367 94.5338 94.5347 93.3643 94.5347 92.3896H95.0247C95.3187 92.7795 95.5147 92.7795 96.0046 92.7795H103.158L103.256 93.0719C101.002 96.483 98.8465 99.7967 96.6906 103.305C97.4051 103.399 98.1264 103.432 98.8466 103.403C100.219 103.403 101.492 103.305 101.982 102.818C102.484 102.22 102.852 101.522 103.06 100.771L103.746 101.064Z" fill="url(#paint8_linear_1201_14495)"/>
<mask id="mask0_1201_14495" style="mask-type:alpha" maskUnits="userSpaceOnUse" x="0" y="-8" width="125" height="128">
<rect y="-8" width="125" height="128" fill="url(#paint9_linear_1201_14495)"/>
</mask>
<g mask="url(#mask0_1201_14495)">
<path d="M1 112V-8H0V112C0 116.418 3.58172 120 8 120H117C121.418 120 125 116.418 125 112V-8H124V112C124 115.866 120.866 119 117 119H8C4.13401 119 1 115.866 1 112Z" fill="#444444"/>
</g>
</g>
<defs>
<linearGradient id="paint0_linear_1201_14495" x1="18.8383" y1="50.6675" x2="108.881" y2="50.6675" gradientUnits="userSpaceOnUse">
<stop stop-color="#FBB616"/>
<stop offset="0.5" stop-color="#FDF282"/>
<stop offset="1" stop-color="#FBB616"/>
</linearGradient>
<linearGradient id="paint1_linear_1201_14495" x1="20.2536" y1="92.3896" x2="103.746" y2="92.3896" gradientUnits="userSpaceOnUse">
<stop stop-color="#FDB813"/>
<stop offset="0.5" stop-color="#FFF481"/>
<stop offset="1" stop-color="#FDB813"/>
</linearGradient>
<linearGradient id="paint2_linear_1201_14495" x1="20.2536" y1="92.3896" x2="103.746" y2="92.3896" gradientUnits="userSpaceOnUse">
<stop stop-color="#FDB813"/>
<stop offset="0.5" stop-color="#FFF481"/>
<stop offset="1" stop-color="#FDB813"/>
</linearGradient>
<linearGradient id="paint3_linear_1201_14495" x1="20.2536" y1="92.3896" x2="103.746" y2="92.3896" gradientUnits="userSpaceOnUse">
<stop stop-color="#FDB813"/>
<stop offset="0.5" stop-color="#FFF481"/>
<stop offset="1" stop-color="#FDB813"/>
</linearGradient>
<linearGradient id="paint4_linear_1201_14495" x1="20.2536" y1="92.3896" x2="103.746" y2="92.3896" gradientUnits="userSpaceOnUse">
<stop stop-color="#FDB813"/>
<stop offset="0.5" stop-color="#FFF481"/>
<stop offset="1" stop-color="#FDB813"/>
</linearGradient>
<linearGradient id="paint5_linear_1201_14495" x1="20.2536" y1="92.3896" x2="103.746" y2="92.3896" gradientUnits="userSpaceOnUse">
<stop stop-color="#FDB813"/>
<stop offset="0.5" stop-color="#FFF481"/>
<stop offset="1" stop-color="#FDB813"/>
</linearGradient>
<linearGradient id="paint6_linear_1201_14495" x1="20.2536" y1="92.3896" x2="103.746" y2="92.3896" gradientUnits="userSpaceOnUse">
<stop stop-color="#FDB813"/>
<stop offset="0.5" stop-color="#FFF481"/>
<stop offset="1" stop-color="#FDB813"/>
</linearGradient>
<linearGradient id="paint7_linear_1201_14495" x1="20.2536" y1="92.3896" x2="103.746" y2="92.3896" gradientUnits="userSpaceOnUse">
<stop stop-color="#FDB813"/>
<stop offset="0.5" stop-color="#FFF481"/>
<stop offset="1" stop-color="#FDB813"/>
</linearGradient>
<linearGradient id="paint8_linear_1201_14495" x1="20.2536" y1="92.3896" x2="103.746" y2="92.3896" gradientUnits="userSpaceOnUse">
<stop stop-color="#FDB813"/>
<stop offset="0.5" stop-color="#FFF481"/>
<stop offset="1" stop-color="#FDB813"/>
</linearGradient>
<linearGradient id="paint9_linear_1201_14495" x1="62.5" y1="-8" x2="62.5" y2="120" gradientUnits="userSpaceOnUse">
<stop stop-opacity="0"/>
<stop offset="1"/>
</linearGradient>
<clipPath id="clip0_1201_14495">
<path d="M0 0H125V112C125 116.418 121.418 120 117 120H8C3.58172 120 0 116.418 0 112V0Z" fill="white"/>
</clipPath>
</defs>
</svg>
