<svg width="104" height="104" viewBox="0 0 104 104" fill="none" xmlns="http://www.w3.org/2000/svg">
<path d="M0 0H104V96C104 100.418 100.418 104 96 104H8C3.58172 104 0 100.418 0 96V0Z" fill="black"/>
<path d="M91.4294 36.1652C91.4309 36.0922 91.4176 36.0197 91.3903 35.9521C91.3629 35.8845 91.3221 35.8231 91.2704 35.7716C91.0907 35.592 90.8275 35.5578 90.6343 35.5578C90.4098 35.5626 90.186 35.5849 89.965 35.6243C89.7661 35.6597 89.5649 35.6801 89.363 35.6854C89.1223 35.6802 88.8823 35.6595 88.6443 35.6234C88.3853 35.5855 88.1243 35.5639 87.8626 35.5587C87.3873 35.5587 87.0684 35.8031 87.0684 36.1661C87.0684 36.5542 87.4386 36.6081 87.709 36.6476C88.2067 36.7204 88.8275 36.812 88.8275 38.2316V42.7965L82.2393 35.9891C82.2294 35.981 82.198 35.9513 82.198 35.9513C82.0003 35.7663 81.7757 35.5578 81.3894 35.5578C81.1773 35.5695 80.9743 35.5857 80.7775 35.6018C80.3688 35.6333 79.9465 35.6674 79.5323 35.6674C79.2493 35.6674 78.9519 35.6396 78.6644 35.6135C78.3769 35.5875 78.058 35.5578 77.7534 35.5578C77.2781 35.5578 76.9592 35.8022 76.9592 36.1652C76.9592 36.6144 77.4596 36.6458 77.6779 36.6584L77.757 36.6638C78.5656 36.6638 78.7866 37.1903 79.0058 37.9333C79.0452 38.0279 79.0686 38.1284 79.075 38.2307V45.4415C79.075 46.3112 79.0175 46.9329 78.2763 47.0282H78.305C77.9807 47.0282 77.7453 47.2303 77.7453 47.5097C77.7441 47.585 77.758 47.6597 77.7862 47.7295C77.8145 47.7993 77.8565 47.8626 77.9097 47.9158C78.102 48.1081 78.3877 48.1368 78.5386 48.1368C78.8191 48.1317 79.099 48.1098 79.3769 48.0713C79.6372 48.0352 79.8994 48.0148 80.1621 48.0102C80.4078 48.0155 80.6529 48.0359 80.8961 48.0713C81.1581 48.1092 81.4221 48.1311 81.6868 48.1368C81.808 48.1368 82.1126 48.1144 82.3157 47.9113C82.3685 47.8587 82.4102 47.7961 82.4385 47.7272C82.4667 47.6582 82.4808 47.5843 82.4801 47.5097C82.4812 47.4509 82.4704 47.3924 82.4485 47.3378C82.4266 47.2832 82.394 47.2335 82.3525 47.1917C82.1728 47.012 81.8673 47.012 81.6661 47.012C80.889 46.9877 80.588 46.5484 80.588 45.446V39.4004L89.0171 47.9042C89.1743 48.0722 89.4214 48.3336 89.7646 48.3336C89.8298 48.3348 89.8945 48.3229 89.955 48.2987C90.0155 48.2745 90.0705 48.2384 90.1168 48.1925C90.2426 48.0677 90.3055 47.8736 90.3055 47.6167V37.9225C90.3055 37.1993 90.407 36.7357 90.9119 36.6647C91.2381 36.6315 91.4393 36.4455 91.4393 36.1679L91.4294 36.1652ZM24.4114 25.7729C24.9504 25.6274 24.7878 24.4648 23.9738 24.7325C23.4572 24.9024 23.6675 25.9697 24.4114 25.7729ZM25.2325 26.8672C25.7527 26.7316 25.6153 25.7604 25.0133 25.7729C24.2254 25.7855 24.4051 27.0793 25.2325 26.8672ZM24.6306 27.1961C24.0421 27.2967 24.2802 28.2957 24.8498 28.2904C25.5057 28.2814 25.3952 27.0622 24.6306 27.1961ZM78.9205 25.2249C79.1737 25.2638 79.4297 25.2821 79.6859 25.2797C79.8881 24.8664 80.0453 24.1117 79.1945 24.2914C78.7839 24.3813 78.8791 24.9104 78.9205 25.2213V25.2249ZM78.8109 26.7576C78.19 26.8618 78.2404 28.0316 79.0301 27.8519C79.6177 27.7172 79.4146 26.6552 78.8109 26.7576ZM78.8657 26.374C79.3706 26.1844 79.1289 25.1979 78.3733 25.3857C77.7965 25.5295 78.0068 26.6911 78.8657 26.374ZM90.3585 29.6084C90.1177 28.939 89.5068 28.5491 88.8815 28.24C88.6515 28.1277 88.3181 27.8313 88.0603 27.7477C85.4548 26.8996 82.8889 28.2454 80.9455 28.9516C80.5134 29.1079 80.2789 29.2005 79.8513 29.3343C79.703 29.3811 79.5709 29.4493 79.4128 29.4988C79.8387 29.1277 80.2672 28.6902 80.6706 28.2949C81.2609 27.7127 82.4675 26.2985 83.2977 26.1054C84.0631 25.9257 84.7477 26.1431 85.3227 26.3246C85.4126 26.1862 85.4872 25.5591 85.4872 25.5591C85.4108 25.003 85.2652 24.7433 84.94 24.4639C84.4854 24.0722 83.7262 23.9734 83.0245 24.136C81.5825 24.4675 80.8548 25.7981 80.2331 26.9265C79.9815 27.3757 79.8018 27.9373 79.4119 28.24C78.2952 29.1016 76.5154 29.8644 74.5415 29.4979C72.0564 29.0343 70.0951 27.4683 69.5614 25.5582C69.4716 25.2312 69.2138 24.9149 69.3422 24.4091C69.4141 24.1198 69.6531 23.9949 69.7798 23.7524C70.0277 23.675 70.2865 23.638 70.5461 23.6427C70.5461 25.3498 70.8058 26.5097 71.6404 27.4162C71.9908 27.7971 72.7078 28.2832 73.2828 28.4045C73.6161 28.4709 74.0339 28.4045 74.3771 28.4045C74.1408 27.78 73.1893 25.3498 74.2136 24.8475C74.4489 24.7299 74.5091 24.7811 74.7607 24.8475C74.7948 25.7298 74.802 26.0326 75.0886 26.6534C75.3582 27.2419 76.1102 27.957 76.8397 28.2409C77.3266 28.4287 77.8064 28.4206 78.3167 28.5105C77.4102 27.0676 77.0122 24.9805 78.9196 24.0228C79.2304 23.8656 80.6347 23.5421 80.2331 23.2016C79.3679 22.4703 77.757 21.6284 76.2925 22.2717C76.2925 22.2717 76.1901 22.4856 76.1829 22.4909C75.6861 22.7937 75.3258 23.0857 74.6556 23.0381C74.3465 21.9833 75.1884 21.6006 76.1326 21.287C75.7948 20.7866 75.5118 20.6069 75.0931 20.2988C75.0707 20.2817 75.0554 20.0867 75.0383 20.0795C73.2801 19.2772 71.4446 20.3491 71.2074 21.9402C70.9513 21.8575 70.6863 21.8504 70.5506 21.6662C69.9505 20.8675 70.4563 19.5629 71.0978 18.9852C70.8426 18.8136 70.4015 18.5234 70.1095 18.4381C69.5588 18.2755 68.7618 18.474 68.522 18.5477C67.7035 18.8011 67.3486 18.9969 67.0988 19.536C67.0494 19.536 66.9515 19.4461 66.8805 19.536C66.7538 19.695 66.6855 20.1703 66.611 20.3023C66.3684 20.6959 65.6712 21.2412 64.9147 21.3966C64.4152 21.4973 63.0406 21.2906 62.7809 21.1271C62.3766 20.8648 62.7243 20.1945 62.8905 20.0867C63.6731 19.5683 64.6641 20.2152 65.1888 20.4695C65.2148 20.3239 65.2903 20.1254 65.2984 20.0867C65.2831 20.0867 65.187 19.2251 65.1348 19.0984C64.9372 18.6492 64.4107 17.9817 63.7117 17.7301C63.2155 17.5792 62.6916 17.5421 62.179 17.6214C62.179 17.6214 61.6615 17.8909 61.5222 17.9493C61.4239 17.9916 61.3317 18.0469 61.2482 18.1138C60.2177 18.8388 55.827 21.1738 54.2404 19.0445C54.118 18.8512 54.0398 18.6332 54.0115 18.4061C53.9833 18.179 54.0056 17.9485 54.0769 17.731C54.403 16.8137 55.3239 16.077 56.4281 16.8047C56.4281 16.8047 56.7973 17.3061 56.9752 17.4615C57.0151 17.0783 57.0337 16.6932 57.0309 16.3079C56.9231 15.679 56.4838 14.7635 55.7731 14.4472C54.6294 13.9369 53.6968 14.6934 53.2575 15.104C53.2171 14.7383 53.0275 13.4805 53.0275 13.4805C52.8918 12.4545 52.6753 12.1122 52.3231 11.2722C52.2225 11.0323 51.8874 10.5866 51.7212 10.1779C51.6807 10.2479 51.4516 10.4851 51.4085 10.584C51.3124 10.7843 50.9872 11.4285 50.9593 11.5462C50.9521 11.5668 50.8506 11.8265 50.7949 11.9837C50.4481 12.9262 50.3582 14.104 50.3025 15.1031C50.0034 14.7087 49.6826 14.6197 49.0977 14.4463C46.8516 13.7824 46.4491 16.2163 46.5821 17.4561C47.114 17.0626 47.7195 16.1713 48.662 16.7445C49.5407 17.2782 50.1399 19.1541 48.7716 19.7552C47.2497 20.42 44.1491 19.3841 43.354 18.934C43.3244 18.917 43.0288 18.7139 42.9156 18.6645C42.5787 18.5037 42.2741 18.0356 41.9273 17.899C40.8052 17.4615 39.4836 17.9727 38.9723 18.4462C38.8196 18.5845 38.4495 19.0122 38.3704 19.3213C38.2195 19.8972 38.3479 20.0921 38.3704 20.6348C39.0325 20.2925 40.4566 19.5423 40.886 20.6348C40.886 20.6348 41.0576 20.8432 40.9956 21.0175C40.8276 21.4811 38.8699 21.6797 38.0946 21.4002C37.6292 21.2322 37.0371 20.5916 36.8907 20.3059C36.8249 20.1645 36.7699 20.0182 36.7263 19.8684C36.6032 19.7741 36.5573 19.6249 36.4522 19.5396C36.3714 19.4731 36.4064 19.5549 36.3426 19.4848C36.2561 19.3888 36.1646 19.2973 36.0686 19.2107C35.893 19.0905 35.7103 18.981 35.5214 18.8828C35.0498 18.7202 34.2439 18.5396 33.4964 18.6636C33.0094 18.7427 32.7237 19.1308 32.4021 19.3752C32.6518 19.5432 32.7911 19.5333 32.9492 19.7588C32.9717 19.7893 33.0588 19.9232 33.0588 19.9232C33.2547 20.2673 33.3005 21.0912 33.1684 21.5647C33.0876 21.8504 32.8091 22.0642 32.4021 22.2214C32.1613 20.987 30.5279 19.5315 28.5711 20.3607C28.4409 20.4138 28.351 20.6635 28.2432 20.7444C26.6179 21.9276 28.2432 21.5206 28.8452 22.4954C29.0248 22.7811 29.2153 23.4496 28.6268 23.4837C28.0968 23.5089 27.4813 22.7245 27.0393 22.5529C25.4742 21.9438 23.7474 23.1513 23.2084 23.8665C23.7142 24.0614 24.4662 24.1854 24.9594 24.4684C24.9864 24.4837 24.9846 24.6688 25.0142 24.6876C25.7509 25.153 26.3852 26.1377 26.0537 27.4791C25.9459 27.9103 25.5542 28.435 25.397 28.8474C26.8929 28.8474 28.4121 27.8304 28.7895 26.7675C29.0015 26.1691 28.7248 25.4324 29.059 25.0156C30.5693 25.5411 29.6169 27.5006 29.333 28.789C32.2368 28.789 33.0543 26.7127 33.0543 23.9186C33.9663 23.8161 33.8207 24.2555 34.2582 24.6301C34.2869 24.8113 34.3052 24.994 34.3131 25.1773C34.2708 26.1107 33.7506 27.0191 33.2188 27.6929C32.9932 27.975 32.6887 28.0693 32.3976 28.2949C32.128 28.4997 31.8774 28.8833 31.5764 29.0603C30.191 29.8689 27.9117 30.4628 25.8264 29.6075C25.4967 29.4709 25.1301 29.0379 24.8381 28.8411C24.4976 28.6102 23.8804 28.2562 23.6342 27.9651C23.5174 27.8286 23.574 27.6165 23.4698 27.4728C22.8607 26.6381 21.8346 24.7945 20.7332 24.5726C20.487 24.5214 19.9578 24.5591 20.0216 24.5726C19.1591 24.5726 18.5643 24.8422 18.2705 25.3938C18.0684 25.7649 18.1061 26.3821 18.1609 26.8717C19.0432 26.5025 19.8383 26.4683 20.7332 26.8717C22.1132 27.4925 22.7016 29.0792 23.9621 29.8276C23.2111 29.4682 22.4096 29.3397 21.5543 29.0612C18.7566 28.1493 16.8052 27.3784 14.277 29.2256C13.8278 29.5491 13.3444 29.965 13.2366 30.594C13.0929 31.4214 13.596 31.9362 13.8934 32.345C14.2716 32.858 14.7918 33.1842 15.4207 33.4402C15.6902 32.7799 15.9598 32.345 16.8986 32.345C16.6623 31.7808 16.5222 31.0656 16.789 30.4295C17.0334 31.045 17.3281 31.859 17.8285 32.2354C19.9848 31.1905 22.4222 31.2184 25.2173 31.6883C25.8291 31.7907 27.2046 32.1213 28.227 31.9578C30.7427 31.5652 34.4784 29.2768 36.8736 30.9695C36.5493 31.2687 36.2654 31.4187 36.1629 31.8446C35.8512 33.1141 37.6714 34.1581 38.8987 33.76C39.86 33.4474 40.1691 32.4465 40.5401 31.6802C42.4897 31.6802 42.7512 30.5913 43.5499 29.8743C43.5084 29.8235 43.472 29.7687 43.4412 29.7108C43.6873 29.7602 43.6092 28.6075 43.6604 28.78L43.7152 28.5608C43.3046 28.3892 42.3011 28.6039 41.9641 28.2913C41.8051 28.1403 41.7997 27.7441 41.7997 27.7441C41.2607 25.4657 44.7241 23.3588 46.6154 22.8189C47.3458 22.6086 49.4356 21.9106 50.3888 22.2169C50.4786 22.2457 50.3834 22.5655 50.4436 22.8189C50.4436 22.8189 50.6916 22.9761 50.7131 23.0372C50.82 22.5979 50.8353 22.588 50.5487 22.1064H53.0113C52.9466 22.2762 52.8882 22.26 52.8469 22.4891C52.8263 22.5916 52.8829 22.6006 52.9017 22.7084C52.8712 22.6868 52.9772 23.446 53.1713 22.818C53.1919 22.7515 53.1668 22.2879 53.1713 22.216C55.4497 22.216 57.0678 22.7596 58.5897 23.4738C60.1494 24.2061 62.1601 25.4181 61.9274 27.4683L62.037 27.5779C61.9256 27.8429 61.4081 28.7099 60.56 28.5078C60.2608 28.4368 60.2608 28.2823 60.012 28.3991C60.1449 28.7809 60.0686 28.621 60.1216 29.275C60.1611 29.2607 60.2707 29.5554 60.3911 29.8222C60.6049 30.2768 61.02 30.9902 61.6489 31.2444C62.1466 31.443 62.5806 31.5184 63.2355 31.5184C63.8034 32.7565 64.8851 34.5731 66.8482 33.1599C68.0278 32.31 67.6568 31.2256 66.7934 30.6973C67.1626 30.4538 67.6316 30.1959 68.2713 30.1501C71.0564 29.9417 72.4805 30.9407 74.7832 31.2992C75.3393 31.3846 76.041 31.6361 76.8082 31.5184C77.5539 31.4007 78.4066 31.3783 79.2709 31.2444C80.2591 31.089 81.4118 30.3909 82.6643 30.5877C83.8008 30.7674 84.993 31.0369 85.5644 31.7916C85.8988 31.5554 86.1824 31.2546 86.3984 30.9069C86.6145 30.5592 86.7586 30.1718 86.8222 29.7674C87.0594 30.523 86.9777 30.894 86.6578 31.5184C86.4665 31.3981 86.6524 31.6811 86.6578 31.682C87.0307 31.8041 87.2921 31.6909 87.5886 31.8464C87.8384 31.9784 87.9785 32.327 88.1906 32.5031C89.0126 33.1833 90.8203 30.9758 90.3261 29.6012L90.3585 29.6084ZM38.1485 27.4692C38.225 27.4693 38.3003 27.4505 38.3677 27.4144C38.6076 27.2572 38.8564 27.0757 39.0793 26.922C39.2823 27.0281 39.1341 27.25 39.1341 27.25C39.0981 27.3883 39.1529 27.5069 39.0793 27.7423C38.8996 27.7216 38.2581 27.6327 38.2581 27.6327C38.2267 27.5749 38.19 27.5202 38.1485 27.4692V27.4692ZM39.2419 23.9114C38.6462 24.2842 38.2635 24.7047 37.436 25.0057C37.5591 24.5169 37.5456 24.2869 37.5456 23.6374C38.1611 23.7083 38.6238 23.8278 39.2419 23.9069V23.9114ZM64.5257 26.7576C64.7692 26.8888 65.0648 27.0757 65.1825 27.1404C65.7916 27.4737 65.2148 27.4683 64.6353 27.4683C64.5904 27.0963 64.5455 27.1224 64.5257 26.7576V26.7576ZM66.2768 24.8422C65.5346 24.4774 65.0441 24.0776 64.4161 23.7479C64.6542 23.6742 65.4044 23.4945 65.7296 23.4783C66.4645 23.4298 66.0432 24.6463 66.2768 24.6822C66.2696 24.7365 66.2696 24.7915 66.2768 24.8457V24.8422ZM12.667 41.8541C12.667 43.6509 13.3121 45.2834 14.4836 46.4559C15.7172 47.6894 17.4934 48.3695 19.4834 48.3695C20.9209 48.3695 23.0377 48.1342 24.9549 47.0156C25.1903 46.8701 25.3889 46.676 25.3889 46.4199C25.3889 46.0659 25.379 45.7012 25.37 45.349C25.361 44.9968 25.3502 44.6302 25.3502 44.2637C25.3502 44.1819 25.3502 44.0984 25.3413 44.0112C25.3323 43.9241 25.3314 43.8127 25.3314 43.7022C25.3314 42.8639 25.8004 42.9969 26.0061 42.9574C26.1957 42.9178 26.5452 42.8468 26.5452 42.4794C26.546 42.405 26.532 42.3312 26.5037 42.2623C26.4755 42.1935 26.4336 42.131 26.3807 42.0787C26.1768 41.8747 25.8722 41.8532 25.7518 41.8532C25.4228 41.8592 25.0943 41.8838 24.768 41.9268C24.4482 41.9637 23.8633 41.9978 23.5543 41.9978C23.1428 41.9978 22.3288 41.9664 21.92 41.9349C21.5112 41.9035 21.071 41.8711 20.6424 41.8711C20.1671 41.8711 19.8473 42.1155 19.8473 42.4794C19.8473 42.8828 20.2273 42.9367 20.4762 42.9726C20.9793 43.0445 21.734 42.8531 21.734 44.5161C21.734 44.668 21.7295 44.818 21.7241 44.9654C21.7241 45.092 21.7152 45.2106 21.7152 45.3158C21.7152 45.765 21.7152 46.1944 21.4546 46.5125C21.0467 47.0057 20.5095 47.3139 19.8788 47.3139C19.1375 47.3139 18.47 46.9545 17.9372 46.4235C16.8681 45.3544 16.8016 43.3311 16.8016 41.8011C16.8016 40.4534 16.8124 38.652 17.8797 37.5874C18.1615 37.2904 18.5016 37.0548 18.8787 36.8952C19.2557 36.7357 19.6616 36.6557 20.071 36.6602C22.1123 36.6602 23.1589 38.6008 23.8516 39.625C24.2326 40.1893 24.3323 40.563 24.671 40.563C24.7427 40.5637 24.8137 40.5502 24.8802 40.5234C24.9466 40.4966 25.0071 40.4569 25.0582 40.4067C25.1077 40.3567 25.1468 40.2973 25.1731 40.2321C25.1995 40.1668 25.2127 40.097 25.2119 40.0267C25.2084 39.929 25.1943 39.832 25.1696 39.7374C25.1616 39.7032 25.1553 39.6709 25.1499 39.6421C24.9909 38.7581 24.9774 37.6359 24.9774 36.857C24.9774 36.6943 24.9585 36.4904 24.813 36.3449C24.7132 36.2451 24.7231 36.1939 24.5497 36.1939H24.5174L24.4868 36.2029C24.3385 36.2541 24.2104 36.3514 24.1212 36.4805C24.0376 36.5811 24.0062 36.8264 23.9514 36.8291C23.8393 36.7887 23.7295 36.7422 23.6225 36.6899C22.9604 36.3889 21.5813 35.6531 19.7009 35.6531C15.7558 35.6531 12.667 38.219 12.667 41.8523V41.8541ZM12.7892 50.0065C12.7892 50.4431 13.2689 50.4728 13.4738 50.4854L13.5502 50.4908C14.3291 50.4908 14.5384 51.002 14.7487 51.7234C14.7863 51.8159 14.8085 51.9139 14.8143 52.0136V59.0214C14.8143 59.8651 14.7595 60.4697 14.0488 60.5622H14.0766C13.7658 60.5622 13.5376 60.759 13.5376 61.0294C13.5364 61.1024 13.5497 61.1749 13.5769 61.2426C13.604 61.3103 13.6444 61.3719 13.6957 61.4238C13.8754 61.6107 14.153 61.6386 14.3004 61.6386C14.5709 61.6336 14.8409 61.6126 15.1089 61.5757C15.3585 61.5408 15.6099 61.5207 15.8618 61.5155C16.0977 61.5205 16.3329 61.5406 16.5662 61.5757C16.8174 61.6122 17.0707 61.6332 17.3245 61.6386C17.4413 61.6386 17.7333 61.617 17.9291 61.4194C17.9802 61.3684 18.0205 61.3077 18.0476 61.2409C18.0748 61.174 18.0883 61.1025 18.0873 61.0303C18.0883 60.9732 18.078 60.9165 18.0569 60.8634C18.0357 60.8103 18.0042 60.762 17.9642 60.7213C17.7908 60.5416 17.4988 60.5416 17.3056 60.5416C16.5608 60.5164 16.2679 60.0924 16.2679 59.0205V53.1492L24.3539 61.7149C24.5057 61.8776 24.742 62.1318 25.0726 62.1318C25.1344 62.1327 25.1958 62.1212 25.2531 62.0979C25.3103 62.0746 25.3623 62.04 25.4059 61.9961C25.5254 61.8758 25.5856 61.6871 25.5856 61.4373V51.7135C25.5856 51.0109 25.6836 50.5599 26.1678 50.489C26.4805 50.4557 26.6736 50.2751 26.6736 50.0065C26.6752 49.9357 26.6625 49.8652 26.6364 49.7994C26.6104 49.7335 26.5714 49.6735 26.5218 49.6229C26.352 49.4513 26.0959 49.4153 25.9118 49.4153C25.6963 49.4202 25.4816 49.4415 25.2694 49.4791C25.0789 49.5132 24.8861 49.5327 24.6926 49.5375C24.46 49.5331 24.228 49.513 23.9981 49.4773C23.7501 49.4418 23.5002 49.422 23.2497 49.418C22.7933 49.418 22.4869 49.6552 22.4869 50.0092C22.4869 50.3856 22.8463 50.4386 23.1014 50.4773C23.5794 50.5483 24.1751 50.6363 24.1751 52.0163V56.2336L18.2885 49.8376C18.2804 49.8295 17.8393 49.418 17.4754 49.418C17.2724 49.4297 17.0774 49.4459 16.8888 49.4602C16.4961 49.4917 15.6579 49.5231 15.2608 49.5231C14.9913 49.5231 14.7038 49.4971 14.427 49.4719C14.1503 49.4468 13.8448 49.418 13.5538 49.418C13.0964 49.418 12.7901 49.6561 12.7901 50.0101L12.7892 50.0065ZM79.7003 51.1996C79.6352 51.7391 79.5974 52.2816 79.5871 52.8249C79.5879 52.9647 79.643 53.0987 79.7407 53.1986C79.7817 53.2413 79.8307 53.2753 79.8851 53.2987C79.9394 53.322 79.9979 53.3341 80.057 53.3343C80.4577 53.3343 80.6311 52.948 80.7991 52.5751C81.0471 52.0226 81.3292 51.0478 82.2986 51.0478H83.2869C83.507 51.0478 83.6373 51.072 83.6867 51.1215C83.7361 51.1709 83.7514 51.2661 83.7514 51.4251V59.4437C83.7514 60.3592 83.6445 60.8659 83.0847 60.927C82.8961 60.9459 82.4423 60.9908 82.4423 61.4176C82.4412 61.4924 82.455 61.5667 82.4829 61.6361C82.5108 61.7055 82.5523 61.7687 82.605 61.8219C82.7624 61.9638 82.9681 62.0403 83.18 62.0357C83.6022 62.0357 84.0272 61.9988 84.4378 61.9629C84.8484 61.927 85.2536 61.891 85.6561 61.891C86.0406 61.891 86.4323 61.9279 86.8106 61.9629C87.1888 61.9979 87.6012 62.0357 88.0064 62.0357C88.2202 62.0421 88.4282 61.9655 88.5868 61.8219C88.6372 61.7717 88.6772 61.7121 88.7045 61.6464C88.7318 61.5807 88.7458 61.5102 88.7458 61.4391C88.7473 61.3772 88.7365 61.3156 88.7139 61.2579C88.6914 61.2003 88.6577 61.1476 88.6146 61.1031C88.4412 60.9288 88.1582 60.9288 87.9857 60.9288C87.267 60.9036 87.0019 60.4796 87.0019 59.3754V51.4692C86.9903 51.3575 87.0225 51.2457 87.0918 51.1574C87.1816 51.0631 87.3712 51.019 87.6757 51.019C87.8222 51.019 87.9785 51.028 88.1295 51.0361C88.2804 51.0442 88.4502 51.055 88.6083 51.055C89.6065 51.055 89.9254 52.099 90.1815 52.6587C90.3405 53.0091 90.4914 53.3388 90.8104 53.3388C90.8728 53.3387 90.9345 53.3261 90.9919 53.3017C91.0493 53.2773 91.1012 53.2417 91.1446 53.1968C91.1944 53.1458 91.2335 53.0853 91.2597 53.019C91.2859 52.9527 91.2987 52.8818 91.2974 52.8105C91.2974 52.4997 91.2309 51.5967 91.1653 51.0568C91.1239 50.7082 91.0835 50.3793 91.0629 50.1287C91.017 49.5708 90.6702 49.5106 90.5238 49.5106C90.3874 49.5133 90.2514 49.5259 90.1168 49.5483C90.0021 49.5676 89.8863 49.579 89.77 49.5824L85.3901 49.6363C84.5815 49.6543 83.763 49.6543 82.9706 49.6543C82.2384 49.6543 81.4801 49.6543 80.7793 49.5483C80.6261 49.5255 80.4715 49.5126 80.3166 49.5097H80.2996H80.2834C79.9932 49.5555 79.8288 49.7864 79.7947 50.1979C79.7812 50.5285 79.7363 50.8708 79.6931 51.2014L79.7003 51.1996ZM66.0602 50.4548C65.3981 50.1529 64.0199 49.4171 62.1386 49.4171C58.1962 49.4171 55.1074 51.9813 55.1074 55.6163C55.1074 57.4132 55.7525 59.0457 56.924 60.2172C58.1576 61.4508 59.9329 62.13 61.9238 62.13C63.3613 62.13 65.478 61.8955 67.3953 60.7761C67.6298 60.6305 67.8293 60.4374 67.8293 60.1804C67.8293 59.8273 67.8194 59.4617 67.8104 59.1104C67.8014 58.7591 67.7906 58.3871 67.7906 58.026C67.7906 57.9433 67.7906 57.8606 67.7816 57.7726C67.7727 57.6845 67.7709 57.5749 67.7709 57.4635C67.7709 56.6262 68.2398 56.7583 68.4465 56.7196C68.6361 56.681 68.9855 56.6091 68.9855 56.2426C68.9865 56.1681 68.9725 56.0943 68.9442 56.0254C68.916 55.9566 68.8741 55.8941 68.8211 55.8418C68.6181 55.6379 68.3126 55.6163 68.1922 55.6163C67.8616 55.6221 67.5317 55.647 67.2039 55.6909C66.8841 55.7277 66.2992 55.7619 65.9902 55.7619C65.5778 55.7619 64.7647 55.7295 64.355 55.699C63.9453 55.6684 63.506 55.6352 63.0774 55.6352C62.6021 55.6352 62.2823 55.8787 62.2823 56.2434C62.2823 56.6459 62.6614 56.6999 62.9112 56.7358C63.4143 56.8086 64.169 56.6163 64.169 58.2793C64.169 58.4302 64.1627 58.5812 64.1582 58.7285C64.1582 58.8543 64.1493 58.9738 64.1493 59.0789C64.1493 59.5281 64.1493 59.9567 63.8887 60.2747C63.4799 60.7671 62.9436 61.0761 62.3129 61.0761C61.5716 61.0761 60.9032 60.7168 60.3713 60.1858C59.3022 59.1176 59.2357 57.0943 59.2357 55.5642C59.2357 54.2166 59.2465 52.4152 60.3138 51.3506C60.5963 51.0528 60.9375 50.8168 61.3157 50.6574C61.6939 50.498 62.101 50.4186 62.5114 50.4243C64.5527 50.4243 65.5984 52.3658 66.2911 53.3891C66.673 53.9542 66.7718 54.3271 67.1114 54.3271C67.183 54.328 67.254 54.3146 67.3203 54.2878C67.3866 54.2609 67.4469 54.2212 67.4977 54.1708C67.5473 54.121 67.5864 54.0618 67.6128 53.9967C67.6392 53.9316 67.6523 53.8619 67.6514 53.7916C67.6479 53.6936 67.6337 53.5963 67.6091 53.5014C67.602 53.4673 67.5948 53.4349 67.5894 53.4062C67.4304 52.5221 67.4169 51.4 67.4169 50.621C67.4169 50.4593 67.398 50.2545 67.2525 50.1098C67.1527 50.0092 67.1626 49.9589 66.9892 49.9589H66.9578L66.9272 49.9679C66.7789 50.0181 66.6506 50.1148 66.5616 50.2437C66.478 50.3443 66.4466 50.5887 66.3918 50.5914C66.2788 50.5511 66.1681 50.5046 66.0602 50.4521V50.4548ZM63.2445 36.529C61.7289 35.6306 59.8161 35.5551 58.1423 35.5551C57.6572 35.5551 57.1621 35.6908 56.6832 35.7186C56.2044 35.7465 55.7435 35.7941 55.27 35.7941C54.8468 35.7941 54.3868 35.6369 53.9628 35.6099C53.5387 35.583 53.085 35.5551 52.6475 35.5551C52.0617 35.5551 51.8532 35.8597 51.8532 36.1454C51.8532 36.6063 52.3456 36.6422 52.5567 36.6575L52.6097 36.662C53.4022 36.689 53.5549 37.2505 53.5549 38.2109V45.7659C53.5549 46.844 53.1299 46.9482 52.7553 47.0408C52.5441 47.0929 52.2252 47.1728 52.2252 47.5232C52.2236 47.5963 52.2368 47.669 52.2642 47.7368C52.2915 47.8046 52.3324 47.8661 52.3842 47.9176C52.5639 48.0973 52.8272 48.1315 53.0194 48.1315C53.3923 48.1315 53.766 48.0937 54.1272 48.0578C54.4884 48.0218 54.8397 47.9859 55.19 47.9859C55.6824 47.9859 56.1864 48.0129 56.6734 48.0398C57.1603 48.0668 57.6769 48.0946 58.1818 48.0946C60.1377 48.0946 61.7612 47.6535 63.0046 46.7847C63.8524 46.1766 64.544 45.3764 65.0229 44.4496C65.5019 43.5228 65.7545 42.4957 65.7602 41.4525C65.7602 39.3034 64.8195 37.4625 63.2445 36.529V36.529ZM62.0685 42.4911C62.0685 44.3562 61.1422 47.1297 58.5897 47.1297C58.0713 47.1297 57.7048 47.0111 57.4685 46.7658C57.2322 46.5206 57.1028 46.0956 57.1028 45.499V37.8983C57.1028 37.5757 57.1307 37.3592 57.2717 37.1957C57.4909 36.9567 57.871 36.9261 58.2474 36.9261C61.268 37.0942 62.0685 40.643 62.0685 42.4965V42.4911ZM60.587 27.1368C60.3426 27.1538 59.7406 27.1008 59.437 27.1916C59.432 27.246 59.432 27.3007 59.437 27.3551C59.3723 27.3174 60.8655 27.5608 61.5168 27.4099C62.5051 27.1781 60.8807 27.1152 60.587 27.1404V27.1368ZM58.8898 25.4405C58.8898 25.4405 58.8386 25.5384 58.7802 25.6597C59.1647 25.5771 58.9805 25.6454 59.3273 25.5501C59.649 25.4603 59.5762 25.4387 59.9841 25.3857C59.9841 25.3857 59.8457 25.2833 59.8745 25.2761C60.1656 25.1943 60.2662 25.3606 60.5313 25.2213C60.6112 25.1773 60.5447 25.0048 60.6948 25.0021C60.6948 25.0021 60.1854 24.9482 60.2024 24.9482C59.923 25.0129 59.7622 25.1719 59.6005 25.2177C59.2411 25.3255 58.8898 25.4369 58.8898 25.4369V25.4405ZM58.5062 30.3118C58.9716 30.5544 58.7443 30.5338 59.1629 30.4206C58.676 30.275 58.1747 29.727 57.7407 29.7638C57.4712 29.7863 58.3292 30.2175 58.5062 30.3118V30.3118ZM58.6167 32.2264C58.2079 31.9362 56.9159 30.4484 56.5368 30.4206C55.9977 30.3792 58.2384 32.1105 58.6167 32.2264ZM54.7309 30.479C54.6734 30.487 54.6411 30.6515 54.6222 30.6982C54.9241 30.8895 55.2511 31.4744 55.6617 31.8473C55.6024 31.593 54.9088 30.4466 54.7309 30.479V30.479ZM53.3626 30.6982C53.3255 30.8223 53.3071 30.9513 53.3078 31.0809C53.4237 31.7287 53.536 32.159 53.5773 32.6127C53.5836 32.6127 53.74 32.6127 53.7418 32.6127C53.7121 31.9245 53.6564 30.77 53.359 30.6982H53.3626ZM52.3743 30.479C52.2045 30.9183 52.2845 31.7736 52.3195 31.7925C52.4596 31.3683 52.4786 30.9134 52.3743 30.479V30.479ZM46.0269 30.151C45.9289 30.1043 46.273 29.8581 45.9173 29.877C45.6864 29.8896 45.4141 30.098 45.2057 30.2058C45.1159 30.2516 44.9676 30.4233 44.8778 30.4799C44.1123 30.9345 45.9613 30.1663 46.0269 30.151ZM46.1356 31.5193C46.2254 31.4547 46.0808 31.4645 46.0808 31.4645C45.7214 31.7529 45.4088 32.1896 45.2048 32.3396C46.0359 32.0063 46.6881 31.2705 47.176 30.8069C47.3036 30.682 47.4886 30.3981 47.2299 30.479C46.7241 30.6344 46.3314 31.4097 46.1356 31.5193ZM48.2155 31.8473C48.6279 31.646 48.9747 31.054 49.2038 30.5895C49.1311 30.5962 49.0581 30.5962 48.9854 30.5895C48.8519 30.8135 48.6856 31.0164 48.4922 31.1914C48.4922 31.1914 48.2721 31.6685 48.2227 31.8482L48.2155 31.8473ZM50.1884 31.629C50.0986 31.6721 50.1884 31.7422 50.1884 31.7386C50.1399 31.761 50.1884 31.9569 50.1884 31.9569C50.1831 32.0701 50.1336 32.4061 50.1336 32.6136C50.1336 32.6082 50.2801 32.6136 50.2981 32.6136C50.4382 32.0252 50.5523 31.0261 50.4077 30.6991C50.3394 31.0036 50.245 31.204 50.1884 31.4106C50.1686 31.482 50.1686 31.5575 50.1884 31.629V31.629ZM51.4463 30.4799C51.3853 30.749 51.3668 31.0261 51.3915 31.301C51.4166 32.1644 51.8604 30.762 51.4463 30.4799V30.4799ZM40.7369 36.184C40.7369 36.5802 41.1439 36.6333 41.4134 36.6701C41.833 36.7258 42.3379 36.7779 42.4322 37.3969C42.4926 37.6775 42.5251 37.9634 42.5293 38.2504V45.6446C42.5293 46.4981 42.4116 46.9922 41.8105 46.9922H41.797H41.7836C41.4502 47.03 41.2445 47.2213 41.2445 47.49C41.2437 47.5645 41.2581 47.6385 41.2866 47.7073C41.3152 47.7762 41.3574 47.8386 41.4107 47.8907C41.6173 48.0946 41.9264 48.1162 42.0495 48.1162C42.4843 48.1162 42.921 48.0749 43.3441 48.0344C43.7673 47.994 44.1968 47.9536 44.6244 47.9536C45.3971 47.9536 46.1823 48.0174 46.9424 48.0793C47.7025 48.1413 48.5066 48.2078 49.299 48.2078C50.1579 48.2078 51.0195 47.9554 51.5864 47.3992C52.1695 46.8242 52.4247 45.2717 52.3384 44.3841C52.3337 44.2307 52.2759 44.0837 52.1749 43.9681C52.1295 43.9236 52.0756 43.8885 52.0166 43.8649C51.9575 43.8414 51.8944 43.8297 51.8308 43.8306C51.5091 43.8306 51.3106 44.128 51.1929 44.3059L51.1641 44.3481C50.405 45.5458 49.2244 47.0524 47.8507 47.0524C47.397 47.0524 46.6531 46.8018 46.4851 46.6365C46.3305 46.4837 46.2587 46.0624 46.2587 45.6823V37.9063C46.262 37.5119 46.41 37.1324 46.6747 36.8399C46.7362 36.7851 46.8082 36.7433 46.8863 36.7169C46.9644 36.6905 47.0471 36.6801 47.1293 36.6863H47.1535C47.5695 36.644 47.7168 36.4015 47.7168 36.1876C47.7176 36.1131 47.7033 36.0391 47.6747 35.9703C47.6461 35.9014 47.6039 35.839 47.5506 35.7869C47.344 35.5839 47.0358 35.5614 46.9127 35.5614C46.4984 35.569 46.0849 35.599 45.6738 35.6513C45.2749 35.6953 44.4941 35.7411 44.0881 35.7411C43.6893 35.7326 43.2913 35.7026 42.8958 35.6513C42.447 35.598 41.9956 35.568 41.5437 35.5614C41.0693 35.5614 40.7351 35.8184 40.7351 36.1903L40.7369 36.184ZM26.9908 42.1784C26.9882 43.0086 27.1573 43.8303 27.4876 44.5919C27.8179 45.3535 28.3021 46.0386 28.9098 46.6041C30.2494 47.8161 31.8945 48.3561 34.2466 48.3561C36.26 48.3561 38.0065 47.6903 39.2976 46.4298C40.5886 45.1693 41.2903 43.4335 41.2903 41.5252C41.2964 40.8211 41.1585 40.1231 40.885 39.4742C40.6116 38.8253 40.2083 38.2392 39.7001 37.7518C38.3884 36.4706 36.3866 35.7357 34.2079 35.7357C30.0248 35.7357 26.989 38.4454 26.989 42.1784H26.9908ZM30.8541 40.7319C30.8541 39.7383 31.1299 38.3726 31.9052 37.5191C32.1192 37.2739 32.3839 37.0782 32.6809 36.9454C32.978 36.8126 33.3004 36.746 33.6257 36.75C34.0341 36.7456 34.4386 36.8302 34.811 36.9979C35.1833 37.1656 35.5147 37.4125 35.782 37.7213C36.9769 39.0375 37.3992 41.4291 37.3992 43.2278C37.3992 44.1918 37.1979 47.3363 34.6077 47.3363C31.8486 47.3363 31.1146 43.9133 30.9241 41.8738C30.8891 41.5037 30.8532 41.1209 30.8532 40.731L30.8541 40.7319ZM53.386 57.7735C53.386 57.6765 53.3761 57.5758 53.3761 57.4644C53.3761 56.6271 53.8451 56.7592 54.0508 56.7205C54.2404 56.6819 54.5899 56.61 54.5899 56.2434C54.5907 56.1691 54.5765 56.0953 54.5483 56.0264C54.52 55.9576 54.4783 55.8951 54.4255 55.8427C54.2215 55.6388 53.917 55.6172 53.7966 55.6172C53.466 55.6229 53.136 55.6478 52.8083 55.6918C52.4884 55.7286 51.9036 55.7628 51.5945 55.7628C51.1821 55.7628 50.3699 55.7304 49.9602 55.6999C49.5505 55.6693 49.1103 55.6361 48.6818 55.6361C48.2056 55.6361 47.8866 55.8796 47.8866 56.2443C47.8866 56.6468 48.2658 56.7008 48.5156 56.7367C49.0196 56.8095 49.7734 56.6172 49.7734 58.2802C49.7734 58.4311 49.768 58.5821 49.7626 58.7294C49.7581 58.8552 49.7536 58.9747 49.7536 59.0798C49.7536 59.529 49.7536 59.9576 49.4931 60.2756C49.0843 60.768 48.547 61.077 47.9163 61.077C47.176 61.077 46.5084 60.7177 45.9748 60.1867C44.9056 59.1185 44.8391 57.0952 44.8391 55.5651C44.8391 54.2175 44.8499 52.4161 45.9173 51.3515C46.1998 51.0548 46.5407 50.8198 46.9184 50.6612C47.2961 50.5026 47.7025 50.4237 48.1122 50.4297C50.1534 50.4297 51.1992 52.3712 51.8919 53.3945C52.2728 53.9596 52.3725 54.3325 52.7113 54.3325C52.7829 54.3332 52.854 54.3198 52.9205 54.293C52.9869 54.2662 53.0474 54.2264 53.0985 54.1761C53.1478 54.1262 53.1868 54.067 53.2132 54.0019C53.2396 53.9369 53.2528 53.8672 53.2521 53.797C53.2486 53.699 53.2344 53.6017 53.2099 53.5068C53.2018 53.4727 53.1955 53.4403 53.1901 53.4116C53.0311 52.5275 53.0176 51.4054 53.0176 50.6264C53.0176 50.4647 52.9997 50.2599 52.8541 50.1152C52.7544 50.0146 52.7643 49.9643 52.5909 49.9643H52.5585L52.528 49.9733C52.38 50.0238 52.2521 50.1205 52.1632 50.2491C52.0797 50.3497 52.0491 50.5941 51.9934 50.5968C51.8814 50.5565 51.7716 50.5103 51.6646 50.4584C51.0015 50.1565 49.6233 49.4207 47.742 49.4207C43.7997 49.4207 40.7108 51.9849 40.7108 55.6199C40.7108 57.4168 41.3559 59.0493 42.5275 60.2208C43.761 61.4544 45.5372 62.1336 47.5264 62.1336C48.9639 62.1336 51.0806 61.8991 52.9979 60.7797C53.2341 60.6341 53.4318 60.441 53.4318 60.184C53.4318 59.8309 53.4219 59.4652 53.4129 59.114C53.4039 58.7627 53.3932 58.3952 53.3932 58.0295C53.3932 57.9469 53.3932 57.8633 53.3833 57.7753L53.386 57.7735ZM39.7118 52.1286V51.8797C39.7118 51.3407 39.7549 50.6138 40.1268 50.5797C40.32 50.5608 40.7423 50.5186 40.7423 50.0954C40.744 50.0224 40.7309 49.9498 40.7037 49.882C40.6765 49.8142 40.6358 49.7526 40.5841 49.701C40.4197 49.5384 40.1745 49.5043 39.9984 49.5043C39.792 49.5086 39.5864 49.5305 39.3838 49.5699C39.2061 49.6045 39.0258 49.6247 38.8448 49.6301C38.6092 49.6243 38.3743 49.6039 38.1413 49.569C37.8895 49.5316 37.6357 49.5103 37.3812 49.5052C36.9365 49.5052 36.6373 49.7424 36.6373 50.0963C36.6373 50.5456 37.0596 50.5617 37.312 50.5698C37.6382 50.5806 37.976 50.5896 38.1997 51.002C38.3273 51.2535 38.3902 51.6237 38.3902 52.1295V56.442C38.3902 59.2784 37.3911 60.485 35.0489 60.485C34.0875 60.485 33.3355 60.2244 32.8154 59.7105C32.2125 59.1158 31.9061 58.1832 31.9061 56.9388V51.8959C31.9061 51.0038 32.0544 50.6147 32.403 50.5968C32.6141 50.5788 33.0624 50.5384 33.0624 50.0945C33.0637 50.0227 33.0503 49.9513 33.0231 49.8847C32.9959 49.8181 32.9555 49.7578 32.9043 49.7073C32.7246 49.5276 32.4605 49.5034 32.3185 49.5034C31.9388 49.51 31.5597 49.5373 31.1829 49.5851C30.8222 49.6307 30.4593 49.6571 30.0958 49.6642C29.7245 49.6574 29.3538 49.6308 28.9853 49.5842C28.6103 49.5373 28.233 49.5103 27.8551 49.5034C27.4059 49.5034 27.1112 49.7406 27.1112 50.0945C27.1112 50.5366 27.5191 50.5608 27.7401 50.5734C28.1534 50.5986 28.6682 50.6291 28.6682 52.1277V57.1446C28.6682 58.6773 29.0859 59.8686 29.9098 60.6817C30.8442 61.6035 32.2655 62.051 34.2555 62.051C36.0812 62.051 37.4109 61.6152 38.321 60.7177C39.2598 59.7905 39.7172 58.3997 39.7172 56.4663V52.1259L39.7118 52.1286ZM42.0881 27.2527C41.4215 27.4422 44.0907 27.5806 44.3872 27.5806C44.3082 27.5105 44.3747 27.4521 44.3872 27.3111C43.6909 27.3111 42.6011 27.0748 42.0881 27.2024C42.0252 27.2167 41.9929 27.2572 42.0881 27.2572V27.2527ZM46.0296 24.5708C45.99 24.5654 46.0296 24.3013 46.0296 24.3013C45.8427 24.2447 45.2596 23.6122 45.0413 23.6445C44.4016 23.7344 45.8499 24.4855 46.0296 24.5744V24.5708ZM47.2874 23.6409C47.1765 23.5136 47.0475 23.4031 46.9047 23.313C46.4033 23.6787 48.0232 24.6481 47.2874 23.6409ZM48.4913 23.5861C48.4913 23.5861 48.4913 23.7416 48.4913 23.7506C48.5821 23.7371 48.6745 23.7371 48.7653 23.7506C48.5559 23.3335 48.3181 22.9313 48.0538 22.5466C48.0043 22.9815 48.2146 23.4595 48.4913 23.5861ZM49.7536 23.3633C49.9593 23.163 49.7536 22.5988 49.644 22.5422C49.5416 22.641 49.3035 22.8072 49.5344 22.9797C49.5218 22.8898 49.7195 23.2762 49.7536 23.3633V23.3633ZM51.7778 22.5431C51.7778 22.4954 51.8326 22.2735 51.8326 22.2735C51.7535 22.2448 51.6358 22.3014 51.5631 22.2735C51.5631 22.2924 51.5136 22.5431 51.5082 22.6563V22.8207C51.6349 22.7704 51.8146 22.6616 51.8362 22.6563C51.7877 22.6563 51.7832 22.5278 51.7814 22.5466L51.7778 22.5431ZM53.7481 23.1998V23.3633C53.8693 23.3157 54.0571 23.2025 54.0769 23.1989C54.0769 23.1989 54.1245 22.9411 54.1308 22.9294C54.155 22.8521 54.341 22.7308 54.0769 22.5457C53.9754 22.8467 53.9403 22.8575 53.7481 23.1477C53.8765 23.1234 53.8936 23.2025 53.7481 23.2025V23.1998ZM55.0616 23.8566C55.3113 23.5421 55.9187 22.7272 55.5539 22.5431C55.3742 22.8386 55.4084 22.9267 55.226 23.2546C55.1449 23.3378 55.0544 23.4114 54.9564 23.4738C55.0355 23.5277 54.9412 23.7524 55.0661 23.8566H55.0616ZM56.4299 23.747C56.3975 23.8018 56.2107 23.8718 56.1604 23.9114C56.1604 23.9114 56.42 24.0093 56.4883 24.021C56.6132 23.8197 57.0714 23.4666 56.7578 23.3094C56.6006 23.4325 56.4946 23.4891 56.4299 23.5834C56.3176 23.7416 56.4685 23.6787 56.4299 23.747V23.747ZM57.6877 24.4037C58.0039 24.4154 58.4532 24.1468 58.782 23.8566L58.6724 23.5825C58.3849 23.6904 58.4226 23.7973 58.0704 23.9653C58.0704 23.9653 57.782 24.2052 57.6877 24.4037V24.4037ZM58.782 26.1548L58.6724 25.7172C58.0641 25.1782 57.6904 24.9338 57.5233 24.4037C56.7407 24.4037 56.1244 24.1342 55.4982 24.0201C55.0131 23.9302 54.5333 24.056 54.1299 23.8557C54.085 23.8332 54.0122 23.5987 53.9664 23.5816C53.4381 23.3885 53.6483 23.64 53.1452 23.472C53.0785 23.3758 53.0052 23.2842 52.926 23.198C52.6564 23.0821 51.8479 22.942 51.2836 23.0336C50.9818 23.0812 50.5433 23.4451 50.4634 23.472C50.077 23.5915 49.8587 23.499 49.6422 23.6356C49.4445 23.7577 49.3843 23.9626 49.095 24.0192C48.3934 24.1531 47.5614 24.3372 47.1796 24.4028C46.857 24.4558 46.4438 24.3184 46.1913 24.4576C46.0242 24.5475 46.0341 24.9616 45.9218 25.1144C45.7915 25.2824 45.5525 25.2599 45.3746 25.3884C45.2529 25.4897 45.1561 25.6175 45.0916 25.7622C45.055 25.7135 45.0217 25.6625 44.9919 25.6094C45.0817 25.6543 43.5544 24.9428 43.1312 25.0075C42.9057 25.0398 43.1752 25.2456 43.0764 25.2815C43.8895 25.4369 44.1402 25.6624 45.088 25.772C44.9614 26.0321 44.8736 26.3094 44.8275 26.595C44.8152 26.6673 44.8152 26.7411 44.8275 26.8133C44.2579 28.6722 45.8229 28.4988 46.8525 29.2211C47.1293 29.4161 47.0214 29.8195 47.3997 29.9327C47.724 30.0306 48.3206 29.8878 48.494 29.9327L48.7132 30.1519C49.1319 30.275 50.0824 30.2957 50.5739 30.1519C50.6421 30.0742 50.7154 30.001 50.7931 29.9327C51.4373 29.7665 51.4597 30.1277 51.8326 30.1519C52.2414 30.1762 52.4741 29.8132 53.0365 29.9327C53.0814 29.9417 53.2557 30.1519 53.2557 30.1519C53.7103 30.2274 54.4237 30.2975 54.8423 30.2067C54.925 30.1879 55.2457 29.9552 55.3347 29.9372C55.73 29.8348 56.1091 30.027 56.4299 29.8824C56.6913 29.7611 56.7893 29.2759 57.0318 29.1169C57.5431 28.78 58.2151 28.6857 58.6733 28.2966C58.9868 28.0271 58.9509 27.7971 59.1656 27.5851C58.9859 27.0029 58.8862 26.4108 58.7829 26.1611L58.782 26.1548ZM54.4587 25.3884C54.7361 25.4469 55.0102 25.5201 55.2799 25.6076C55.2934 25.6678 55.3374 25.9616 55.3338 25.9365C55.376 26.8816 53.9547 26.3425 54.4587 25.3884ZM54.8963 28.9453C55.5036 28.9453 55.0661 29.6488 54.5126 29.7665C54.2898 29.4071 54.2718 28.948 54.8963 28.9453V28.9453ZM53.908 26.3731C54.6537 26.7936 55.1002 26.4917 54.6734 27.1395C53.9268 28.2724 53.5216 27.2697 53.908 26.3731ZM54.0724 25.0057L54.2907 25.1701C54.1398 25.6813 53.7418 25.5411 54.0724 25.0057ZM53.7454 29.1133C54.3078 29.072 54.1047 29.6326 53.9646 29.6605C52.9691 29.8509 53.0661 29.16 53.7454 29.1133ZM52.377 26.4836C51.9853 26.268 52.0177 26.2078 52.2126 25.8268C52.492 25.8799 52.979 25.9365 52.979 25.9365C53.9888 26.0515 53.2341 26.9526 52.377 26.4836V26.4836ZM53.3653 25.6633L53.3105 25.8277C52.1884 26.1494 52.0725 25.1764 53.041 25.0066C53.7202 24.8853 53.3698 25.6633 53.3698 25.6633H53.3653ZM50.3547 25.9374C50.9548 26.0515 50.8596 25.8547 51.2854 25.8277C52.077 25.7729 51.5747 26.5681 51.1767 26.6489C50.1309 26.8538 50.4077 26.1835 50.3547 25.9374V25.9374ZM51.6125 25.6103C51.6206 25.5843 51.6412 25.3668 51.6637 25.2249C52.4291 25.2968 52.1596 26.0335 51.6125 25.6103ZM52.1569 26.922C53.0113 26.6893 53.5405 27.25 53.1964 27.6884C53.0221 27.9067 52.9386 27.7926 52.5945 27.9579C52.5684 27.9705 52.5837 28.1161 52.5397 28.1224C52.2234 28.1583 52.0006 26.9544 52.1569 26.9184V26.922ZM51.5002 29.6587C51.5123 29.602 51.5307 29.5469 51.555 29.4943C51.855 29.4943 52.7454 29.6829 52.2117 29.9327C51.9718 30.0432 51.4777 29.8671 51.5002 29.6587V29.6587ZM51.2306 28.0711C51.2306 28.0711 49.8605 27.1871 50.7383 26.922C51.7131 26.6265 51.9251 27.1377 51.5038 27.524C51.6439 27.5941 51.4939 27.9732 51.4489 28.1259L51.2306 28.0711V28.0711ZM50.6835 28.8375C51.1974 28.9705 51.1039 28.9345 50.9575 29.2202C50.8407 29.1538 50.7661 28.895 50.6835 28.8375ZM49.8084 29.107C49.9881 29.16 50.1022 29.2553 50.4652 29.2715C50.4589 29.2715 50.8326 29.4745 50.5739 29.5994C49.936 29.9031 49.7168 29.4781 49.8084 29.107V29.107ZM49.0959 27.1925C48.8066 26.86 48.8004 26.6777 49.5883 26.5905C49.6072 26.5249 49.6009 26.4054 49.6431 26.3713C49.67 26.3938 49.8228 26.3713 49.8623 26.3713C49.9288 26.7208 50.3286 27.6165 49.6979 27.5752C49.2828 27.5474 49.2891 27.4126 49.0959 27.1925V27.1925ZM48.6584 28.9426C49.3304 29.1538 49.4589 29.1277 49.37 29.4898C49.2334 30.0414 48.7491 29.7404 48.6584 28.9426ZM47.777 26.7576L47.9963 26.8672C47.9963 28.0828 47.3844 27.1305 47.777 26.7576ZM45.92 27.1368C46.5219 27.082 46.5749 27.7899 46.3027 27.8483C45.9038 27.9319 45.3513 27.1871 45.92 27.1368ZM45.8104 25.7693C45.5408 26.4063 45.2973 26.3434 45.5363 25.7693C45.601 25.7963 45.7349 25.7693 45.8104 25.7693ZM46.4671 26.7576C45.911 26.8187 45.7484 27.0272 45.5372 26.5384C45.5372 26.5384 45.8005 26.3758 45.8113 26.374C46.2066 26.2653 46.3638 26.5537 46.4671 26.7576ZM47.3422 25.3399C47.1733 25.6588 45.7978 25.9149 46.4662 24.9572C46.574 24.8017 46.6594 24.6113 46.8498 24.5735C47.5021 24.4379 47.5488 24.9446 47.3422 25.3399ZM47.5066 25.3938C48.149 25.3938 48.2568 25.4216 48.1634 25.7765C47.4024 25.8322 47.6108 25.4522 47.5066 25.3938ZM48.9297 25.0111C48.2334 25.2474 46.769 24.5565 48.3826 24.3004C48.9432 24.2106 49.2064 24.9149 48.9297 25.0111ZM49.3125 25.9993C49.3214 25.9724 49.272 26.2752 49.2577 26.3273C48.4634 26.4818 48.2343 26.3174 48.4922 25.8349C48.5955 25.64 48.7213 25.4297 48.9306 25.3974C49.4697 25.3075 49.3367 25.6831 49.3125 25.9993ZM50.1884 24.6858C49.5389 24.8997 49.3143 24.534 49.0932 24.3579C49.1705 24.3085 49.4526 24.2591 49.6404 24.1396C49.7428 24.0722 49.7527 23.8961 49.9099 23.8656C50.7284 23.6993 50.3385 24.6346 50.1848 24.6858H50.1884ZM51.0096 25.233C52.1345 25.7172 49.9692 26.5052 50.4077 25.0138C50.6146 25.0684 50.816 25.1418 51.0096 25.233ZM50.7356 24.1935C51.5136 23.9967 51.3564 24.8628 50.9548 24.9599C50.5119 25.0641 50.2495 24.3148 50.7356 24.1935ZM51.502 24.0291H50.6808C50.5289 23.7209 50.7706 23.1908 51.2827 23.2079C51.6816 23.2205 51.5595 23.7595 51.502 24.0291V24.0291ZM52.0491 25.0174C51.6197 24.9077 51.6044 25.0263 51.502 24.7478C51.4633 24.6418 51.4633 24.4334 51.502 24.5295C51.502 24.5295 51.4121 24.2321 51.502 24.2007C52.4902 23.8413 52.2575 24.6759 52.0491 25.0218V25.0174ZM52.2135 23.3211C52.6942 23.3588 52.8424 23.3211 53.0347 23.649C53.3042 24.1279 51.8317 24.4747 52.2135 23.3211ZM53.0338 24.9625C52.3465 25.0955 52.3447 24.2438 52.4866 24.1962C53.1641 23.9707 53.4102 24.8871 53.0338 24.9625ZM53.4174 23.8682C53.855 23.8916 53.8792 23.9078 54.0742 24.0327C54.1955 24.1099 54.5234 24.2672 54.4569 24.2519C54.9825 24.357 53.0329 25.5384 53.4174 23.8682V23.8682ZM55.8252 24.9625C53.9772 25.4342 54.8989 24.2034 55.0041 24.1962C55.4407 24.1656 56.6293 24.7559 55.8252 24.9625ZM56.0445 25.7837C55.4937 25.9445 55.3257 25.3866 55.7165 25.2914C56.2781 25.1494 56.3077 25.7047 56.0445 25.7837ZM57.4667 25.0722C57.4667 25.0722 57.4397 25.4405 57.4119 25.5645C56.6248 25.6085 55.9016 25.171 56.4236 24.4693C56.9537 24.6086 57.2322 24.6544 57.4631 25.0722H57.4667ZM58.1782 26.7684C57.7182 26.7495 56.8926 26.4764 57.6311 26.3309C58.0893 26.241 58.1199 26.4674 58.1782 26.7684ZM58.3427 26.1116C58.3427 26.1116 58.0336 26.1781 57.959 26.0568C57.9339 26.0146 57.9231 25.7163 57.9042 25.6741C58.5205 25.9302 58.3427 26.1116 58.3427 26.1116ZM76.1856 44.3787L76.2045 44.349C75.2387 45.6239 74.378 46.9922 72.2235 46.9922C71.9405 46.9922 71.3925 46.7542 71.2595 46.6212C71.1041 46.4658 71.0286 46.0498 71.0286 45.6617V42.7426C71.0286 42.5387 71.0645 42.3994 71.1355 42.3284C71.2065 42.2575 71.3359 42.2278 71.5847 42.2278C73.6817 42.2278 73.6008 42.8567 73.7625 43.3122C73.8524 43.5719 73.9692 43.8944 74.4103 43.8944H74.4238H74.4373C74.9709 43.8333 74.9709 43.3311 74.9709 43.1433C74.9709 42.757 74.9503 42.3626 74.9314 41.9817C74.9125 41.6007 74.8919 41.2171 74.8919 40.8424C74.8919 40.607 74.8919 40.3627 74.9107 40.1363C74.9107 39.9278 74.9107 39.6412 74.7257 39.4561C74.6763 39.4079 74.6176 39.3701 74.5532 39.3451C74.4888 39.3201 74.4201 39.3083 74.351 39.3106C73.9629 39.3106 73.8416 39.6861 73.7832 39.8667C73.5047 40.7751 72.8282 40.8505 71.7617 40.8505H71.388C71.1759 40.8505 71.1059 40.8128 71.0825 40.7894C71.0591 40.7661 71.0286 40.6618 71.0286 40.5199V37.6152C71.0276 37.5708 71.0243 37.5264 71.0187 37.4823C71.0126 37.4364 71.0093 37.3902 71.0088 37.3439C71.0058 37.3104 71.0099 37.2767 71.0209 37.245C71.0319 37.2132 71.0495 37.1842 71.0726 37.1597C71.1481 37.0834 71.3799 36.9549 72.0717 36.9549H72.1247C73.5712 36.9549 74.4813 37.3915 74.9413 38.6386L74.9503 38.6682C75.0069 38.8479 75.1255 39.2225 75.5459 39.2225H75.5612H75.5765C75.908 39.1785 76.1057 38.8847 76.1057 38.4355C76.0975 37.9846 76.0627 37.5346 76.0015 37.0879C75.9628 36.8453 75.926 36.6171 75.9116 36.3862C75.8972 36.1885 75.855 35.5884 75.2459 35.5587C74.873 35.5587 74.51 35.5911 74.1579 35.6234C73.8731 35.6495 73.5784 35.6764 73.2927 35.6845L72.564 35.7124C71.7842 35.7429 71.2164 35.7752 70.4284 35.7752C69.7753 35.7752 69.105 35.7177 68.4519 35.6629C67.823 35.609 67.221 35.5578 66.655 35.5578C66.1797 35.5578 65.8608 35.8022 65.8608 36.1652C65.8608 36.6081 66.2893 36.6458 66.5463 36.6683C66.929 36.7015 67.1905 36.7492 67.3549 37.0807C67.5193 37.4122 67.5427 37.8282 67.5427 38.2316V45.7506C67.5427 46.8036 67.1249 46.9186 66.7574 47.0183C66.5481 47.0749 66.2327 47.1602 66.2327 47.5079C66.2315 47.581 66.2449 47.6535 66.2722 47.7213C66.2995 47.789 66.3402 47.8506 66.3918 47.9024C66.5714 48.082 66.8347 48.1162 67.027 48.1162C67.4681 48.1162 67.911 48.074 68.3387 48.0335C68.7663 47.9931 69.1877 47.9527 69.6073 47.9527C70.3799 47.9527 71.1544 48.0156 71.9037 48.0767C72.6107 48.1342 73.2792 48.1881 73.9081 48.1881C74.8604 48.1881 75.7598 48.1881 76.4156 47.339C76.9547 46.6733 77.1991 45.3283 77.1991 44.5593C77.2011 44.4931 77.1898 44.4272 77.1658 44.3655C77.1419 44.3037 77.1059 44.2474 77.0598 44.1999C77.0121 44.1541 76.9558 44.1182 76.8941 44.0943C76.8324 44.0704 76.7666 44.0589 76.7004 44.0606C76.5942 44.0634 76.4905 44.0943 76.4002 44.1504C76.3099 44.2065 76.2361 44.2856 76.1865 44.3796L76.1856 44.3787ZM78.9528 58.2793L78.9726 58.2497C78.0068 59.5245 77.1452 60.8902 74.9907 60.8902C74.7086 60.8902 74.1605 60.6521 74.0276 60.5191C73.8722 60.3646 73.7967 59.9477 73.7967 59.5596V56.6433C73.7967 56.4393 73.8326 56.3001 73.9054 56.2291C73.9782 56.1581 74.1057 56.1285 74.3546 56.1285C76.4516 56.1285 76.3698 56.7574 76.5324 57.2129C76.6223 57.4716 76.7391 57.7951 77.1793 57.7951H77.1928H77.2063C77.7399 57.734 77.7399 57.2326 77.7399 57.0431C77.7399 56.6567 77.7193 56.2632 77.7004 55.8805C77.6815 55.4977 77.6618 55.1177 77.6618 54.7422C77.6618 54.5059 77.6618 54.2624 77.6806 54.036C77.6806 53.8285 77.6806 53.5418 77.5009 53.3559C77.4515 53.3079 77.393 53.2703 77.3288 53.2453C77.2646 53.2204 77.196 53.2084 77.1272 53.2103C76.7382 53.2103 76.6169 53.5859 76.5585 53.7665C76.28 54.6757 75.6034 54.7547 74.5361 54.7547H74.165C73.953 54.7547 73.8829 54.717 73.8596 54.6936C73.8362 54.6703 73.8057 54.5661 73.8057 54.4241V51.5159C73.8051 51.4714 73.8018 51.427 73.7958 51.3829C73.7901 51.337 73.7868 51.2908 73.7859 51.2445C73.7834 51.2118 73.7877 51.1789 73.7987 51.1479C73.8097 51.117 73.8271 51.0887 73.8497 51.0649C73.9261 50.9885 74.157 50.86 74.8488 50.86H74.9036C76.3491 50.86 77.2602 51.2967 77.7202 52.5437C77.7226 52.5537 77.7256 52.5636 77.7291 52.5733C77.7857 52.753 77.9034 53.1277 78.3248 53.1277H78.3401H78.3545C78.6869 53.0836 78.8845 52.7899 78.8845 52.3397C78.876 51.8888 78.8409 51.4388 78.7794 50.9921C78.7408 50.7495 78.7039 50.5204 78.6896 50.2904C78.6761 50.0927 78.6321 49.4926 78.0238 49.4629C77.6501 49.4629 77.2871 49.4962 76.9358 49.5285C76.651 49.5555 76.3563 49.5824 76.0697 49.5896L75.3411 49.6175C74.5613 49.648 73.9934 49.6804 73.2055 49.6804C72.5523 49.6804 71.8821 49.6238 71.229 49.5672C70.6 49.5133 69.999 49.462 69.4321 49.462C68.9568 49.462 68.637 49.7064 68.637 50.0703C68.637 50.5132 69.0664 50.5501 69.3225 50.5734C69.7052 50.6067 69.9675 50.6543 70.1257 50.9849C70.2838 51.3155 70.3188 51.7333 70.3188 52.1358V59.6512C70.3188 60.7033 69.9011 60.8192 69.5327 60.918C69.3243 60.9746 69.0089 61.0618 69.0089 61.4095C69.0077 61.4825 69.0212 61.555 69.0485 61.6228C69.0758 61.6905 69.1164 61.7521 69.1679 61.8039C69.3476 61.9836 69.6109 62.0177 69.804 62.0177C70.2452 62.0177 70.6881 61.9755 71.1157 61.9351C71.5434 61.8946 71.9657 61.8542 72.3843 61.8542C73.157 61.8542 73.9314 61.9171 74.6807 61.9782C75.3878 62.0357 76.0554 62.0896 76.6852 62.0896C77.6384 62.0896 78.5368 62.0896 79.1918 61.2397C79.7309 60.5748 79.9761 59.229 79.9761 58.4608C79.9794 58.3942 79.9686 58.3276 79.9445 58.2655C79.9204 58.2033 79.8836 58.1468 79.8364 58.0997C79.7891 58.0527 79.7325 58.016 79.6703 57.9922C79.608 57.9683 79.5414 57.9578 79.4748 57.9613C79.3687 57.9637 79.2652 57.9944 79.175 58.0504C79.0848 58.1063 79.0112 58.1853 78.9618 58.2793H78.9528ZM59.3022 73.869C59.3926 73.769 59.4747 73.6617 59.5475 73.5483C59.3076 73.4773 58.4909 73.2868 58.234 73.1107C58.1621 73.0604 58.2115 72.9068 58.0695 72.7819C58.8512 72.4504 59.4495 72.2186 60.0398 71.7424C60.6301 72.1206 61.2078 72.6292 61.9553 72.8367C62.7028 73.0442 63.904 72.7468 64.5823 72.6175C67.018 72.1575 69.0565 71.472 71.3691 71.2492C72.7401 71.1153 74.8919 70.5367 76.4004 71.2492C76.4201 71.2581 76.4327 71.454 76.4552 71.4684C76.6348 71.5807 76.7813 71.5106 76.9475 71.6328C77.8235 72.2725 77.1479 72.869 78.7534 72.2895C78.6851 72.4638 78.3464 72.7837 78.3149 72.8915C78.2547 73.0928 78.4793 73.4935 78.4793 73.4935C78.4998 73.6172 78.507 73.7428 78.5009 73.8681C78.4775 74.3569 78.2646 74.7809 78.0966 75.0792C78.9052 74.9597 79.6716 74.5401 80.0058 73.8681C80.2385 73.4036 80.2645 72.8169 79.9573 72.1242L79.5817 71.7415C79.5476 71.6831 79.6284 71.5097 79.5817 71.4675C79.0597 70.9778 78.1811 70.3974 77.5566 69.8251C77.66 69.8305 77.9394 69.8799 77.9394 69.8799C78.6575 70.0106 79.3563 70.2313 80.0193 70.5367C80.6769 70.8404 81.9518 71.3453 82.1531 72.0694C82.3085 72.6336 81.7802 72.6408 81.879 73.1098C81.9356 73.3794 82.2501 73.6049 82.3696 73.8681C82.4594 74.0577 82.4397 74.2679 82.1531 74.5321C81.7532 74.8986 81.2717 74.5725 80.8395 74.5321C80.6787 75.6147 81.7595 76.2319 82.8646 76.1187C84.2239 75.9785 84.4513 74.8034 84.8412 73.8726C84.9017 73.7244 84.9719 73.5803 85.0514 73.4413C85.3272 72.9679 85.5617 72.9113 85.9274 72.5654C86.1547 72.3462 86.736 71.0201 86.8025 70.5951C86.8397 70.2862 86.858 69.9754 86.8573 69.6643C86.8761 69.632 87.0639 69.4047 87.0217 69.4999C87.062 69.4323 87.1185 69.3758 87.1861 69.3355C87.47 69.1297 87.6892 68.8081 88.116 68.6239C88.6784 68.3804 89.168 68.6293 89.4295 69.0076C89.8266 69.5826 89.7988 70.2321 89.699 71.0874C89.9928 71.0533 90.1482 71.0964 90.3558 70.9778C90.5489 70.8673 90.5525 70.7128 90.6837 70.5394C91.2174 69.8332 91.4923 68.6778 91.2309 67.694C91.1707 67.4739 90.8104 67.1658 90.7933 66.9286C90.7888 66.8594 90.9461 66.536 90.9577 66.4362C91.0727 65.4354 90.8895 64.7669 90.4106 64.3563C90.3917 64.3411 90.3755 64.1443 90.3558 64.1371C89.4573 63.749 88.5005 64.7957 88.3307 65.341C89.4645 65.6492 88.6479 67.1289 87.2355 66.3293C85.9705 65.6106 87.0073 64.6618 86.5249 63.3195C86.4539 63.1264 86.2993 63.094 86.196 62.8811C85.6848 63.3824 85.1386 64.0033 84.4998 64.359C81.6814 65.9196 76.2341 66.1559 72.0771 65.5081C71.0232 65.3428 69.2704 65.4417 68.6837 65.3437C67.9568 65.2215 66.8868 65.3662 66.3307 65.4524C65.5131 65.5791 64.7692 65.3824 63.9777 65.5072C62.9984 65.66 61.9966 66.0095 60.9131 66.0544C60.7073 65.2341 59.4756 63.643 57.8485 64.5226C57.8135 64.5396 57.6688 64.5836 57.6688 64.5836C57.5332 64.6286 57.7587 64.7049 57.6814 64.7409C58.2986 65.3482 58.5798 65.8783 58.3373 66.5467C58.0372 67.376 56.7345 67.8531 55.2727 67.969L54.5611 68.0238C52.9529 68.0885 50.9863 68.3409 49.3071 68.0786C48.9091 68.0157 48.2577 67.9986 47.7204 67.9142C47.3054 67.8495 46.176 67.394 45.9146 67.0939C45.2632 66.3437 46.1536 65.0562 46.5713 64.7939C46.4276 64.7193 45.9981 64.4606 45.7502 64.4111C44.2866 64.112 43.531 65.4417 43.3423 66.3266C40.9013 65.9942 37.8763 65.4956 34.9689 65.7247C28.6403 66.2188 21.5202 67.0418 17.7369 63.5289C17.0819 64.8702 18.0657 65.9915 16.6426 66.8127C16.4575 66.9187 16.2491 67.146 15.931 67.1415C15.0263 67.1226 15.2177 66.0849 15.7118 65.7732C15.3902 65.324 14.6804 64.2629 13.7415 64.6789C12.6634 65.156 13.4459 66.704 13.2492 67.6347C13.224 67.7524 13.0066 67.8791 12.9796 67.9627C12.7209 68.623 12.8781 69.3633 12.9796 69.9878C13.1234 70.8961 13.4963 71.4055 14.3471 71.6301C14.3471 71.6175 14.4791 71.3713 14.4567 71.1926C14.374 70.5304 14.3884 70.0246 14.7262 69.5502C15.5043 68.455 16.418 69.3912 16.9148 69.8781C16.9256 69.8889 17.2311 69.9761 17.2984 70.0974C17.4143 70.3094 17.2984 70.5466 17.3532 70.9176C17.4233 71.3758 17.7306 72.2653 17.9004 72.56C17.9103 72.5788 18.1043 72.5923 18.1196 72.6148C18.2804 72.8699 18.3945 73.2994 18.7216 73.436C18.7728 73.4566 18.8959 73.3982 18.9399 73.436C19.0737 73.5541 19.1788 73.7013 19.2471 73.8663C19.4466 74.3155 19.4789 74.895 19.6514 75.2966C19.735 75.4934 20.0306 75.9758 20.1986 76.1169C20.8455 76.6676 22.9245 76.682 23.318 75.8986C23.4339 75.6623 23.335 75.2454 23.318 75.0226C22.9505 75.0765 22.6648 75.302 22.2237 75.187C21.5687 75.0154 21.8544 74.3452 22.1284 73.8681C22.2363 73.6785 22.3423 73.5213 22.3872 73.4369C22.0593 73.002 22.0449 72.5034 22.3872 72.0685C22.7924 71.5483 23.8489 71.0874 24.4671 70.8107C25.0313 70.5556 25.9225 70.2474 26.4913 70.154C26.5721 70.1378 26.8677 70.2384 26.7653 70.2627C26.4571 70.331 26.0268 70.7784 25.8354 70.9185C24.8067 71.666 23.8858 72.8313 24.0763 73.8672H25.8291C25.8291 73.8169 25.8291 73.7648 25.8354 73.7118C25.8561 73.3129 25.7159 73.0433 25.5066 72.8915C25.4347 72.8385 25.5614 72.7271 25.5614 72.7271C25.9666 72.8493 26.5757 73.0397 26.8749 72.6175C27.5658 71.6346 28.4409 71.277 30.0491 71.1953C30.9655 71.1467 32.6231 71.3282 33.4425 71.5241L34.0085 71.6472C34.3966 71.7262 34.4245 71.728 34.8108 71.7972C36.428 72.0784 38.4602 72.7415 40.01 73.002C40.8186 73.1377 42.2112 73.0227 42.6371 72.8385C42.9416 72.7046 43.8769 71.711 44.1141 71.7442C44.3513 71.7774 44.4393 72.1305 44.717 72.2913C45.0593 72.489 45.7151 72.7064 46.194 72.8385C45.8077 73.4261 45.4483 73.6058 44.717 73.6588C44.7933 73.7247 44.8654 73.7955 44.9326 73.8708V73.8708C45.1168 74.0622 45.3647 74.32 45.4815 74.3703C46.5066 74.8249 48.5686 74.9354 50.1336 74.3703C50.8093 75.5608 51.3528 75.3137 51.8299 76.9974L51.9611 77.2669L52.1039 77.3756C52.7068 76.9093 52.5981 76.1735 52.979 75.7333C53.2899 75.3739 53.7876 75.0388 54.1281 74.4197C55.8782 74.5572 58.1172 75.1601 59.3004 73.8672L59.3022 73.869ZM83.0191 73.9849C83.0298 73.9427 83.0487 73.9029 83.0748 73.8681C83.1527 73.765 83.2253 73.6579 83.2923 73.5474C83.4118 73.6254 83.5055 73.737 83.5618 73.8681V73.8681C83.6984 74.2715 82.9563 74.4431 83.0227 73.9849H83.0191ZM83.0191 72.6166C83.0407 72.657 83.1854 72.6929 83.2384 72.7262C83.0533 73.2042 83.0587 73.1754 83.0191 72.6166ZM82.472 70.5358C82.6975 70.6113 82.9023 70.596 83.1288 70.7002C83.6274 70.9311 84.8457 72.347 84.1682 72.9984C84.1431 72.8978 84.0038 72.5061 84.0038 72.5061C83.8996 71.1845 83.56 71.6867 82.8547 71.1935C82.7083 71.0892 82.5663 70.6912 82.472 70.5358ZM83.4603 70.2088C83.18 70.0731 82.9455 69.8377 82.6939 69.7155C82.9691 69.7376 83.2429 69.7742 83.5142 69.8251C83.5429 70.1243 83.4603 70.2088 83.4603 70.2088ZM77.9879 68.7847C79.1765 68.7847 80.1549 68.7847 81.2169 68.6203C82.1351 68.4766 83.2195 68.261 84.2266 68.1837C84.9625 68.1253 85.4943 68.5269 86.1421 68.7308C86.1421 68.7308 85.9489 68.8836 86.0325 68.8952C83.4899 68.8952 80.1927 69.0749 77.9879 68.7847V68.7847ZM61.6247 67.7965C62.2886 66.9771 63.4018 66.6285 64.6892 66.429C65.284 66.3392 66.1267 66.4713 66.5499 66.5377C67.3333 66.659 68.0314 66.4731 68.796 66.5926C70.0682 66.7911 71.5973 67.0543 72.8452 67.2493C73.7895 67.3958 74.5523 67.5485 75.4723 67.632C75.7598 67.6572 76.1704 67.8593 76.403 67.9016C77.27 68.0696 76.3518 67.9914 75.9107 68.066C75.4507 68.1352 74.4786 68.2627 73.9952 68.3355C72.069 68.6347 69.2766 68.3355 67.2632 68.3355C66.5292 68.3355 65.5562 68.2403 65.0738 68.4999C65.1079 68.7596 65.0827 68.9662 65.2382 68.9923C65.452 69.0255 65.5921 68.8935 65.8949 68.8827C67.3567 68.8315 69.1023 68.6572 70.547 68.8827C71.7815 69.074 73.5811 69.2654 74.8155 69.2654C73.378 69.7604 71.715 69.7919 70.1643 70.1423C68.637 70.4837 67.2893 70.9581 65.5122 71.2366C64.8141 71.3444 63.7153 71.7208 62.7755 71.4558C61.8124 71.1863 61.5231 70.4927 61.2976 69.9779C61.0532 69.4226 61.153 68.3706 61.6264 67.7893L61.6247 67.7965ZM58.1764 69.8763C59.6427 69.4388 59.0381 70.5529 58.6149 70.6427C57.8566 70.8017 57.6311 70.0372 58.1764 69.8763ZM57.7928 68.6185C58.1845 68.8962 58.2322 69.0965 57.8485 69.3301C57.8485 69.3301 57.7982 69.2402 57.7668 69.2501C57.4361 68.9806 57.6616 68.8171 57.7928 68.6212V68.6185ZM55.659 68.8881C55.7472 68.9136 55.8374 68.9319 55.9286 68.9429C55.9286 69.6832 55.7264 70.2492 55.5458 69.49C55.4659 69.472 55.5566 69.0794 55.6554 68.8881H55.659ZM53.5791 69.764C53.7588 69.6742 53.4291 69.4945 53.6888 69.4891C53.6052 69.4451 53.5585 69.1369 53.6888 69.0516C54.1784 69.5089 54.005 70.7919 53.5791 69.764ZM52.1021 69.2735C52.3168 69.7146 52.2989 69.5233 52.2656 69.8754C52.1686 70.8835 51.5756 69.7856 52.1021 69.2735ZM50.3726 69.057C50.5029 69.1468 50.4562 69.4505 50.3726 69.4945C50.6323 69.4999 50.2972 69.6742 50.4822 69.7694C50.0564 70.7972 49.883 69.5143 50.3726 69.057ZM48.4958 68.897C48.7114 69.3391 48.6925 69.1468 48.6602 69.499C48.5623 70.5079 47.9693 69.4092 48.4958 68.897ZM46.4716 69.5538C46.3382 69.4712 46.226 69.3586 46.1437 69.225L46.3036 68.7344C46.725 68.9851 46.6684 69.0758 46.4671 69.5565L46.4716 69.5538ZM45.0988 69.9922C47.1239 69.9922 46.335 71.0569 45.4815 70.649C45.2165 70.5205 45.1743 70.0641 45.0988 69.9922ZM39.188 69.004C39.1197 68.8243 39.1197 68.7506 39.0784 68.6203C35.5214 68.216 30.9089 69.2178 27.5855 68.3508C27.7014 68.3373 28.1614 68.2367 28.4067 68.1873C29.9341 67.871 31.7309 67.3967 33.332 67.1478C34.9186 66.8989 36.4432 66.9483 37.9841 66.7094C40.117 66.376 42.1034 67.1541 42.8545 68.4056C43.2067 68.9923 43.2462 69.6634 42.9093 70.4307C41.6829 73.1961 36.2995 70.8907 33.8791 70.4307C32.3518 70.1378 30.6501 70.1333 29.3366 69.6086C30.1596 69.6086 30.9152 69.4388 31.5827 69.3391C32.3113 69.225 32.9735 69.3993 33.7174 69.2843C35.3409 69.0291 37.7271 69.4092 39.1907 69.0147L39.188 69.004ZM21.0189 73.1655C21.0736 73.1687 21.1285 73.1687 21.1833 73.1655C21.1703 73.2747 21.1703 73.3851 21.1833 73.4944C21.2084 73.5078 20.62 73.3075 21.0189 73.1655ZM19.815 73.4351C19.815 72.1772 20.3747 71.542 21.2929 71.189L21.5624 70.9697C21.8535 70.9356 21.5624 71.189 21.5624 71.189C21.5094 71.3076 21.4923 71.2896 21.4528 71.3534C21.2013 71.7361 20.4331 71.923 20.3585 72.064C20.0081 72.7163 20.5705 73.2015 19.8114 73.4333L19.815 73.4351ZM20.8032 70.6984C20.3091 70.3274 20.8167 70.1863 21.186 70.1513C21.9461 70.0731 20.9506 70.6247 20.8032 70.6984ZM17.9031 69.3301C18.3083 69.1666 18.8833 68.7075 19.2714 68.6185C19.4834 68.5673 19.7206 68.7219 19.7638 68.7281C20.8563 68.8979 21.8005 68.9078 23.0475 68.9977C24.0277 69.0695 25.0897 69.136 26.1121 69.2169C23.8445 69.7254 20.5723 69.3256 17.9031 69.3256V69.3301ZM40.2859 69.1657C39.8959 69.4891 39.4395 69.8844 38.8088 69.986C37.6319 70.1818 36.1135 69.9806 35.2519 69.7119C35.2519 69.7119 35.4738 69.8422 35.5214 69.8763C35.7011 69.9922 35.8566 70.1342 36.1234 70.2052C35.9284 70.0767 36.7352 70.3911 37.0533 70.5322C38.2662 71.0713 40.3775 71.4935 41.6506 70.7514C42.0827 70.4972 42.2238 70.1225 42.3622 69.711C42.9452 67.9896 40.0262 66.8226 37.3309 67.2493C37.18 67.2718 35.5709 67.4604 35.1549 67.5081C35.1639 67.5081 35.9635 67.6141 35.9635 67.632C38.0173 67.632 39.6848 67.6608 40.1781 69.0543C40.1915 69.0049 40.2868 69.1657 40.2868 69.1657H40.2859ZM62.6111 70.6481C63.3685 70.9931 64.5589 70.9599 65.5122 70.8125C66.4106 70.6706 67.4618 70.3166 68.194 70.1558C68.6432 70.0542 69.0116 69.7775 69.2335 69.6077C67.7457 69.9976 64.2418 70.2681 64.1439 69.1163C64.1115 68.7326 64.2616 68.597 64.6362 68.3499C65.2651 67.9294 66.2804 67.5701 67.1518 67.4191C67.5265 67.3526 67.8041 67.3643 68.1922 67.3643C68.1922 67.3643 68.2336 67.1981 68.247 67.146C67.2588 67.1038 66.3163 66.8252 65.2912 66.9816C64.2661 67.1379 63.1709 67.2861 62.5006 67.8019C61.4998 68.5682 61.7262 70.2447 62.6093 70.6481H62.6111ZM16.6408 70.8125C17.1349 70.6418 16.9498 69.6769 16.2032 69.8242C15.6112 69.9428 15.8025 71.0955 16.6408 70.8125ZM17.0235 72.2904C17.5626 72.1323 17.3829 70.985 16.5851 71.2501C16.0748 71.4172 16.2401 72.5187 17.0235 72.2904ZM17.5707 73.5483C17.7656 73.1835 17.8465 72.4701 17.1331 72.56C16.533 72.6381 16.4916 73.5483 17.5707 73.5483ZM17.7369 73.869H18.7377C18.7377 73.5995 18.5841 73.3955 18.0639 73.5483C17.9847 73.565 17.9118 73.604 17.8539 73.6607C17.796 73.7173 17.7554 73.7893 17.7369 73.8681V73.869ZM17.7369 73.869C17.6776 74.1619 17.957 74.5329 18.5563 74.5329C18.6643 74.3279 18.7256 74.1015 18.7359 73.8699L17.7369 73.869ZM25.8282 73.869H24.0754C24.1975 74.5392 24.7851 75.1547 26.1076 75.576C25.9279 75.0046 25.8084 74.5878 25.8282 73.869ZM85.5222 73.869C85.5674 73.9477 85.6351 74.0112 85.7165 74.0514C85.7979 74.0916 85.8895 74.1066 85.9795 74.0945C86.0498 74.087 86.1173 74.0626 86.1762 74.0233C86.235 73.9841 86.2834 73.9311 86.3173 73.869V73.869C86.5293 73.5096 86.3793 72.8663 85.7594 73.0011C85.4144 73.0739 85.338 73.5689 85.5213 73.869H85.5222ZM87.1286 73.1107C87.6164 72.9724 87.5994 72.0056 86.9103 72.0164C86.1502 72.0245 86.3712 73.3228 87.1286 73.1107ZM87.6218 71.7433C88.0764 71.5717 87.93 70.4783 87.1286 70.7029C86.621 70.8431 86.7926 72.0506 87.6218 71.7433ZM87.8914 70.3741C88.4628 70.2474 88.4304 69.0713 87.5634 69.2798C87.001 69.4136 87.2337 70.5187 87.8914 70.3741Z" fill="url(#paint0_linear_2495_42432)"/>
<path d="M18.5605 91.5493C16.4941 91.5493 14.9938 89.6896 14.9938 86.8505C14.9938 84.5864 16.2066 82.4751 18.4168 82.4751C19.5848 82.4751 20.7527 83.0142 21.2559 84.847L21.8219 84.7392C21.7141 83.7688 21.6063 83.0591 21.4715 82.2145C21.0582 82.1247 19.9352 81.8013 18.7043 81.8013C15.0746 81.8013 12.6758 84.0024 12.6758 87.156C12.6758 89.5997 14.3648 92.2681 18.4078 92.2681C19.441 92.2681 20.8426 91.9626 21.2379 91.8638C21.4984 91.3247 21.8937 90.1567 22.0914 89.42L21.5613 89.1774C20.7707 90.7317 19.8273 91.5493 18.5605 91.5493ZM30.9051 89.8243C29.9168 87.1739 28.9734 84.4966 28.0031 81.8013L27.2305 81.9989L24.1129 89.9142C23.6098 91.2079 23.4301 91.3786 22.4238 91.4954L22.4059 92.0345H25.8109V91.4954C24.7059 91.3606 24.6699 91.145 24.8855 90.3993C25.0652 89.7794 25.2629 89.2313 25.4336 88.7552H28.3535C28.5781 89.3841 28.8117 90.031 28.9645 90.4981C29.207 91.172 29.1352 91.3606 28.2367 91.4954V92.0345H32.5852V91.4954C31.6238 91.375 31.4253 91.181 30.9051 89.8243V89.8243ZM25.6941 87.9466C26.0895 86.8505 26.4668 85.7454 26.898 84.6224H26.943L28.066 87.9466H25.6941ZM36.9695 85.979C35.6309 85.3052 35.0828 84.811 35.0828 83.9665C35.0828 83.086 35.7027 82.4392 36.5562 82.4392C37.8051 82.4392 38.3621 83.5802 38.6855 84.5505L39.2066 84.4247C39.0809 83.4724 38.982 82.7896 38.9191 82.2235C38.2453 81.9622 37.5305 81.8223 36.8078 81.8103C34.6516 81.8103 33.3309 83.131 33.3309 84.829C33.3309 86.3024 34.409 87.138 35.9723 87.9376C37.1133 88.5575 37.7781 89.1235 37.7781 90.031C37.7781 91.0013 37.1852 91.6481 36.2598 91.6481C34.8043 91.6481 33.9059 89.9231 33.6004 88.9349L33.0703 89.1056C33.1781 90.0489 33.3758 91.3337 33.5105 91.72C33.812 91.8519 34.121 91.9659 34.4359 92.0614C34.9353 92.2053 35.4526 92.2779 35.9723 92.277C38.1914 92.277 39.6648 90.9024 39.6648 89.1505C39.6648 87.6231 38.5687 86.7606 36.9695 85.979V85.979ZM40.2758 82.5739C41.3988 82.6817 41.5336 82.7895 41.5336 84.1013V89.995C41.5336 91.2888 41.3988 91.3966 40.2758 91.5044V92.0435H44.8309V91.5044C43.7078 91.3966 43.573 91.2888 43.573 89.995V84.0977C43.573 82.786 43.7078 82.6781 44.8309 82.5703V82.0313H40.2758V82.5739ZM52.818 82.5739C53.923 82.6368 54.2465 82.8974 54.3184 83.5622C54.3453 84.0114 54.4441 84.7302 54.4441 86.0868V88.8001H54.3812L48.5773 82.0438H45.7652V82.5829C46.4031 82.6458 46.7535 82.7716 47.023 83.1399C47.3105 83.4903 47.3465 83.7868 47.3465 84.7841V88.0005C47.3559 88.8506 47.3049 89.7002 47.1937 90.5431C47.1309 91.2079 46.7805 91.4505 45.9359 91.5134V92.0524H49.6555V91.5134C48.5324 91.4685 48.2719 91.172 48.2 90.4981C48.1096 89.6687 48.0676 88.8348 48.0742 88.0005V84.5325H48.1191L54.4441 92.1962H55.1719V86.0868C55.1679 85.2344 55.2129 84.3825 55.3066 83.5353C55.3785 82.8255 55.7019 82.6278 56.5195 82.5829V82.0438H52.8081V82.5703L52.818 82.5739ZM61.5957 81.8103C58.1187 81.8103 56.259 84.4157 56.259 87.0571C56.259 90.013 58.3703 92.277 61.407 92.277C64.2641 92.277 66.618 90.2645 66.618 86.9313C66.627 83.8856 64.3629 81.8103 61.5957 81.8103V81.8103ZM61.6855 91.6302C59.7449 91.6302 58.5859 89.402 58.5859 86.7696C58.5859 84.1103 59.7898 82.4571 61.3172 82.4571C63.0602 82.4571 64.291 84.3079 64.291 87.3716C64.3 90.1927 63.132 91.6302 61.6855 91.6302V91.6302ZM81.1089 86.855C81.1089 90.1208 78.7648 92.1019 75.9222 92.1019C72.898 92.1019 70.8011 89.8791 70.8011 86.9763C70.8011 84.3753 72.6456 81.8201 76.1082 81.8201C78.8628 81.8201 81.1089 83.8614 81.1089 86.855ZM73.1128 86.6888C73.1128 89.2745 74.2619 91.4667 76.1971 91.4667C77.6346 91.4667 78.7981 90.0606 78.7981 87.279C78.7981 84.2702 77.5735 82.4553 75.8332 82.4553C74.3068 82.4553 73.1128 84.0734 73.1128 86.6888ZM91.3322 82.5766C90.5155 82.6215 90.1984 82.8183 90.1229 83.5137C90.028 84.347 89.9824 85.1852 89.9863 86.0239V92.0264H89.2613L82.9722 84.4966H82.9264V87.899C82.9189 88.717 82.9594 89.5348 83.0477 90.3481C83.1232 91.0129 83.3801 91.3004 84.4987 91.3463V91.8754H80.7935V91.3463C81.6407 91.2852 81.9884 91.0435 82.0513 90.393C82.1603 89.5663 82.2107 88.7328 82.2023 87.899V84.7383C82.2023 83.7563 82.1726 83.4688 81.8851 83.1211C81.6156 82.7617 81.2652 82.6368 80.6273 82.5766V82.0474H83.425L89.2002 88.6851H89.2613V86.0239C89.2613 84.6933 89.1714 83.9827 89.14 83.5442C89.0645 82.8938 88.7465 82.6368 87.6432 82.5766V82.0474H91.3322V82.5766Z" fill="url(#paint1_linear_2495_42432)"/>
<path d="M1 96V44H0V96C0 100.418 3.58172 104 8 104H96C100.418 104 104 100.418 104 96V44H103V96C103 99.866 99.866 103 96 103H8C4.13401 103 1 99.866 1 96Z" fill="url(#paint2_linear_2495_42432)"/>
<defs>
<linearGradient id="paint0_linear_2495_42432" x1="13.0695" y1="43.7785" x2="94.2847" y2="43.7785" gradientUnits="userSpaceOnUse">
<stop stop-color="#FBB616"/>
<stop offset="0.5" stop-color="#FDF282"/>
<stop offset="1" stop-color="#FBB616"/>
</linearGradient>
<linearGradient id="paint1_linear_2495_42432" x1="12.6758" y1="81.8013" x2="91.3322" y2="81.8013" gradientUnits="userSpaceOnUse">
<stop stop-color="#FDB813"/>
<stop offset="0.5" stop-color="#FFF481"/>
<stop offset="1" stop-color="#FDB813"/>
</linearGradient>
<linearGradient id="paint2_linear_2495_42432" x1="52" y1="44" x2="52" y2="104" gradientUnits="userSpaceOnUse">
<stop/>
<stop offset="1" stop-color="#444444"/>
</linearGradient>
</defs>
</svg>
