<?xml version="1.0" encoding="UTF-8"?>
<svg width="120px" height="56px" viewBox="0 0 120 56" version="1.1" xmlns="http://www.w3.org/2000/svg" xmlns:xlink="http://www.w3.org/1999/xlink">
    <title>Assets / Methods / CashtoCode</title>
    <g id="Symbols" stroke="none" stroke-width="1" fill="none" fill-rule="evenodd">
        <g id="Content">
            <rect id="Guide" fill-opacity="0" fill="#FFFFFF" x="0" y="0" width="120" height="56"></rect>
            <path d="M25.80392,24.3684 C27.11272,24.3684 28.09992,24.6684 28.76712,25.266 C29.43272,25.8644 29.76552,26.8052 29.7647214,28.086 L29.7647214,28.086 L29.7647214,35.3548 L28.20232,35.3548 L27.76552,33.8516 L27.69112,33.8516 C27.19432,34.5092 26.69592,34.9564 26.19352,35.1924 C25.69112,35.4316 25.04552,35.5508 24.25832,35.5508 C23.24792,35.5508 22.45992,35.2628 21.89272,34.6916 C21.32472,34.1196 21.04152,33.31 21.04152,32.262 C21.04152,31.15 21.43512,30.3108 22.22312,29.7452 C23.00872,29.1796 24.20952,28.8708 25.82312,28.8188 L25.82312,28.8188 L27.59992,28.7588 L27.59992,28.1836 C27.59992,27.4924 27.44552,26.978 27.13832,26.6364 C26.83112,26.2956 26.35512,26.1252 25.71112,26.1252 C25.18392,26.1252 24.67832,26.2068 24.19512,26.3692 C23.71112,26.53 23.24632,26.7228 22.79992,26.9444 L22.79992,26.9444 L22.09192,25.3076 C22.65112,24.9988 23.26072,24.7676 23.92632,24.6092 C24.58712,24.4492 25.21512,24.3684 25.80392,24.3684 Z M35.38656,24.36736 C36.59536,24.36736 37.73936,24.62576 38.81776,25.13776 L38.81776,25.13776 L38.11136,26.86576 C37.00096,26.38496 36.06736,26.14496 35.31136,26.14496 C34.15856,26.14496 33.58176,26.48976 33.58176,27.17856 C33.58176,27.51616 33.73136,27.80096 34.03136,28.03536 C34.33296,28.26976 34.98896,28.59376 36.00016,29.00256 C36.84896,29.34736 37.46736,29.66416 37.85056,29.94896 C38.23456,30.23456 38.52016,30.56576 38.70576,30.93776 C38.89296,31.31456 38.98656,31.76176 38.98656,32.28016 C38.98656,33.33296 38.61936,34.14416 37.88816,34.70656 C37.15696,35.26656 36.10736,35.55056 34.74416,35.55056 C33.37376,35.55056 32.27376,35.33136 31.44256,34.89696 L31.44256,34.89696 L31.44256,32.91616 C32.65136,33.50096 33.77696,33.79456 34.81856,33.79456 C36.16416,33.79456 36.83616,33.36576 36.83616,32.51536 C36.83616,32.24256 36.76336,32.01456 36.61456,31.83216 C36.46496,31.64896 36.22016,31.46096 35.87936,31.26496 C35.53856,31.07056 35.06416,30.85056 34.45616,30.60256 C33.27136,30.12176 32.46976,29.64096 32.05216,29.15936 C31.63376,28.67696 31.42336,28.05296 31.42336,27.28576 C31.42336,26.36096 31.77856,25.64496 32.48896,25.13216 C33.19936,24.62336 34.16576,24.36736 35.38656,24.36736 Z M61.62776,24.54416 C63.01656,24.54416 64.10616,25.03296 64.89896,26.01296 C65.68856,26.99376 66.08376,28.33376 66.08376,30.03936 C66.08376,31.76656 65.68296,33.12016 64.88456,34.09136 C64.08456,35.06416 62.98056,35.55136 61.57336,35.55136 C60.68536,35.55136 59.90456,35.32656 59.22856,34.87776 C58.55336,34.42816 58.03416,33.78416 57.67496,32.94496 C57.31656,32.10656 57.13576,31.13616 57.13576,30.03776 C57.13576,28.30736 57.53576,26.96016 58.33576,25.99376 C59.13576,25.02736 60.23256,24.54416 61.62776,24.54416 Z M83.6276,24.36824 C85.1172,24.36824 86.2948,24.87064 87.1628,25.87624 C88.0316,26.88184 88.4644,28.23464 88.4644,29.93944 C88.4644,31.70184 88.0332,33.07784 87.1732,34.06584 C86.3116,35.05624 85.1116,35.55064 83.5732,35.55064 C82.6116,35.55064 81.7612,35.32264 81.0252,34.86584 C80.2868,34.41224 79.7196,33.75864 79.3228,32.90504 C78.926,32.05464 78.7268,31.06424 78.7268,29.93944 C78.7268,28.19064 79.1548,26.82424 80.0116,25.84184 C80.8644,24.86024 82.0716,24.36824 83.6276,24.36824 Z M98.97776,20.17288 L98.97776,35.35528 L97.26656,35.35528 L96.88416,33.94008 L96.78176,33.94008 C96.08176,35.01368 95.05456,35.55128 93.70256,35.55128 C92.41936,35.55128 91.41776,35.06248 90.69776,34.08728 C89.97936,33.11048 89.62016,31.74168 89.62016,29.97928 C89.62016,28.21048 89.98336,26.83208 90.71216,25.84648 C91.44016,24.86088 92.45056,24.36888 93.73856,24.36888 C95.09136,24.36888 96.11936,24.89128 96.82736,25.94008 L96.82736,25.94008 L96.93776,25.94008 C96.83376,25.16648 96.78096,24.55448 96.78096,24.10488 L96.78096,24.10488 L96.78256,24.10488 L96.78256,20.17288 L98.97776,20.17288 Z M105.45096,24.36808 C106.81016,24.36808 107.88216,24.80168 108.66936,25.66728 C109.45576,26.53048 109.85096,27.72088 109.85096,29.23608 L109.85016,29.23608 L109.85016,30.47608 L102.99576,30.47608 C103.02536,31.52488 103.29576,32.32968 103.80456,32.89208 C104.31416,33.45528 105.03096,33.73528 105.95256,33.73528 C106.56056,33.73528 107.12776,33.67608 107.65096,33.55608 C108.17496,33.43528 108.73816,33.23448 109.33896,32.95448 L109.33896,32.95448 L109.33896,34.81848 C108.80536,35.08568 108.26696,35.27448 107.71976,35.38408 C107.17496,35.49528 106.55256,35.55128 105.85096,35.55128 C104.25096,35.55128 103.00056,35.06088 102.09816,34.08248 C101.19496,33.10168 100.74536,31.75528 100.74536,30.03768 C100.74536,28.27448 101.16376,26.89048 102.00136,25.88088 C102.83736,24.87368 103.98776,24.36808 105.45096,24.36808 Z M16.47368,20.88488 C17.86248,20.88488 19.14568,21.19048 20.32328,21.80168 L20.32328,21.80168 L19.52488,23.74408 C19.06568,23.51608 18.58088,23.31768 18.06888,23.14408 C17.55608,22.97128 17.02008,22.88648 16.45448,22.88648 C15.17768,22.88648 14.17288,23.36008 13.44008,24.30888 C12.70888,25.25768 12.34328,26.56888 12.34328,28.24088 C12.34328,29.99208 12.69528,31.31368 13.39928,32.21288 C14.10248,33.10888 15.12088,33.55768 16.45368,33.55768 C17.03048,33.55768 17.58968,33.49848 18.12888,33.37768 C18.66808,33.25768 19.22888,33.10328 19.81208,32.91528 L19.81208,32.91528 L19.81208,34.91528 C18.74568,35.33688 17.53688,35.54968 16.18408,35.54968 C14.19528,35.54968 12.66568,34.91688 11.60008,33.65128 C10.53288,32.38568 10.00008,30.57688 10.00008,28.22168 C10.00008,26.73768 10.26008,25.44248 10.77688,24.32888 C11.29448,23.21768 12.04248,22.36408 13.02328,21.77368 C14.00248,21.18168 15.15288,20.88488 16.47368,20.88488 Z M74.04712,20.88488 C75.43512,20.88488 76.71832,21.19048 77.89672,21.80168 L77.89672,21.80168 L77.09752,23.74408 C76.63912,23.51608 76.15352,23.31768 75.64312,23.14408 C75.12952,22.97128 74.59272,22.88648 74.02792,22.88648 C72.75032,22.88648 71.74552,23.36008 71.01352,24.30888 C70.28312,25.25768 69.91672,26.56888 69.91672,28.24088 C69.91672,29.99208 70.26792,31.31368 70.97272,32.21288 C71.67672,33.10888 72.69432,33.55768 74.02712,33.55768 C74.60392,33.55768 75.16152,33.49848 75.70232,33.37768 C76.24072,33.25768 76.80232,33.10328 77.38552,32.91528 L77.38552,32.91528 L77.38552,34.91528 C76.31992,35.33688 75.11032,35.54968 73.75752,35.54968 C71.76872,35.54968 70.23912,34.91688 69.17352,33.65128 C68.10632,32.38568 67.57352,30.57688 67.57352,28.22168 C67.57352,26.73768 67.83192,25.44248 68.34952,24.32888 C68.86792,23.21768 69.61672,22.36408 70.59592,21.77368 C71.57752,21.18168 72.72552,20.88488 74.04712,20.88488 Z M53.05936,22.1828 L53.05936,24.7484 L56.02816,24.7484 L56.02816,25.5876 L53.05936,25.5876 L53.05936,32.2996 C53.05936,33.1132 53.19696,33.7148 53.46896,34.1068 C53.74176,34.4956 54.17056,34.6916 54.75376,34.69 C55.33696,34.69 55.84576,34.6372 56.28016,34.5332 L56.28016,34.5332 L56.28016,35.3132 C55.83216,35.4684 55.31856,35.5492 54.73536,35.5492 C53.84176,35.5492 53.18256,35.2972 52.75776,34.7956 C52.33376,34.2956 52.12016,33.5092 52.12016,32.4364 L52.12016,32.4364 L52.12016,25.5876 L50.62336,25.5876 L50.62336,25.022 L52.12016,24.5828 L52.58576,22.1828 L53.05936,22.1828 Z M42.79024,20.17248 L42.79024,24.02688 C42.79024,24.64528 42.75264,25.30768 42.67904,26.00928 L42.67904,26.00928 L42.81824,26.00928 C43.11504,25.48688 43.53024,25.08368 44.05984,24.79728 C44.58944,24.51328 45.20864,24.36848 45.91504,24.36848 C48.40864,24.36848 49.65504,25.68528 49.65504,28.32128 L49.65504,28.32128 L49.65504,35.35488 L47.45904,35.35488 L47.45904,28.71968 C47.45904,27.88848 47.29904,27.26768 46.98064,26.85568 C46.66224,26.44688 46.15424,26.24208 45.46064,26.24208 C44.54224,26.24208 43.86784,26.52848 43.43744,27.10528 C43.00624,27.68208 42.79024,28.64688 42.79024,29.99808 L42.79024,29.99808 L42.79024,35.35408 L40.60544,35.35408 L40.60544,20.17248 L42.79024,20.17248 Z M61.59096,25.42176 C60.47496,25.42176 59.61416,25.82336 59.00936,26.62656 C58.40536,27.42976 58.10376,28.56576 58.10376,30.03696 C58.10376,31.49456 58.40936,32.63056 59.01976,33.44736 C59.63016,34.26256 60.49336,34.67136 61.61016,34.67136 C62.72616,34.67136 63.58856,34.26336 64.19976,33.44736 C64.81096,32.63056 65.11576,31.49456 65.11656,30.03696 C65.11656,28.57376 64.80856,27.43936 64.19096,26.63216 C63.57496,25.82496 62.70856,25.42176 61.59096,25.42176 Z M27.57912,30.202 L26.25992,30.2612 C25.22952,30.3004 24.48072,30.4804 24.01352,30.8012 C23.54472,31.1252 23.31192,31.618 23.31192,32.2804 C23.31192,32.762 23.44792,33.134 23.72152,33.398 C23.99352,33.6604 24.40152,33.7932 24.94792,33.7932 C25.74232,33.7932 26.37832,33.5596 26.85912,33.0948 C27.33992,32.6292 27.57912,31.9788 27.57912,31.1396 L27.57912,31.1396 L27.57912,30.202 Z M94.26896,26.24088 C93.50016,26.24088 92.90816,26.56808 92.49296,27.22248 C92.07856,27.87528 91.86896,28.80728 91.86896,30.01768 C91.86896,31.21288 92.07056,32.12568 92.47456,32.75368 C92.87776,33.38328 93.48256,33.69528 94.28896,33.69528 C95.18736,33.69528 95.84176,33.43208 96.25136,32.90168 C96.66096,32.36968 96.86976,31.50968 96.88336,30.31928 L96.88336,30.31928 L96.88336,29.99768 C96.88336,28.63768 96.67216,27.67128 96.25136,27.09848 C95.82896,26.52808 95.16736,26.24088 94.26896,26.24088 Z M83.59,26.24104 C82.6724,26.24104 82.0084,26.56024 81.5948,27.19784 C81.1828,27.83544 80.9764,28.74984 80.9764,29.93784 C80.9764,32.42984 81.8548,33.67704 83.6092,33.67704 C85.346,33.67704 86.214,32.43064 86.2132006,29.93784 C86.2132006,27.47464 85.3388,26.24104 83.59,26.24104 Z M105.45176,26.10488 C104.75816,26.10488 104.20136,26.33608 103.78296,26.79848 C103.36296,27.26008 103.11496,27.93368 103.03336,28.81768 L103.03336,28.81768 L107.70296,28.81768 C107.69016,27.92568 107.48536,27.25048 107.08856,26.79288 C106.69256,26.33448 106.14616,26.10488 105.45176,26.10488 Z" id="cashtocode" fill="#02A1E3"></path>
        </g>
    </g>
</svg>