<?xml version="1.0" encoding="UTF-8"?>
<svg width="120px" height="56px" viewBox="0 0 120 56" version="1.1" xmlns="http://www.w3.org/2000/svg" xmlns:xlink="http://www.w3.org/1999/xlink">
    <title>Assets / Methods / MuchBetter</title>
    <g id="Symbols" stroke="none" stroke-width="1" fill="none" fill-rule="evenodd">
        <g id="Content">
            <rect id="Guide" fill-opacity="0" fill="#FFFFFF" x="0" y="0" width="120" height="56"></rect>
            <path d="M12.5618005,22.8785372 L18.2537529,32.5090313 C18.6094999,33.161096 18.4062159,33.9636372 17.7455429,34.3649078 C17.4914379,34.5153842 17.2881538,34.5655431 17.0340488,34.5655431 C16.5766598,34.5655431 16.1192708,34.314749 15.8651658,33.9134784 L10.1732134,24.2328255 C9.81746636,23.5807607 10.0207504,22.7782196 10.6814234,22.376949 C11.3420965,22.0258372 12.1552325,22.2264725 12.5618005,22.8785372 Z M61.0221095,24.9481006 C61.4244291,25.1514179 61.8770388,25.5072231 61.8770388,25.964687 C61.8770388,26.2188336 61.7764589,26.3713216 61.625589,26.5746388 C61.5250091,26.7271268 61.2735593,26.8287854 61.0723994,26.8287854 C60.8712396,26.8287854 60.7203697,26.7779561 60.4689199,26.5746388 C60.1671801,26.3713216 59.9660203,26.2696629 59.6139906,26.2696629 C59.2116709,26.2696629 58.8596412,26.4221509 58.6081914,26.7271268 C58.3567416,27.082932 58.2058717,27.5403959 58.2058717,28.3028357 C58.2058717,29.0652755 58.3064516,29.5735688 58.6081914,29.929374 C58.8596412,30.2343499 59.2116709,30.3868379 59.6139906,30.3868379 C59.9660203,30.3868379 60.1671801,30.2851792 60.4689199,30.081862 C60.7203697,29.8785447 60.8712396,29.8277154 61.0723994,29.8277154 C61.2735593,29.8277154 61.4747191,29.929374 61.625589,30.081862 C61.7764589,30.2343499 61.8770388,30.4376672 61.8770388,30.6918138 C61.8770388,31.1492777 61.4244291,31.5050829 61.0221095,31.7084002 C60.6197898,31.9625468 60.1671801,32.0642055 59.6139906,32.0642055 C58.2058717,32.0642055 56.3954331,31.3017657 56.3954331,28.3536651 C56.3954331,25.4055645 58.1555817,24.6431247 59.6139906,24.6431247 C60.1671801,24.5922953 60.5694998,24.693954 61.0221095,24.9481006 Z M46.1362813,22 C46.3877311,22 46.5888909,22.1016586 46.7900507,22.2541466 C47.0415005,22.5082932 47.0917905,22.7624398 47.0917905,23.1690744 L47.0917905,30.6918138 C47.0917905,31.1492777 47.0917905,31.3017657 46.9409206,31.5559123 C46.7900507,31.8100589 46.488311,32.0133761 46.0859913,32.0133761 C45.6836716,32.0133761 45.3819319,31.8100589 45.231062,31.5559123 C45.1304821,31.3017657 45.0801921,31.1492777 45.0801921,30.6918138 L45.0801921,26.2188336 L43.6217833,29.3702515 C43.3703335,29.8277154 43.1691736,30.0310326 42.716564,30.0310326 C42.2639543,30.0310326 42.0125045,29.8785447 41.7610547,29.3702515 L40.151776,26.1680043 L40.151776,30.6409845 C40.151776,31.0984484 40.151776,31.2509363 40.0009061,31.5050829 C39.8500362,31.7592295 39.5482965,31.9625468 39.1459768,31.9625468 C38.7436571,31.9625468 38.4419174,31.7592295 38.2910475,31.5050829 C38.1904676,31.2509363 38.1401776,31.0984484 38.1401776,30.6409845 L38.1401776,23.1690744 C38.1401776,22.7624398 38.1904676,22.4574639 38.4419174,22.2541466 C38.5927872,22.1016586 38.844237,22 39.0956868,22 C39.3471366,22 39.4980065,22.0508293 39.6488764,22.152488 C39.8500362,22.2541466 40.0009061,22.5082932 40.151776,22.7624398 L42.6159841,27.4895666 L45.0801921,22.7624398 C45.180772,22.5082932 45.3819319,22.3049759 45.5830917,22.152488 C45.7339616,22.0508293 45.9351214,22 46.1362813,22 Z M53.9312251,24.5922953 C54.2832548,24.5922953 54.5849946,24.7447833 54.6855745,24.9989299 C54.7749789,25.1796564 54.7849127,25.3202214 54.7860164,25.6705184 L54.7861544,30.6918138 C54.7861544,31.1492777 54.7861544,31.3017657 54.6352845,31.5050829 C54.4844146,31.7592295 54.1826749,31.9117175 53.8809351,31.9117175 C53.6294853,31.9117175 53.4283255,31.8100589 53.3277456,31.7084002 C53.1768757,31.5559123 53.1265857,31.4034243 53.0762958,31.200107 C52.774556,31.7592295 52.0704966,32.0133761 51.4167271,32.0133761 C50.7126676,32.0133761 50.1091881,31.7592295 49.7068684,31.352595 C49.1033889,30.7426431 48.952519,30.081862 48.952519,29.2685928 L48.952519,25.812199 C48.952519,25.3547352 48.952519,25.2022472 49.0530989,24.9989299 C49.2039688,24.7447833 49.4554186,24.5922953 49.8074484,24.5922953 C50.1594781,24.5922953 50.4612178,24.7447833 50.5617978,24.9989299 C50.6512021,25.1796564 50.6611359,25.3202214 50.6622397,25.6705184 L50.6623777,29.0144462 C50.6623777,29.9802033 51.2658572,30.3360086 51.8693367,30.3360086 C52.4225263,30.3360086 53.0762958,30.0310326 53.0762958,29.0144462 L53.0762958,25.812199 C53.0762958,25.3547352 53.0762958,25.2022472 53.1768757,24.9989299 C53.3277456,24.7447833 53.5791954,24.5922953 53.9312251,24.5922953 Z M64.089797,22 C64.4418267,22 64.7435665,22.152488 64.8441464,22.4066346 C64.9335508,22.587361 64.9434846,22.7279261 64.9445884,23.0782231 L64.9447264,25.3547352 C65.397336,24.8972713 65.9002356,24.5922953 66.704875,24.5922953 C67.4089344,24.5922953 68.0124139,24.8464419 68.4147336,25.2530765 C69.0182131,25.8630284 69.169083,26.5238095 69.169083,27.3370787 L69.169083,30.7934724 C69.118793,31.200107 69.0685031,31.352595 68.9679232,31.5559123 C68.8170533,31.8100589 68.5656035,31.9625468 68.2135738,31.9625468 C67.861544,31.9625468 67.5598043,31.8100589 67.4592244,31.5559123 C67.36982,31.3751858 67.3598862,31.2346207 67.3587824,30.8843238 L67.3586444,27.5403959 C67.3586444,26.5746388 66.7551649,26.2188336 66.1516854,26.2188336 C65.5482059,26.2188336 64.9447264,26.5238095 64.9447264,27.5403959 L64.9447264,30.7426431 C64.9447264,31.200107 64.9447264,31.352595 64.8441464,31.5559123 C64.6932765,31.8100589 64.4418267,31.9625468 64.089797,31.9625468 C63.7377673,31.9625468 63.4360275,31.8100589 63.3354476,31.5559123 C63.2348677,31.352595 63.2348677,31.200107 63.2348677,30.7426431 L63.2348677,23.2199037 C63.2348677,22.7624398 63.2348677,22.6099518 63.3354476,22.4066346 C63.4863175,22.152488 63.7377673,22 64.089797,22 Z" id="orange" fill="#F69220" fill-rule="nonzero"></path>
            <path d="M21.5435093,17.0021038 L21.8915649,17.0189342 C22.587216,17.0694255 23.1834884,17.3218821 23.7797608,17.6753212 C24.3263438,18.0792517 24.8232375,18.5841647 25.2207524,19.291043 C25.8170248,20.4018518 26.1648503,21.3106953 26.0654716,22.3205214 C26.0157822,23.0273997 25.8170248,23.6837867 25.5188886,24.3401737 C26.4132971,24.2391911 27.3077057,24.4411563 28.1027356,24.8450868 C29.0468335,25.2995085 29.7424846,26.0063868 30.338757,27.1171956 C30.7362719,27.8240739 30.9847187,28.4804608 30.9847187,29.1873391 C31.0344081,29.8942174 30.88534,30.5506044 30.5872038,31.2574827 C30.338757,31.8633784 29.9412421,32.4692741 29.3946591,33.0246784 C28.848076,33.5800828 28.2021143,34.0849959 27.5064632,34.4889263 L27.5064632,34.4889263 L24.2766544,36.2561221 L20.3015052,38.4272483 C20.1027478,38.5787222 19.8543009,38.6292135 19.6058541,38.6292135 C19.0592711,38.6292135 18.5623774,38.3262656 18.3139306,37.8213526 C17.9164157,37.1144743 18.2145519,36.2056308 18.910203,35.8017003 L18.910203,35.8017003 L20.549952,34.8928568 L21.3946713,34.3879437 L21.6431181,34.3879437 L26.264229,31.7119045 C26.5623652,31.5099392 26.8108121,31.307974 27.0095695,31.0555175 C27.208327,30.7525696 27.3573951,30.5001131 27.4070844,30.1971653 C27.5064632,29.8942174 27.5064632,29.5407783 27.4567738,29.2378304 C27.4070844,28.9348826 27.3077057,28.6319348 27.1586376,28.3289869 C26.9598802,28.0260391 26.7611227,27.7735826 26.5126759,27.5716173 C26.264229,27.3696521 26.0157822,27.2181782 25.717646,27.1171956 C25.4691992,27.016213 25.171063,26.9657216 24.8729268,26.9657216 C24.5747906,26.9657216 24.3263438,27.0667043 24.0282076,27.2181782 L24.0282076,27.2181782 L21.3449819,28.6824261 L20.3015052,29.2883218 C20.1027478,29.4397957 19.8543009,29.490287 19.6058541,29.490287 C19.1089605,29.490287 18.6120668,29.2378304 18.36362,28.7834087 C17.9661051,28.0765304 18.1648625,27.2181782 18.8605136,26.8142477 L18.8605136,26.8142477 L19.3574073,26.5112999 L20.1524371,26.0568781 L22.040633,24.8955781 C22.2890798,24.7441042 22.5375267,24.5421389 22.6865948,24.2896824 C22.8853522,24.0372259 22.9847309,23.7847693 23.0344203,23.4818215 C23.0841097,23.1788737 23.0841097,22.8759258 23.0344203,22.5224867 C22.9847309,22.1690475 22.8356628,21.8660997 22.6865948,21.5631518 C22.4878373,21.260204 22.2890798,21.0077475 22.040633,20.8057822 C21.7424968,20.603817 21.49405,20.4523431 21.1959138,20.3513605 C20.8977776,20.3008692 20.5996414,20.2503779 20.3015052,20.3008692 C20.003369,20.3513605 19.7052328,20.4523431 19.4070966,20.603817 L19.4070966,20.603817 L16.2766666,22.4215041 L16.2269773,22.4215041 C15.9785304,22.572978 15.7300836,22.6234693 15.4816368,22.6234693 C14.9847431,22.6234693 14.4878495,22.3710127 14.1897133,21.8660997 C13.7921984,21.1087301 14.0406452,20.1998866 14.7362963,19.7454648 L14.7362963,19.7454648 L14.7859857,19.7454648 L16.7238709,18.5841647 C17.1213858,18.3317082 18.2642412,17.6753212 18.7114455,17.5238473 C18.8108243,17.473356 18.910203,17.4228647 19.0095817,17.3723734 C19.2580286,17.3218821 19.5064754,17.2208995 19.7549222,17.1704082 C20.5002627,17.0189342 21.1959138,16.9684429 21.8915649,17.0189342 Z M74.8981224,21.9010166 C76.8453746,21.9010166 77.9438245,23.0192616 77.9438245,24.6966292 C77.9438245,25.8148743 77.2448109,26.5264848 76.6955859,26.7806314 C77.2947405,27.0856073 78.0436836,27.6955591 78.0436836,29.0171215 C78.0436836,30.8978063 76.795445,31.9143927 75.047911,31.9143927 L72.102068,31.9143927 L72.102068,31.8635634 C71.8024908,31.8635634 71.452984,31.8635634 71.2033363,31.6094168 C70.9536885,31.3552702 70.9536885,30.999465 70.9536885,30.694489 L70.9536885,23.070091 C70.9536885,22.765115 70.9536885,22.4093098 71.2033363,22.1551632 C71.421778,21.9327849 71.7166744,21.9049876 71.9876787,21.901513 L74.8981224,21.9010166 Z M82.4374833,24.3916533 C84.3847355,24.3916533 85.4831854,25.8148743 85.5830445,27.6447298 C85.5830445,27.9497057 85.533115,28.2546816 85.3333968,28.4579989 C85.0837491,28.7121455 84.8341014,28.7121455 84.5345241,28.7121455 L81.0893857,28.7121455 L81.0893857,28.7629749 C81.0893857,29.7287319 81.6386107,30.3895131 82.6871311,30.3895131 C83.1364969,30.3895131 83.5858628,30.2878545 83.9353696,29.9828785 C84.2349469,29.7795613 84.3847355,29.7287319 84.5844537,29.7287319 C84.9339605,29.7287319 85.2834673,30.0845372 85.2834673,30.4911717 C85.2834673,30.846977 84.98389,31.1519529 84.5844537,31.4060995 C84.0851582,31.7619048 83.4360742,31.9143927 82.6372015,31.9143927 C80.9395971,31.9143927 79.2919222,31.1519529 79.2919222,28.153023 C79.2919222,25.7640449 80.5401607,24.3916533 82.4374833,24.3916533 Z M99.3136687,24.3916533 C101.260921,24.3916533 102.359371,25.8148743 102.45923,27.6447298 C102.45923,27.9497057 102.4093,28.2546816 102.209582,28.4579989 C101.959934,28.7121455 101.710287,28.7121455 101.41071,28.7121455 L97.9655711,28.7121455 L97.9655711,28.7629749 C97.9655711,29.7287319 98.5147961,30.3895131 99.5633164,30.3895131 C100.012682,30.3895131 100.462048,30.2878545 100.811555,29.9828785 C101.111132,29.7795613 101.260921,29.7287319 101.460639,29.7287319 C101.810146,29.7287319 102.159653,30.0845372 102.159653,30.4911717 C102.159653,30.846977 101.860075,31.1519529 101.460639,31.4060995 C100.961344,31.7619048 100.31226,31.9143927 99.5133869,31.9143927 C97.8157825,31.9143927 96.1681076,31.1519529 96.1681076,28.153023 C96.1681076,25.7640449 97.4163461,24.3916533 99.3136687,24.3916533 Z M107.302396,24.4424826 C107.851621,24.4424826 108.201127,24.5441413 108.550634,24.7982879 C108.800282,25.0016051 109,25.2557517 109,25.5607277 C109,25.8148743 108.900141,26.0690209 108.750352,26.2215088 C108.600564,26.3739968 108.350916,26.4756554 108.151198,26.4756554 C107.95148,26.4756554 107.801691,26.4248261 107.552043,26.2723381 C107.352325,26.1706795 107.102677,26.0690209 106.85303,26.0690209 C106.253875,26.0690209 105.654721,26.4756554 105.654721,27.3905832 L105.654721,30.6436597 C105.654721,31.1011236 105.654721,31.2536116 105.554862,31.4569288 C105.405073,31.7110754 105.155425,31.9143927 104.755989,31.9143927 C104.356553,31.9143927 104.106905,31.7619048 103.957116,31.4569288 C103.868353,31.2762024 103.85849,31.1356373 103.857394,30.7853403 L103.857257,25.7132156 C103.857257,25.2557517 103.857257,25.1032638 104.007046,24.8999465 C104.156834,24.6457999 104.456412,24.4933119 104.755989,24.4933119 C105.005637,24.4933119 105.205355,24.5949706 105.305214,24.6966292 C105.455002,24.8491172 105.554862,25.0016051 105.554862,25.2557517 C105.954298,24.8491172 106.603382,24.4424826 107.302396,24.4424826 Z M88.2293103,22.5109684 C88.5788171,22.5109684 88.8783943,22.6634564 89.028183,22.9684323 C89.128042,23.1717496 89.128042,23.3242376 89.128042,23.7817014 L89.128042,24.7474585 L89.677267,24.7474585 C90.0267738,24.7474585 90.1266329,24.7474585 90.2764215,24.8491172 C90.4761397,24.9507758 90.6259283,25.1540931 90.6259283,25.459069 C90.6259283,25.7132156 90.5260692,25.9673622 90.2764215,26.0690209 C90.1453565,26.1579722 90.0525187,26.1690911 89.7972149,26.170481 L89.128042,26.1706795 L89.128042,29.6779026 C89.128042,30.0337079 89.2279011,30.2878545 89.7271966,30.3386838 C89.9768443,30.3386838 90.1266329,30.3895131 90.2764215,30.4403424 C90.4761397,30.5420011 90.6259283,30.7453184 90.6259283,31.1011236 C90.6259283,31.4060995 90.4761397,31.6602461 90.2764215,31.7619048 C90.1480313,31.8490407 89.9462752,31.8614887 89.6711532,31.863267 L89.4276193,31.8635634 C87.929733,31.8635634 87.3305785,30.846977 87.3305785,29.7795613 L87.3305785,26.1706795 L87.1308603,26.1706795 C86.7813535,26.1706795 86.6814945,26.1706795 86.5317058,26.0690209 C86.3319877,25.9673622 86.182199,25.7640449 86.182199,25.459069 C86.182199,25.2049224 86.2820581,24.9507758 86.5317058,24.8491172 C86.6627709,24.7601659 86.7556086,24.749047 87.0109124,24.7476571 L87.3305785,24.7474585 L87.3305785,23.7817014 C87.3305785,23.3242376 87.3305785,23.1717496 87.4304376,22.9684323 C87.5802262,22.7142857 87.8298739,22.5109684 88.2293103,22.5109684 Z M93.0724759,22.5109684 C93.4219827,22.5109684 93.72156,22.6634564 93.8713486,22.9684323 C93.9601122,23.1491588 93.9699748,23.2897238 93.9710707,23.6400208 L93.9712077,24.7474585 L94.5204326,24.7474585 C94.8699394,24.7474585 94.9697985,24.7474585 95.1195872,24.8491172 C95.3193053,24.9507758 95.469094,25.1540931 95.469094,25.459069 C95.469094,25.7132156 95.3692349,25.9673622 95.1195872,26.0690209 C94.9885221,26.1579722 94.8956844,26.1690911 94.6403806,26.170481 L93.9712077,26.1706795 L93.9712077,29.6779026 C93.9712077,30.0337079 94.0710668,30.2878545 94.5703622,30.3386838 C94.8200099,30.3386838 94.9697985,30.3895131 95.1195872,30.4403424 C95.3193053,30.5420011 95.469094,30.7453184 95.469094,31.1011236 C95.469094,31.4060995 95.3193053,31.6602461 95.1195872,31.7619048 C94.9911969,31.8490407 94.7894408,31.8614887 94.5143188,31.863267 L94.2707849,31.8635634 C92.7728987,31.8635634 92.1737441,30.846977 92.1737441,29.7795613 L92.1737441,26.1706795 L91.974026,26.1706795 C91.6245192,26.1706795 91.5246601,26.1706795 91.3748715,26.0690209 C91.1751533,25.9673622 91.0253647,25.7640449 91.0253647,25.459069 C91.0253647,25.2049224 91.1252237,24.9507758 91.3748715,24.8491172 C91.5059365,24.7601659 91.5987743,24.749047 91.854078,24.7476571 L92.1737441,24.7474585 L92.1737441,23.7817014 C92.1737441,23.3242376 92.1737441,23.1717496 92.2736032,22.9684323 C92.4233919,22.7142857 92.6730396,22.5109684 93.0724759,22.5109684 Z M74.8981224,27.6955591 L72.9009407,27.6955591 L72.9009407,30.1353665 L74.8981224,30.1353665 C75.7469246,30.1353665 76.1962905,29.576244 76.1962905,28.9154628 C76.1962905,28.2546816 75.7968542,27.6955591 74.8981224,27.6955591 Z M82.4874129,25.9673622 C81.8882584,25.9673622 81.488822,26.2723381 81.2891039,26.729802 C81.1892448,26.9839486 81.1393152,27.1872659 81.1393152,27.5430712 L83.8854401,27.5430712 C83.8355105,27.1872659 83.785581,26.9839486 83.6857219,26.729802 C83.4860037,26.2723381 83.0865674,25.9673622 82.4874129,25.9673622 Z M99.3635983,25.9673622 C98.7644438,25.9673622 98.3650074,26.2723381 98.1652893,26.729802 C98.0654302,26.9839486 98.0155006,27.1872659 98.0155006,27.5430712 L100.761625,27.5430712 C100.661766,27.1872659 100.661766,26.9839486 100.561907,26.729802 C100.362189,26.2723381 99.9627528,25.9673622 99.3635983,25.9673622 Z M74.7982633,23.5783842 L72.9009407,23.5783842 L72.9009407,25.9165329 L74.7982633,25.9165329 C75.597136,25.9165329 76.0465019,25.459069 76.0465019,24.7474585 C76.0465019,24.035848 75.597136,23.5783842 74.7982633,23.5783842 Z" id="grey" fill="#606060" fill-rule="nonzero"></path>
        </g>
    </g>
</svg>