<?xml version="1.0" encoding="UTF-8"?>
<svg width="120px" height="56px" viewBox="0 0 120 56" version="1.1" xmlns="http://www.w3.org/2000/svg" xmlns:xlink="http://www.w3.org/1999/xlink">
    <title>Assets / Methods / Paysafe</title>
    <g id="Symbols" stroke="none" stroke-width="1" fill="none" fill-rule="evenodd">
        <g id="Content">
            <rect id="Guide" fill-opacity="0" fill="#FFFFFF" x="0" y="0" width="120" height="56"></rect>
            <path d="M30.9535963,24 C32.2853828,24.0164384 32.9675174,24.739726 33,26.2191781 L33,30.7561644 C32.9837587,31.2657534 32.7888631,31.7260274 32.3828306,32.1041096 C31.9930394,32.4986301 31.5382831,32.7123288 31.0023202,32.7287671 L28.1438515,32.7287671 L28.1438515,36 L26,36 L26,26.3013699 C26.0162413,25.5616438 26.162413,24.9863014 26.5034803,24.5753425 C26.6658933,24.4109589 26.8932715,24.2794521 27.136891,24.1643836 C27.412993,24.0493151 27.6566125,24 27.9164733,24 L30.9535963,24 Z M49,24 L49,33.6265385 C48.9836449,34.3516484 48.8037383,34.9122527 48.4602804,35.3406593 C48.1004673,35.7693956 47.6261682,36 47.0046729,36 L42.0163551,36 L42.0163551,33.7913736 L46.2686916,33.7913736 L46.2686916,33.8243407 C46.432243,33.8076923 46.5794393,33.7584066 46.6939252,33.6428571 C46.8084112,33.5441209 46.8574766,33.4287363 46.8574766,33.2802198 L46.8574766,32.7693956 L44.1261682,32.7693956 C43.7663551,32.7693956 43.4883178,32.7199451 43.2757009,32.6208791 C43.046729,32.5384615 42.8341121,32.3736264 42.6051402,32.1593407 C42.3925234,31.9287363 42.228972,31.6814835 42.1471963,31.4342308 C42.0490654,31.2034615 42,30.9067582 42,30.5441209 L42,24.0331319 L44,24.0331319 L44,29.8516484 C44,30.3298352 44.3224299,30.5604396 44.7149533,30.5604396 L46.2196262,30.5604396 C46.3995327,30.5604396 46.5630841,30.510989 46.6939252,30.3792857 C46.8247664,30.2803846 46.8738318,30.1483516 46.8738318,30.0001648 L47,29.7529121 L47,24 L49,24 Z M38.8461538,24 C40.2494172,24.0338983 40.967366,24.7288136 41,26.1355932 L41,30.8813559 C40.983683,31.4915254 40.8205128,31.9830508 40.4778555,32.3728814 C40.1188811,32.779661 39.6456876,33 39.0909091,33 L36.1701632,33 C34.7505828,32.9832203 34.016317,32.3220339 34,30.9661017 L34,29.1355932 C34.016317,27.7288136 34.7016317,27.0169492 36.0559441,27 L38.8951049,27 L38.8624709,26.7627119 C38.8771562,26.4576271 38.7200233,26.2898305 38.4029674,26.271678 L34,26.2711864 L34,24 L38.8461538,24 Z M57,24 L57,26.2754717 L52.9925,26.2754717 C52.52,26.2754717 52.2925,26.4113208 52.2925,26.6830189 L52.2925,26.9207547 C52.2925,27.209434 52.5375,27.345283 53.01,27.345283 L55.0225,27.345283 C55.565,27.3622642 56.02,27.5490566 56.405,27.9566038 C56.79,28.3471698 56.9825,28.8226415 57,29.3490566 L57,31.0132075 C56.9825,31.4886792 56.7725,31.9471698 56.335,32.4056604 C56.125,32.6264151 55.915,32.7962264 55.6875,32.8811321 C55.4775,32.9660377 55.1625,33 54.795,33 L50.0175,33 L50,30.7415094 L54.0775,30.7415094 C54.445,30.7245283 54.6375,30.5716981 54.655,30.3169811 L54.655,30.1132075 C54.655,30.0622642 54.6375,29.9943396 54.6025,29.9264151 C54.515,29.7566038 54.41,29.6716981 54.27,29.6716981 L52.2575,29.6716981 C51.6625,29.654717 51.1375,29.4679245 50.7175,29.0773585 C50.2975,28.7207547 50.0525,28.2792453 50.0525,27.7528302 L50.0525,26.0377358 C50.0875,24.6962264 50.8225,24.0339623 52.275,24 L57,24 Z M62.8461538,24 C64.2494172,24.0338983 64.967366,24.7288136 65,26.1355932 L65,30.8813559 C64.983683,31.4915254 64.8205128,31.9830508 64.4778555,32.3728814 C64.1188811,32.779661 63.6456876,33 63.0909091,33 L60.1701632,33 C58.7505828,32.9832203 58.016317,32.3220339 58,30.9661017 L58,29.1355932 C58.016317,27.7288136 58.7016317,27.0169492 60.0559441,27 L62.8951049,27 L62.8624709,26.7627119 C62.8771562,26.4576271 62.7200233,26.2898305 62.4029674,26.271678 L58,26.2711864 L58,24 L62.8461538,24 Z M70,21 L70,23.1428571 L69.0891478,23.1428571 C68.5891701,23.1593407 68.3393599,23.3736264 68.3393599,23.7857143 L68.3393599,24.2637363 L69.9819651,24.2637363 L69.9819651,26.4725275 L68.3393599,26.4725275 L68.3393599,33 L66,33 L66.0180349,22.9945055 C66.0358913,22.3846154 66.2678452,21.9230769 66.7322887,21.5604396 C67.1786974,21.1978022 67.7679568,21.0164835 68.5179233,21 L70,21 Z M75.9673294,24 C77.2950655,24.0338983 77.9837701,24.7457627 78,26.1694915 L78,27.9661017 L73.1638212,29.9491525 L73.1638212,30.1016949 C73.1638212,30.2711864 73.2131666,30.4237288 73.3115295,30.5254237 C73.3771049,30.6610169 73.4754678,30.7288136 73.5902246,30.7288136 L77.9837701,30.7288136 L77.9837701,33 L73.3115295,33 C72.8852901,33 72.5574135,32.9491525 72.3115061,32.8813559 C72.049041,32.7966102 71.8196913,32.6440678 71.6229654,32.4576271 C71.3932879,32.220339 71.2293496,31.9661017 71.1473805,31.7118644 C71.0654114,31.440678 71.0163938,31.1016949 71.0163938,30.6610169 L71,26.1016949 C71.0326237,24.7288136 71.7211644,24.0338983 73.081852,24 L75.9673294,24 Z M85.930099,24 L85.930099,24.5242669 L82.5309208,24.5242669 C81.9208119,24.5242669 81.4501564,24.6428571 81.1191288,24.8796992 C80.7704951,25.1503759 80.5785723,25.5902256 80.5785723,26.2330827 L80.5785723,30.462406 C80.5785723,30.7498308 80.6308673,31.0545113 80.7180258,31.325188 C80.8051842,31.612782 80.979501,31.8494549 81.2062872,32.0524624 C81.4501564,32.2216353 81.7116317,32.3402256 81.9382436,32.3908083 C82.1997188,32.4415602 82.461194,32.4586466 82.740101,32.4586466 L86,32.4586466 L86,32.9829135 L82.6703742,33 C82.3217406,33 82.0079703,32.9661654 81.7292377,32.9154135 C81.4327248,32.8644925 81.1363861,32.7462406 80.8400475,32.5093985 C80.5262772,32.2387218 80.2996654,31.9511278 80.1776436,31.6295301 C80.0556218,31.3082707 80.0033268,30.9528383 80.0033268,30.529906 L80.0033268,26.3005827 C79.9860694,25.9622368 80.0381901,25.6578947 80.1079168,25.387218 C80.1776436,25.1163722 80.3519604,24.8626128 80.5961783,24.6259398 C80.8749109,24.355094 81.1538178,24.1859211 81.4501564,24.1013346 C81.746495,24.0338346 82.0602653,24 82.426505,24 L85.930099,24 Z M100,24 L100,24.5224719 L99.3129502,24.5224719 C98.1641577,24.5545746 97.5473655,25.1522969 97.5200277,26.3593158 L97.5203552,33 L97.0010052,33 L97.0010052,26.5449438 C96.9674987,24.8595506 97.7716535,24 99.4136371,24 L100,24 Z M92.4097754,24 C92.8032272,24 93.1802853,24.033579 93.5081618,24.0839474 C93.6721,24.1175264 93.8360383,24.1846843 93.9837467,24.2854211 C94.147685,24.3693685 94.2622778,24.5204738 94.4098222,24.6883686 C94.803438,25.2088425 95,25.8132637 95,26.4848428 L94.9836062,30.5814756 C94.9836062,30.9172652 94.9508185,31.2194758 94.9180309,31.471318 C94.8524556,31.7567391 94.7049111,32.0253708 94.4917914,32.2940024 C94.0491581,32.7808973 93.4919319,33.01595 92.8196211,32.9991605 L90.2621841,32.9991605 C89.6064311,32.9991605 89.0655987,32.7976868 88.6391953,32.3779498 C88.2129558,31.9750023 88,31.4209495 88,30.7157914 L88,29.3558437 C88.0326237,27.8280011 88.7703459,27.0388956 90.2293965,27.0053167 L94.4917914,27.0053167 L94.4917914,26.4008954 C94.4917914,25.9140006 94.3442469,25.4774741 94.0819457,25.1081056 C93.9180074,24.8730529 93.6884939,24.7051581 93.4589803,24.6212107 C93.2130729,24.5708423 92.9507717,24.5204738 92.6556828,24.5204738 L88,24.5204738 L88,24 L92.4097754,24 Z M108.983804,21 L109,30.4896483 C108.951411,32.2013742 108.076655,33.0486793 106.392413,32.997841 L104.513493,32.997841 C104.124946,32.997841 103.76863,32.9639488 103.460741,32.8961644 C103.136817,32.8114339 102.829251,32.6079112 102.521523,32.2689891 C102.294777,31.9810748 102.149011,31.6929911 102.100423,31.4049073 C102.035638,31.1168236 101.987049,30.7609554 102.003083,30.4220333 L102.003083,26.5413757 C102.035638,24.7959271 102.861644,23.9316758 104.513493,23.9486219 L108.48156,23.9486219 L108.48156,21 L108.983804,21 Z M94.4426099,27.5593695 L90.1474273,27.5593695 C89.6393827,27.5761589 89.229537,27.7272642 88.9342842,28.0462643 C88.6391953,28.3652644 88.4918148,28.8017909 88.4918148,29.3726331 L88.4918148,30.7157914 C88.4918148,30.9844231 88.5244385,31.2194758 88.5737839,31.437739 C88.6228015,31.6560022 88.7539521,31.857476 88.9670718,32.0421602 C89.3441298,32.3611603 89.7539755,32.5122656 90.1966088,32.5122656 L92.8032272,32.5122656 C93.8852198,32.4954762 94.4426099,31.9078444 94.4426099,30.7325809 L94.4426099,27.5593695 Z M108.497918,24.4908972 L104.481263,24.4908972 C104.205927,24.4908972 103.930592,24.5247894 103.703683,24.5925739 C103.460741,24.6434122 103.217798,24.7959271 102.991213,25.0501186 C102.780663,25.2873641 102.650931,25.5076634 102.602504,25.7279628 C102.53772,25.9652082 102.488969,26.2363459 102.505327,26.5583218 L102.505327,30.693171 C102.505327,31.3879612 102.683485,31.8453365 103.08839,32.0995281 C103.266548,32.2183203 103.477099,32.3030508 103.720042,32.3708352 C103.962985,32.4216735 104.222124,32.4725118 104.497459,32.4725118 L106.246647,32.4725118 C106.894495,32.4725118 107.428807,32.3030508 107.85007,31.9980209 C108.254975,31.7099372 108.465526,31.184608 108.48156,30.4389794 L108.497918,24.4908972 Z M38.2587413,29.1016949 L36.6433566,29.1016949 C36.4312354,29.1016949 36.2843823,29.1355932 36.2027972,29.2033898 C36.1375291,29.2881356 36.0885781,29.4576271 36.0885781,29.6949153 L36.0885781,30.2542373 C36.0885781,30.3898305 36.1375291,30.4915254 36.2517483,30.559322 C36.3496503,30.6440678 36.4801865,30.7118644 36.6433566,30.7118644 L38.2750583,30.7118644 C38.6503497,30.7118644 38.8461538,30.559322 38.8461538,30.2713559 L38.8461538,29.6271186 C38.8461538,29.2881356 38.6503497,29.1016949 38.2587413,29.1016949 Z M62.2587413,29.1016949 L60.6433566,29.1016949 C60.4312354,29.1016949 60.2843823,29.1355932 60.2027972,29.2033898 C60.1375291,29.2881356 60.0885781,29.4576271 60.0885781,29.6949153 L60.0885781,30.2542373 C60.0885781,30.3898305 60.1375291,30.4915254 60.2517483,30.559322 C60.3496503,30.6440678 60.4801865,30.7118644 60.6433566,30.7118644 L62.2750583,30.7118644 C62.6503497,30.7118644 62.8461538,30.559322 62.8461538,30.2713559 L62.8461538,29.6271186 C62.8461538,29.2881356 62.6503497,29.1016949 62.2587413,29.1016949 Z M30.3689095,26.2027397 L28.712297,26.2027397 C28.3225058,26.2356164 28.1113689,26.4493151 28.0951276,26.8438356 L28.0951276,29.8520548 C28.1113689,30.2630137 28.3225058,30.4767123 28.7610209,30.4931507 L30.2714617,30.4931507 C30.4338747,30.4931507 30.5475638,30.4438356 30.6612529,30.3123288 C30.774942,30.230137 30.8236659,30.1150685 30.8236659,29.9671233 L30.8561485,26.7287671 C30.8399072,26.3835616 30.6937355,26.2191781 30.3689095,26.2027397 Z M75.3115764,26.3050847 L73.8195742,26.3050847 C73.6394061,26.3050847 73.4754678,26.3559322 73.3443172,26.4745763 C73.1966088,26.5762712 73.1146397,26.7118644 73.1146397,26.8813559 L73.1146397,27.7966102 L75.8361788,26.7457627 L75.8361788,26.6949153 C75.8361788,26.5762712 75.7868334,26.4745763 75.6886344,26.4067797 C75.5902714,26.3389831 75.4589569,26.3050847 75.3115764,26.3050847 Z" id="Paysafe" fill="#128AC7"></path>
            <path d="M20.26665,23.9184301 C21.6499833,23.934935 22.3499833,24.6611485 22.3833167,26.1300806 L22.3833167,26.1300806 L22.3833167,30.4213427 C22.36665,31.8902748 21.6499833,32.6329932 20.2833167,32.6494981 L20.2833167,32.6494981 L14.96665,32.6494981 C14.6999833,32.6494981 14.4499833,32.5999835 14.16665,32.4844495 C13.91665,32.3689155 13.6833167,32.2368767 13.51665,32.0718282 C13.16665,31.6592068 13.01665,31.0980417 12.9999833,30.3388184 L12.9999833,30.3388184 L12.9999833,26.2291097 C13.01665,25.4533816 13.1833167,24.8922165 13.51665,24.4961 C13.6833167,24.3310515 13.8999833,24.1990126 14.16665,24.0834786 C14.4499833,23.9679447 14.6999833,23.9184301 14.96665,23.9184301 L14.96665,23.9184301 Z M17.6999833,19.165032 C20.01665,19.165032 21.91665,20.9310515 22.11665,23.1757117 C22.1499833,23.4397893 22.16665,23.7203718 22.1499833,24.0009544 C21.8333167,23.703867 21.4499833,23.5058087 20.9499833,23.4232845 C20.61665,21.9378476 19.2999833,20.8155175 17.6999833,20.8155175 C16.0999833,20.8155175 14.76665,21.9378476 14.4499833,23.4232845 C14.2833167,23.4562942 14.0999833,23.5223136 13.9333167,23.588333 C13.66665,23.703867 13.4333167,23.8359058 13.2499833,24.0174592 C13.2499833,23.8028961 13.2499833,23.588333 13.26665,23.3902748 C13.36665,21.0300806 15.31665,19.165032 17.6999833,19.165032 Z" id="Lock" fill="#E00D1D"></path>
        </g>
    </g>
</svg>