<?xml version="1.0" encoding="UTF-8"?>
<svg width="120px" height="56px" viewBox="0 0 120 56" version="1.1" xmlns="http://www.w3.org/2000/svg" xmlns:xlink="http://www.w3.org/1999/xlink">
    <title>Assets / Methods / Rapidtransfer</title>
    <g id="Symbols" stroke="none" stroke-width="1" fill="none" fill-rule="evenodd">
        <g id="Content">
            <rect id="Guide" fill-opacity="0" fill="#FFFFFF" x="0" y="0" width="120" height="56"></rect>
            <path d="M92.6484287,15 C94.3381719,15 95.3895677,16.4397835 94.8638698,18.1069012 C93.8875737,20.9864682 92.836178,23.9039242 91.8223321,26.7834912 C90.3954378,30.8376184 88.8934439,34.8538566 87.5416493,38.9458728 C86.8657521,40.991502 85.5890572,42.2801083 83.5989153,42.962111 C83.4487159,43 83.2985165,43 83.1483171,43 L83.1483171,43 L75.2547382,42.9996969 C75.1922552,42.9984844 75.1201595,42.9924222 75,42.962111 C75.1126495,42.5832206 75.2252991,42.2422192 75.3379486,41.9012179 C76.990142,37.2787551 78.6423353,32.6184032 80.2945286,27.9959405 C81.7965226,23.7902571 83.2985165,19.5845737 84.8005104,15.3788904 C84.91316,15.037889 85.1009092,15 85.401308,15 L85.401308,15 Z M30.4893435,15.0030046 C32.2227194,14.927348 33.4553423,16.2891668 32.8390309,18.1049253 C31.5293691,21.6607855 30.1426683,25.2166457 28.7559675,28.7346777 C28.3322534,29.8316984 27.5233446,30.663921 26.4833191,31.2313455 C26.1366439,31.420487 26.0210855,31.6852851 25.9440465,32.0635681 C25.5588519,34.3710945 25.1351378,36.6786208 24.7499431,38.9861471 C24.5573458,40.0831678 24.326229,41.2180168 24.1721511,42.3150376 C24.0951122,42.8068055 23.9410343,43.0337753 23.4017618,42.995947 C22.2846973,42.9581187 21.2061523,42.995947 20.0120488,42.995947 C20.7053992,39.2887735 21.3987496,35.6572567 22.0921,31.9500832 C21.4372691,31.9500832 20.8594771,31.9500832 20.2816851,31.9879115 C20.1661267,31.9879115 20.0505683,32.2527096 19.9735294,32.4418511 C19.0105427,34.8628624 18.0860756,37.2460453 17.1616084,39.6670565 C16.7764137,40.6505923 16.4297385,41.6719565 16.0060244,42.6554923 C15.9289855,42.8068055 15.7363882,42.995947 15.5823103,42.995947 L15.5823103,42.995947 L12,42.995947 C12.2696363,42.2772093 12.5007531,41.6719565 12.7318698,41.0288753 C15.2356351,34.5980643 17.7394004,28.2050815 20.2431656,21.7742704 C21.0905939,19.6558856 21.8995027,17.5375007 22.7084114,15.4191159 C22.8239698,15.0408329 23.0550866,15.0030046 23.4017618,15.0030046 C25.7514492,15.0408329 28.1396561,15.0786612 30.4893435,15.0030046 Z M64.5906079,15.0008363 C66.175616,14.9629996 67.4967706,16.211611 66.8173196,18.2169565 C65.572037,21.8871171 64.1750104,25.5194411 62.8538557,29.151765 C62.6277495,29.8328257 62.4008884,30.4760498 62.137035,31.1192738 C61.3439647,33.0111092 59.5702202,34.2597205 57.4941201,34.2597205 C56.5504382,34.2597205 55.569009,34.2975572 54.5875798,34.2597205 C54.1719823,34.2597205 53.9458762,34.4110674 53.7945096,34.8272711 C52.964447,37.0596369 52.1340069,39.3298394 51.3035669,41.6000418 C51.1148305,42.0540823 50.9634639,42.5081228 50.7747276,43 L50.7747276,43 L47,43 C47.1136193,42.5837962 47.2268611,42.2054291 47.3774728,41.8270621 C48.9254885,37.5515141 50.5108741,33.3138028 52.0958822,29.0382549 C53.7571398,24.5735234 55.4180199,20.1087919 57.0411528,15.6440604 C57.1917644,15.1900199 57.343131,15.0008363 57.8715928,15.0008363 C60.0986821,15.038673 62.3635186,15.0765097 64.5906079,15.0008363 Z M79,15 C78.6341463,15.9104365 78.3495935,16.7450032 77.9837398,17.57957 C76.7235772,20.7281628 75.504065,23.8767556 74.2845528,27.0253484 C72.902439,30.5912246 71.5203252,34.1571008 70.1382114,37.722977 C69.5284553,39.278306 68.9186992,40.7957001 68.3495935,42.3510291 C68.1869919,42.8062474 67.9837398,43.0338565 67.4146341,42.9959216 C66.3170732,42.9579868 65.2195122,42.9959216 64,42.9959216 C64.3252033,42.1613549 64.6097561,41.4026578 64.8943089,40.6818956 C67.2520325,34.6502539 69.6097561,28.5806774 71.9674797,22.5490358 C72.902439,20.15914 73.8373984,17.7313094 74.8130081,15.3414137 C74.8943089,15.1896743 75.1382114,15 75.300813,15 L75.300813,15 Z M48.1125375,14.348 C49.9500375,14.232 51.1125375,15.8173333 50.4375375,17.7506667 C49.0875375,21.6173333 47.7000375,25.4453333 46.3125375,29.2733333 C44.7000375,33.6813333 43.1250375,38.0893333 41.5500375,42.4973333 C41.4375375,42.8066667 41.2875375,42.9613333 40.9125375,42.9613333 L40.9125375,42.9613333 L37.5375375,42.9613333 C38.9250375,39.172 40.2375375,35.46 41.6250375,31.6706667 C40.4250375,31.6706667 39.3375375,31.632 38.2500375,31.6706667 C38.1000375,31.6706667 37.9125375,31.864 37.8750375,32.0186667 C36.6000375,35.4213333 35.3625375,38.8626667 34.1250375,42.304 C33.9375375,42.768 33.7500375,43 33.2250375,42.9613333 C32.2500375,42.9226667 31.2375375,42.9613333 30.1875375,42.9613333 C30.1875375,42.768 30.1875375,42.652 30.2250375,42.536 C31.9875375,37.664 33.7875375,32.792 35.5500375,27.92 C36.7875375,24.4786667 38.0625375,21.0373333 39.3000375,17.596 C39.9000375,15.972 41.8500375,14.232 43.8375375,14.348 C45.2625375,14.4253333 46.6875375,14.4253333 48.1125375,14.348 Z M91.0337852,18.1069012 C89.9072898,18.1069012 88.8934439,18.0690122 87.879598,18.1069012 C87.7669484,18.1069012 87.5791992,18.3342355 87.5040995,18.4857916 C86.9033019,20.0771313 86.3400542,21.6684709 85.7768065,23.2598106 C83.9744138,28.2990528 82.2095709,33.338295 80.4071782,38.3775372 C80.2569788,38.8322057 80.1443292,39.2864953 79.95658,39.8173207 C81.1206253,39.8173207 82.1344712,39.8173207 83.1483171,39.7794317 C83.2985165,39.7794317 83.4862657,39.5520974 83.5613654,39.3626522 C84.5001116,36.6725304 85.4764077,33.9820298 86.4151539,31.2922869 C87.9171478,27.0866035 89.3815919,22.8809202 90.8835859,18.6752368 C90.9211357,18.4857916 90.9586855,18.3342355 91.0337852,18.1069012 Z M62.5896248,18.1412831 C61.9101738,18.1791198 61.2311003,18.1791198 60.5516494,18.1412831 C60.0986821,18.1412831 59.8721984,18.3304666 59.7212093,18.7466704 C59.3814838,19.6925881 59.0040111,20.6385058 58.6642856,21.5844235 C57.5692371,24.5356867 56.4749436,27.5247866 55.3802726,30.4760498 C55.2292835,30.8544168 55.3425254,30.967927 55.7199981,30.967927 L55.7199981,30.967927 L56.8142916,30.967927 C57.1166473,30.967927 57.4563728,30.9300903 57.7960983,30.967927 C58.2113183,31.0057637 58.4755492,30.8544168 58.5887911,30.4003763 C58.7397802,29.9084991 58.9285165,29.4544587 59.1172529,28.9625815 C60.362913,25.5194411 61.6459429,22.1141374 62.8919805,18.670997 C63.0425921,18.2926299 62.9297277,18.1412831 62.5896248,18.1412831 Z M26.0596049,18.1427536 C25.6358908,18.1049253 25.4432935,18.2940668 25.2892156,18.6723498 C24.0565927,21.9634119 22.7854504,25.2166457 21.514308,28.4698796 C21.4372691,28.5833645 21.4757885,28.6968494 21.4372691,28.8859909 C22.5158141,28.8859909 23.5173202,28.9238192 24.5573458,28.8859909 C24.7114236,28.8859909 24.904021,28.6590211 24.9810599,28.5077079 C26.2522023,25.2166457 27.5233446,21.9634119 28.794487,18.6723498 C28.9100454,18.3318951 28.8330065,18.1427536 28.4092923,18.1427536 C27.638903,18.1427536 26.8299943,18.1805819 26.0596049,18.1427536 Z M43.8375375,17.5186667 C43.2375375,17.4413333 42.9750375,17.6733333 42.7875375,18.2533333 C41.9625375,20.5733333 41.1000375,22.8933333 40.2750375,25.2133333 C39.9000375,26.2573333 39.5250375,27.3013333 39.1125375,28.4613333 L39.1125375,28.4613333 L41.5530865,28.4612438 C42.6788786,28.4591852 42.7312875,28.4097778 43.1625375,27.224 C44.2875375,24.1693333 45.3750375,21.1146667 46.5000375,18.06 C46.6500375,17.6733333 46.5375375,17.5186667 46.0875375,17.5186667 C45.3375375,17.5573333 44.5875375,17.596 43.8375375,17.5186667 Z" id="rapid" fill="#000000"></path>
            <path d="M108,40 L108,41.2327078 C108,42.4654157 107.445545,43 106.217822,43 L105.821782,43 C104.831683,43 104.277228,42.670867 104.118812,42.1366936 C103.960396,42.7123682 103.524752,42.9178195 102.49505,42.9178195 C101.822178,42.9178195 100.554455,42.9178195 100,43 L100,42.4243254 C100.421242,42.3570868 101.399231,42.3448616 102.044835,42.3426389 L102.416238,42.3421449 L102.416238,42.3421449 C103.485149,42.3421449 103.841584,42.1781948 103.841584,41.3148884 L103.841584,40.6163539 L100,40.6163539 L100,40 L108,40 Z M107.485149,40.6163539 L104.356436,40.6163539 L104.356436,41.3148884 C104.356436,42.1781948 104.910891,42.3421449 105.782574,42.3421449 L106.178614,42.3421449 C106.970693,42.3421449 107.485149,42.0960142 107.485149,41.1916176 L107.485149,40.6163539 Z M108,33 L108,38.8636364 L107.445545,38.8636364 L107.445545,36.6359091 L104.554455,36.6359091 L104.554455,38.7272727 L104.039604,38.7272727 L104.039604,36.6359091 L100.554455,36.6359091 L100.554455,39 L100,38.9086364 L100,36 L107.448276,36 L107.448276,33.6923077 L104.492611,33.6923077 L104.492611,35.8615385 L103.940887,35.8615385 L103.940887,33.6923077 L100,33.6923077 L100,33 L108,33 Z M108,26 L108,26.6835443 C106.257426,27.1772152 101.90099,28.3544304 101.108911,28.5063291 L101.108911,28.5443038 C102.257426,28.5063291 103.366337,28.4683544 104.673267,28.4683544 L108,28.4683544 L108,29 L102.202899,29 L102.202899,29.5454545 L101.777778,29.5454545 C100.927536,29.5454545 100.502802,29.8571429 100.502802,30.4801299 C100.502802,31.1038961 100.889275,31.4155844 101.971014,31.4155844 C102.937198,31.4155844 103.362319,31.1818182 103.981063,30.3636364 C104.637681,29.5061039 104.985507,29.1164935 106.144928,29.1164935 C107.111111,29.1164935 108,29.3896104 108,30.5194805 C108,31.4935065 107.381643,31.8831169 106.299903,31.8831169 L105.990338,31.8831169 L105.990338,31.2987013 L106.299903,31.2987013 C107.033816,31.2987013 107.497585,31.1428571 107.497585,30.5194805 C107.497585,29.8957143 106.956522,29.7009091 106.26087,29.7009091 C105.410628,29.7009091 105.140483,29.8571429 104.560773,30.6363636 C103.787826,31.6883117 103.362319,32 102.048696,32 C100.966184,32 100,31.7272727 100,30.5194805 C100,29.3896104 100.772947,29 101.777778,29 L100,29 L100,28.3164557 C101.861386,27.7848101 106.29703,26.6455696 107.128713,26.4556962 C106.178614,26.4936709 104.752475,26.5316456 103.326733,26.5316456 L100,26.5316456 L100,26 L108,26 Z M100,22 L108,23.5111111 L108,24.4444444 L100,26 L100,25.2888889 L102.851485,24.7555556 L102.851485,23.1555556 L100,22.6666667 L100,22 Z M103.366337,23.2444444 L103.366337,24.6666667 C105.425743,24.2666667 106.811881,24.0444444 107.485149,23.9555556 L107.485149,23.9111111 C106.891089,23.8666667 105.029703,23.5111111 103.366337,23.2444444 Z M108,15 L108,19.2328767 C108,20.4657534 107.445545,21 106.217822,21 L105.821782,21 C104.831683,21 104.277228,20.6712329 104.118812,20.1369863 C103.960396,20.7123288 103.524752,20.9178082 102.49505,20.9178082 C101.822178,20.9178082 100.554455,20.9178082 100,21 L100,20.4246575 C100.421242,20.3574097 101.399231,20.3451828 102.044835,20.3429598 L102.416238,20.3424658 L102.416238,20.3424658 C103.485149,20.3424658 103.841584,20.1780822 103.841584,19.3150685 L103.841584,18.6164384 L100,18.6164384 L100,18 L107.445545,18 L107.445545,16.8 L100,16.8 L100,16.2375 L107.445545,16.2375 L107.445545,15 L108,15 Z M107.485149,18.6164384 L104.356436,18.6164384 L104.356436,19.3150685 C104.356436,20.1780822 104.910891,20.3424658 105.782574,20.3424658 L106.178614,20.3424658 C106.970693,20.3424658 107.485149,20.0958904 107.485149,19.1917808 L107.485149,18.6164384 Z" id="transfer" fill="#000000"></path>
            <polygon id="color" fill="#64C08F" points="96.6211368 25.2681617 96.6211368 43.0000766 89.0421895 43.0000766"></polygon>
        </g>
    </g>
</svg>