<?xml version="1.0" encoding="UTF-8"?>
<svg width="120px" height="56px" viewBox="0 0 120 56" version="1.1" xmlns="http://www.w3.org/2000/svg" xmlns:xlink="http://www.w3.org/1999/xlink">
    <title>Assets / Methods / Skrill</title>
    <g id="Symbols" stroke="none" stroke-width="1" fill="none" fill-rule="evenodd">
        <g id="Content">
            <rect id="Guide" fill-opacity="0" fill="#FFFFFF" x="0" y="0" width="120" height="56"></rect>
            <path d="M34.652553,17 C38.3579389,17 40.3566478,17.6052886 42.0755698,18.2342666 L42.0755698,18.2342666 L42.1638263,18.261582 L42.1638263,23.4241813 L42.0995978,23.4060516 C41.4083324,23.0990562 40.595772,22.7995544 40.595772,22.7995544 C39.1390781,22.3431706 37.0997065,21.8570543 35.5251832,21.8570543 L35.5251832,21.8570543 L35.327295,21.8576127 C34.3217211,21.865431 32.2419035,21.9827048 32.2419035,23.7418128 C32.2419035,25.3043469 33.9002936,25.416509 34.6167421,25.4653382 C39.8691578,25.833491 42.9999525,28.5241729 42.9999525,32.6642599 C42.9999525,36.3158133 39.2470339,40 33,40 C30.104864,40 28.1913945,39.6995313 25.9999525,39.0988355 L25.9999525,39.0988355 L25.9999525,33.782255 C27.463163,34.4107496 30.2729985,35.0730861 32.756887,35.0730861 C35.0231378,35.0730861 36.3707819,34.2874679 36.3707819,32.9543343 C36.3707819,31.3403119 34.7248679,31.2409614 34.1047621,31.2013179 C26.7875607,30.679184 25.9999525,26.1528146 25.9999525,24.229863 C25.9999525,20.8940072 28.2636619,17 34.652553,17 Z M87,17 L87,39 L81,39 L81,18.0254841 L87,17 Z M95,17 L95,39 L89,39 L89,18.0254841 L95,17 Z M79,23 L79,39 L73,39 L73,23 L79,23 Z M70.4008356,23.0053051 C70.4008356,23.0053051 71.4057508,22.9689026 72,23.0868103 L72,23.0868103 L72,27.6934527 C68.4694028,27.8065525 68,28.9952453 68,31.7668776 L68,39 L62,39 L62,30.1305935 C62,25.5010563 64.8289506,23.1722075 70.4008356,23.0053051 Z M51,17 L51,28.8503218 C53.234862,26.0789086 54.0630373,23.4046154 54.1916912,23.0739737 L54.1916912,23.0739737 L61,23.0739737 C60.8066663,23.7097118 59.5902165,27.5431787 56.8209821,31.1407141 C56.8209821,31.1407141 59.9067945,35.9950651 60.6121567,39 L60.6121567,39 L53.4806843,39 C53.4806843,39 52.7249503,35.6959534 51,33.0464824 L51,33.0464824 L51,39 L45,39 L45,18.2056852 L51,17 Z M75.9985112,15.9998812 C77.6568238,15.9998812 79,17.3439388 79,19.0008737 C79,20.6570642 77.6568238,21.9998812 75.9985112,21.9998812 C74.3431762,21.9998812 73,20.6570642 73,19.0008737 C73,17.3439388 74.3431762,15.9998812 75.9985112,15.9998812 Z" id="skrill" fill="#862165"></path>
        </g>
    </g>
</svg>