<?xml version="1.0" encoding="UTF-8"?>
<svg width="120px" height="56px" viewBox="0 0 120 56" version="1.1" xmlns="http://www.w3.org/2000/svg" xmlns:xlink="http://www.w3.org/1999/xlink">
    <title>Assets / Methods / Sofort</title>
    <g id="Symbols" stroke="none" stroke-width="1" fill="none" fill-rule="evenodd">
        <g id="Content">
            <rect id="Guide" fill-opacity="0" fill="#FFFFFF" x="0" y="0" width="120" height="56"></rect>
            <rect id="BG" fill="#EB6F93" x="30" y="8" width="60" height="40" rx="4"></rect>
            <path d="M44.9368182,34.2686567 C46.0105711,34.2686567 46.9969255,34.7641048 47.4339179,35.7302285 L47.4339179,35.7302285 L46.0230566,36.6096489 C45.7608611,36.1761318 45.3862961,35.8912491 44.8868762,35.8912491 C44.3000578,35.8912491 43.9254928,36.2876076 43.9254928,36.7954419 C43.9254928,37.4023658 44.4623692,37.5881588 45.3238686,37.8358828 C46.6723025,38.2322413 47.7710264,38.9010962 47.7710264,40.4369852 C47.7710264,42.0967362 46.4725345,43.2238806 44.7745067,43.2238806 C43.5883843,43.2238806 42.5645734,42.6788877 41.9402985,41.836626 L41.9402985,41.836626 L43.1139354,40.6599368 C43.4635293,41.1058401 44.0378623,41.588902 44.7994777,41.588902 C45.5111511,41.588902 45.9980856,41.1677711 45.9980856,40.4989162 C45.9980856,39.7805165 45.4237526,39.6071097 44.5123112,39.3469994 C42.8392544,38.8639376 42.1650375,37.9969034 42.1650375,36.8821453 C42.1650375,35.4825045 43.2387904,34.2686567 44.9368182,34.2686567 Z M51.6373691,36.9069177 C53.4352809,36.9069177 54.8960842,38.3313309 54.8960842,40.0653991 C54.8960842,41.7994674 53.4352809,43.2238806 51.6373691,43.2238806 C49.8394573,43.2238806 48.3786539,41.7994674 48.3786539,40.0653991 C48.3786539,38.3313309 49.8394573,36.9069177 51.6373691,36.9069177 Z M62.8035667,36.9069177 C64.6014785,36.9069177 66.0622819,38.3313309 66.0622819,40.0653991 C66.0622819,41.7994674 64.6014785,43.2238806 62.8035667,43.2238806 C61.0056549,43.2238806 59.5448516,41.7994674 59.5448516,40.0653991 C59.5448516,38.3313309 61.0056549,36.9069177 62.8035667,36.9069177 Z M76.6250137,40.9076609 C77.2492886,40.9076609 77.761194,41.4154951 77.761194,42.0348052 C77.761194,42.6541153 77.2492886,43.1619496 76.6250137,43.1619496 C76.0007387,43.1619496 75.4888333,42.6541153 75.4888333,42.0348052 C75.4888333,41.4154951 76.0007387,40.9076609 76.6250137,40.9076609 Z M59.0995354,34.3925187 L59.0995354,35.9779526 C58.1506375,35.940794 57.4639351,36.4114696 57.4639351,37.4519106 L57.4639351,37.4519106 L57.4639351,38.0959931 C57.8385,37.6996346 58.3753765,37.5014554 59.0495934,37.5014554 L59.0495934,37.5014554 L59.0495934,39.1116616 C58.113181,39.136434 57.4639351,39.7309717 57.4639351,40.5608472 L57.4639351,40.5608472 L57.4639351,43.06286 L55.7659073,43.06286 L55.7659073,37.3652072 C55.7659073,35.7550009 56.7772327,34.3925187 58.8498254,34.3925187 L58.8498254,34.3925187 L59.0995354,34.3925187 Z M70.1018536,36.9685907 L70.290704,36.9688487 L70.290704,38.7772342 C69.2668931,38.7772342 68.6800747,39.3346132 68.6800747,40.3255094 L68.6800747,40.3255094 L68.6800747,43.06286 L66.9820469,43.06286 L66.9820469,37.0679383 L68.6301327,37.0679383 L68.6301327,37.7491794 C68.9672412,37.2041865 69.5166031,36.9440763 70.290704,36.9688487 Z M72.9584389,35.1356908 L72.9584389,36.0770422 C72.9584389,36.8945315 73.6201704,37.5014554 74.5440973,37.5262278 L74.5440973,37.5262278 L74.5440973,39.136434 C73.8698803,39.136434 73.3330039,38.9382548 72.9584389,38.5418963 L72.9584389,38.5418963 L72.9584389,40.0034681 C72.9584389,41.0439091 73.6451414,41.5145848 74.5940393,41.4774261 L74.5940393,41.4774261 L74.5940393,43.06286 L74.3443293,43.06286 C72.2717365,43.06286 71.2604111,41.7003778 71.2604111,40.0901715 L71.2604111,40.0901715 L71.2604111,35.1356908 L72.9584389,35.1356908 Z M51.6373691,38.4923515 C50.7633842,38.4923515 50.0766818,39.1735926 50.0766818,40.0653991 C50.0766818,40.9572057 50.7633842,41.6384468 51.6373691,41.6384468 C52.511354,41.6384468 53.1980564,40.9572057 53.1980564,40.0653991 C53.1980564,39.1735926 52.511354,38.4923515 51.6373691,38.4923515 Z M62.8035667,38.4923515 C61.9295818,38.4923515 61.2428794,39.1735926 61.2428794,40.0653991 C61.2428794,40.9572057 61.9295818,41.6384468 62.8035667,41.6384468 C63.6775516,41.6384468 64.364254,40.9572057 64.364254,40.0653991 C64.364254,39.1735926 63.6775516,38.4923515 62.8035667,38.4923515 Z M65.3869035,11.5568115 L65.5369393,11.5899326 C66.4709025,11.8747954 67.0519102,12.8154536 66.9228479,13.785398 L66.8965167,13.9386991 L65.1171004,23.0457271 L65.8815507,23.2289305 C66.0719761,23.2573554 66.3119521,23.3603627 66.5494531,23.5787243 L66.6677565,23.6977068 C67.1654799,24.2434922 67.4064605,25.1469252 67.2981146,26.465011 C66.9594128,30.6112339 65.0058912,33.3596504 60.5602558,33.4329934 L60.2730989,33.4340296 L60.2533945,33.433028 C57.006025,33.3761196 54.2751835,30.9386698 54.1527317,27.4682589 L54.1492985,27.3127271 L54.1511004,27.4007271 L53.4010982,26.6368089 C52.5191522,25.7273742 52.3415556,24.4843488 52.9692705,23.6901217 L53.0694802,23.5744514 L53.1496645,23.4880771 C53.469431,23.1500469 53.8896055,22.9661139 54.3185451,22.9425479 C53.8282633,21.9531274 53.9446821,20.8743577 54.6375704,20.2796928 L54.7658227,20.179894 L54.8803125,20.102529 C55.7551376,19.5808027 56.5177568,19.7822711 57.1680953,20.4450329 L56.4197978,14.1258904 C56.1676233,13.0275231 56.8245998,11.8243352 57.8244977,11.6055664 C58.3386114,11.4929241 58.8752686,11.5967864 59.3140908,11.8938559 C59.704155,12.1579176 59.9878941,12.5549888 60.1152073,13.0014088 L60.1555195,13.1709662 L61.4301004,18.7647271 L63.0458753,13.0791259 C63.3201598,12.0203975 64.3376301,11.3655861 65.3869035,11.5568115 Z M59.9884642,22.8747663 C59.6207593,22.9586681 59.3769664,23.1689486 59.2582822,23.5786276 C59.0952231,24.1364173 59.1077485,24.5617617 59.4548633,24.9026033 C59.5419413,24.9333111 59.6104993,24.9917207 59.6570992,25.0645333 C59.861237,25.2048871 60.138901,25.3298783 60.5027736,25.4438635 L60.6919526,25.4999591 L63.8635541,26.2272237 C64.3597464,26.3410032 64.2457475,27.0650455 63.7878706,27.0651511 L63.6980539,27.0563615 L63.6420624,27.0479603 L63.5946888,27.0423397 C63.1968346,26.998887 62.74521,27.0309027 62.3298597,27.1913524 C61.5537359,27.4911687 61.073877,28.1753393 61.0139567,29.4426804 C61.0029179,29.676157 60.8095374,29.8562437 60.5820293,29.8449152 C60.3545213,29.8335868 60.1790383,29.6351331 60.1900772,29.4016564 C60.2521071,28.0896964 60.7242902,27.1946039 61.4891897,26.683006 L61.6460377,26.5857899 L60.493202,26.3212644 C60.095236,26.209551 59.7597188,26.0777861 59.4806946,25.9276657 C59.3837739,26.0858416 59.2621913,26.2287617 59.1203736,26.3517234 L58.9719748,26.4678582 L58.8804525,26.5304694 C58.8242367,26.5692757 58.7666983,26.6045154 58.7080914,26.6362384 C59.0520039,27.2973355 58.9885286,28.1247056 58.5145999,28.7263502 L58.4067602,28.8516762 L58.3256712,28.9390038 C57.6507904,29.6479574 56.5688531,29.7036146 55.8267276,29.0906841 L55.6994438,28.9755764 L55.0824934,28.3483672 C55.5888568,30.8869302 57.7932765,32.5875577 60.3696652,32.5875577 L60.3551136,32.5879853 C64.4379463,32.5959793 66.164056,30.214788 66.4761672,26.3940768 C66.566299,25.2975728 66.3882331,24.630006 66.0655073,24.2761166 C65.9846375,24.1874377 65.9017315,24.1279405 65.8220987,24.0909084 C65.7958847,24.078718 65.7771622,24.071813 65.7581466,24.0666976 L65.7284303,24.0599299 L60.9141106,22.9060335 C60.8907899,22.8991576 60.8380897,22.8863495 60.7631547,22.8728735 C60.5039538,22.8262595 60.2312352,22.8193715 59.9884642,22.8747663 Z M53.8290278,23.9955622 L53.744235,24.0747799 L53.6637547,24.1614667 C53.2872515,24.5586552 53.3433756,25.2882354 53.8718178,25.9140544 L53.9838156,26.0377055 L56.2759644,28.3702163 C56.6544185,28.7443532 57.2389721,28.76448 57.6366945,28.4397181 L57.7320054,28.3513477 L57.8110729,28.2661587 C58.1746442,27.8788139 58.1952435,27.2808666 57.8780241,26.8696984 L57.8612985,26.8507271 L57.8652252,26.8555339 C57.312406,26.8619854 56.7662932,26.6156952 56.3978471,26.1501808 L56.3018952,26.0178121 L54.9649644,23.9717894 C54.6213238,23.7133616 54.1536713,23.7280292 53.8290278,23.9955622 Z M55.4291525,20.7602998 L55.3163072,20.8206289 L55.2279886,20.881006 C54.7840509,21.1937147 54.6997674,21.9222233 55.0963305,22.6437929 L55.1820903,22.7878891 L56.9853206,25.5438527 C57.2829991,25.9930325 57.8571144,26.1346451 58.3174551,25.8903782 L58.4214903,25.8271233 L58.5096589,25.7668519 C58.6350682,25.6784304 58.7386808,25.563042 58.8140644,25.4299371 C58.3641767,24.9506212 58.255573,24.3601687 58.3828427,23.6873415 L57.4677164,22.289403 C57.4357478,22.2547816 57.4093096,22.21447 57.3900729,22.1698115 L56.9703361,21.5266549 C56.4729588,20.7830174 55.9882857,20.4956037 55.4291525,20.7602998 Z M63.8785529,13.183824 L63.8403881,13.3063571 L61.784075,20.5432357 C61.7203117,20.7676412 61.4913553,20.8965112 61.2726866,20.831075 C61.2353039,20.8198883 61.200642,20.803747 61.1691816,20.7835509 C61.1671005,20.7806174 61.1637101,20.7784392 61.1603509,20.776211 C61.1427977,20.7657079 61.127369,20.7534019 61.112931,20.7401135 C61.1024698,20.7302183 61.0922428,20.7200888 61.0825281,20.7094131 C61.0765906,20.7023199 61.0707055,20.6951916 61.0650613,20.6878801 C61.0390358,20.6558496 61.0176646,20.619469 61.001931,20.579565 L60.9826814,20.5171697 L59.3492595,13.349026 C59.2904789,13.0422835 59.1141735,12.772594 58.8598906,12.6004521 C58.6056076,12.4283102 58.2946325,12.3681254 57.9966045,12.4334233 C57.4981675,12.5424769 57.1162832,13.198719 57.2027657,13.8232875 L57.2264113,13.9476074 L57.2357144,13.9992105 L58.1621004,21.8307271 L58.7520484,22.7330797 C58.9778161,22.4144848 59.2902599,22.2012083 59.6633103,22.08731 L59.8094359,22.0484567 C60.1732527,21.965442 60.5487355,21.9749255 60.9055315,22.0390907 C60.9846508,22.0533193 61.0498859,22.0679237 61.0901801,22.0782943 L61.1217512,22.0870828 L64.3131004,22.8527271 L66.0890341,13.7660364 C66.2063183,13.2096618 65.915291,12.6544141 65.4261757,12.4453582 L65.31841,12.4059851 C64.712368,12.2488372 64.0965078,12.5879248 63.8785529,13.183824 Z" id="Sofort" fill="#FFFFFF"></path>
        </g>
    </g>
</svg>