<svg id="euswj179j6j1" xmlns="http://www.w3.org/2000/svg" xmlns:xlink="http://www.w3.org/1999/xlink" viewBox="0 0 48 51.400000" shape-rendering="geometricPrecision" text-rendering="geometricPrecision"><style><![CDATA[#euswj179j6j6_ts {animation: euswj179j6j6_ts__ts 900ms linear infinite normal forwards}@keyframes euswj179j6j6_ts__ts { 0% {transform: translate(104.639103px,24.937262px) scale(1,1)} 11.111111% {transform: translate(104.639103px,24.937262px) scale(1.050000,1.050000)} 22.222222% {transform: translate(104.639103px,24.937262px) scale(1.100000,1.100000)} 33.333333% {transform: translate(104.639103px,24.937262px) scale(1.150000,1.150000)} 44.444444% {transform: translate(104.639103px,24.937262px) scale(1.200000,1.200000)} 55.555556% {transform: translate(104.639103px,24.937262px) scale(1.250000,1.250000)} 66.666667% {transform: translate(104.639103px,24.937262px) scale(1.200000,1.200000)} 77.777778% {transform: translate(104.639103px,24.937262px) scale(1.100000,1.100000)} 88.888889% {transform: translate(104.639103px,24.937262px) scale(1.050000,1.050000)} 100% {transform: translate(104.639103px,24.937262px) scale(1,1)} }#euswj179j6j6 {animation: euswj179j6j6_c_o 900ms linear infinite normal forwards}@keyframes euswj179j6j6_c_o { 0% {opacity: 1} 11.111111% {opacity: 0.950000} 22.222222% {opacity: 0.900000} 33.333333% {opacity: 0.850000} 44.444444% {opacity: 0.800000} 55.555556% {opacity: 0.750000} 66.666667% {opacity: 0.800000} 77.777778% {opacity: 0.850000} 88.888889% {opacity: 0.900000} 100% {opacity: 0.950000} }]]></style><g id="euswj179j6j2"><g id="euswj179j6j3"><g id="euswj179j6j4" transform="matrix(1 0 0 1 -80 0)"><g id="euswj179j6j5"><g id="euswj179j6j6_ts" transform="translate(104.639103,24.937262) scale(1,1)"><path id="euswj179j6j6" d="M123.100000,5.200000L85.800000,25.200000C85.700000,25.300000,85.600000,25.400000,85.700000,25.600000L89,33C89.100000,33.300000,89.400000,33.600000,89.800000,33.700000L100.400000,36.700000C100.600000,36.800000,100.600000,37,100.400000,37.100000L92.400000,39.600000C92.200000,39.700000,92.100000,39.800000,92.200000,40L94.300000,44.500000C94.400000,44.600000,94.500000,44.700000,94.600000,44.700000L109.200000,40.900000C109.600000,40.800000,109.900000,40.500000,110,40.200000L112.500000,33.800000C112.600000,33.600000,112.500000,33.500000,112.300000,33.400000L99.800000,29.700000C99.600000,29.600000,99.600000,29.400000,99.800000,29.300000L116.600000,22.400000C116.900000,22.300000,117.100000,22,117.300000,21.700000L123.600000,5.700000C123.700000,5.300000,123.400000,5.100000,123.100000,5.200000Z" transform="translate(-104.639103,-24.937262)" fill="rgb(14,229,111)" stroke="none" stroke-width="1"/></g></g></g></g></g></svg>