<svg id="e0IFMReh3Ov1" xmlns="http://www.w3.org/2000/svg" xmlns:xlink="http://www.w3.org/1999/xlink" viewBox="0 0 415 376" shape-rendering="geometricPrecision" text-rendering="geometricPrecision"><style><![CDATA[#e0IFMReh3Ov2_ts {animation: e0IFMReh3Ov2_ts__ts 1600ms linear infinite normal forwards}@keyframes e0IFMReh3Ov2_ts__ts { 0% {transform: translate(207.499954px,187.7995px) scale(1,1)} 12.5% {transform: translate(207.499954px,187.7995px) scale(0.98,0.98)} 25% {transform: translate(207.499954px,187.7995px) scale(0.96,0.96)} 37.5% {transform: translate(207.499954px,187.7995px) scale(0.94,0.94)} 50% {transform: translate(207.499954px,187.7995px) scale(0.92,0.92)} 62.5% {transform: translate(207.499954px,187.7995px) scale(0.94,0.94)} 75% {transform: translate(207.499954px,187.7995px) scale(0.96,0.96)} 87.5% {transform: translate(207.499954px,187.7995px) scale(0.98,0.98)} 100% {transform: translate(207.499954px,187.7995px) scale(1,1)}} #e0IFMReh3Ov2 {animation: e0IFMReh3Ov2_c_o 1600ms linear infinite normal forwards}@keyframes e0IFMReh3Ov2_c_o { 0% {opacity: 1} 12.5% {opacity: 0.85} 25% {opacity: 0.7} 37.5% {opacity: 0.55} 50% {opacity: 0.35} 62.5% {opacity: 0.55} 75% {opacity: 0.7} 87.5% {opacity: 0.85} 100% {opacity: 1}}]]></style><defs><linearGradient id="e0IFMReh3Ov3-fill" x1="0" y1="0" x2="415" y2="0" spreadMethod="pad" gradientUnits="userSpaceOnUse" gradientTransform="matrix(1 0 0 1 0 0)"><stop id="e0IFMReh3Ov3-fill-0" offset="0%" stop-color="rgb(253,184,19)"/><stop id="e0IFMReh3Ov3-fill-1" offset="50%" stop-color="rgb(255,244,129)"/><stop id="e0IFMReh3Ov3-fill-2" offset="100%" stop-color="rgb(253,184,19)"/></linearGradient><linearGradient id="e0IFMReh3Ov4-fill" x1="0" y1="0" x2="415" y2="0" spreadMethod="pad" gradientUnits="userSpaceOnUse" gradientTransform="matrix(1 0 0 1 0 0)"><stop id="e0IFMReh3Ov4-fill-0" offset="0%" stop-color="rgb(253,184,19)"/><stop id="e0IFMReh3Ov4-fill-1" offset="50%" stop-color="rgb(255,244,129)"/><stop id="e0IFMReh3Ov4-fill-2" offset="100%" stop-color="rgb(253,184,19)"/></linearGradient><linearGradient id="e0IFMReh3Ov5-fill" x1="0" y1="0" x2="415" y2="0" spreadMethod="pad" gradientUnits="userSpaceOnUse" gradientTransform="matrix(1 0 0 1 0 0)"><stop id="e0IFMReh3Ov5-fill-0" offset="0%" stop-color="rgb(253,184,19)"/><stop id="e0IFMReh3Ov5-fill-1" offset="50%" stop-color="rgb(255,244,129)"/><stop id="e0IFMReh3Ov5-fill-2" offset="100%" stop-color="rgb(253,184,19)"/></linearGradient><linearGradient id="e0IFMReh3Ov6-fill" x1="0" y1="0" x2="415" y2="0" spreadMethod="pad" gradientUnits="userSpaceOnUse" gradientTransform="matrix(1 0 0 1 0 0)"><stop id="e0IFMReh3Ov6-fill-0" offset="0%" stop-color="rgb(253,184,19)"/><stop id="e0IFMReh3Ov6-fill-1" offset="50%" stop-color="rgb(255,244,129)"/><stop id="e0IFMReh3Ov6-fill-2" offset="100%" stop-color="rgb(253,184,19)"/></linearGradient><linearGradient id="e0IFMReh3Ov7-fill" x1="0" y1="0" x2="415" y2="0" spreadMethod="pad" gradientUnits="userSpaceOnUse" gradientTransform="matrix(1 0 0 1 0 0)"><stop id="e0IFMReh3Ov7-fill-0" offset="0%" stop-color="rgb(253,184,19)"/><stop id="e0IFMReh3Ov7-fill-1" offset="50%" stop-color="rgb(255,244,129)"/><stop id="e0IFMReh3Ov7-fill-2" offset="100%" stop-color="rgb(253,184,19)"/></linearGradient><linearGradient id="e0IFMReh3Ov8-fill" x1="0" y1="0" x2="415" y2="0" spreadMethod="pad" gradientUnits="userSpaceOnUse" gradientTransform="matrix(1 0 0 1 0 0)"><stop id="e0IFMReh3Ov8-fill-0" offset="0%" stop-color="rgb(253,184,19)"/><stop id="e0IFMReh3Ov8-fill-1" offset="50%" stop-color="rgb(255,244,129)"/><stop id="e0IFMReh3Ov8-fill-2" offset="100%" stop-color="rgb(253,184,19)"/></linearGradient><linearGradient id="e0IFMReh3Ov9-fill" x1="0" y1="0" x2="415" y2="0" spreadMethod="pad" gradientUnits="userSpaceOnUse" gradientTransform="matrix(1 0 0 1 0 0)"><stop id="e0IFMReh3Ov9-fill-0" offset="0%" stop-color="rgb(253,184,19)"/><stop id="e0IFMReh3Ov9-fill-1" offset="50%" stop-color="rgb(255,244,129)"/><stop id="e0IFMReh3Ov9-fill-2" offset="100%" stop-color="rgb(253,184,19)"/></linearGradient><linearGradient id="e0IFMReh3Ov10-fill" x1="0" y1="0" x2="415" y2="0" spreadMethod="pad" gradientUnits="userSpaceOnUse" gradientTransform="matrix(1 0 0 1 0 0)"><stop id="e0IFMReh3Ov10-fill-0" offset="0%" stop-color="rgb(253,184,19)"/><stop id="e0IFMReh3Ov10-fill-1" offset="50%" stop-color="rgb(255,244,129)"/><stop id="e0IFMReh3Ov10-fill-2" offset="100%" stop-color="rgb(253,184,19)"/></linearGradient><linearGradient id="e0IFMReh3Ov11-fill" x1="0" y1="0" x2="415" y2="0" spreadMethod="pad" gradientUnits="userSpaceOnUse" gradientTransform="matrix(1 0 0 1 0 0)"><stop id="e0IFMReh3Ov11-fill-0" offset="0%" stop-color="rgb(253,184,19)"/><stop id="e0IFMReh3Ov11-fill-1" offset="50%" stop-color="rgb(255,244,129)"/><stop id="e0IFMReh3Ov11-fill-2" offset="100%" stop-color="rgb(253,184,19)"/></linearGradient><linearGradient id="e0IFMReh3Ov12-fill" x1="0" y1="0" x2="415" y2="0" spreadMethod="pad" gradientUnits="userSpaceOnUse" gradientTransform="matrix(1 0 0 1 0 0)"><stop id="e0IFMReh3Ov12-fill-0" offset="0%" stop-color="rgb(253,184,19)"/><stop id="e0IFMReh3Ov12-fill-1" offset="50%" stop-color="rgb(255,244,129)"/><stop id="e0IFMReh3Ov12-fill-2" offset="100%" stop-color="rgb(253,184,19)"/></linearGradient><linearGradient id="e0IFMReh3Ov13-fill" x1="0" y1="0" x2="415" y2="0" spreadMethod="pad" gradientUnits="userSpaceOnUse" gradientTransform="matrix(1 0 0 1 0 0)"><stop id="e0IFMReh3Ov13-fill-0" offset="0%" stop-color="rgb(253,184,19)"/><stop id="e0IFMReh3Ov13-fill-1" offset="50%" stop-color="rgb(255,244,129)"/><stop id="e0IFMReh3Ov13-fill-2" offset="100%" stop-color="rgb(253,184,19)"/></linearGradient><linearGradient id="e0IFMReh3Ov14-fill" x1="0" y1="0" x2="415" y2="0" spreadMethod="pad" gradientUnits="userSpaceOnUse" gradientTransform="matrix(1 0 0 1 0 0)"><stop id="e0IFMReh3Ov14-fill-0" offset="0%" stop-color="rgb(253,184,19)"/><stop id="e0IFMReh3Ov14-fill-1" offset="50%" stop-color="rgb(255,244,129)"/><stop id="e0IFMReh3Ov14-fill-2" offset="100%" stop-color="rgb(253,184,19)"/></linearGradient><linearGradient id="e0IFMReh3Ov15-fill" x1="0" y1="0" x2="415" y2="0" spreadMethod="pad" gradientUnits="userSpaceOnUse" gradientTransform="matrix(1 0 0 1 0 0)"><stop id="e0IFMReh3Ov15-fill-0" offset="0%" stop-color="rgb(253,184,19)"/><stop id="e0IFMReh3Ov15-fill-1" offset="50%" stop-color="rgb(255,244,129)"/><stop id="e0IFMReh3Ov15-fill-2" offset="100%" stop-color="rgb(253,184,19)"/></linearGradient><linearGradient id="e0IFMReh3Ov16-fill" x1="0" y1="0" x2="415" y2="0" spreadMethod="pad" gradientUnits="userSpaceOnUse" gradientTransform="matrix(1 0 0 1 0 0)"><stop id="e0IFMReh3Ov16-fill-0" offset="0%" stop-color="rgb(253,184,19)"/><stop id="e0IFMReh3Ov16-fill-1" offset="50%" stop-color="rgb(255,244,129)"/><stop id="e0IFMReh3Ov16-fill-2" offset="100%" stop-color="rgb(253,184,19)"/></linearGradient><linearGradient id="e0IFMReh3Ov17-fill" x1="0" y1="0" x2="415" y2="0" spreadMethod="pad" gradientUnits="userSpaceOnUse" gradientTransform="matrix(1 0 0 1 0 0)"><stop id="e0IFMReh3Ov17-fill-0" offset="0%" stop-color="rgb(253,184,19)"/><stop id="e0IFMReh3Ov17-fill-1" offset="50%" stop-color="rgb(255,244,129)"/><stop id="e0IFMReh3Ov17-fill-2" offset="100%" stop-color="rgb(253,184,19)"/></linearGradient><linearGradient id="e0IFMReh3Ov18-fill" x1="0" y1="0" x2="415" y2="0" spreadMethod="pad" gradientUnits="userSpaceOnUse" gradientTransform="matrix(1 0 0 1 0 0)"><stop id="e0IFMReh3Ov18-fill-0" offset="0%" stop-color="rgb(253,184,19)"/><stop id="e0IFMReh3Ov18-fill-1" offset="50%" stop-color="rgb(255,244,129)"/><stop id="e0IFMReh3Ov18-fill-2" offset="100%" stop-color="rgb(253,184,19)"/></linearGradient><linearGradient id="e0IFMReh3Ov19-fill" x1="0" y1="0" x2="415" y2="0" spreadMethod="pad" gradientUnits="userSpaceOnUse" gradientTransform="matrix(1 0 0 1 0 0)"><stop id="e0IFMReh3Ov19-fill-0" offset="0%" stop-color="rgb(253,184,19)"/><stop id="e0IFMReh3Ov19-fill-1" offset="50%" stop-color="rgb(255,244,129)"/><stop id="e0IFMReh3Ov19-fill-2" offset="100%" stop-color="rgb(253,184,19)"/></linearGradient><linearGradient id="e0IFMReh3Ov20-fill" x1="0" y1="0" x2="415" y2="0" spreadMethod="pad" gradientUnits="userSpaceOnUse" gradientTransform="matrix(1 0 0 1 0 0)"><stop id="e0IFMReh3Ov20-fill-0" offset="0%" stop-color="rgb(253,184,19)"/><stop id="e0IFMReh3Ov20-fill-1" offset="50%" stop-color="rgb(255,244,129)"/><stop id="e0IFMReh3Ov20-fill-2" offset="100%" stop-color="rgb(253,184,19)"/></linearGradient><linearGradient id="e0IFMReh3Ov21-fill" x1="0" y1="0" x2="415" y2="0" spreadMethod="pad" gradientUnits="userSpaceOnUse" gradientTransform="matrix(1 0 0 1 0 0)"><stop id="e0IFMReh3Ov21-fill-0" offset="0%" stop-color="rgb(253,184,19)"/><stop id="e0IFMReh3Ov21-fill-1" offset="50%" stop-color="rgb(255,244,129)"/><stop id="e0IFMReh3Ov21-fill-2" offset="100%" stop-color="rgb(253,184,19)"/></linearGradient><linearGradient id="e0IFMReh3Ov22-fill" x1="0" y1="0" x2="415" y2="0" spreadMethod="pad" gradientUnits="userSpaceOnUse" gradientTransform="matrix(1 0 0 1 0 0)"><stop id="e0IFMReh3Ov22-fill-0" offset="0%" stop-color="rgb(253,184,19)"/><stop id="e0IFMReh3Ov22-fill-1" offset="50%" stop-color="rgb(255,244,129)"/><stop id="e0IFMReh3Ov22-fill-2" offset="100%" stop-color="rgb(253,184,19)"/></linearGradient><linearGradient id="e0IFMReh3Ov23-fill" x1="0" y1="0" x2="415" y2="0" spreadMethod="pad" gradientUnits="userSpaceOnUse" gradientTransform="matrix(1 0 0 1 0 0)"><stop id="e0IFMReh3Ov23-fill-0" offset="0%" stop-color="rgb(253,184,19)"/><stop id="e0IFMReh3Ov23-fill-1" offset="50%" stop-color="rgb(255,244,129)"/><stop id="e0IFMReh3Ov23-fill-2" offset="100%" stop-color="rgb(253,184,19)"/></linearGradient><linearGradient id="e0IFMReh3Ov24-fill" x1="0" y1="0" x2="415" y2="0" spreadMethod="pad" gradientUnits="userSpaceOnUse" gradientTransform="matrix(1 0 0 1 0 0)"><stop id="e0IFMReh3Ov24-fill-0" offset="0%" stop-color="rgb(253,184,19)"/><stop id="e0IFMReh3Ov24-fill-1" offset="50%" stop-color="rgb(255,244,129)"/><stop id="e0IFMReh3Ov24-fill-2" offset="100%" stop-color="rgb(253,184,19)"/></linearGradient><linearGradient id="e0IFMReh3Ov25-fill" x1="0" y1="0" x2="415" y2="0" spreadMethod="pad" gradientUnits="userSpaceOnUse" gradientTransform="matrix(1 0 0 1 0 0)"><stop id="e0IFMReh3Ov25-fill-0" offset="0%" stop-color="rgb(253,184,19)"/><stop id="e0IFMReh3Ov25-fill-1" offset="50%" stop-color="rgb(255,244,129)"/><stop id="e0IFMReh3Ov25-fill-2" offset="100%" stop-color="rgb(253,184,19)"/></linearGradient><linearGradient id="e0IFMReh3Ov26-fill" x1="0" y1="0" x2="415" y2="0" spreadMethod="pad" gradientUnits="userSpaceOnUse" gradientTransform="matrix(1 0 0 1 0 0)"><stop id="e0IFMReh3Ov26-fill-0" offset="0%" stop-color="rgb(253,184,19)"/><stop id="e0IFMReh3Ov26-fill-1" offset="50%" stop-color="rgb(255,244,129)"/><stop id="e0IFMReh3Ov26-fill-2" offset="100%" stop-color="rgb(253,184,19)"/></linearGradient><linearGradient id="e0IFMReh3Ov27-fill" x1="0" y1="0" x2="415" y2="0" spreadMethod="pad" gradientUnits="userSpaceOnUse" gradientTransform="matrix(1 0 0 1 0 0)"><stop id="e0IFMReh3Ov27-fill-0" offset="0%" stop-color="rgb(253,184,19)"/><stop id="e0IFMReh3Ov27-fill-1" offset="50%" stop-color="rgb(255,244,129)"/><stop id="e0IFMReh3Ov27-fill-2" offset="100%" stop-color="rgb(253,184,19)"/></linearGradient><linearGradient id="e0IFMReh3Ov28-fill" x1="0" y1="0" x2="415" y2="0" spreadMethod="pad" gradientUnits="userSpaceOnUse" gradientTransform="matrix(1 0 0 1 0 0)"><stop id="e0IFMReh3Ov28-fill-0" offset="0%" stop-color="rgb(253,184,19)"/><stop id="e0IFMReh3Ov28-fill-1" offset="50%" stop-color="rgb(255,244,129)"/><stop id="e0IFMReh3Ov28-fill-2" offset="100%" stop-color="rgb(253,184,19)"/></linearGradient><linearGradient id="e0IFMReh3Ov29-fill" x1="0" y1="0" x2="415" y2="0" spreadMethod="pad" gradientUnits="userSpaceOnUse" gradientTransform="matrix(1 0 0 1 0 0)"><stop id="e0IFMReh3Ov29-fill-0" offset="0%" stop-color="rgb(253,184,19)"/><stop id="e0IFMReh3Ov29-fill-1" offset="50%" stop-color="rgb(255,244,129)"/><stop id="e0IFMReh3Ov29-fill-2" offset="100%" stop-color="rgb(253,184,19)"/></linearGradient><linearGradient id="e0IFMReh3Ov30-fill" x1="0" y1="0" x2="415" y2="0" spreadMethod="pad" gradientUnits="userSpaceOnUse" gradientTransform="matrix(1 0 0 1 0 0)"><stop id="e0IFMReh3Ov30-fill-0" offset="0%" stop-color="rgb(253,184,19)"/><stop id="e0IFMReh3Ov30-fill-1" offset="50%" stop-color="rgb(255,244,129)"/><stop id="e0IFMReh3Ov30-fill-2" offset="100%" stop-color="rgb(253,184,19)"/></linearGradient><linearGradient id="e0IFMReh3Ov31-fill" x1="0" y1="0" x2="415" y2="0" spreadMethod="pad" gradientUnits="userSpaceOnUse" gradientTransform="matrix(1 0 0 1 0 0)"><stop id="e0IFMReh3Ov31-fill-0" offset="0%" stop-color="rgb(253,184,19)"/><stop id="e0IFMReh3Ov31-fill-1" offset="50%" stop-color="rgb(255,244,129)"/><stop id="e0IFMReh3Ov31-fill-2" offset="100%" stop-color="rgb(253,184,19)"/></linearGradient><linearGradient id="e0IFMReh3Ov32-fill" x1="0" y1="0" x2="415" y2="0" spreadMethod="pad" gradientUnits="userSpaceOnUse" gradientTransform="matrix(1 0 0 1 0 0)"><stop id="e0IFMReh3Ov32-fill-0" offset="0%" stop-color="rgb(253,184,19)"/><stop id="e0IFMReh3Ov32-fill-1" offset="50%" stop-color="rgb(255,244,129)"/><stop id="e0IFMReh3Ov32-fill-2" offset="100%" stop-color="rgb(253,184,19)"/></linearGradient><linearGradient id="e0IFMReh3Ov33-fill" x1="0" y1="0" x2="415" y2="0" spreadMethod="pad" gradientUnits="userSpaceOnUse" gradientTransform="matrix(1 0 0 1 0 0)"><stop id="e0IFMReh3Ov33-fill-0" offset="0%" stop-color="rgb(253,184,19)"/><stop id="e0IFMReh3Ov33-fill-1" offset="50%" stop-color="rgb(255,244,129)"/><stop id="e0IFMReh3Ov33-fill-2" offset="100%" stop-color="rgb(253,184,19)"/></linearGradient><linearGradient id="e0IFMReh3Ov34-fill" x1="0" y1="0" x2="415" y2="0" spreadMethod="pad" gradientUnits="userSpaceOnUse" gradientTransform="matrix(1 0 0 1 0 0)"><stop id="e0IFMReh3Ov34-fill-0" offset="0%" stop-color="rgb(253,184,19)"/><stop id="e0IFMReh3Ov34-fill-1" offset="50%" stop-color="rgb(255,244,129)"/><stop id="e0IFMReh3Ov34-fill-2" offset="100%" stop-color="rgb(253,184,19)"/></linearGradient><linearGradient id="e0IFMReh3Ov35-fill" x1="0" y1="0" x2="415" y2="0" spreadMethod="pad" gradientUnits="userSpaceOnUse" gradientTransform="matrix(1 0 0 1 0 0)"><stop id="e0IFMReh3Ov35-fill-0" offset="0%" stop-color="rgb(253,184,19)"/><stop id="e0IFMReh3Ov35-fill-1" offset="50%" stop-color="rgb(255,244,129)"/><stop id="e0IFMReh3Ov35-fill-2" offset="100%" stop-color="rgb(253,184,19)"/></linearGradient><linearGradient id="e0IFMReh3Ov36-fill" x1="0" y1="0" x2="415" y2="0" spreadMethod="pad" gradientUnits="userSpaceOnUse" gradientTransform="matrix(1 0 0 1 0 0)"><stop id="e0IFMReh3Ov36-fill-0" offset="0%" stop-color="rgb(253,184,19)"/><stop id="e0IFMReh3Ov36-fill-1" offset="50%" stop-color="rgb(255,244,129)"/><stop id="e0IFMReh3Ov36-fill-2" offset="100%" stop-color="rgb(253,184,19)"/></linearGradient><linearGradient id="e0IFMReh3Ov37-fill" x1="0" y1="0" x2="415" y2="0" spreadMethod="pad" gradientUnits="userSpaceOnUse" gradientTransform="matrix(1 0 0 1 0 0)"><stop id="e0IFMReh3Ov37-fill-0" offset="0%" stop-color="rgb(253,184,19)"/><stop id="e0IFMReh3Ov37-fill-1" offset="50%" stop-color="rgb(255,244,129)"/><stop id="e0IFMReh3Ov37-fill-2" offset="100%" stop-color="rgb(253,184,19)"/></linearGradient><linearGradient id="e0IFMReh3Ov38-fill" x1="0" y1="0" x2="415" y2="0" spreadMethod="pad" gradientUnits="userSpaceOnUse" gradientTransform="matrix(1 0 0 1 0 0)"><stop id="e0IFMReh3Ov38-fill-0" offset="0%" stop-color="rgb(253,184,19)"/><stop id="e0IFMReh3Ov38-fill-1" offset="50%" stop-color="rgb(255,244,129)"/><stop id="e0IFMReh3Ov38-fill-2" offset="100%" stop-color="rgb(253,184,19)"/></linearGradient><linearGradient id="e0IFMReh3Ov39-fill" x1="0" y1="0" x2="415" y2="0" spreadMethod="pad" gradientUnits="userSpaceOnUse" gradientTransform="matrix(1 0 0 1 0 0)"><stop id="e0IFMReh3Ov39-fill-0" offset="0%" stop-color="rgb(253,184,19)"/><stop id="e0IFMReh3Ov39-fill-1" offset="50%" stop-color="rgb(255,244,129)"/><stop id="e0IFMReh3Ov39-fill-2" offset="100%" stop-color="rgb(253,184,19)"/></linearGradient><linearGradient id="e0IFMReh3Ov40-fill" x1="0" y1="0" x2="415" y2="0" spreadMethod="pad" gradientUnits="userSpaceOnUse" gradientTransform="matrix(1 0 0 1 0 0)"><stop id="e0IFMReh3Ov40-fill-0" offset="0%" stop-color="rgb(253,184,19)"/><stop id="e0IFMReh3Ov40-fill-1" offset="50%" stop-color="rgb(255,244,129)"/><stop id="e0IFMReh3Ov40-fill-2" offset="100%" stop-color="rgb(253,184,19)"/></linearGradient><linearGradient id="e0IFMReh3Ov41-fill" x1="0" y1="0" x2="415" y2="0" spreadMethod="pad" gradientUnits="userSpaceOnUse" gradientTransform="matrix(1 0 0 1 0 0)"><stop id="e0IFMReh3Ov41-fill-0" offset="0%" stop-color="rgb(253,184,19)"/><stop id="e0IFMReh3Ov41-fill-1" offset="50%" stop-color="rgb(255,244,129)"/><stop id="e0IFMReh3Ov41-fill-2" offset="100%" stop-color="rgb(253,184,19)"/></linearGradient><linearGradient id="e0IFMReh3Ov42-fill" x1="0" y1="0" x2="415" y2="0" spreadMethod="pad" gradientUnits="userSpaceOnUse" gradientTransform="matrix(1 0 0 1 0 0)"><stop id="e0IFMReh3Ov42-fill-0" offset="0%" stop-color="rgb(253,184,19)"/><stop id="e0IFMReh3Ov42-fill-1" offset="50%" stop-color="rgb(255,244,129)"/><stop id="e0IFMReh3Ov42-fill-2" offset="100%" stop-color="rgb(253,184,19)"/></linearGradient><linearGradient id="e0IFMReh3Ov43-fill" x1="0" y1="0" x2="415" y2="0" spreadMethod="pad" gradientUnits="userSpaceOnUse" gradientTransform="matrix(1 0 0 1 0 0)"><stop id="e0IFMReh3Ov43-fill-0" offset="0%" stop-color="rgb(253,184,19)"/><stop id="e0IFMReh3Ov43-fill-1" offset="50%" stop-color="rgb(255,244,129)"/><stop id="e0IFMReh3Ov43-fill-2" offset="100%" stop-color="rgb(253,184,19)"/></linearGradient><linearGradient id="e0IFMReh3Ov44-fill" x1="0" y1="0" x2="415" y2="0" spreadMethod="pad" gradientUnits="userSpaceOnUse" gradientTransform="matrix(1 0 0 1 0 0)"><stop id="e0IFMReh3Ov44-fill-0" offset="0%" stop-color="rgb(253,184,19)"/><stop id="e0IFMReh3Ov44-fill-1" offset="50%" stop-color="rgb(255,244,129)"/><stop id="e0IFMReh3Ov44-fill-2" offset="100%" stop-color="rgb(253,184,19)"/></linearGradient><linearGradient id="e0IFMReh3Ov45-fill" x1="0" y1="0" x2="415" y2="0" spreadMethod="pad" gradientUnits="userSpaceOnUse" gradientTransform="matrix(1 0 0 1 0 0)"><stop id="e0IFMReh3Ov45-fill-0" offset="0%" stop-color="rgb(253,184,19)"/><stop id="e0IFMReh3Ov45-fill-1" offset="50%" stop-color="rgb(255,244,129)"/><stop id="e0IFMReh3Ov45-fill-2" offset="100%" stop-color="rgb(253,184,19)"/></linearGradient><linearGradient id="e0IFMReh3Ov46-fill" x1="0" y1="0" x2="415" y2="0" spreadMethod="pad" gradientUnits="userSpaceOnUse" gradientTransform="matrix(1 0 0 1 0 0)"><stop id="e0IFMReh3Ov46-fill-0" offset="0%" stop-color="rgb(253,184,19)"/><stop id="e0IFMReh3Ov46-fill-1" offset="50%" stop-color="rgb(255,244,129)"/><stop id="e0IFMReh3Ov46-fill-2" offset="100%" stop-color="rgb(253,184,19)"/></linearGradient><linearGradient id="e0IFMReh3Ov47-fill" x1="0" y1="0" x2="415" y2="0" spreadMethod="pad" gradientUnits="userSpaceOnUse" gradientTransform="matrix(1 0 0 1 0 0)"><stop id="e0IFMReh3Ov47-fill-0" offset="0%" stop-color="rgb(253,184,19)"/><stop id="e0IFMReh3Ov47-fill-1" offset="50%" stop-color="rgb(255,244,129)"/><stop id="e0IFMReh3Ov47-fill-2" offset="100%" stop-color="rgb(253,184,19)"/></linearGradient><linearGradient id="e0IFMReh3Ov48-fill" x1="0" y1="0" x2="415" y2="0" spreadMethod="pad" gradientUnits="userSpaceOnUse" gradientTransform="matrix(1 0 0 1 0 0)"><stop id="e0IFMReh3Ov48-fill-0" offset="0%" stop-color="rgb(253,184,19)"/><stop id="e0IFMReh3Ov48-fill-1" offset="50%" stop-color="rgb(255,244,129)"/><stop id="e0IFMReh3Ov48-fill-2" offset="100%" stop-color="rgb(253,184,19)"/></linearGradient><linearGradient id="e0IFMReh3Ov49-fill" x1="0" y1="0" x2="415" y2="0" spreadMethod="pad" gradientUnits="userSpaceOnUse" gradientTransform="matrix(1 0 0 1 0 0)"><stop id="e0IFMReh3Ov49-fill-0" offset="0%" stop-color="rgb(253,184,19)"/><stop id="e0IFMReh3Ov49-fill-1" offset="50%" stop-color="rgb(255,244,129)"/><stop id="e0IFMReh3Ov49-fill-2" offset="100%" stop-color="rgb(253,184,19)"/></linearGradient><linearGradient id="e0IFMReh3Ov50-fill" x1="0" y1="0" x2="415" y2="0" spreadMethod="pad" gradientUnits="userSpaceOnUse" gradientTransform="matrix(1 0 0 1 0 0)"><stop id="e0IFMReh3Ov50-fill-0" offset="0%" stop-color="rgb(253,184,19)"/><stop id="e0IFMReh3Ov50-fill-1" offset="50%" stop-color="rgb(255,244,129)"/><stop id="e0IFMReh3Ov50-fill-2" offset="100%" stop-color="rgb(253,184,19)"/></linearGradient><linearGradient id="e0IFMReh3Ov51-fill" x1="0" y1="0" x2="415" y2="0" spreadMethod="pad" gradientUnits="userSpaceOnUse" gradientTransform="matrix(1 0 0 1 0 0)"><stop id="e0IFMReh3Ov51-fill-0" offset="0%" stop-color="rgb(253,184,19)"/><stop id="e0IFMReh3Ov51-fill-1" offset="50%" stop-color="rgb(255,244,129)"/><stop id="e0IFMReh3Ov51-fill-2" offset="100%" stop-color="rgb(253,184,19)"/></linearGradient><linearGradient id="e0IFMReh3Ov52-fill" x1="0" y1="0" x2="415" y2="0" spreadMethod="pad" gradientUnits="userSpaceOnUse" gradientTransform="matrix(1 0 0 1 0 0)"><stop id="e0IFMReh3Ov52-fill-0" offset="0%" stop-color="rgb(253,184,19)"/><stop id="e0IFMReh3Ov52-fill-1" offset="50%" stop-color="rgb(255,244,129)"/><stop id="e0IFMReh3Ov52-fill-2" offset="100%" stop-color="rgb(253,184,19)"/></linearGradient><linearGradient id="e0IFMReh3Ov53-fill" x1="0" y1="0" x2="415" y2="0" spreadMethod="pad" gradientUnits="userSpaceOnUse" gradientTransform="matrix(1 0 0 1 0 0)"><stop id="e0IFMReh3Ov53-fill-0" offset="0%" stop-color="rgb(253,184,19)"/><stop id="e0IFMReh3Ov53-fill-1" offset="50%" stop-color="rgb(255,244,129)"/><stop id="e0IFMReh3Ov53-fill-2" offset="100%" stop-color="rgb(253,184,19)"/></linearGradient><linearGradient id="e0IFMReh3Ov54-fill" x1="0" y1="0" x2="415" y2="0" spreadMethod="pad" gradientUnits="userSpaceOnUse" gradientTransform="matrix(1 0 0 1 0 0)"><stop id="e0IFMReh3Ov54-fill-0" offset="0%" stop-color="rgb(253,184,19)"/><stop id="e0IFMReh3Ov54-fill-1" offset="50%" stop-color="rgb(255,244,129)"/><stop id="e0IFMReh3Ov54-fill-2" offset="100%" stop-color="rgb(253,184,19)"/></linearGradient><linearGradient id="e0IFMReh3Ov55-fill" x1="0" y1="0" x2="415" y2="0" spreadMethod="pad" gradientUnits="userSpaceOnUse" gradientTransform="matrix(1 0 0 1 0 0)"><stop id="e0IFMReh3Ov55-fill-0" offset="0%" stop-color="rgb(253,184,19)"/><stop id="e0IFMReh3Ov55-fill-1" offset="50%" stop-color="rgb(255,244,129)"/><stop id="e0IFMReh3Ov55-fill-2" offset="100%" stop-color="rgb(253,184,19)"/></linearGradient><linearGradient id="e0IFMReh3Ov56-fill" x1="0" y1="0" x2="415" y2="0" spreadMethod="pad" gradientUnits="userSpaceOnUse" gradientTransform="matrix(1 0 0 1 0 0)"><stop id="e0IFMReh3Ov56-fill-0" offset="0%" stop-color="rgb(253,184,19)"/><stop id="e0IFMReh3Ov56-fill-1" offset="50%" stop-color="rgb(255,244,129)"/><stop id="e0IFMReh3Ov56-fill-2" offset="100%" stop-color="rgb(253,184,19)"/></linearGradient><linearGradient id="e0IFMReh3Ov57-fill" x1="0" y1="0" x2="415" y2="0" spreadMethod="pad" gradientUnits="userSpaceOnUse" gradientTransform="matrix(1 0 0 1 0 0)"><stop id="e0IFMReh3Ov57-fill-0" offset="0%" stop-color="rgb(253,184,19)"/><stop id="e0IFMReh3Ov57-fill-1" offset="50%" stop-color="rgb(255,244,129)"/><stop id="e0IFMReh3Ov57-fill-2" offset="100%" stop-color="rgb(253,184,19)"/></linearGradient></defs><g id="e0IFMReh3Ov2_ts" transform="translate(207.499954,187.7995) scale(1,1)"><g id="e0IFMReh3Ov2" transform="translate(-207.499954,-187.799499)"><path id="e0IFMReh3Ov3" d="M202.689,87.4156C201.728,87.4156,201.248,87.4156,200.768,87.896C201.728,87.896,202.208,87.896,202.689,87.4156Z" fill="url(#e0IFMReh3Ov3-fill)" stroke="none" stroke-width="1"/><path id="e0IFMReh3Ov4" d="M402.497,143.131C401.198,143.209,399.895,143.046,398.655,142.651C397.214,142.651,395.773,142.171,394.332,142.171C393.314,142.048,392.288,142.333,391.479,142.962C390.669,143.592,390.141,144.516,390.009,145.533C390.009,147.454,391.93,147.934,393.371,148.415C396.253,148.895,399.135,149.375,399.135,157.06L399.135,182.516L364.553,144.572C363.486,143.232,361.932,142.369,360.23,142.171L356.868,142.171C354.947,142.171,352.545,142.651,350.144,142.651C348.528,142.707,346.913,142.545,345.341,142.171C343.768,141.796,342.153,141.634,340.538,141.69C339.519,141.568,338.494,141.852,337.684,142.482C336.875,143.112,336.347,144.035,336.215,145.052C336.215,146.974,339.097,147.934,340.057,147.934L340.538,147.934C344.86,147.934,345.821,150.816,347.262,155.139C347.262,155.619,347.742,156.099,347.742,156.58L347.742,196.926C347.742,201.729,347.262,205.091,343.419,206.051C342.721,205.998,342.029,206.218,341.491,206.667C340.953,207.115,340.611,207.756,340.538,208.453C340.538,209.414,341.018,209.894,341.498,210.854C341.921,211.323,342.441,211.695,343.021,211.944C343.602,212.192,344.229,212.312,344.86,212.295C346.318,212.373,347.778,212.211,349.183,211.815C350.624,211.815,352.065,211.335,353.026,211.335C354.325,211.257,355.628,211.42,356.868,211.815C358.309,211.815,359.75,212.295,361.191,212.295C361.822,212.312,362.449,212.192,363.03,211.944C363.61,211.695,364.13,211.323,364.553,210.854C365.155,210.198,365.497,209.344,365.513,208.453C365.585,207.776,365.415,207.095,365.033,206.532C363.93,205.716,362.548,205.37,361.191,205.571C357.348,205.571,355.427,203.17,355.427,196.926L355.427,163.304L400.096,210.854C400.489,211.54,401.046,212.118,401.716,212.537C402.386,212.956,403.149,213.203,403.938,213.256C404.66,213.136,405.33,212.801,405.859,212.295C406.261,211.843,406.556,211.306,406.723,210.724C406.889,210.142,406.922,209.53,406.82,208.933L406.82,155.619C406.82,151.777,407.3,148.895,410.182,148.415C413.064,147.934,413.544,146.974,413.544,145.533C413.544,144.092,413.064,144.092,412.584,143.131C412.196,142.637,411.662,142.278,411.058,142.105C410.454,141.933,409.812,141.956,409.221,142.171C408.079,142.093,406.934,142.257,405.859,142.651C404.899,142.651,403.938,143.131,402.497,143.131Z" fill="url(#e0IFMReh3Ov4-fill)" stroke="none" stroke-width="1"/><path id="e0IFMReh3Ov5" d="M169.549,92.6993L169.549,93.6599C166.667,104.227,174.832,103.266,180.115,107.109C181.556,108.069,181.076,110.471,182.997,110.951L188.761,110.951L189.722,111.912C192.852,112.872,196.198,112.872,199.328,111.912L200.288,110.951C203.65,109.99,203.65,111.912,205.572,111.912C207.493,111.912,208.934,109.99,211.816,110.951L212.776,111.912C215.48,112.297,218.211,112.458,220.941,112.392C221.422,112.392,222.863,110.951,223.343,110.951C225.264,110.471,227.185,111.431,229.107,110.471C231.028,109.51,231.028,107.109,232.469,106.148C235.45,104.732,238.337,103.128,241.114,101.345C242.555,99.9039,242.555,98.463,243.516,97.5024C243.555,94.7503,243.232,92.005,242.555,89.3372L242.075,86.9356C238.713,84.0538,236.792,82.6129,235.831,79.731C232.22,79.3909,228.668,78.5837,225.264,77.3295C222.837,77.246,220.424,76.9243,218.06,76.3689C218.06,76.3689,217.579,74.928,217.099,74.928C214.217,73.9674,215.658,75.4083,212.776,74.4477C212.296,73.9674,211.816,73.4871,211.816,73.0067C209.057,71.9792,206.087,71.6492,203.17,72.0461C201.633,72.6595,200.18,73.4665,198.847,74.4477C196.926,74.928,195.485,74.4477,194.525,75.4083C193.564,76.3689,193.084,77.3295,191.643,77.8098C188.232,78.389,184.862,79.1913,181.556,80.2113C182.168,80.727,182.593,81.4294,182.767,82.2104C182.94,82.9914,182.853,83.8079,182.517,84.5341C181.556,86.4553,174.352,87.8963,177.714,82.1326C178.194,81.6523,178.674,80.6917,179.155,80.2113C178.169,80.1356,177.18,80.3005,176.273,80.6916C174.832,81.6523,175.312,83.5735,174.832,84.5341C174.352,85.4947,172.911,85.4947,171.95,85.975C170.99,86.4553,170.99,87.4159,170.509,87.8962L170.99,87.8962C170.509,89.3372,170.029,91.2584,169.549,92.6993ZM184.438,92.6993L185.399,93.1796C185.879,99.9039,182.517,94.6205,184.438,92.6993ZM189.241,87.4159C189.722,86.4553,190.202,85.0144,191.643,85.0144C194.044,84.5341,193.084,86.4553,193.084,88.3766L193.084,90.2978C188.761,91.2584,187.8,90.2978,189.241,87.4159ZM193.084,108.069C192.603,110.951,189.722,109.51,189.241,105.187C192.603,106.148,193.564,106.148,193.084,108.069ZM194.525,97.9827C192.603,97.5024,192.603,96.5418,191.643,95.5812C190.202,93.6599,190.202,92.6993,194.044,92.219C194.044,91.7387,194.044,91.2584,194.525,91.2584L195.485,91.2584C195.965,93.1796,197.887,98.463,194.525,97.9827ZM198.847,109.03C195.485,110.471,194.525,108.069,195.005,106.148C196.051,106.688,197.194,107.014,198.367,107.109C198.367,107.109,200.288,108.069,198.847,109.03ZM198.847,83.0932C200.021,83.1875,201.163,83.5141,202.209,84.0538C204.611,85.4947,204.13,86.9353,202.689,87.4156C207.012,86.9353,204.131,91.7387,202.209,92.219C196.446,93.1796,198.367,89.3372,197.887,87.8962C198.827,88.1738,199.827,88.1735,200.768,87.896C199.327,87.4156,197.887,86.4553,198.847,83.0932ZM204.611,86.4553C204.616,85.6315,204.779,84.8162,205.091,84.0538C208.934,84.5341,207.493,88.8569,204.611,86.4553ZM207.493,87.4159C208.748,87.7364,210.039,87.8978,211.335,87.8962C217.099,88.8569,213.257,94.1402,208.453,91.2584C206.532,90.2978,206.532,89.8175,207.493,87.4159ZM201.249,107.109C200.769,106.148,200.288,104.707,199.808,104.707C202.69,105.668,202.209,105.187,201.249,107.109ZM202.69,100.384C202.69,100.384,195.485,95.5812,200.288,94.1402C205.091,92.6993,206.532,95.1008,204.131,97.5024C205.091,97.9827,204.131,99.9039,203.65,100.865C203.65,100.384,202.69,100.384,202.69,100.384ZM207.973,110.471C206.532,111.431,203.65,110.471,204.131,109.03C204.131,108.549,204.131,108.549,204.611,108.069C206.052,108.069,210.855,109.03,207.973,110.471ZM209.414,99.4236C209.414,99.4236,209.414,100.384,208.934,100.384C208.453,100.384,206.532,94.1402,207.493,93.6599C211.816,92.219,214.697,95.5812,212.776,97.9827C211.816,98.9433,211.335,98.463,209.414,99.4236ZM216.619,109.03C211.335,109.99,211.816,106.148,215.658,106.148C218.54,106.148,217.579,109.03,216.619,109.03ZM216.619,90.7781C220.461,93.1796,222.863,91.2584,220.461,95.1009C217.099,101.345,214.697,95.5812,216.619,90.7781ZM217.579,83.0932L218.54,84.0538C218.06,86.9356,216.138,85.975,217.579,83.0932ZM219.981,109.99C219.02,107.589,218.54,105.187,221.902,105.187C225.264,105.187,222.863,109.03,219.981,109.99ZM219.501,85.4947C220.941,85.975,222.382,85.975,223.823,86.4553C223.925,87.109,224.086,87.752,224.304,88.3766C224.784,93.6599,217.099,90.7781,219.501,85.4947ZM240.154,89.8175C240.154,89.8175,238.713,90.2978,238.232,89.3372C237.752,88.3766,238.232,87.4159,237.752,86.9356C240.634,88.8569,240.154,89.8175,240.154,89.8175ZM236.311,90.7781C238.713,90.2978,238.713,91.7387,239.193,93.1796C236.792,93.1796,232.469,91.2584,236.311,90.7781ZM230.067,80.2113C232.141,80.7431,233.991,81.9206,235.351,83.5735L235.351,86.4553C231.028,86.4553,227.185,84.0538,230.067,80.2113ZM227.666,87.8962C224.784,88.8569,223.823,85.4947,225.745,85.0144C229.107,84.0538,229.107,87.4159,227.666,87.8962ZM222.382,78.7704C224.784,78.7704,231.028,81.6523,226.705,83.0932C217.099,85.975,221.902,78.7704,222.382,78.7704ZM214.217,76.8492C216.619,76.8492,216.619,76.8492,217.579,77.8098C218.54,78.7704,219.981,79.2507,219.501,79.2507C222.382,79.731,211.816,85.975,214.217,76.8492ZM213.737,86.4553L213.257,87.4159C207.493,89.3372,206.532,84.0538,211.335,82.6129C208.934,82.1326,208.934,78.7704,209.894,78.2901C213.257,76.8492,214.697,82.1326,212.776,82.6129C215.178,82.6129,213.737,86.4553,213.737,86.4553ZM208.453,73.487C210.855,73.487,211.816,73.487,212.776,75.4083C213.737,77.3295,206.532,79.731,208.453,73.487ZM207.493,83.0932C205.091,82.6129,205.091,83.0932,204.611,81.6523L204.611,80.6916C204.611,81.6523,204.131,79.2507,204.611,78.7704C209.894,76.3689,208.453,80.6916,207.493,83.0932ZM202.209,73.0067L203.65,73.0067C205.572,72.5264,205.091,75.8886,204.611,77.3295L200.288,77.3295C199.808,75.4083,200.288,73.4871,202.209,73.0067ZM200.769,78.2901C204.611,77.3295,204.131,82.1326,201.729,82.6129C199.328,83.0932,197.887,78.7704,200.769,78.2901ZM195.005,78.2901C195.485,77.8098,195.485,76.8492,196.446,76.8492C200.769,75.4083,198.367,80.6916,197.887,81.172C196.847,81.5137,195.725,81.5113,194.687,81.1653C193.649,80.8192,192.75,80.1479,192.123,79.2507C192.999,78.7179,193.984,78.3896,195.005,78.2901ZM188.281,79.2507C191.162,78.2901,192.603,82.1326,191.162,83.0932C187.32,84.5341,179.635,80.6916,188.281,79.2507ZM186.84,87.4159C182.997,87.4159,183.958,85.4947,183.478,85.0144C186.84,85.0144,187.32,85.0144,186.84,87.4159ZM176.753,98.463C175.312,98.463,171.95,95.1009,174.832,94.6205C177.714,94.1402,178.194,98.463,176.753,98.463ZM177.714,92.6993C174.832,93.1796,173.871,94.1402,172.911,91.7387L174.352,90.7781C176.753,89.8175,177.234,91.7387,177.714,92.6993ZM172.911,87.4159L174.352,87.4159C172.911,90.7781,171.47,90.7781,172.911,87.4159Z" fill="url(#e0IFMReh3Ov5-fill)" stroke="none" stroke-width="1"/><path id="e0IFMReh3Ov6" d="M390.969,229.587C391.771,228.908,392.803,228.564,393.851,228.626L398.654,228.626C403.938,228.626,405.379,234.39,406.82,237.752C407.78,239.673,408.261,241.594,410.182,241.594C410.992,241.488,411.735,241.086,412.267,240.465C412.799,239.845,413.082,239.049,413.064,238.232C413.064,236.311,412.583,231.508,412.583,228.626C412.583,226.705,412.103,224.784,412.103,223.343C412.103,219.981,410.182,219.981,409.221,219.981L405.379,219.981L382.324,220.941L369.836,220.941C365.987,221.021,362.137,220.861,358.309,220.461L355.907,220.461C354.466,220.461,353.506,221.902,353.506,224.303C353.38,226.143,352.89,227.938,352.065,229.587C351.665,232.611,351.505,235.663,351.584,238.713C351.591,239.084,351.681,239.449,351.848,239.782C352.014,240.114,352.252,240.405,352.545,240.634C353.025,241.114,353.506,241.594,353.986,241.594C355.907,241.594,356.868,239.193,357.828,237.272C359.269,234.39,360.71,228.626,365.513,228.626L370.797,228.626C371.474,228.554,372.154,228.724,372.718,229.106C373.198,229.587,373.198,230.067,373.198,231.028L373.198,275.696C373.198,280.98,372.718,283.861,369.836,283.861C368.875,283.861,366.474,284.342,366.474,286.743C366.474,287.704,366.954,288.184,367.434,289.145C367.915,290.105,369.356,290.586,370.316,290.105C372.568,290.185,374.823,290.024,377.041,289.625C379.097,289.227,381.192,289.066,383.285,289.145C385.377,289.083,387.47,289.244,389.529,289.625C391.45,289.625,393.851,290.105,395.773,290.105C396.808,290.083,397.812,289.748,398.654,289.145C399.16,288.615,399.495,287.946,399.615,287.224C399.687,286.547,399.517,285.866,399.135,285.302C398.682,284.9,398.145,284.605,397.563,284.439C396.981,284.273,396.369,284.239,395.773,284.342C391.93,284.342,390.489,281.94,390.489,275.696L390.489,231.508C390.417,230.831,390.587,230.15,390.969,229.587Z" fill="url(#e0IFMReh3Ov6-fill)" stroke="none" stroke-width="1"/><path id="e0IFMReh3Ov7" d="M166.186,97.5026C165.705,97.0223,166.186,97.0223,166.186,96.0617C162.218,95.4128,158.185,95.2515,154.178,95.5814C150.816,96.542,164.745,97.5026,166.186,97.5026Z" fill="url(#e0IFMReh3Ov7-fill)" stroke="none" stroke-width="1"/><path id="e0IFMReh3Ov8" d="M181.556,80.2113C181.076,79.731,180.595,79.7313,179.634,79.7313C179.507,79.7313,179.385,79.7819,179.294,79.872C179.204,79.962,179.155,80.084,179.155,80.2113L181.556,80.2113Z" fill="url(#e0IFMReh3Ov8-fill)" stroke="none" stroke-width="1"/><path id="e0IFMReh3Ov9" d="M144.091,226.225C145.052,226.225,147.454,225.745,147.454,223.343C147.454,222.382,146.973,221.902,146.493,220.942C146.115,220.576,145.66,220.299,145.161,220.133C144.663,219.967,144.133,219.915,143.611,219.981C142.471,219.94,141.332,220.103,140.249,220.461C139.288,220.461,138.328,220.942,137.367,220.942C136.068,221.019,134.765,220.857,133.525,220.461C132.084,220.461,130.643,219.981,129.682,219.981C129.203,219.92,128.717,219.961,128.256,220.102C127.794,220.242,127.367,220.479,127.004,220.797C126.641,221.115,126.349,221.506,126.149,221.945C125.948,222.384,125.843,222.86,125.84,223.343C125.84,225.264,128.241,225.745,129.202,225.745C130.157,225.526,131.158,225.647,132.034,226.085C132.91,226.523,133.607,227.251,134.005,228.146C134.783,230.131,135.111,232.263,134.966,234.39L134.966,258.405C134.966,274.256,129.682,280.98,117.194,280.98C115.073,281.156,112.939,280.859,110.946,280.112C108.952,279.364,107.15,278.184,105.667,276.657C102.235,272.296,100.525,266.826,100.864,261.287L100.864,232.949C100.864,228.146,101.824,225.745,103.265,225.745C104.706,225.745,106.627,225.264,106.627,222.863C106.627,221.902,106.147,221.422,105.667,220.461C105.187,219.501,103.746,219.02,102.785,219.501C100.851,219.422,98.9153,219.583,97.0213,219.981C95.1001,219.981,93.1789,220.461,91.2576,220.461C89.3239,220.54,87.3879,220.379,85.494,219.981C83.6,219.583,81.664,219.422,79.7303,219.501C77.8091,219.501,75.8878,220.461,75.8878,222.382L75.8878,222.863C75.8878,225.264,77.8091,225.264,79.25,225.264C81.6515,225.264,84.053,225.745,84.053,233.91L84.053,261.768C83.8016,265.333,84.2672,268.912,85.4221,272.294C86.577,275.677,88.3979,278.793,90.7773,281.46C95.5804,286.744,103.265,289.145,113.832,289.145C117.773,289.456,121.735,288.933,125.459,287.609C129.183,286.285,132.586,284.189,135.446,281.46C140.249,276.177,142.65,268.492,142.65,257.445L141.69,234.87L141.69,233.429C141.69,230.548,141.69,226.225,144.091,226.225Z" fill="url(#e0IFMReh3Ov9-fill)" stroke="none" stroke-width="1"/><path id="e0IFMReh3Ov10" d="M217.098,260.807C218.058,260.327,219.98,260.327,219.98,257.925C219.98,256.964,219.499,256.484,219.019,255.524C218.596,255.055,218.076,254.683,217.496,254.434C216.916,254.186,216.288,254.066,215.657,254.083C213.882,254.004,212.105,254.165,210.374,254.563C208.317,254.961,206.222,255.122,204.13,255.043C201.239,255.123,198.348,254.962,195.484,254.563C193.41,254.323,191.314,254.323,189.24,254.563C188.222,254.44,187.197,254.725,186.387,255.355C185.577,255.984,185.049,256.908,184.917,257.925C184.917,259.846,186.839,260.327,188.279,260.807C190.681,261.287,195.004,260.327,195.004,269.452L195.004,273.775C195.254,274.934,195.255,276.133,195.007,277.292C194.759,278.452,194.266,279.545,193.563,280.499C192.675,281.848,191.461,282.951,190.034,283.707C188.607,284.462,187.012,284.846,185.398,284.822C183.471,284.788,181.574,284.342,179.834,283.513C178.094,282.685,176.552,281.493,175.311,280.019C169.548,274.255,169.548,262.728,169.548,254.083C169.548,246.398,169.548,236.311,175.311,230.548C176.701,228.874,178.476,227.563,180.484,226.727C182.491,225.89,184.672,225.553,186.839,225.744C197.405,225.744,203.169,236.792,206.531,242.555C208.452,245.917,208.933,247.839,210.854,247.839C211.225,247.831,211.591,247.742,211.923,247.575C212.255,247.409,212.547,247.171,212.775,246.878C213.281,246.348,213.615,245.679,213.736,244.957L213.736,243.036C213.255,237.752,212.775,232.469,212.775,227.666C212.841,227.144,212.789,226.614,212.623,226.115C212.457,225.617,212.18,225.161,211.815,224.784C211.334,224.304,211.334,223.823,210.374,223.823L209.893,223.823C209.17,224.183,208.519,224.671,207.972,225.264C207.492,225.744,207.492,227.185,207.011,227.185C206.531,227.185,206.051,226.225,205.09,225.744C198.87,221.952,191.722,219.957,184.437,219.981C163.784,219.981,147.453,234.39,147.453,254.563C147.415,264.085,150.827,273.3,157.06,280.499C160.423,284.085,164.531,286.889,169.095,288.715C173.659,290.541,178.568,291.343,183.476,291.066C193.303,291.195,202.964,288.53,211.334,283.381C212.775,282.901,213.255,281.46,213.736,280.019L213.736,265.13C213.736,260.327,216.137,261.287,217.098,260.807Z" fill="url(#e0IFMReh3Ov10-fill)" stroke="none" stroke-width="1"/><path id="e0IFMReh3Ov11" d="M348.702,98.9429C352.064,98.4626,351.103,92.2186,347.741,92.6989C344.379,93.1792,344.859,99.9035,348.702,98.9429Z" fill="url(#e0IFMReh3Ov11-fill)" stroke="none" stroke-width="1"/><path id="e0IFMReh3Ov12" d="M171.95,122.959C171.47,123.439,170.989,123.439,170.509,123.919C170.989,123.919,171.47,123.439,171.95,122.959Z" fill="url(#e0IFMReh3Ov12-fill)" stroke="none" stroke-width="1"/><path id="e0IFMReh3Ov13" d="M13.9289,129.683C15.3698,125.84,16.8107,123.439,21.6138,123.439C20.8263,121.801,20.3779,120.02,20.2953,118.204C20.2128,116.389,20.4979,114.575,21.1335,112.872C22.1089,116.591,23.9154,120.039,26.4169,122.959C37.9442,117.195,50.4322,117.195,65.3217,120.077C70.4755,121.506,75.8448,121.994,81.1718,121.518C94.6204,119.116,113.833,106.628,126.801,115.754C124.88,117.675,123.439,118.155,122.959,120.557C121.518,127.762,131.124,133.525,137.368,131.124C142.171,129.202,144.092,123.919,146.013,119.596C156.1,119.596,157.541,113.352,161.863,109.51L161.383,108.549C162.824,108.549,162.344,102.305,162.344,103.266L162.824,101.825C160.422,100.864,155.619,102.305,153.698,100.384C153.165,99.5079,152.837,98.5229,152.738,97.5023C149.856,84.534,168.107,73.0066,178.194,70.1248C182.036,69.1642,193.083,64.8414,197.886,66.7626C198.367,66.7626,197.886,68.6839,198.367,70.1248L199.808,71.0854C200.288,68.6839,200.288,68.6839,198.847,65.802L211.815,65.802C211.412,66.5667,211.09,67.3716,210.855,68.2036C210.374,69.6445,210.855,68.6839,211.335,69.1642C211.815,69.6445,211.815,73.4869,212.776,69.6445L212.776,66.2823C222.684,66.2081,232.444,68.6895,241.114,73.4869C249.279,77.8097,259.846,84.534,258.885,96.0613L259.366,96.5416C258.885,97.9826,256.004,102.786,251.681,101.825C250.24,101.345,250.24,100.384,248.799,101.345C249.76,103.266,249.279,102.786,249.279,106.148C249.866,107.052,250.349,108.018,250.72,109.03C251.805,112.527,254.22,115.459,257.444,117.195C260.064,118.137,262.826,118.625,265.61,118.636C268.491,125.84,274.255,135.927,284.342,127.762C286.081,126.702,287.348,125.016,287.884,123.051C288.42,121.086,288.184,118.991,287.223,117.195C286.479,115.867,285.288,114.846,283.861,114.313C285.994,112.461,288.722,111.438,291.546,111.431C305.955,110.471,313.64,115.754,325.648,117.675C329.069,118.707,332.664,119.033,336.215,118.636C340.057,118.155,344.86,117.675,349.183,117.195C353.506,116.715,360.23,112.392,366.954,113.352C373.679,114.313,379.442,115.754,382.324,120.077C385.814,117.113,388.187,113.046,389.048,108.549C389.615,110.121,389.824,111.799,389.657,113.461C389.491,115.124,388.955,116.727,388.088,118.155C387.127,117.675,388.088,119.116,388.088,119.116C390.009,119.596,391.45,119.116,392.891,120.077C394.332,121.037,394.812,122.959,396.253,123.919C400.576,127.762,410.182,115.274,407.3,107.589L408.261,109.03C406.751,105.597,404.009,102.854,400.576,101.345L396.253,98.4629C382.804,93.6598,368.876,101.345,358.789,105.187L353.025,107.589C352.065,107.589,351.585,108.069,350.624,108.549C353.025,106.628,354.947,103.746,357.348,101.825C360.71,98.4629,366.954,90.778,371.277,89.3371C374.865,88.8655,378.513,89.363,381.844,90.778C382.391,89.397,382.715,87.9379,382.805,86.4552C382.838,85.2627,382.596,84.0785,382.096,82.9952C381.596,81.912,380.852,80.9592,379.923,80.2112C378.442,79.0719,376.71,78.3031,374.872,77.9689C373.034,77.6347,371.143,77.7448,369.356,78.29C361.671,80.2112,357.829,87.4158,354.466,94.1401C353.61,96.8474,352.129,99.3153,350.144,101.345C346.697,104.353,342.627,106.56,338.225,107.806C333.823,109.052,329.199,109.306,324.687,108.549C318.765,107.57,313.222,104.995,308.652,101.103C304.083,97.2101,300.66,92.1464,298.751,86.4552C297.863,84.3209,297.374,82.0417,297.31,79.7309C297.934,78.3479,298.742,77.0554,299.711,75.8885C300.958,75.5207,302.255,75.3585,303.554,75.4082C303.554,85.0143,304.995,91.7386,309.318,96.5416C311.803,98.9999,314.738,100.957,317.963,102.305L323.727,102.305C322.766,98.9432,317.483,85.0143,322.766,82.6128C323.209,82.3731,323.704,82.2477,324.207,82.2477C324.71,82.2477,325.206,82.3731,325.648,82.6128C325.586,86.0714,326.24,89.5056,327.569,92.6992C329.575,96.626,332.768,99.8197,336.695,101.825C339.149,102.765,341.752,103.254,344.38,103.266C339.577,95.1007,337.656,83.5734,347.742,78.29C349.183,77.3294,356.868,75.8885,354.466,73.4869C351.884,70.7317,348.568,68.7709,344.91,67.835C341.251,66.8991,337.402,67.027,333.813,68.2036L333.333,69.1642C331.018,71.025,328.138,72.0415,325.168,72.046C323.727,66.2823,328.05,63.8808,332.853,62.4399C331.607,60.229,329.78,58.4016,327.569,57.1565C327.569,57.1565,327.569,56.1959,327.089,56.1959C323.832,54.5207,320.049,54.1858,316.549,55.2629C313.049,56.3399,310.109,58.7433,308.357,61.9596C307.453,63.2231,306.951,64.7294,306.916,66.2823C305.475,65.802,304.034,65.802,303.554,64.8414C300.192,60.5187,303.074,52.8337,306.436,49.9519C304.964,48.5366,303.139,47.5415,301.152,47.0701C298.437,46.4945,295.616,46.6604,292.987,47.5504C288.664,48.9913,286.743,49.9519,285.302,53.314C284.822,53.314,284.342,52.8337,284.342,53.314L282.901,57.6368C280.713,60.7524,277.471,62.9704,273.775,63.8808C270.03,64.3855,266.218,63.8883,262.728,62.4399C260.807,60.999,262.247,57.1565,263.208,56.6762C267.051,53.7943,272.334,57.1565,275.216,59.0777C275.329,58.2685,275.489,57.4666,275.696,56.6762C275.572,54.7274,275.25,52.7962,274.735,50.9125C273.226,47.4795,270.484,44.7374,267.051,43.2276C264.421,42.3377,261.601,42.1717,258.885,42.7473L255.523,44.6685C255.043,44.6685,254.563,45.1488,254.082,45.6291C248.799,49.4716,225.744,62.9202,217.099,50.9125C215.847,48.7295,215.502,46.1426,216.138,43.7079C218.059,38.4245,222.862,34.5821,228.626,38.4245C229.587,39.8655,230.547,40.8261,231.508,42.267C231.508,40.3458,231.988,37.9442,231.988,36.023C231.74,33.924,231.057,31.8999,229.982,30.0803C228.907,28.2607,227.463,26.6857,225.744,25.4563C223.395,24.5089,220.796,24.3724,218.36,25.0684C215.924,25.7643,213.79,27.253,212.296,29.2987C212.296,27.3775,211.335,20.1729,211.335,20.1729C210.79,15.8185,209.489,11.5926,207.493,7.68491C207.973,4.80307,206.052,2.40153,205.091,0C205.091,0.480307,203.65,1.92123,203.65,2.40153C203.65,2.88184,201.249,7.2046,201.249,7.68491C201.059,8.53162,200.734,9.34242,200.288,10.0864C198.783,15.7302,197.977,21.5373,197.886,27.3775C196.283,25.5344,194.063,24.3391,191.642,24.0153C179.635,20.1729,177.714,34.1018,178.194,40.8261C181.076,38.4245,183.957,33.6215,189.241,36.9836C194.524,40.3458,196.926,50.4322,189.721,53.7944C181.556,57.6368,165.706,51.8731,161.383,48.9913C160.422,48.511,159.942,48.0307,158.982,47.5504C157.06,46.5897,155.619,44.1882,153.698,43.2276C151.101,42.3706,148.33,42.1854,145.642,42.6893C142.954,43.1932,140.438,44.3699,138.328,46.1094C136.942,47.5068,135.805,49.1313,134.966,50.9125C134.486,53.2901,134.486,55.7396,134.966,58.1171C138.328,56.1959,146.013,51.8731,148.415,58.1171C148.85,58.837,149.02,59.6866,148.895,60.5186C147.934,62.9202,137.848,64.3611,133.525,62.9202C130.886,61.4832,128.718,59.3151,127.281,56.6762C126.801,55.7156,126.801,55.2353,126.321,54.2747C125.84,53.314,125.36,52.8337,124.88,52.3534L122.959,50.4322C121.998,49.9519,121.037,48.9913,120.077,48.511C116.763,47.009,113.04,46.6704,109.51,47.5504C107.108,48.0307,105.667,49.9519,103.746,51.3928C105.187,52.3534,105.667,52.3534,106.628,53.7944C106.628,54.2747,107.108,54.2747,107.108,54.755C108.221,57.6714,108.389,60.8637,107.589,63.8808C107.289,64.7747,106.786,65.5868,106.119,66.2535C105.452,66.9202,104.64,67.4233,103.746,67.7233C103.4,65.8623,102.69,64.0878,101.658,62.5013C100.625,60.9147,99.2904,59.5471,97.7292,58.4766C96.1681,57.4061,94.4113,56.6537,92.5593,56.2623C90.7072,55.871,88.7963,55.8484,86.9355,56.1959C85.7622,56.2902,84.6194,56.6168,83.5734,57.1565C83.0931,57.6368,82.6127,59.0777,81.6521,59.558C73.0066,66.2823,81.6521,63.8808,84.534,69.1642C85.4946,70.6051,86.4552,74.4475,83.5734,74.9278C80.6915,75.4082,77.3294,70.6051,75.4082,69.6445C67.2429,66.2823,58.1171,73.0066,55.2353,76.8491C58.377,77.6777,61.4327,78.8035,64.3611,80.2112C64.3611,80.2112,64.3611,81.1718,64.8414,81.1718C67.2938,82.908,69.1285,85.3811,70.0787,88.2317C71.0289,91.0822,71.045,94.1616,70.1248,97.022C69.2075,99.6679,68.0833,102.237,66.7626,104.707C70.5011,104.617,74.1412,103.491,77.2785,101.456C80.4158,99.4214,82.9274,96.5563,84.534,93.1795C85.4946,89.8174,84.0537,85.4946,85.9749,83.5734C93.6598,86.4552,88.8567,97.5023,87.4158,104.707C102.786,104.707,107.108,93.1795,107.108,77.3294C111.911,76.8491,110.951,79.2506,113.352,81.1718C113.352,82.1324,113.833,83.0931,113.833,84.0537C113.456,89.1949,111.435,94.0785,108.069,97.9826C106.748,99.25,105.3,100.377,103.746,101.345L99.4235,105.667C94.9605,108.49,89.8952,110.222,84.6381,110.723C79.381,111.224,74.0798,110.479,69.1642,108.549C67.2429,107.108,65.802,105.667,63.8808,104.227C61.6027,102.899,59.5042,101.285,57.6368,99.4235C57.1565,98.9432,57.1565,97.5023,56.6762,96.5416C53.314,91.7386,48.0307,81.6521,42.267,80.2112L38.4245,80.2112C36.5957,79.9914,34.7433,80.3332,33.1134,81.1911C31.4834,82.0489,30.1529,83.3824,29.2987,85.0143C28.4225,87.6463,28.2568,90.4629,28.8184,93.1795C30.8628,91.9991,33.182,91.3777,35.5427,91.3777C37.9034,91.3777,40.2225,91.9991,42.267,93.1795C49.4716,96.5416,52.3534,105.667,59.0777,109.51C54.9099,107.64,50.5655,106.192,46.1094,105.187C31.2199,99.9038,21.1335,95.581,7.6849,106.148C6.29072,106.958,5.0937,108.068,4.18009,109.397C3.26648,110.726,2.65904,112.241,2.40153,113.833C2.17818,115.585,2.3657,117.365,2.94924,119.032C3.53279,120.7,4.49635,122.208,5.76367,123.439C7.81299,126.277,10.6529,128.449,13.9289,129.683ZM272.814,97.022C272.921,95.5638,272.758,94.0984,272.334,92.6992L275.696,95.1007C279.058,97.0219,275.696,97.022,272.814,97.022ZM278.578,74.4475C282.42,73.9672,280.019,81.1718,281.46,81.1718C281.94,81.6521,281.94,81.6521,281.46,82.1325C277.617,80.2112,275.216,77.8097,271.854,75.8885L278.578,74.4475ZM139.289,95.581C139.365,96.5664,139.2,97.5554,138.809,98.4629L134.486,97.9826C134.435,97.6185,134.266,97.281,134.006,97.022C134.486,97.022,134.966,97.022,134.966,96.5416C136.407,95.581,137.368,94.6204,138.809,93.6598C139.769,94.1401,139.289,95.581,139.289,95.581ZM130.643,75.4082C134.006,75.8885,136.407,76.3688,139.769,76.8491C136.754,79.2051,133.54,81.2943,130.163,83.0931C130.562,80.552,130.723,77.9792,130.643,75.4082Z" fill="url(#e0IFMReh3Ov13-fill)" stroke="none" stroke-width="1"/><path id="e0IFMReh3Ov14" d="M300.672,291.066C302.924,291.163,305.18,291.002,307.396,290.585C309.614,290.187,311.868,290.026,314.12,290.105C318.138,290.186,322.148,290.507,326.128,291.066C329.636,291.454,333.166,291.614,336.695,291.546C339.088,291.969,341.551,291.747,343.83,290.902C346.109,290.058,348.122,288.623,349.663,286.743C352.476,282.109,353.971,276.794,353.986,271.373C354.04,270.675,353.819,269.983,353.37,269.444C352.922,268.906,352.281,268.564,351.584,268.491C349.663,267.531,348.702,268.011,348.222,269.452C342.939,276.656,338.616,284.341,327.089,284.341C325.199,284.135,323.386,283.476,321.805,282.42C321.17,280.568,321.005,278.588,321.325,276.656L321.325,260.326C321.25,259.496,321.417,258.662,321.805,257.925C322.286,257.444,322.766,257.444,324.207,257.444C335.254,257.444,334.773,260.806,335.734,263.688C336.214,265.129,336.695,267.05,339.096,267.05C341.498,267.05,341.978,263.688,341.978,262.728L341.978,245.917C342.179,244.559,341.833,243.178,341.018,242.074C340.488,241.569,339.819,241.234,339.096,241.114C338.272,241.187,337.509,241.58,336.971,242.208C336.433,242.836,336.161,243.65,336.214,244.476C334.774,249.759,331.411,249.759,325.648,249.759L323.726,249.759C322.766,249.759,322.286,249.759,322.286,249.279C321.325,248.799,321.325,248.318,321.325,247.838L321.325,229.586C321.325,229.106,321.325,228.626,321.805,228.626C322.286,228.626,323.246,227.665,327.089,227.665L327.569,227.665C330.787,227.241,334.05,227.975,336.778,229.734C339.505,231.494,341.518,234.165,342.458,237.271C342.939,238.232,343.419,240.633,345.821,240.633C348.222,240.633,348.702,238.712,348.702,236.311C348.782,233.74,348.621,231.167,348.222,228.626C348.222,227.185,347.742,226.224,347.742,224.783C347.855,223.712,347.577,222.636,346.959,221.753C346.341,220.87,345.425,220.241,344.38,219.98C342.446,219.901,340.51,220.063,338.616,220.461C337.207,220.833,335.75,220.995,334.293,220.941L330.451,220.941C326.128,220.941,323.246,221.421,319.404,221.421C315.561,221.421,312.679,220.941,308.837,220.941C304.995,220.941,302.593,220.461,299.231,220.461C295.869,220.461,294.908,221.902,294.908,223.823C294.908,225.744,297.31,226.224,298.27,226.705C299.152,226.593,300.048,226.765,300.825,227.197C301.602,227.629,302.222,228.298,302.593,229.106C303.371,231.091,303.699,233.223,303.554,235.35L303.554,277.617C303.554,283.381,301.152,284.341,299.231,284.822C298.27,285.302,296.349,285.782,296.349,287.704C296.349,288.664,296.829,289.144,297.31,290.105C297.697,290.599,298.231,290.958,298.835,291.131C299.439,291.303,300.082,291.281,300.672,291.066Z" fill="url(#e0IFMReh3Ov14-fill)" stroke="none" stroke-width="1"/><path id="e0IFMReh3Ov15" d="M59.5582,81.6523C57.1567,82.6129,58.1173,88.3766,61.9598,87.416C64.8416,86.4554,63.881,80.2114,59.5582,81.6523Z" fill="url(#e0IFMReh3Ov15-fill)" stroke="none" stroke-width="1"/><path id="e0IFMReh3Ov16" d="M62.9205,95.5808C60.0387,96.0612,60.9993,101.825,63.8811,101.825C66.763,101.825,67.2433,94.6202,62.9205,95.5808Z" fill="url(#e0IFMReh3Ov16-fill)" stroke="none" stroke-width="1"/><path id="e0IFMReh3Ov17" d="M231.508,212.295C243.152,213.903,254.998,211.533,265.129,205.571C269.618,202.012,273.245,197.486,275.74,192.33C278.235,187.173,279.534,181.52,279.538,175.792C279.561,170.314,278.315,164.905,275.898,159.989C273.482,155.072,269.96,150.782,265.609,147.454C257.355,143.096,248.002,141.259,238.712,142.17C236.311,142.17,233.429,143.131,231.027,143.131C228.626,143.131,226.224,143.611,223.823,143.611C221.421,143.611,219.02,142.651,217.098,142.651C215.177,142.651,212.295,142.17,210.374,142.17C207.492,142.17,206.051,143.611,206.051,145.533C206.051,147.454,208.453,148.414,209.894,148.414L210.374,148.414C214.697,148.414,215.177,151.777,215.177,157.06L215.177,199.327C215.177,205.571,212.776,206.051,210.854,206.532C209.894,207.012,207.973,207.492,207.973,209.413C207.973,210.374,208.453,210.854,208.933,211.815C209.321,212.309,209.855,212.668,210.458,212.841C211.062,213.013,211.705,212.99,212.295,212.776C214.229,212.855,216.165,212.693,218.059,212.295C219.98,212.295,221.901,211.815,223.823,211.815C226.394,211.735,228.966,211.896,231.508,212.295ZM233.429,155.139C233.228,153.781,233.574,152.4,234.389,151.296C235.063,150.609,235.908,150.114,236.836,149.861C237.764,149.607,238.743,149.606,239.673,149.855C255.523,150.816,259.846,170.509,259.365,181.075C258.885,191.642,254.562,207.012,241.114,207.012C240.073,207.103,239.024,206.98,238.033,206.649C237.041,206.319,236.128,205.788,235.35,205.091C233.991,202.941,233.321,200.427,233.429,197.886L233.429,155.139Z" fill="url(#e0IFMReh3Ov17-fill)" stroke="none" stroke-width="1"/><path id="e0IFMReh3Ov18" d="M150.816,142.171C150.371,142.158,149.928,142.236,149.514,142.4C149.1,142.564,148.724,142.811,148.409,143.126C148.095,143.441,147.847,143.817,147.683,144.231C147.519,144.645,147.441,145.088,147.454,145.533C147.454,147.935,149.376,147.935,150.816,148.415C153.218,148.895,155.619,148.895,156.1,152.257C156.497,153.826,156.659,155.445,156.58,157.06L156.58,198.367C156.58,203.17,156.1,206.052,152.738,206.052C151.992,206.107,151.291,206.429,150.762,206.958C150.233,207.486,149.911,208.188,149.856,208.934C149.856,209.894,150.336,210.375,150.816,211.335C151.239,211.804,151.759,212.175,152.34,212.424C152.92,212.673,153.547,212.793,154.179,212.776C156.431,212.873,158.687,212.712,160.903,212.296C163.119,211.88,165.375,211.718,167.627,211.815C171.645,211.897,175.655,212.217,179.635,212.776C183.774,213.353,187.944,213.674,192.123,213.737C194.343,213.776,196.549,213.372,198.612,212.547C200.674,211.722,202.55,210.494,204.13,208.934C207.252,203.916,208.605,197.998,207.973,192.123C207.973,191.162,207.493,190.682,207.012,189.721C206.784,189.428,206.493,189.19,206.16,189.024C205.828,188.858,205.463,188.768,205.091,188.761C204.38,188.865,203.704,189.137,203.119,189.554C202.534,189.972,202.058,190.523,201.729,191.162C197.406,198.367,191.162,206.532,183.958,206.532C181.385,206.39,178.897,205.561,176.753,204.131C176.236,203.364,175.883,202.499,175.718,201.59C175.553,200.68,175.578,199.746,175.792,198.847L175.792,155.62C175.784,154.547,175.993,153.483,176.405,152.493C176.818,151.502,177.426,150.606,178.194,149.856C178.85,149.253,179.705,148.912,180.595,148.895C182.997,148.415,183.477,147.454,183.477,146.013C183.477,144.572,182.997,144.572,182.517,143.612C182.094,143.143,181.574,142.772,180.994,142.523C180.413,142.274,179.786,142.154,179.155,142.171C176.902,142.092,174.648,142.253,172.43,142.651C170.509,142.651,166.186,143.132,164.265,143.132C162.172,143.211,160.077,143.05,158.021,142.651C155.641,142.253,153.228,142.092,150.816,142.171Z" fill="url(#e0IFMReh3Ov18-fill)" stroke="none" stroke-width="1"/><path id="e0IFMReh3Ov19" d="M113.352,143.612C91.2582,143.132,75.4081,158.501,75.4081,179.154C75.3319,188.487,78.9591,197.468,85.4945,204.13C89.1845,207.625,93.5793,210.291,98.3841,211.948C103.189,213.604,108.292,214.214,113.352,213.737C118.246,213.893,123.12,213.034,127.666,211.216C132.212,209.397,136.333,206.658,139.769,203.17C146.504,195.633,150.261,185.9,150.336,175.792C150.329,167.979,147.419,160.447,142.171,154.659C138.392,150.925,133.88,148.016,128.919,146.115C123.959,144.213,118.659,143.361,113.352,143.612ZM115.274,207.493C100.864,207.493,97.0219,188.28,96.0613,176.753C96.0613,175.312,95.5809,173.391,95.5809,170.989C95.5694,164.456,97.583,158.08,101.345,152.738C102.356,151.401,103.663,150.316,105.162,149.566C106.662,148.816,108.314,148.422,109.99,148.415C112.177,148.422,114.338,148.897,116.326,149.808C118.314,150.719,120.085,152.046,121.518,153.698C127.762,160.903,130.163,174.351,130.163,184.438C130.163,189.721,129.202,207.493,115.274,207.493Z" fill="url(#e0IFMReh3Ov19-fill)" stroke="none" stroke-width="1"/><path id="e0IFMReh3Ov20" d="M258.885,291.066C269.015,291.198,278.985,288.539,287.704,283.381C289.145,282.901,289.625,281.46,290.105,280.019L290.105,265.13C290.105,260.327,292.507,261.287,293.467,260.807C294.428,260.327,296.349,260.327,296.349,257.925C296.349,256.964,295.869,256.484,295.389,255.524C294.966,255.055,294.446,254.683,293.865,254.434C293.285,254.186,292.658,254.066,292.026,254.083C290.252,254.004,288.474,254.165,286.743,254.563C284.687,254.961,282.592,255.122,280.499,255.043C277.609,255.11,274.718,254.949,271.854,254.563C269.474,254.164,267.06,254.003,264.649,254.083C263.631,253.96,262.605,254.245,261.796,254.874C260.986,255.504,260.458,256.428,260.326,257.445C260.326,259.366,262.247,259.846,263.688,260.327C266.57,260.807,270.413,259.846,270.413,268.972L270.413,273.295C270.663,274.454,270.664,275.653,270.416,276.812C270.167,277.971,269.675,279.065,268.972,280.019C268.084,281.368,266.87,282.471,265.443,283.227C264.016,283.982,262.421,284.366,260.807,284.342C258.88,284.308,256.983,283.861,255.243,283.033C253.503,282.205,251.961,281.013,250.72,279.539C244.956,273.775,244.956,262.248,244.956,253.602C244.956,245.917,244.956,235.831,250.72,230.067C252.11,228.394,253.885,227.083,255.892,226.247C257.9,225.41,260.081,225.073,262.247,225.264C272.814,225.264,278.578,236.311,281.94,242.075C283.861,245.437,284.342,247.358,286.263,247.358C286.634,247.351,287,247.261,287.332,247.095C287.664,246.929,287.955,246.691,288.184,246.398C288.69,245.868,289.024,245.199,289.145,244.476L289.145,242.555C288.108,237.34,287.785,232.008,288.184,226.705C288.25,226.183,288.198,225.654,288.032,225.155C287.866,224.656,287.589,224.201,287.223,223.823C286.743,223.343,286.743,222.863,285.782,222.863L285.302,222.863C284.579,223.222,283.928,223.71,283.381,224.304C282.901,224.784,282.901,226.225,282.42,226.225C281.743,226.297,281.063,226.127,280.499,225.744C274.279,221.952,267.13,219.957,259.846,219.981C239.193,219.981,222.862,234.39,222.862,254.563C222.824,264.085,226.236,273.3,232.468,280.499C235.831,284.085,239.94,286.889,244.504,288.715C249.068,290.541,253.977,291.343,258.885,291.066Z" fill="url(#e0IFMReh3Ov20-fill)" stroke="none" stroke-width="1"/><path id="e0IFMReh3Ov21" d="M345.341,85.4949C342.459,85.9752,343.42,92.6995,347.742,90.7782C350.624,89.8176,349.183,84.054,345.341,85.4949Z" fill="url(#e0IFMReh3Ov21-fill)" stroke="none" stroke-width="1"/><path id="e0IFMReh3Ov22" d="M306.916,151.777C306.916,151.297,306.916,150.816,307.396,150.816C307.876,150.816,308.837,149.856,312.679,149.856L313.16,149.856C320.845,149.856,325.648,152.257,328.049,159.462C328.53,160.422,329.01,162.824,331.411,162.824C333.813,162.824,334.293,160.903,334.293,158.501C334.358,155.93,334.198,153.359,333.813,150.816C333.813,149.375,333.333,148.415,333.333,146.974C333.333,145.533,332.852,142.651,329.97,142.171C328.037,142.092,326.101,142.253,324.207,142.651C322.797,143.023,321.341,143.185,319.884,143.131L316.042,143.131C312.199,143.131,308.837,143.612,304.994,143.612C301.152,143.612,298.27,143.131,294.428,143.131C290.585,143.131,288.184,142.651,284.822,142.651C281.459,142.651,280.499,144.092,280.499,146.013C280.499,147.935,282.9,148.895,284.341,148.895C285.212,148.866,286.074,149.074,286.835,149.497C287.597,149.92,288.229,150.542,288.664,151.297C289.442,153.281,289.77,155.414,289.625,157.541L289.625,199.808C289.625,205.571,287.703,206.532,285.302,207.012C284.341,207.493,282.42,207.973,282.42,209.894C282.42,210.855,282.9,211.335,283.381,212.296C283.768,212.79,284.302,213.149,284.906,213.321C285.51,213.494,286.153,213.471,286.743,213.256C288.995,213.353,291.251,213.192,293.467,212.776C295.685,212.377,297.939,212.216,300.191,212.296C304.21,212.377,308.219,212.698,312.199,213.256C315.707,213.645,319.237,213.805,322.766,213.737C325.232,214.174,327.769,213.96,330.127,213.118C332.485,212.276,334.583,210.834,336.214,208.933C339.101,204.351,340.447,198.965,340.057,193.564C339.951,192.837,339.613,192.164,339.094,191.645C338.575,191.126,337.902,190.788,337.175,190.682C335.254,189.721,334.293,190.201,333.813,191.642C329.01,198.847,324.207,206.532,313.16,206.532C311.399,206.403,309.721,205.732,308.357,204.611C307.374,203.027,306.873,201.191,306.916,199.327L306.916,182.517C306.841,181.687,307.008,180.853,307.396,180.115C307.876,179.635,308.357,179.635,309.798,179.635C320.845,179.635,320.364,182.997,321.325,185.879C321.805,187.32,322.286,189.241,324.687,189.241C327.089,189.241,327.569,185.879,327.569,184.918L327.569,168.588C327.77,167.23,327.424,165.849,326.608,164.745C326.079,164.24,325.409,163.905,324.687,163.785C323.938,163.83,323.231,164.148,322.7,164.679C322.169,165.21,321.851,165.917,321.805,166.666C320.364,171.95,317.002,172.43,311.238,172.43L309.317,172.43C308.357,172.43,307.876,172.43,307.876,171.95C306.916,170.989,306.916,170.509,306.916,170.029L306.916,151.777Z" transform="matrix(1 0 0 1 0 0.000001)" fill="url(#e0IFMReh3Ov22-fill)" stroke="none" stroke-width="1"/><path id="e0IFMReh3Ov23" d="M65.3213,87.4156C60.9986,87.4156,61.9592,94.6202,66.2819,93.6596C69.1637,92.699,68.2031,87.4156,65.3213,87.4156Z" fill="url(#e0IFMReh3Ov23-fill)" stroke="none" stroke-width="1"/><path id="e0IFMReh3Ov24" d="M349.663,79.7305C347.742,80.6911,348.222,82.6123,348.222,84.5336L350.143,85.0139L352.064,85.0139C353.025,82.6123,353.986,78.2896,349.663,79.7305Z" fill="url(#e0IFMReh3Ov24-fill)" stroke="none" stroke-width="1"/><path id="e0IFMReh3Ov25" d="M28.8188,354.947C27.3779,355.427,26.8976,355.907,26.8976,356.868C26.8976,357.828,27.8582,360.71,31.2204,360.71C31.821,359.516,32.1491,358.204,32.181,356.868C32.181,355.427,31.2204,353.986,28.8188,354.947Z" fill="url(#e0IFMReh3Ov25-fill)" stroke="none" stroke-width="1"/><path id="e0IFMReh3Ov26" d="M129.683,319.884L118.156,321.325C118.156,321.325,122.479,321.805,122.479,322.286C133.045,322.286,142.171,322.286,144.573,330.451L145.053,330.451C143.003,332.753,140.336,334.42,137.368,335.254C131.096,336.212,124.688,335.719,118.636,333.813L120.077,334.773C121.017,335.689,122.174,336.35,123.439,336.695C125.129,337.085,126.749,337.733,128.242,338.616C134.486,341.498,145.533,343.899,152.258,339.577C154.211,338.2,155.581,336.145,156.1,333.813C158.982,324.207,144.092,317.482,129.683,319.884Z" fill="url(#e0IFMReh3Ov26-fill)" stroke="none" stroke-width="1"/><path id="e0IFMReh3Ov27" d="M262.246,322.286C261.217,323.156,260.373,324.224,259.765,325.426C259.157,326.629,258.798,327.942,258.708,329.287C258.618,330.631,258.801,331.98,259.243,333.253C259.686,334.526,260.381,335.696,261.286,336.695C261.286,338.136,261.766,338.616,262.246,338.616C267.177,340.38,272.505,340.713,277.616,339.577C282.419,338.616,287.703,336.695,291.545,335.734C293.743,335.176,295.741,334.011,297.309,332.372C289.624,334.294,270.892,336.215,270.412,329.49C270.412,327.569,270.892,326.609,273.293,325.168C277.33,322.433,281.923,320.629,286.742,319.884C288.477,319.507,290.251,319.346,292.025,319.404L292.025,318.443C286.943,317.645,281.798,317.324,276.656,317.483C271.522,317.833,266.563,319.486,262.246,322.286Z" fill="url(#e0IFMReh3Ov27-fill)" stroke="none" stroke-width="1"/><path id="e0IFMReh3Ov28" d="M414.505,323.726C414.025,322.285,412.104,320.845,412.104,319.404C412.104,318.923,413.064,317.002,413.064,316.522C413.597,314.513,413.612,312.403,413.108,310.387C412.604,308.371,411.598,306.516,410.182,304.994C410.182,304.994,410.182,304.034,409.702,304.034C404.899,302.113,400.096,307.876,399.135,310.758C404.899,312.199,400.576,320.845,393.372,316.522C386.167,312.199,392.411,307.396,389.529,299.711C389.041,298.8,388.39,297.986,387.608,297.31C385.091,300.394,382.185,303.138,378.962,305.475C364.073,314.12,335.255,315.561,313.641,311.719C307.877,310.758,298.751,311.238,295.869,310.758C291.702,310.438,287.512,310.599,283.381,311.238C279.059,312.199,275.216,310.758,270.893,311.719C265.705,313.143,260.401,314.107,255.043,314.601C254.083,309.797,247.358,301.152,239.193,305.955L238.233,306.435C237.272,306.435,238.713,306.916,238.233,307.396C241.595,310.758,243.036,313.64,241.595,317.482C240.154,322.285,224.784,324.207,224.784,324.207C214.08,325.091,203.329,325.251,192.604,324.687C190.682,324.207,187.32,324.207,184.438,323.726C180.935,322.816,177.662,321.179,174.832,318.923C171.47,314.601,176.273,307.396,178.194,305.955C176.85,305.117,175.395,304.47,173.872,304.034C166.187,302.593,162.344,309.797,161.384,314.601C146.831,311.794,132.005,310.666,117.195,311.238C84.0542,314.12,46.5903,318.443,26.4174,298.75C23.0552,306.435,28.3386,312.679,20.6537,317.002C19.6931,317.482,18.7325,318.923,16.8112,318.923C12.0082,318.923,12.9688,313.16,15.8506,311.238C13.9294,308.837,10.5672,302.593,5.76418,304.994C0.000499,307.876,4.32326,316.522,3.36265,321.325C3.36265,321.805,1.92172,322.766,1.92172,323.246C0.960372,326.866,0.960372,330.673,1.92172,334.293C1.90146,336.408,2.60494,338.466,3.91542,340.126C5.2259,341.786,7.06458,342.948,9.12633,343.419C9.51459,342.681,9.68139,341.847,9.60663,341.017C9.10038,337.9,9.60532,334.702,11.0476,331.892C15.3703,325.648,20.1734,330.931,22.5749,333.813C23.262,334.03,23.9105,334.354,24.4961,334.773C24.9764,335.254,24.4961,337.175,24.9764,339.576C25.4217,342.758,26.3958,345.842,27.8583,348.702C27.8583,348.702,28.8189,348.702,28.8189,349.183C29.7795,350.624,30.2598,353.025,32.181,353.986L33.1417,353.986C33.8901,354.591,34.4005,355.442,34.5826,356.387C35.4495,359.051,36.0921,361.782,36.5038,364.552C36.9843,366.397,37.9846,368.064,39.3856,369.355C42.7478,372.237,53.7948,372.718,55.7161,368.395C56.1976,366.83,56.1976,365.157,55.7161,363.592C53.9131,364.415,51.9247,364.746,49.9524,364.552C46.5902,363.592,48.0312,359.749,49.4721,357.348C49.8432,356.487,50.3278,355.679,50.913,354.946C49.9871,353.88,49.4773,352.516,49.4773,351.104C49.4773,349.692,49.9871,348.327,50.913,347.261C53.8913,344.025,57.4831,341.413,61.4798,339.576C64.8908,338.008,68.425,336.723,72.0465,335.734C72.5268,335.734,73.9677,336.214,73.4874,336.214C71.6866,337.223,70.0639,338.521,68.6844,340.057C63.401,344.38,58.5979,350.624,59.5585,356.387C60.0388,360.23,63.401,363.592,70.1253,365.993C69.1778,362.879,68.6923,359.642,68.6844,356.387L68.6844,355.427C68.8558,354.526,68.766,353.595,68.4256,352.744C68.0852,351.893,67.5083,351.157,66.7631,350.624C66.2828,350.143,67.2434,349.663,67.2434,349.663C69.1647,350.143,72.5268,351.584,73.9677,349.183C75.8432,346.503,78.3715,344.347,81.3134,342.918C84.2552,341.489,87.5131,340.835,90.7785,341.017C96.759,340.918,102.729,341.563,108.55,342.939L111.432,343.899C113.353,344.38,113.833,344.38,115.754,344.86C124.4,346.301,134.967,350.143,143.132,351.584C147.792,352.224,152.533,351.897,157.061,350.624C158.502,349.663,163.305,344.38,164.746,344.38C166.187,344.38,166.187,346.301,168.108,347.261C170.494,348.637,173.09,349.61,175.793,350.143C175.091,351.584,173.998,352.798,172.639,353.647C171.28,354.496,169.71,354.946,168.108,354.946L171.95,358.789C179.861,361.671,188.535,361.671,196.446,358.789C199.808,365.513,202.69,364.072,205.572,373.678L206.052,375.119L207.013,375.599C210.375,373.198,209.414,368.875,211.816,366.474C214.033,364.193,216.117,361.788,218.06,359.269C227.186,360.71,239.193,364.072,244.957,356.868C245.55,356.32,246.039,355.669,246.398,354.946C244.062,354.439,241.802,353.631,239.674,352.545C239.193,352.064,239.674,351.584,238.713,350.624C242.476,349.182,246.03,347.244,249.28,344.86C252.27,347.489,255.679,349.6,259.366,351.104C264.031,351.502,268.729,351.178,273.295,350.143C286.263,347.742,296.83,343.899,308.838,342.458C316.042,341.498,327.57,338.616,335.255,342.458L335.255,343.419C336.215,343.899,337.176,343.419,338.136,344.38C342.459,347.742,339.097,351.104,347.743,348.222C347.058,349.421,346.254,350.548,345.341,351.584C344.861,352.064,346.302,354.946,346.302,354.946C346.644,357.962,345.968,361.005,344.38,363.592C346.491,363.407,348.52,362.694,350.283,361.519C352.046,360.344,353.484,358.744,354.467,356.868C355.18,355.367,355.55,353.726,355.55,352.064C355.55,350.403,355.18,348.762,354.467,347.261L352.546,345.34L352.546,343.899C349.664,341.017,345.341,338.136,341.979,334.773L343.9,335.254C347.74,336.028,351.456,337.321,354.947,339.096C358.309,341.017,365.034,343.419,365.994,347.742C366.955,351.104,364.073,351.104,364.553,353.505C365.034,354.946,366.475,356.387,366.955,357.828C367.238,358.485,367.297,359.217,367.123,359.912C366.95,360.606,366.553,361.224,365.994,361.671C364.553,363.112,361.191,362.151,359.27,361.671C358.309,367.915,364.073,371.277,369.837,370.796C377.041,369.836,378.002,363.592,380.403,358.308C380.884,357.348,380.884,356.868,381.364,355.907C381.844,354.946,381.844,354.466,382.325,354.466C382.199,355.298,382.369,356.148,382.805,356.868C383.03,357.309,383.374,357.678,383.799,357.932C384.224,358.187,384.711,358.318,385.207,358.308C386.167,358.308,386.647,357.828,387.128,356.868C388.088,354.946,387.608,352.064,385.207,352.064L386.167,351.104C387.734,348.526,389.022,345.789,390.01,342.939C390.094,343.343,390.268,343.724,390.521,344.051C390.773,344.379,391.096,344.645,391.466,344.83C391.835,345.015,392.242,345.113,392.655,345.119C393.069,345.124,393.478,345.035,393.852,344.86C396.254,343.899,395.293,337.655,391.45,339.096C391.323,339.096,391.201,339.147,391.111,339.237C391.021,339.327,390.97,339.449,390.97,339.576C390.97,338.136,391.45,336.695,391.45,334.773C391.45,334.646,391.501,334.524,391.591,334.434C391.681,334.344,391.803,334.293,391.931,334.293C391.885,334.726,391.946,335.164,392.107,335.569C392.268,335.974,392.525,336.333,392.855,336.617C393.186,336.9,393.581,337.099,394.005,337.196C394.43,337.294,394.872,337.286,395.293,337.175C395.883,336.894,396.381,336.452,396.73,335.899C397.079,335.346,397.264,334.706,397.264,334.053C397.264,333.4,397.079,332.76,396.73,332.207C396.381,331.654,395.883,331.212,395.293,330.931C396.135,330.128,397.11,329.478,398.175,329.01C399.339,328.466,400.66,328.361,401.896,328.714C403.131,329.067,404.198,329.854,404.899,330.931C406.812,334.456,407.326,338.571,406.34,342.458C407.483,342.572,408.637,342.407,409.702,341.978C410.663,341.498,410.663,340.537,411.623,339.576C413.136,337.26,414.17,334.665,414.665,331.943C415.16,329.221,415.106,326.427,414.505,323.726ZM44.669,354.466C44.669,354.466,41.7872,353.505,43.7084,352.545L44.669,352.545L44.669,354.466ZM46.5902,341.978C46.3294,342.237,46.1607,342.575,46.1099,342.939C44.669,344.86,40.8266,346.301,40.3463,346.781C38.425,350.143,41.7872,353.025,37.4644,354.466C37.1861,351.828,37.7891,349.172,39.1794,346.913C40.5696,344.654,42.6689,342.918,45.1493,341.978L46.5902,341.017C48.0312,341.017,46.5902,341.978,46.5902,341.978ZM44.669,336.214C48.5115,335.734,43.7084,338.616,42.7478,339.096C40.3463,337.175,42.7478,336.214,44.669,336.214ZM27.378,331.411C29.6761,329.945,32.0849,328.661,34.5826,327.569C35.5432,327.089,36.9841,328.049,36.9841,328.049C42.7478,329.01,47.5509,329.01,54.2752,329.49L70.6056,330.451C58.5979,333.813,41.7872,331.411,27.378,331.411ZM158.982,338.136C152.738,353.505,124.4,340.537,111.432,338.136C103.266,336.695,94.6209,336.695,87.4163,333.333C91.4617,333.327,95.4922,332.844,99.424,331.892C103.113,331.971,106.803,331.811,110.471,331.411C119.117,329.49,131.605,331.892,139.289,329.49C138.907,328.926,138.737,328.246,138.809,327.569C120.077,325.167,96.0618,330.931,78.2905,326.128C79.7576,325.94,81.2045,325.618,82.6133,325.167C90.7785,323.246,99.9043,320.845,108.55,319.404C117.195,317.963,124.88,318.443,133.045,317.002C144.093,315.081,154.659,319.404,158.502,326.608C159.413,328.38,159.928,330.329,160.011,332.319C160.094,334.31,159.743,336.294,158.982,338.136ZM172.431,338.616C170.99,337.655,170.99,335.254,170.509,334.773C181.076,334.773,176.753,340.537,172.431,338.616ZM177.714,332.372C177.234,331.892,176.273,331.411,175.793,330.451L176.753,327.569C179.155,329.01,178.675,329.49,177.714,332.372ZM188.281,328.529C189.241,330.931,189.241,329.97,189.241,331.892C188.761,337.655,185.399,331.411,188.281,328.529ZM198.367,333.333C196.446,339.577,195.485,332.372,197.887,329.49C198.367,329.97,198.367,331.892,197.887,331.892C199.328,331.892,197.407,332.852,198.367,333.333ZM207.013,330.931C207.973,333.333,207.973,332.372,207.973,334.293C207.493,340.057,204.611,333.813,207.013,330.931ZM215.178,333.813C216.139,333.332,214.217,332.372,215.658,332.372C215.421,332.016,215.294,331.599,215.294,331.171C215.294,330.744,215.421,330.326,215.658,329.97C218.06,332.372,217.099,339.096,215.178,333.813ZM225.264,332.372C224.784,332.372,225.264,329.97,225.745,329.01C226.225,329.01,226.705,329.49,227.186,329.49C227.186,333.813,226.225,336.695,225.264,332.372ZM237.272,327.569C239.193,329.01,239.674,330.451,237.752,331.411L237.272,330.931C235.351,329.49,236.311,328.529,237.272,327.569ZM241.595,338.616C237.272,339.576,236.311,335.254,239.193,334.293C246.878,331.892,243.516,338.136,241.595,338.616ZM331.892,324.207L321.806,325.648C309.969,326.368,298.1,326.368,286.263,325.648C282.395,325.249,278.485,325.575,274.736,326.608C274.736,328.049,274.736,329.49,275.697,329.49C276.657,329.49,277.618,329.01,279.059,329.01C287.196,328.049,295.417,328.049,303.554,329.01C310.999,330.384,318.559,331.028,326.129,330.931C318.061,332.993,309.882,334.597,301.633,335.734C293.468,337.655,286.263,340.537,277.137,341.978C272.489,343.489,267.537,343.82,262.728,342.939C260.875,342.313,259.205,341.241,257.865,339.817C256.525,338.393,255.556,336.661,255.043,334.773C254.516,332.748,254.414,330.635,254.745,328.568C255.075,326.501,255.831,324.525,256.965,322.766C261.32,318.342,267.11,315.617,273.295,315.081C276.505,315.001,279.716,315.162,282.901,315.561C286.744,316.522,290.586,315.081,294.429,316.041C301.153,317.002,309.318,318.443,315.562,319.884C320.169,320.76,324.818,321.401,329.491,321.805L334.294,323.246C339.097,324.207,333.814,323.726,331.892,324.207ZM369.837,357.348C370.797,356.387,371.278,355.907,371.278,354.946C371.871,355.494,372.359,356.145,372.719,356.868C373.199,358.789,369.356,359.749,369.837,357.348ZM369.837,349.663L370.797,350.143C369.837,353.025,369.837,353.025,369.837,349.663ZM375.6,352.064L374.64,349.183C374.159,341.978,372.238,344.38,368.396,341.978C368.396,340.537,367.435,339.576,366.955,338.136C367.915,338.616,369.356,338.616,370.317,339.096C373.199,340.537,379.443,348.222,375.6,352.064ZM367.915,333.333C369.373,333.254,370.833,333.417,372.238,333.813C372.238,335.734,371.758,336.214,371.758,336.214C370.393,335.371,369.107,334.407,367.915,333.333ZM385.207,328.529C371.129,329.568,356.989,329.407,342.939,328.049C348.56,328.222,354.186,327.9,359.75,327.089C364.989,326.018,370.279,325.217,375.6,324.687C379.443,324.207,382.325,326.608,385.687,327.569C385.687,327.569,384.726,328.529,385.207,328.529Z" fill="url(#e0IFMReh3Ov28-fill)" stroke="none" stroke-width="1"/><path id="e0IFMReh3Ov29" d="M390.009,346.302C386.647,346.302,387.127,353.986,390.97,352.546C393.371,351.585,393.371,346.302,390.009,346.302Z" fill="url(#e0IFMReh3Ov29-fill)" stroke="none" stroke-width="1"/><path id="e0IFMReh3Ov30" d="M4.3232,225.744C8.64596,225.744,9.60657,228.626,10.5672,232.468C10.5672,232.949,11.0475,233.429,11.0475,233.909L11.0475,273.775C11.0475,278.578,10.5672,281.94,7.20504,282.42C6.50653,282.367,5.81457,282.587,5.27636,283.036C4.73816,283.484,4.39619,284.125,4.3232,284.822C4.3232,285.783,4.8035,286.263,5.28381,287.223C5.67134,287.718,6.20519,288.077,6.80904,288.249C7.4129,288.422,8.05584,288.399,8.64596,288.184C10.1035,288.262,11.5639,288.1,12.9687,287.704C14.4096,287.704,15.8506,287.223,16.8112,287.223C18.1106,287.145,19.4133,287.308,20.6536,287.704C22.0945,287.704,23.5355,288.184,24.4961,288.184C25.6694,288.09,26.8122,287.763,27.8582,287.223C28.3639,286.694,28.6986,286.024,28.8188,285.302C28.8907,284.625,28.7206,283.945,28.3385,283.381C27.3783,282.65,26.178,282.307,24.9764,282.42C21.1339,282.42,19.693,280.019,19.693,273.775L19.693,240.634L61.96,288.664C62.9161,289.895,64.2777,290.746,65.8025,291.066C66.5247,290.946,67.1941,290.611,67.7237,290.105C68.3246,289.084,68.6552,287.927,68.6843,286.743L68.6843,232.468C68.6843,228.626,69.1646,226.224,71.5661,225.744C72.3121,225.689,73.0133,225.367,73.5422,224.838C74.0711,224.309,74.3925,223.608,74.448,222.862C74.448,221.902,73.9677,221.421,73.4874,220.461C73.0998,219.967,72.566,219.608,71.9621,219.435C71.3583,219.263,70.7153,219.285,70.1252,219.5C68.9832,219.423,67.8377,219.586,66.7631,219.98C65.8025,219.98,64.8418,220.461,63.8812,220.461C62.5818,220.539,61.2791,220.376,60.0388,219.98C58.5979,219.98,57.6372,219.5,56.1963,219.5C55.7176,219.439,55.2314,219.48,54.7697,219.621C54.3081,219.762,53.8816,219.999,53.5184,220.316C53.1552,220.634,52.8636,221.025,52.6628,221.464C52.4621,221.903,52.3568,222.38,52.3539,222.862C52.3539,224.784,54.2751,225.264,55.716,225.264C58.1176,225.744,61.4797,226.224,61.4797,233.909L61.4797,257.444L30.7401,221.421C29.673,220.081,28.1189,219.218,26.4173,219.02L23.5355,219.02C21.6142,219.02,16.8112,219.5,14.8899,219.5C13.4324,219.578,11.972,219.416,10.5672,219.02C9.12626,219.02,7.68534,218.54,5.76412,218.54C1.92166,219.5,0.480742,220.941,0.480742,222.862C0.480742,224.784,2.88228,225.264,4.3232,225.744Z" fill="url(#e0IFMReh3Ov30-fill)" stroke="none" stroke-width="1"/><path id="e0IFMReh3Ov31" d="M23.5343,349.183C19.6918,349.664,20.1721,354.947,25.9358,354.947C26.8964,353.026,27.3767,348.703,23.5343,349.183Z" fill="url(#e0IFMReh3Ov31-fill)" stroke="none" stroke-width="1"/><path id="e0IFMReh3Ov32" d="M36.0233,213.737C46.1527,213.869,56.123,211.21,64.8417,206.052C66.2827,205.572,66.763,204.131,67.2433,202.69L67.2433,187.8C67.2433,182.997,69.6448,183.958,70.6054,183.478C71.566,182.997,73.4872,182.997,73.4872,180.596C73.4872,179.635,73.007,179.155,72.5266,178.194C72.1036,177.725,71.584,177.354,71.0035,177.105C70.4231,176.856,69.7957,176.736,69.1645,176.753C67.3898,176.674,65.6125,176.836,63.8811,177.234C61.825,177.632,59.73,177.793,57.6371,177.714C54.747,177.793,51.8552,177.633,48.9916,177.234C46.7395,177.154,44.4853,177.315,42.2673,177.714C39.8658,177.714,37.9446,178.674,37.9446,181.076C37.9446,183.478,39.8658,183.478,41.3067,183.958C43.7082,184.438,48.031,183.477,48.031,192.603L48.031,196.926C48.2816,198.085,48.2827,199.284,48.0342,200.443C47.7858,201.603,47.2935,202.696,46.5901,203.65C45.7021,204.999,44.4884,206.102,43.0613,206.858C41.6341,207.613,40.0395,207.997,38.4249,207.973C36.4982,207.939,34.6012,207.493,32.8614,206.664C31.1216,205.836,29.5793,204.644,28.3384,203.17C22.5747,197.406,22.5747,185.879,22.5747,177.234C22.5747,169.549,22.5747,159.462,28.3384,153.698C29.7714,152.046,31.5416,150.72,33.5299,149.808C35.5182,148.897,37.6786,148.422,39.8658,148.415C50.4325,148.415,56.1962,159.462,59.5584,165.226C61.4796,168.588,61.9599,170.509,63.8811,170.509C64.2526,170.502,64.6179,170.412,64.9503,170.246C65.2826,170.08,65.5737,169.842,65.8023,169.549C66.308,169.019,66.6427,168.35,66.763,167.627L66.763,165.706C66.2827,160.423,65.8023,155.139,65.8023,150.336C65.8686,149.815,65.8166,149.285,65.6503,148.786C65.484,148.287,65.2077,147.832,64.8417,147.454C64.3614,146.974,64.3614,146.494,63.4008,146.494L61.9599,146.494C61.2371,146.853,60.586,147.342,60.0387,147.935C59.5584,148.415,59.5584,149.856,59.078,149.856C58.5977,149.856,58.1174,149.376,57.1568,148.895C50.937,145.103,43.7883,143.108,36.5036,143.132C15.8504,143.132,0.000326,157.541,0.000326,177.234C-0.038413,186.756,3.37422,195.97,9.60646,203.17C12.9695,206.755,17.0778,209.56,21.6421,211.386C26.2063,213.211,31.1153,214.014,36.0233,213.737Z" fill="url(#e0IFMReh3Ov32-fill)" stroke="none" stroke-width="1"/><path id="e0IFMReh3Ov33" d="M21.1336,339.577C23.5351,338.617,22.5745,333.333,18.732,333.813C18.3536,333.971,18.0099,334.202,17.7206,334.492C17.4313,334.783,17.2021,335.127,17.046,335.507C16.8899,335.886,16.81,336.292,16.8108,336.702C16.8117,337.112,16.8933,337.518,17.051,337.896C17.2087,338.274,17.4393,338.618,17.7298,338.907C18.0204,339.197,18.365,339.426,18.7441,339.582C19.1232,339.738,19.5294,339.818,19.9393,339.817C20.3493,339.816,20.7551,339.735,21.1336,339.577Z" fill="url(#e0IFMReh3Ov33-fill)" stroke="none" stroke-width="1"/><path id="e0IFMReh3Ov34" d="M23.0548,347.742C25.9366,346.781,24.976,340.537,20.6533,341.978C17.7714,342.939,18.732,349.183,23.0548,347.742Z" fill="url(#e0IFMReh3Ov34-fill)" stroke="none" stroke-width="1"/><path id="e0IFMReh3Ov35" d="M204.611,67.7236C204.13,67.7236,204.13,69.1645,204.13,70.1251L204.13,71.0857C204.66,70.5801,205.329,70.2454,206.052,70.1251C206.532,70.1251,205.571,69.1645,205.571,69.1645C205.54,68.9038,205.567,68.6393,205.65,68.3902C205.733,68.141,205.87,67.9134,206.052,67.7236L204.611,67.7236Z" fill="url(#e0IFMReh3Ov35-fill)" stroke="none" stroke-width="1"/><path id="e0IFMReh3Ov36" d="M225.263,69.6445C224.302,71.0854,224.302,72.046,223.342,73.4869L221.901,74.9278C222.861,74.9278,222.381,75.8885,222.861,76.8491C224.302,74.9278,227.184,70.6051,225.263,69.6445Z" fill="url(#e0IFMReh3Ov36-fill)" stroke="none" stroke-width="1"/><path id="e0IFMReh3Ov37" d="M243.996,113.353C241.595,112.392,238.713,109.51,236.792,109.51C234.87,109.51,239.673,111.912,240.634,112.872C243.036,114.313,242.075,114.313,243.996,113.353Z" fill="url(#e0IFMReh3Ov37-fill)" stroke="none" stroke-width="1"/><path id="e0IFMReh3Ov38" d="M218.54,71.5653C219.02,71.5653,219.5,70.6047,218.059,69.1638C217.231,70.3414,216.583,71.6367,216.138,73.0063C216.618,73.0063,216.618,72.526,216.138,73.0063L216.138,73.9669C216.618,73.9669,217.579,73.0063,218.059,73.0063C218.54,73.0063,218.059,71.5653,218.54,71.5653Z" fill="url(#e0IFMReh3Ov38-fill)" stroke="none" stroke-width="1"/><path id="e0IFMReh3Ov39" d="M246.397,84.0535C245.209,84.3586,244.075,84.8446,243.035,85.4944L242.074,86.455C243.996,85.9747,243.035,86.455,244.956,85.9747C246.002,85.435,247.145,85.1085,248.318,85.0141C248.318,85.0141,247.358,84.5338,247.838,84.5338C249.279,84.0535,249.759,85.0141,251.2,84.0535C251.68,84.0535,251.2,83.0929,252.161,83.0929L249.759,82.6126C248.678,83.1797,247.554,83.6615,246.397,84.0535Z" fill="url(#e0IFMReh3Ov39-fill)" stroke="none" stroke-width="1"/><path id="e0IFMReh3Ov40" d="M245.916,96.5415C249.584,96.9411,253.274,97.1016,256.963,97.0218C261.766,95.1006,253.121,95.1005,251.68,95.1005C249.746,95.0216,247.81,95.1829,245.916,95.5809L245.916,96.5415Z" fill="url(#e0IFMReh3Ov40-fill)" stroke="none" stroke-width="1"/><path id="e0IFMReh3Ov41" d="M230.548,77.3296C231.028,76.369,233.43,74.4477,231.989,73.4871L230.548,74.928C229.587,75.8886,230.067,75.8886,230.067,75.8886C230.067,75.8886,229.107,76.369,228.626,76.8493C229.107,76.8493,229.587,77.3296,230.548,77.3296Z" fill="url(#e0IFMReh3Ov41-fill)" stroke="none" stroke-width="1"/><path id="e0IFMReh3Ov42" d="M160.422,85.0139L170.509,87.8962C170.509,87.4159,170.028,87.4155,170.028,86.9352C167.022,85.3186,163.781,84.1841,160.422,83.573C159.462,83.573,160.422,85.0139,160.422,85.0139Z" fill="url(#e0IFMReh3Ov42-fill)" stroke="none" stroke-width="1"/><path id="e0IFMReh3Ov43" d="M182.036,75.4083L180.115,73.4871C177.233,75.8886,185.878,81.172,182.036,75.4083Z" fill="url(#e0IFMReh3Ov43-fill)" stroke="none" stroke-width="1"/><path id="e0IFMReh3Ov44" d="M174.831,79.2504C173.871,78.7701,170.989,75.408,169.548,75.408C166.666,75.8883,173.871,80.211,174.831,80.6913L174.831,79.2504Z" fill="url(#e0IFMReh3Ov44-fill)" stroke="none" stroke-width="1"/><path id="e0IFMReh3Ov45" d="M189.721,75.8881C188.73,73.4932,187.438,71.2337,185.878,69.1638C185.821,70.2431,186.007,71.3216,186.422,72.3193C186.838,73.3171,187.473,74.2085,188.28,74.9275L188.28,75.8881L189.721,75.8881Z" fill="url(#e0IFMReh3Ov45-fill)" stroke="none" stroke-width="1"/><path id="e0IFMReh3Ov46" d="M195.004,73.9669C195.965,73.0063,195.004,69.6441,194.524,69.1638C194.044,69.6441,192.603,70.6047,194.044,71.5653C194.044,71.085,195.004,73.4866,195.004,73.9669Z" fill="url(#e0IFMReh3Ov46-fill)" stroke="none" stroke-width="1"/><path id="e0IFMReh3Ov47" d="M203.169,118.636C203.169,122.958,206.051,115.273,203.649,113.833C203.227,115.396,203.065,117.019,203.169,118.636Z" fill="url(#e0IFMReh3Ov47-fill)" stroke="none" stroke-width="1"/><path id="e0IFMReh3Ov48" d="M196.445,125.84L197.406,125.84C198.283,122.388,198.447,118.792,197.886,115.274C197.449,116.522,197.127,117.809,196.925,119.116L196.925,120.077C196.445,120.077,196.925,120.557,196.925,120.557L196.925,121.998C196.669,123.265,196.509,124.549,196.445,125.84Z" fill="url(#e0IFMReh3Ov48-fill)" stroke="none" stroke-width="1"/><path id="e0IFMReh3Ov49" d="M186.839,121.518C189.26,119.678,191.096,117.176,192.122,114.313L191.162,114.313C190.646,115.612,189.822,116.766,188.76,117.675C187.931,118.853,187.284,120.148,186.839,121.518Z" fill="url(#e0IFMReh3Ov49-fill)" stroke="none" stroke-width="1"/><path id="e0IFMReh3Ov50" d="M181.075,115.273C181.555,114.793,182.516,112.872,181.075,113.352C178.991,115.137,177.207,117.245,175.792,119.596C174.311,120.466,173.009,121.607,171.95,122.959C175.406,120.934,178.491,118.334,181.075,115.273Z" fill="url(#e0IFMReh3Ov50-fill)" stroke="none" stroke-width="1"/><path id="e0IFMReh3Ov51" d="M230.066,113.353C227.665,113.353,239.192,122.959,241.113,123.439C238.712,121.998,232.468,113.353,230.066,113.353Z" fill="url(#e0IFMReh3Ov51-fill)" stroke="none" stroke-width="1"/><path id="e0IFMReh3Ov52" d="M175.792,119.596C175.792,119.116,176.272,119.116,175.792,119.596L175.792,119.596Z" fill="url(#e0IFMReh3Ov52-fill)" stroke="none" stroke-width="1"/><path id="e0IFMReh3Ov53" d="M174.832,110.47C173.462,110.915,172.167,111.563,170.989,112.392L169.548,113.832C165.226,116.234,174.832,111.911,175.312,111.911C174.832,111.911,176.753,109.99,174.832,110.47Z" fill="url(#e0IFMReh3Ov53-fill)" stroke="none" stroke-width="1"/><path id="e0IFMReh3Ov54" d="M238.712,77.8095C237.751,77.8095,237.271,78.7701,236.791,79.7307C238.957,79.3699,240.966,78.3658,242.554,76.8489L242.074,75.408C240.633,75.8883,240.633,76.3686,238.712,77.8095Z" fill="url(#e0IFMReh3Ov54-fill)" stroke="none" stroke-width="1"/><path id="e0IFMReh3Ov55" d="M220.941,113.833C220.46,113.833,220.461,114.793,220.461,114.793C221.901,115.754,223.823,119.116,225.744,121.037C225.744,120.076,221.901,113.833,220.941,113.833Z" fill="url(#e0IFMReh3Ov55-fill)" stroke="none" stroke-width="1"/><path id="e0IFMReh3Ov56" d="M208.452,121.037C208.932,118.66,208.932,116.21,208.452,113.833C207.972,116.21,207.972,118.66,208.452,121.037Z" fill="url(#e0IFMReh3Ov56-fill)" stroke="none" stroke-width="1"/><path id="e0IFMReh3Ov57" d="M213.256,117.194C213.736,121.037,214.217,123.438,214.697,125.84L215.657,125.84C215.657,121.998,215.177,115.273,213.736,114.793C213.529,115.583,213.369,116.385,213.256,117.194Z" fill="url(#e0IFMReh3Ov57-fill)" stroke="none" stroke-width="1"/></g></g></svg>