<svg width="40" height="40" viewBox="0 0 40 40" fill="none" xmlns="http://www.w3.org/2000/svg">
<path fill-rule="evenodd" clip-rule="evenodd" d="M20 36.25C28.9746 36.25 36.25 28.9746 36.25 20C36.25 11.0254 28.9746 3.75 20 3.75C11.0254 3.75 3.75 11.0254 3.75 20C3.75 28.9746 11.0254 36.25 20 36.25ZM20 40C31.0457 40 40 31.0457 40 20C40 8.9543 31.0457 0 20 0C8.9543 0 0 8.9543 0 20C0 31.0457 8.9543 40 20 40Z" fill="white" fill-opacity="0.4"/>
<mask id="mask0_93_62932" style="mask-type:alpha" maskUnits="userSpaceOnUse" x="0" y="0" width="20" height="20">
<path d="M20 0C17.3736 -3.132e-08 14.7728 0.517315 12.3463 1.52241C9.91982 2.5275 7.71503 4.00069 5.85786 5.85787C4.00069 7.71504 2.5275 9.91982 1.52241 12.3463C0.517315 14.7728 -3.96581e-07 17.3736 0 20L20 20V0Z" fill="#D9D9D9"/>
</mask>
<g mask="url(#mask0_93_62932)">
<path fill-rule="evenodd" clip-rule="evenodd" d="M20 36.25C28.9746 36.25 36.25 28.9746 36.25 20C36.25 11.0254 28.9746 3.75 20 3.75C11.0254 3.75 3.75 11.0254 3.75 20C3.75 28.9746 11.0254 36.25 20 36.25ZM20 40C31.0457 40 40 31.0457 40 20C40 8.9543 31.0457 0 20 0C8.9543 0 0 8.9543 0 20C0 31.0457 8.9543 40 20 40Z" fill="#D7182A"/>
</g>
</svg>
