<?xml version="1.0" encoding="UTF-8"?>
<svg width="120px" height="56px" viewBox="0 0 120 56" version="1.1" xmlns="http://www.w3.org/2000/svg" xmlns:xlink="http://www.w3.org/1999/xlink">
    <title>Assets / Methods / Apple Pay</title>
    <g id="Symbols" stroke="none" stroke-width="1" fill="none" fill-rule="evenodd">
        <g id="Content">
            <rect id="Guide" fill-opacity="0" fill="#FFFFFF" x="-1.13686838e-13" y="0" width="120" height="56"></rect>
            <path d="M82.5930599,20.9008769 L86.7077808,34.0204118 L86.7665589,34.0204118 L90.8812798,20.9008769 L94.4081633,20.9008769 L88.3536522,37.8688027 C86.9428932,41.7755273 85.3557999,43 82.0052507,43 C81.7701101,42.9416944 80.9471885,42.9416944 80.6532698,42.8833889 L80.6532698,40.2011651 C80.8884105,40.2594707 81.4762196,40.2594707 81.711332,40.2594707 C83.2396755,40.2594707 84.0625971,39.6180816 84.5916282,37.9854419 C84.5916282,37.9271083 84.8855469,36.9941633 84.8855469,36.9941633 L79.0073701,20.9008769 L82.5930599,20.9008769 Z M71.2482096,20.5510155 C75.186568,20.5510155 77.7141956,22.5918502 77.7141956,25.8571575 L77.7141956,36.9358578 L74.5399807,36.9358578 L74.5399807,34.3119676 L74.4812026,34.3119676 C73.5406966,36.119552 71.4833503,37.2274136 69.3671976,37.2274136 C66.0754265,37.2274136 63.8417176,35.2449126 63.8417176,32.3877722 C63.8417176,29.5889373 66.0166484,27.8396585 69.8962287,27.6064082 L74.3636464,27.373186 L74.3636464,26.1486853 C74.3636464,24.3411009 73.1292217,23.2915448 71.1306534,23.2915448 C69.1908633,23.2915448 68.0152166,24.2244898 67.7213262,25.6239072 L64.5471113,25.6239072 C64.7234456,22.7084613 67.2510732,20.5510155 71.2482096,20.5510155 Z M55.6123041,14.8367347 C59.9621374,14.8367347 62.9599897,17.8104862 62.9599897,22.0670441 C62.9599897,26.3819355 59.9033593,29.355687 55.4947479,29.355687 L50.7334115,29.355687 L50.7334115,36.8775522 L47.2653061,36.8775522 L47.2653061,14.8367347 L55.6123041,14.8367347 Z M38.2976475,18.7875507 L38.6097972,18.7951455 C39.3717651,18.8530936 41.599004,19.0849139 42.9470859,21.1711573 C42.8298688,21.2291054 40.3095588,22.6778918 40.3681674,25.6913886 C40.3681674,29.2843944 43.5332,30.4434124 43.5918367,30.5013605 C43.5918367,30.5593086 43.1229399,32.1819672 41.9506837,33.862546 C40.9542814,35.3693083 39.8992706,36.7601466 38.2581175,36.8180947 C36.6169927,36.8760428 36.0894872,35.8908692 34.2725084,35.8908692 C32.4555296,35.8908692 31.8694156,36.8180947 30.3454797,36.8760428 C28.7629635,36.9339909 27.5320987,35.3113602 26.5356964,33.862546 C24.4256747,30.9070251 22.901767,25.5175164 25.0117887,21.8665904 C26.0667996,20.0121394 27.9423869,18.9110417 29.9938283,18.8530936 C31.5763445,18.8530936 33.0416436,19.8962153 33.9794373,19.8962153 C34.917231,19.8962153 36.6169927,18.6792492 38.6097972,18.7951455 Z M74.3636464,29.6472429 L70.3664817,29.8804651 C68.3679135,29.9970762 67.2510732,30.8717156 67.2510732,32.271133 C67.2510732,33.6705505 68.4266916,34.6034954 70.1901474,34.6034954 C72.5414125,34.6034954 74.3636464,33.0291613 74.3636464,30.9300211 L74.3636464,29.6472429 Z M54.6717981,17.7521807 L50.6746334,17.7521807 L50.6746334,26.4985466 L54.6717981,26.4985466 C57.6696504,26.4985466 59.3743282,24.8658789 59.3743282,22.1253777 C59.3743282,19.3265428 57.6696504,17.7521807 54.6717981,17.7521807 Z M38.6097972,13 C38.7856229,14.3908383 38.1995089,15.7816486 37.3789324,16.8247982 C36.4997755,17.86792 35.1516935,18.6213011 33.745003,18.4474289 C33.5691491,17.1145388 34.2725084,15.6657524 35.0344482,14.796475 C35.9136333,13.8113014 37.3789324,13.0579481 38.6097972,13 Z" id="Apple-Pay" fill="#000000"></path>
        </g>
    </g>
</svg>