<?xml version="1.0" encoding="UTF-8"?>
<svg width="120px" height="56px" viewBox="0 0 120 56" version="1.1" xmlns="http://www.w3.org/2000/svg" xmlns:xlink="http://www.w3.org/1999/xlink">
    <title>Assets / Methods / Ecopayz</title>
    <g id="Symbols" stroke="none" stroke-width="1" fill="none" fill-rule="evenodd">
        <g id="Content">
            <rect id="Guide" fill-opacity="0" fill="#FFFFFF" x="0" y="0" width="120" height="56"></rect>
            <path d="M48.7422349,21.5884643 C50.6333301,21.5884643 52.1554498,22.1608258 53.308594,23.3052967 C54.4617382,24.4502715 55.0383103,25.8773962 55.0383103,27.5871748 C55.0383103,29.2833498 54.4691433,30.6968709 53.3315752,31.8274862 C52.1472787,32.9858127 50.617754,33.564976 48.7419796,33.564976 C46.881526,33.564976 45.3517459,32.9790109 44.152384,31.8068288 C42.9992398,30.6762134 42.4226677,29.2694942 42.4229231,27.5871748 C42.4229231,25.8909999 43.0112411,24.4671501 44.1873665,23.3156254 C45.3634918,22.1643526 46.8817813,21.5884643 48.7422349,21.5884643 Z M25.2411767,21.6091217 C26.148167,21.6091217 26.970893,21.7610293 27.708844,22.0640886 C28.7695528,22.5054518 29.6382412,23.160191 30.314909,24.0290618 C30.9913216,24.8979327 31.3296555,25.8426313 31.3296555,26.8629058 C31.3296555,27.4146099 31.1067381,27.8350637 30.6609034,28.1247713 C30.2763517,28.3867678 29.7689785,28.517766 29.1387837,28.517766 L29.1387837,28.517766 L22.7962353,28.517766 C22.8728392,29.1662071 23.1726158,29.6624888 23.6955652,30.0071149 C24.2182592,30.3519929 24.8563698,30.5243059 25.6098969,30.5243059 C26.2403471,30.5243059 27.0012792,30.3416642 27.8932041,29.9761288 C28.7846183,29.6108453 29.3382092,29.4279516 29.5537215,29.4279516 C30.5375711,29.4279516 31.0298789,29.8622611 31.0298789,30.7311319 C31.0298789,31.0621543 30.8914811,31.3929248 30.6146857,31.7239472 C30.1223779,32.3308216 29.3382092,32.7925904 28.2621796,33.1097572 C27.354934,33.3853573 26.4093864,33.5234092 25.4255368,33.5234092 C23.580404,33.5234092 22.0429635,32.9545747 20.81296,31.8169056 C19.5827012,30.6792365 18.9678272,29.276296 18.9678272,27.6075803 C18.9678272,25.9529721 19.5561452,24.539451 20.7322706,23.3672689 C21.9086513,22.1953387 23.4113647,21.6091217 25.2411767,21.6091217 Z M38.1563406,21.6300311 C39.1710871,21.6300311 40.0550962,21.768083 40.8086233,22.0436831 C41.8233698,22.4298759 42.330743,23.0090392 42.330743,23.7811729 C42.330743,24.1812213 42.1844295,24.5190455 41.8925687,24.7946456 C41.6004524,25.0704976 41.2314769,25.2082976 40.7856422,25.2082976 C40.4932706,25.2082976 40.1128045,25.1223931 39.6439885,24.9498281 C39.1746619,24.777767 38.6787793,24.6913585 38.1563406,24.6913585 C37.3106334,24.6913585 36.6572021,24.9810661 36.1960466,25.5602294 C35.7808534,26.0842222 35.5732568,26.7392133 35.5732568,27.5252026 C35.5732568,28.3525067 35.7882584,29.0142996 36.2190277,29.5108332 C36.7110802,30.0625372 37.4028135,30.3381373 38.2947383,30.3381373 C38.817177,30.3381373 39.3015691,30.2555076 39.7476592,30.0899964 C40.1932386,29.9247372 40.5622141,29.8418556 40.8545857,29.8418556 C41.2848443,29.8418556 41.6346688,29.9834344 41.9038039,30.2658364 C42.1726836,30.5484902 42.3075065,30.8898413 42.3075065,31.2896378 C42.3075065,31.9655382 41.7845571,32.5378996 40.7391691,33.0064701 C39.985642,33.3374925 39.0477548,33.5030037 37.9255075,33.5030037 C36.0494777,33.5030037 34.5426788,32.9308942 33.4051108,31.7861714 C32.2981843,30.6830153 31.7445933,29.2830978 31.7448487,27.5874267 C31.7448487,25.8363333 32.3288258,24.4054298 33.4975462,23.2952199 C34.6660111,22.185262 36.2190277,21.6300311 38.1563406,21.6300311 Z M48.7417242,24.7530789 C47.9266586,24.7530789 47.2964638,25.0498402 46.8506291,25.6426071 C46.4660774,26.1668519 46.274057,26.8079874 46.274057,27.5662655 C46.274057,28.3247955 46.4737378,28.965931 46.8736102,29.4899239 C47.319445,30.0970502 47.9419794,30.4001095 48.7417242,30.4001095 C49.5565345,30.4001095 50.1867293,30.0967983 50.6328194,29.4899239 C51.0168604,28.9800385 51.2093915,28.3386511 51.2093915,27.5662655 C51.2093915,26.821591 51.0094553,26.1875093 50.6098383,25.6632645 C50.1637482,25.056642 49.5409584,24.7530789 48.7417242,24.7530789 Z M25.2641579,24.3394268 C24.6028108,24.3394268 24.0494752,24.5223205 23.6036405,24.8876039 C23.1575504,25.2531393 22.8733499,25.7325424 22.7502729,26.3253093 L22.7502729,26.3253093 L27.6626263,26.3253093 C27.616664,25.7461461 27.3664245,25.2702699 26.9131847,24.8979327 C26.4594342,24.5255954 25.9099289,24.3394268 25.2641579,24.3394268 Z" id="Eco" fill="#033564"></path>
            <path d="M91.6197415,21.7955423 C92.8497449,21.7955423 93.4648743,22.326337 93.4648743,23.3881782 C93.4648743,23.7330562 93.3647786,24.119249 93.1650977,24.5465048 L93.1650977,24.5465048 L87.4685756,36.6472128 C87.0378063,37.5432909 86.4918758,37.9917079 85.8310394,37.9917079 C85.2774484,37.9917079 84.8313583,37.8476099 84.4932797,37.5599176 C84.1549458,37.2717216 83.9859065,36.8807423 83.9859065,36.3869798 C83.9859065,36.0574689 84.0883004,35.6803452 84.2935989,35.2553568 L84.2935989,35.2553568 L85.8295073,32.2585207 L82.0718302,24.3802378 C81.9334324,24.0905302 81.8642336,23.7804171 81.8642336,23.4493947 C81.8642336,22.9805723 82.037103,22.5880815 82.3830974,22.2709146 C82.7290917,21.9539997 83.1631805,21.7952904 83.6861299,21.7952904 C84.2241447,21.7952904 84.6469983,21.9537478 84.9546906,22.2709146 C85.1393061,22.464137 85.3469027,22.8432761 85.5774804,23.4085837 L85.5774804,23.4085837 L87.6994087,28.4557937 L89.9827159,23.1191281 C90.3670122,22.2366536 90.9129428,21.7952904 91.6197415,21.7955423 Z M74.715046,21.6506885 C75.9606256,21.6506885 76.9597959,22.0507369 77.713323,22.8503298 C78.1435816,22.1469702 78.7357299,21.7952904 79.489257,21.7952904 C80.7192604,21.7952904 81.3343898,22.6034486 81.3343898,24.2195131 L81.3343898,24.2195131 L81.3343898,30.9543327 C81.3343898,32.5847566 80.7192604,33.3994648 79.489257,33.3994648 C78.6741914,33.3994648 78.0822985,33.0064701 77.713323,32.2207328 C76.9442198,33.0621444 75.8988317,33.4825982 74.5766482,33.4825982 C72.9005547,33.4825982 71.5168327,32.8621202 70.425227,31.6209121 C69.425546,30.4764412 68.9260885,29.1319461 68.9260885,27.5874267 C68.9260885,26.0290518 69.4485272,24.6707011 70.4944259,23.5123746 C71.6016077,22.2711666 73.0083109,21.6506885 74.715046,21.6506885 Z M62.5567287,18.1341422 C64.416927,18.1341422 65.8930844,18.5684517 66.9849454,19.4373225 C68.1380896,20.3475082 68.7146617,21.6229773 68.7146617,23.2639819 C68.7146617,24.8913827 68.1917123,26.1529963 67.1463243,27.0493264 C66.1004256,27.9459084 64.670486,28.3938215 62.8565054,28.3938215 L62.8565054,28.3938215 L60.2734215,28.3938215 L60.2734215,30.9686922 C60.2734215,32.5892912 59.6350556,33.3994648 58.3593452,33.3997167 C57.0828687,33.3997167 56.4450134,32.5872758 56.4450134,30.9621422 L56.4450134,30.9621422 L56.4450134,20.5510593 C56.4450134,19.6559888 56.6370339,19.0292127 57.0215855,18.6712349 C57.4058818,18.3132571 58.0976151,18.1341422 59.0972962,18.1341422 L59.0972962,18.1341422 Z M102.300114,21.9401442 C103.099603,21.9401442 103.691496,21.9988414 104.076048,22.116236 C104.460089,22.2333786 104.65262,22.5130094 104.65262,22.9548765 C104.65262,23.3551768 104.400338,23.8451605 103.895773,24.4250795 L103.895773,24.4250795 L98.9456288,30.1313113 L102.628234,30.1313113 C104.177931,30.1313113 104.952652,30.655556 104.952652,31.7032898 C104.952652,32.7240682 104.168483,33.2339536 102.600146,33.2339536 L102.600146,33.2339536 L95.796442,33.2339536 C94.4895793,33.2339536 93.836148,32.8895794 93.836148,32.1998234 C93.836148,31.7725677 94.0207634,31.3448082 94.3897389,30.9173005 L94.3897389,30.9173005 L99.5094335,24.9808142 L96.3038152,24.9808142 C94.7354779,24.9808142 93.9513092,24.4709289 93.9513092,23.4501505 C93.9513092,22.4437315 94.7428829,21.9401442 96.3267964,21.9401442 L96.3267964,21.9401442 Z M30.5020779,17 C36.8420729,17 42.3113367,19.2103429 44.714912,22.3878054 C42.0324985,19.7630546 37.294802,18.0361455 31.8952477,18.0361455 C23.534697,18.0361455 16.7417176,22.2152404 16.7417176,27.3612029 C16.7417176,28.8807822 17.3338658,30.2968225 18.3789985,31.5745589 C16.254006,30.0204666 15,28.0864795 15,25.9796756 C15,21.006278 21.9323985,17 30.5020779,17 Z M75.1882028,24.8566178 C74.4226744,24.8566178 73.8182695,25.1392717 73.3747329,25.7045793 C72.9769033,26.2149685 72.7779884,26.8288967 72.7779884,27.5456081 C72.7779884,28.2766789 72.9689875,28.8974089 73.3517517,29.4072942 C73.7952884,29.9867094 74.407609,30.2761651 75.1882028,30.2761651 C75.9682859,30.2761651 76.5726908,29.9864575 77.001162,29.4072942 C77.3683501,28.8971569 77.5521995,28.2766789 77.5521995,27.5456081 C77.5521995,26.8147892 77.3683501,26.201113 77.001162,25.7045793 C76.5726908,25.1395236 75.9682859,24.8566178 75.1882028,24.8566178 Z M61.9339389,21.2987567 L60.2734215,21.2987567 L60.2734215,25.2702699 L61.9339389,25.2702699 C63.6866364,25.2702699 64.5629851,24.6014232 64.5629851,23.2637299 C64.5629851,21.9539997 63.6866364,21.2987567 61.9339389,21.2987567 L61.9339389,21.2987567 Z" id="Payz" fill="#8CC23C"></path>
        </g>
    </g>
</svg>