<?xml version="1.0" encoding="UTF-8"?>
<svg width="120px" height="56px" viewBox="0 0 120 56" version="1.1" xmlns="http://www.w3.org/2000/svg" xmlns:xlink="http://www.w3.org/1999/xlink">
    <title>Assets / Methods / Master Card</title>
    <g id="Symbols" stroke="none" stroke-width="1" fill="none" fill-rule="evenodd">
        <g id="Content">
            <rect id="Guide" fill-opacity="0" fill="#FFFFFF" x="0" y="0" width="120" height="56"></rect>
            <path d="M43.6325385,47.4308554 L43.6325385,44.8189169 C43.6325385,43.8176738 43.0219231,43.1646892 41.9751538,43.1646892 C41.4517692,43.1646892 40.8847692,43.3388185 40.4922308,43.9047385 C40.1869231,43.4258831 39.7507692,43.1646892 39.0965385,43.1646892 C38.6603846,43.1646892 38.2242308,43.2952862 37.8753077,43.7741415 L37.8753077,43.2517538 L36.9593846,43.2517538 L36.9593846,47.4308554 L37.8753077,47.4308554 L37.8753077,45.1236431 C37.8753077,44.3835938 38.2678462,44.0353354 38.8784615,44.0353354 C39.4890769,44.0353354 39.7943846,44.4271262 39.7943846,45.1236431 L39.7943846,47.4308554 L40.7103077,47.4308554 L40.7103077,45.1236431 C40.7103077,44.3835938 41.1464615,44.0353354 41.7134615,44.0353354 C42.3240769,44.0353354 42.6293846,44.4271262 42.6293846,45.1236431 L42.6293846,47.4308554 L43.6325385,47.4308554 Z M57.1969231,43.2517538 L55.714,43.2517538 L55.714,41.9893169 L54.7980769,41.9893169 L54.7980769,43.2517538 L53.9693846,43.2517538 L53.9693846,44.0788677 L54.7980769,44.0788677 L54.7980769,45.9942892 C54.7980769,46.952 55.1906154,47.51792 56.2373846,47.51792 C56.6299231,47.51792 57.0660769,47.3873231 57.3713846,47.2131938 L57.1096923,46.4296123 C56.848,46.6037415 56.5426923,46.6472738 56.3246154,46.6472738 C55.8884615,46.6472738 55.714,46.38608 55.714,45.9507569 L55.714,44.0788677 L57.1969231,44.0788677 L57.1969231,43.2517538 Z M64.9604615,43.1646892 C64.4370769,43.1646892 64.0881538,43.4258831 63.8700769,43.7741415 L63.8700769,43.2517538 L62.9541538,43.2517538 L62.9541538,47.4308554 L63.8700769,47.4308554 L63.8700769,45.0801108 C63.8700769,44.3835938 64.1753846,43.9918031 64.7423846,43.9918031 C64.9168462,43.9918031 65.1349231,44.0353354 65.3093846,44.0788677 L65.5710769,43.2082215 C65.3966154,43.1646892 65.1349231,43.1646892 64.9604615,43.1646892 L64.9604615,43.1646892 Z M53.2279231,43.6000123 C52.7917692,43.2952862 52.1811538,43.1646892 51.5269231,43.1646892 C50.4801538,43.1646892 49.7823077,43.6870769 49.7823077,44.5141908 C49.7823077,45.2107077 50.3056923,45.6024985 51.2216154,45.7330954 L51.6577692,45.7766277 C52.1375385,45.8636923 52.3992308,45.9942892 52.3992308,46.2119508 C52.3992308,46.5166769 52.0503077,46.7343385 51.4396923,46.7343385 C50.8290769,46.7343385 50.3493077,46.5166769 50.044,46.2990154 L49.6078462,46.9955323 C50.0876154,47.3437908 50.7418462,47.51792 51.3960769,47.51792 C52.6173077,47.51792 53.3151538,46.952 53.3151538,46.1684185 C53.3151538,45.4283692 52.7481538,45.0365785 51.8758462,44.9059815 L51.4396923,44.8624492 C51.0471538,44.8189169 50.7418462,44.7318523 50.7418462,44.4706585 C50.7418462,44.1659323 51.0471538,43.9918031 51.5269231,43.9918031 C52.0503077,43.9918031 52.5736923,44.2094646 52.8353846,44.3400615 L53.2279231,43.6000123 Z M77.5653077,43.1646892 C77.0419231,43.1646892 76.693,43.4258831 76.4749231,43.7741415 L76.4749231,43.2517538 L75.559,43.2517538 L75.559,47.4308554 L76.4749231,47.4308554 L76.4749231,45.0801108 C76.4749231,44.3835938 76.7802308,43.9918031 77.3472308,43.9918031 C77.5216923,43.9918031 77.7397692,44.0353354 77.9142308,44.0788677 L78.1759231,43.2082215 C78.0014615,43.1646892 77.7397692,43.1646892 77.5653077,43.1646892 L77.5653077,43.1646892 Z M65.8763846,45.3413046 C65.8763846,46.6037415 66.7486923,47.51792 68.1007692,47.51792 C68.7113846,47.51792 69.1475385,47.3873231 69.5836923,47.0390646 L69.1475385,46.2990154 C68.7986154,46.5602092 68.4496923,46.6908062 68.0571538,46.6908062 C67.3156923,46.6908062 66.7923077,46.1684185 66.7923077,45.3413046 C66.7923077,44.5577231 67.3156923,44.0353354 68.0571538,43.9918031 C68.4496923,43.9918031 68.7986154,44.1224 69.1475385,44.3835938 L69.5836923,43.6435446 C69.1475385,43.2952862 68.7113846,43.1646892 68.1007692,43.1646892 C66.7486923,43.1646892 65.8763846,44.0788677 65.8763846,45.3413046 L65.8763846,45.3413046 Z M74.3377692,45.3413046 L74.3377692,43.2517538 L73.4218462,43.2517538 L73.4218462,43.7741415 C73.1165385,43.3823508 72.6803846,43.1646892 72.1133846,43.1646892 C70.9357692,43.1646892 70.0198462,44.0788677 70.0198462,45.3413046 C70.0198462,46.6037415 70.9357692,47.51792 72.1133846,47.51792 C72.724,47.51792 73.1601538,47.3002585 73.4218462,46.9084677 L73.4218462,47.4308554 L74.3377692,47.4308554 L74.3377692,45.3413046 Z M70.9793846,45.3413046 C70.9793846,44.6012554 71.4591538,43.9918031 72.2442308,43.9918031 C72.9856923,43.9918031 73.5090769,44.5577231 73.5090769,45.3413046 C73.5090769,46.0813538 72.9856923,46.6908062 72.2442308,46.6908062 C71.4591538,46.6472738 70.9793846,46.0813538 70.9793846,45.3413046 L70.9793846,45.3413046 Z M60.0319231,43.1646892 C58.8106923,43.1646892 57.9383846,44.0353354 57.9383846,45.3413046 C57.9383846,46.6472738 58.8106923,47.51792 60.0755385,47.51792 C60.6861538,47.51792 61.2967692,47.3437908 61.7765385,46.952 L61.3403846,46.2990154 C60.9914615,46.5602092 60.5553077,46.7343385 60.1191538,46.7343385 C59.5521538,46.7343385 58.9851538,46.4731446 58.8543077,45.7330954 L61.951,45.7330954 L61.951,45.3848369 C61.9946154,44.0353354 61.2095385,43.1646892 60.0319231,43.1646892 L60.0319231,43.1646892 Z M60.0319231,43.9482708 C60.5989231,43.9482708 60.9914615,44.2965292 61.0786923,44.9495138 L58.8979231,44.9495138 C58.9851538,44.3835938 59.3776923,43.9482708 60.0319231,43.9482708 L60.0319231,43.9482708 Z M82.7555385,45.3413046 L82.7555385,41.5975262 L81.8396154,41.5975262 L81.8396154,43.7741415 C81.5343077,43.3823508 81.0981538,43.1646892 80.5311538,43.1646892 C79.3535385,43.1646892 78.4376154,44.0788677 78.4376154,45.3413046 C78.4376154,46.6037415 79.3535385,47.51792 80.5311538,47.51792 C81.1417692,47.51792 81.5779231,47.3002585 81.8396154,46.9084677 L81.8396154,47.4308554 L82.7555385,47.4308554 L82.7555385,45.3413046 Z M79.3971538,45.3413046 C79.3971538,44.6012554 79.8769231,43.9918031 80.662,43.9918031 C81.4034615,43.9918031 81.9268462,44.5577231 81.9268462,45.3413046 C81.9268462,46.0813538 81.4034615,46.6908062 80.662,46.6908062 C79.8769231,46.6472738 79.3971538,46.0813538 79.3971538,45.3413046 L79.3971538,45.3413046 Z M48.7791538,45.3413046 L48.7791538,43.2517538 L47.8632308,43.2517538 L47.8632308,43.7741415 C47.5579231,43.3823508 47.1217692,43.1646892 46.5547692,43.1646892 C45.3771538,43.1646892 44.4612308,44.0788677 44.4612308,45.3413046 C44.4612308,46.6037415 45.3771538,47.51792 46.5547692,47.51792 C47.1653846,47.51792 47.6015385,47.3002585 47.8632308,46.9084677 L47.8632308,47.4308554 L48.7791538,47.4308554 L48.7791538,45.3413046 Z M45.3771538,45.3413046 C45.3771538,44.6012554 45.8569231,43.9918031 46.642,43.9918031 C47.3834615,43.9918031 47.9068462,44.5577231 47.9068462,45.3413046 C47.9068462,46.0813538 47.3834615,46.6908062 46.642,46.6908062 C45.8569231,46.6472738 45.3771538,46.0813538 45.3771538,45.3413046 Z" id="Master-Card" fill="#000000"></path>
            <g id="Circles" transform="translate(34.080769, 8.080615)">
                <rect id="1" fill="#FF5F00" x="18.8418462" y="3.43608615" width="13.7388462" height="24.6392862"></rect>
                <path d="M19.7141538,15.7557292 C19.7141538,10.7495138 22.0693846,6.30921846 25.6894615,3.43608615 C23.0289231,1.34653538 19.6705385,0.0840984615 16.0068462,0.0840984615 C7.32738462,0.0840984615 0.305307692,7.0928 0.305307692,15.7557292 C0.305307692,24.4186585 7.32738462,31.42736 16.0068462,31.42736 C19.6705385,31.42736 23.0289231,30.1649231 25.6894615,28.0753723 C22.0693846,25.2457723 19.7141538,20.7619446 19.7141538,15.7557292 Z" id="2" fill="#EB001B"></path>
                <path d="M51.1172308,15.7557292 C51.1172308,24.4186585 44.0951538,31.42736 35.4156923,31.42736 C31.752,31.42736 28.3936154,30.1649231 25.7330769,28.0753723 C29.3967692,25.20224 31.7083846,20.7619446 31.7083846,15.7557292 C31.7083846,10.7495138 29.3531538,6.30921846 25.7330769,3.43608615 C28.3936154,1.34653538 31.752,0.0840984615 35.4156923,0.0840984615 C44.0951538,0.0840984615 51.1172308,7.13633231 51.1172308,15.7557292 Z" id="3" fill="#F79E1B"></path>
            </g>
        </g>
    </g>
</svg>