<?xml version="1.0" encoding="UTF-8"?>
<svg width="120px" height="56px" viewBox="0 0 120 56" version="1.1" xmlns="http://www.w3.org/2000/svg" xmlns:xlink="http://www.w3.org/1999/xlink">
    <title>Assets / Methods / Neteller</title>
    <g id="Symbols" stroke="none" stroke-width="1" fill="none" fill-rule="evenodd">
        <g id="Content">
            <rect id="Guide" fill-opacity="0" fill="#FFFFFF" x="0" y="0" width="120" height="56"></rect>
            <path d="M107.10378,31.9591645 C108.419737,31.8930315 109.543207,32.8991671 109.609467,34.2026929 L109.609467,34.2026929 C109.677823,35.5062187 108.661709,36.621328 107.349106,36.6887087 C106.034826,36.7540098 104.911356,35.7487061 104.842581,34.4464281 C104.80987,33.8142139 105.027938,33.2069556 105.454429,32.7377861 C105.88134,32.2682007 106.468446,31.9928548 107.10378,31.9591645 Z M107.273899,32.3608377 L107.126425,32.3630329 C106.59719,32.3896524 106.109892,32.6196619 105.755531,33.0089727 C105.40117,33.3974517 105.222103,33.8998956 105.247265,34.4239679 C105.304717,35.5062187 106.23612,36.3418228 107.327299,36.28692 C108.383672,36.2320172 109.208137,35.3627227 109.208137,34.3245605 C109.208137,34.2921179 109.20604,34.2567638 109.204363,34.2234894 C109.148169,33.1416545 108.215508,32.3068823 107.126425,32.3630329 Z M18.5662205,20.0207982 L22.1941198,29.8891622 L24.0158276,20.0212142 L56.0114586,20.0212142 L55.3421572,23.6705872 L50.2301363,23.6705872 L49.7071921,26.4889314 L54.6313388,26.4935067 L54.050942,29.6483385 L49.1188274,29.6483385 L48.6021736,32.4733376 L56.8086655,32.4733376 L59.1273171,20.0212142 L64.4905357,20.0212142 L62.2775633,31.8340526 L65.9499149,31.8340526 L68.1444354,20.0212142 L73.5135251,20.0212142 L71.3026495,31.8340526 L75.0689382,31.8340526 L77.2634587,20.0212142 L87.5336302,20.0212142 L86.8609738,23.6705872 L81.8051474,23.6705872 L81.279687,26.4835243 L86.18664,26.4747898 L85.6028883,29.6479226 L80.6934192,29.6479226 L80.1708943,32.4729217 L88.3195143,32.4729217 L90.6318755,20.0207982 L96.852689,20.0207982 C99.2279545,20.0207982 101.040017,20.4309056 102.237295,21.2448813 C103.394734,22.0280782 103.95584,23.1485946 103.955421,24.6725635 C103.955421,25.9810804 103.616576,27.0704021 102.948952,27.9189 C102.283006,28.7594953 101.323086,29.3205854 100.096872,29.5809578 L100.096872,29.5809578 L99.5403791,29.7003298 L101.978549,36.1247903 L96.6572664,36.1247903 L94.302969,28.2620426 L92.8498803,36.1247903 L42.6954621,36.1247903 L45.013275,23.6701713 L42.0311929,23.6701713 L39.7142188,36.1247903 L20.652965,36.1247903 L17.132003,25.9848238 L15.3178436,36.1247903 L9.99991613,36.1247903 L12.9975146,20.0207982 L18.5662205,20.0207982 Z M107.87746,33.1026403 C107.999075,33.1417377 108.096786,33.217437 108.173949,33.3293223 C108.250692,33.4407916 108.293467,33.5647389 108.299338,33.7044915 C108.309403,33.8841734 108.257821,34.0380677 108.146691,34.1678379 C108.036398,34.2963604 107.860266,34.3841217 107.617037,34.4298741 C107.708038,34.4689715 107.77891,34.5064053 107.826717,34.5450868 C107.930719,34.6299366 108.029269,34.7384944 108.124045,34.8686806 L108.60044,35.5362489 L108.17982,35.5570454 L107.814137,35.0471147 C107.708038,34.8994595 107.620811,34.7871583 107.552874,34.7097952 C107.485357,34.6324322 107.424549,34.579609 107.372968,34.549662 C107.322225,34.519715 107.267289,34.5001663 107.215707,34.4893521 C107.176287,34.4835291 107.113802,34.4826972 107.026575,34.4872725 L106.636569,34.5068212 L106.693182,35.6327447 L106.353919,35.6497978 L106.223497,33.1167819 L107.356613,33.0602154 C107.583488,33.0485693 107.756265,33.0627109 107.87746,33.1026403 Z M107.383452,33.3397206 L106.577019,33.3804817 L106.621891,34.2198292 L107.346548,34.1823955 C107.499615,34.1753247 107.620811,34.1524485 107.706361,34.1162626 C107.790652,34.0813244 107.854815,34.0272535 107.896332,33.9540497 C107.93701,33.8816778 107.95672,33.8055626 107.951268,33.7240402 C107.944977,33.6034204 107.896332,33.5077564 107.804911,33.4337208 C107.71349,33.360933 107.572584,33.330986 107.383452,33.3397206 Z M36.7141042,23.6697554 L28.5856136,23.6697554 L28.0966377,26.4656393 L33.1553996,26.4656393 L32.5745834,29.6475067 L27.4675949,29.6475067 L26.9412958,32.4725057 L35.0840447,32.4725057 L36.7141042,23.6697554 Z M96.0080943,23.2783649 L95.2343717,23.2783649 L94.4275195,27.6002974 L95.4801177,27.6002974 C96.5406838,27.6002974 97.3165032,27.4177039 97.8503508,27.0483578 C98.255035,26.7692685 98.7326882,26.2243997 98.7326882,25.2116093 C98.7326882,24.371014 98.3221329,23.9280481 97.97574,23.7042776 C97.5320552,23.4189494 96.8887541,23.2783649 96.0080943,23.2783649 L96.0080943,23.2783649 Z" id="Neteller" fill="#8DC640"></path>
        </g>
    </g>
</svg>