<?xml version="1.0" encoding="UTF-8"?>
<svg width="120px" height="56px" viewBox="0 0 120 56" version="1.1" xmlns="http://www.w3.org/2000/svg" xmlns:xlink="http://www.w3.org/1999/xlink">
    <title>Assets / Methods / Trustly</title>
    <g id="Symbols" stroke="none" stroke-width="1" fill="none" fill-rule="evenodd">
        <g id="Content">
            <rect id="Guide" fill-opacity="0" fill="#FFFFFF" x="0" y="0" width="120" height="56"></rect>
            <path d="M27.6908023,37.4394756 C29.2543828,37.4559846 30.579134,38.7611084 30.5673943,40.3714643 C30.5551043,41.9821871 29.2099921,43.3071216 27.5686361,43.2654824 C26.0863162,43.2280621 24.7081862,41.968613 24.7514763,40.3224878 C24.7235945,38.7994459 26.0375231,37.4220495 27.6908023,37.4394756 Z M17.6682216,37.4385347 C19.2275832,37.4451621 20.5853522,38.7414811 20.5596717,40.350553 C20.5895712,41.9310093 19.2530804,43.2682339 17.6507955,43.2658525 C16.0455757,43.2640149 14.7358661,41.9196365 14.7426268,40.343766 C14.749807,38.7269899 16.0956529,37.4321383 17.6682216,37.4385347 Z M23.4575419,13.0616334 C24.8879502,13.2076458 26.1620739,13.7392339 27.2786289,14.6356696 C28.6435518,15.7314967 29.516875,17.1413606 29.8960305,18.8524211 C30.0066404,19.3508078 30.0622205,19.8567152 30.062404,20.3677588 L30.0609365,22.2901338 L30.0609365,22.2901338 L30.0609365,22.5638154 L30.0609365,22.5638154 C30.1851205,22.5700521 30.2726179,22.5779397 30.3604821,22.5781232 C31.4009126,22.5792237 32.4415264,22.5755551 33.4819568,22.5814249 C33.8568933,22.5836261 34.2208238,22.6571827 34.5598075,22.8270414 C35.2020055,23.1487824 35.4283615,23.6741337 35.2882189,24.3524679 C35.061496,25.4503128 34.8046902,26.5422878 34.5609081,27.6368308 C34.120853,29.6109338 33.6813482,31.5848534 33.2411097,33.5585895 C33.1167423,34.1160415 32.9938423,34.6738604 32.865256,35.2300285 C32.7341016,35.7975693 32.456201,36.264589 31.9321337,36.5566139 C31.6175466,36.7317922 31.2725097,36.7892066 30.919952,36.8057156 C30.7135901,36.8154375 30.5063112,36.8077333 30.2997659,36.8077333 C25.0213058,36.8077333 19.7430292,36.8081002 14.4645691,36.8066327 C14.0235968,36.8066327 13.6020684,36.7196856 13.2304337,36.4652644 C12.8303669,36.1915828 12.5889695,35.8054569 12.478543,35.340455 C12.308134,34.624517 12.1494647,33.9054608 11.9885942,33.1871382 C11.3962899,30.5420383 10.8050862,27.8969384 10.2138826,25.2518385 C10.1480302,24.9563284 10.0689707,24.6624692 10.0269646,24.3636573 C9.99669822,24.1486741 9.98734315,23.9210341 10.0229291,23.7080687 C10.0843791,23.3415702 10.3134865,23.076143 10.6330263,22.8905091 C11.0059451,22.6736916 11.4142663,22.583993 11.8396468,22.5812415 C12.8732902,22.5751882 13.9069336,22.5790403 14.940577,22.5786734 C15.2492943,22.57849 15.250028,22.5781232 15.2502115,22.2730745 L15.2502115,20.4125164 L15.2502115,20.4125164 C15.2406729,16.982141 17.6142924,14.0039273 20.9553361,13.2070955 C21.7796827,13.0104557 22.6152188,12.9756034 23.4575419,13.0616334 Z M25.4071336,25.5609227 L22.6366804,25.5611061 C22.6366804,25.5612896 22.6366804,25.561473 22.6366804,25.561473 C21.6857652,25.561473 20.7346665,25.5598221 19.7835678,25.5623901 C19.4658623,25.5634907 19.3642406,25.6689646 19.361856,25.9872203 C19.3592879,26.318133 19.3609388,26.6488622 19.3613057,26.9797748 C19.3616725,27.3847943 19.4214716,27.4462442 19.8261242,27.4484454 L20.9217679,27.4489957 C21.2347708,27.4493292 21.2636804,27.4495112 21.2663499,27.7053275 L21.2666214,27.7899972 C21.2668048,29.3682523 21.2666214,30.9461406 21.2673551,32.5243958 C21.2673551,32.620698 21.2675386,32.7177339 21.2807457,32.8129355 C21.3119293,33.040392 21.382184,33.1165166 21.6155104,33.1223865 C22.1936904,33.1361439 22.7722372,33.1365108 23.350784,33.1398228 C23.4259914,33.1401794 23.5022994,33.1306409 23.5769566,33.1187178 C23.7444306,33.0919366 23.8354133,33.0093919 23.8667803,32.841551 C23.8840229,32.7478168 23.8854904,32.6500472 23.8854904,32.5539285 C23.886591,30.9483418 23.8858573,29.3425717 23.886591,27.7368017 C23.886591,27.4561496 23.8935614,27.4499129 24.1797165,27.4491792 C24.5999609,27.4480786 25.0205721,27.45083 25.440633,27.4471614 C25.5362015,27.4466111 25.6323202,27.4312027 25.727155,27.415611 C25.8188713,27.4007529 25.8718834,27.3382024 25.8893095,27.2497878 C25.9010492,27.1894384 25.9074693,27.1270713 25.9076528,27.0656213 C25.9093036,26.7071938 25.9105877,26.3487662 25.9080196,25.9905221 C25.9054516,25.667864 25.8067648,25.5689937 25.489793,25.5618399 L25.4071336,25.5609227 L25.4071336,25.5609227 Z M22.0632697,15.4269984 C21.3530182,15.5091762 20.6939444,15.7358991 20.0985218,16.1234924 C18.6281251,17.0806444 17.873116,18.4485022 17.8278081,20.2004682 C17.8100151,20.8954948 17.8234057,21.591622 17.8232223,22.2870154 C17.8232223,22.5779397 17.8241394,22.57849 18.1238685,22.57849 L27.1318828,22.5786734 C27.193883,22.5786734 27.2560667,22.5808746 27.3178835,22.577206 C27.4510557,22.5696852 27.4716002,22.5504248 27.4833399,22.4192704 C27.4881091,22.3647909 27.4860914,22.3092108 27.4860914,22.254181 C27.4862748,21.6138173 27.4945293,20.9730868 27.4826061,20.3327232 C27.4765528,20.0106153 27.4580261,19.6850222 27.4028129,19.3682339 C27.2012203,18.21059 26.6423008,17.2484853 25.7366935,16.5031982 C24.6696653,15.6249223 23.4419501,15.2668616 22.0632697,15.4269984 Z" id="Cart" fill="#62CE02"></path>
            <g id="Trustly" transform="translate(38.065207, 21.558971)" fill="#000000">
                <path d="M6.20222729,0.996589993 C7.95896249,0.996589993 9.71606456,0.995489397 11.4729832,0.99842432 C11.6371555,0.998791186 11.8044461,1.00851312 11.9649498,1.04116415 C12.2204716,1.09307561 12.3261288,1.22753179 12.335117,1.48984059 C12.3430046,1.72371731 12.3376851,1.95814434 12.3376851,2.19257136 C12.3378685,2.77808862 12.3387857,3.36378931 12.3375016,3.94930656 C12.3365845,4.32699454 12.2434006,4.43466955 11.866263,4.44329089 C11.3566869,4.45484715 10.8465604,4.44842701 10.3369843,4.44916074 C9.90279907,4.44989447 9.46861382,4.44934417 9.03461199,4.44934417 C9.00012664,4.44934417 8.96564128,4.44861044 8.93115593,4.4495276 C8.57364555,4.4590661 8.50063933,4.53335636 8.50045589,4.89471883 C8.50008903,8.07801033 8.50045589,11.260935 8.4993553,14.4442265 C8.4993553,14.5610731 8.49201799,14.6782866 8.47899427,14.7943995 C8.45588174,14.9996608 8.34160315,15.1410874 8.14422954,15.1968509 C8.00647157,15.2355552 7.86155971,15.2652713 7.71939935,15.267656 C7.18872848,15.2779282 6.65842447,15.2762209 6.1277536,15.2762209 C5.54902335,15.2762209 4.97047654,15.275727 4.39174629,15.2687566 C4.26205936,15.2669222 4.13017123,15.2474784 4.00470325,15.2151942 C3.84603394,15.1742887 3.74129385,15.0645959 3.71616357,14.8984059 C3.69873746,14.7832101 3.68864866,14.6656298 3.68864866,14.5493334 C3.68736463,11.3728289 3.6877315,8.19650787 3.68736463,5.02037024 C3.6871812,4.92425149 3.68846523,4.82703215 3.67911016,4.7314637 C3.66296808,4.56655768 3.59968379,4.49685325 3.43936359,4.46933834 C3.35149931,4.45448029 3.26106698,4.45026133 3.17191868,4.45026133 C2.3519744,4.44879387 1.53221355,4.45026133 0.71226927,4.44842701 C0.595422624,4.44824357 0.476925084,4.44622581 0.362279631,4.42714881 C0.172977059,4.39559838 0.0895151696,4.29892934 0.0687872718,4.1081593 C0.0601659337,4.02616487 0.0574144428,3.94325328 0.0572310101,3.86070856 C0.0564252213,3.12349244 0.055946981,2.38609288 0.0570475774,1.64906019 C0.057964741,1.17341914 0.203426892,1.0241049 0.683470332,1.00117581 C0.77958908,0.996773426 0.876258126,0.996773426 0.972743739,0.996773426 C2.71572149,0.996589993 4.4590661,0.996589993 6.20222729,0.996589993" id="Fill-2"></path>
                <path d="M13.0327117,10.5541687 C13.0327117,9.43119354 13.0286761,8.30803497 13.0354631,7.18505983 C13.037114,6.93173923 13.0572916,6.67493342 13.1013155,6.42546491 C13.2126592,5.7959238 13.5742051,5.35403437 14.156604,5.09117527 C14.538144,4.91911538 14.9415126,4.83033394 15.3557037,4.80832201 C15.8368477,4.78264143 16.3192758,4.77383666 16.8011536,4.77090174 C17.9377027,4.76429816 19.0744353,4.76521532 20.2113513,4.76319756 C20.2386828,4.76319756 20.2663812,4.7628307 20.2938961,4.76338099 C20.6187554,4.76833368 20.7102883,4.85968317 20.7106552,5.18399223 C20.7112055,5.886723 20.7108386,6.58945377 20.7106552,7.2920011 C20.7106552,7.34024391 20.7123061,7.38922045 20.7064363,7.43654609 C20.6822231,7.63795522 20.5672108,7.76709186 20.365068,7.79277244 C20.2087833,7.81221631 20.0490134,7.80341154 19.8912612,7.81533467 C19.5416385,7.84138211 19.1914654,7.8665124 18.8427598,7.90356581 C18.5505514,7.93419907 18.2875089,8.0554481 18.0327209,8.19595757 C17.5840444,8.44414205 17.3573216,8.8289839 17.3244871,9.33434106 C17.3169664,9.45100427 17.3171498,9.56840122 17.3171498,9.68524786 C17.3165995,11.2424083 17.3175167,12.7993852 17.3153155,14.3559953 C17.315132,14.49999 17.3048598,14.6460025 17.2793627,14.7872457 C17.2248831,15.0871582 17.0458528,15.2427091 16.7450231,15.2696737 C16.6969638,15.2740761 16.6485375,15.2760939 16.6006616,15.2760939 C15.7255041,15.2764607 14.8507134,15.2779282 13.9757393,15.2740761 C13.8532062,15.2737093 13.7277382,15.2572003 13.6086904,15.2278511 C13.2950205,15.1495253 13.1156232,14.9380274 13.0631615,14.6238071 C13.0404158,14.4886172 13.0339957,14.3493918 13.0338123,14.2121841 C13.0316111,12.9927233 13.0327117,11.773446 13.0327117,10.5541687" id="Fill-9"></path>
                <path d="M32.2925974,9.10651762 C32.2925974,10.2432502 32.2993845,11.3801662 32.2891122,12.5170823 C32.2852601,12.9813505 32.1885911,13.4344293 32.00204,13.8625613 C31.6091271,14.7639497 30.9152011,15.2377564 29.9364041,15.2993898 C29.8676168,15.3036088 29.7986461,15.3034254 29.7298589,15.3034254 C28.1240888,15.3034254 26.5186856,15.3085615 24.9129155,15.2993898 C24.6052988,15.2973721 24.2907117,15.2713246 23.9913495,15.2041883 C22.9745819,14.9759979 22.3648515,14.3193088 22.1282233,13.3205176 C22.0491638,12.9883209 22.0036725,12.6401656 22.0020216,12.2986139 C21.9910156,10.1419953 21.9945009,7.98519337 22.0001873,5.82839139 C22.0003707,5.65211255 22.0293531,5.46978042 22.0812645,5.30138918 C22.1920579,4.94186104 22.4305204,4.77713845 22.8056404,4.77438696 C23.2466126,4.77163547 23.6879518,4.77383666 24.128924,4.77383666 C24.5631093,4.77383666 24.9972946,4.76594905 25.4312964,4.77787218 C25.5932675,4.78227457 25.7629427,4.80923918 25.9142747,4.86573645 C26.2703177,4.99890861 26.4509989,5.28377963 26.4513658,5.66605343 C26.4519161,7.2920011 26.4498983,8.91849907 26.4537504,10.5446302 C26.4541173,10.7223765 26.4647564,10.9043418 26.5032772,11.0769519 C26.5821533,11.4318943 26.8096099,11.6186288 27.1495107,11.6393567 C27.5409561,11.6630195 27.8302296,11.49793 27.9454253,11.1519759 C27.9988042,10.992206 28.0226505,10.8155603 28.0230173,10.6462519 C28.0287038,9.02690781 28.025402,7.40774715 28.0281535,5.78840306 C28.0283369,5.61010645 28.0395263,5.42997552 28.0681418,5.2544304 C28.1119822,4.98551802 28.2809238,4.82978364 28.5525876,4.79346396 C28.6410022,4.78172427 28.7307008,4.77475382 28.8198491,4.77457039 C29.6397934,4.77310293 30.4597377,4.7723692 31.2798654,4.77512069 C31.4033156,4.77548755 31.5280499,4.78594322 31.6496657,4.80667112 C32.0181821,4.86977197 32.2478399,5.11612212 32.2894791,5.48922429 C32.3003016,5.58479274 32.3006685,5.68164521 32.3006685,5.77813083 C32.3014022,6.88753195 32.3011271,7.99693306 32.3011271,9.10651762 C32.2982839,9.10651762 32.2953489,9.10651762 32.2925974,9.10651762" id="Fill-1"></path>
                <path d="M38.4951916,15.5626158 C37.0167238,15.5248287 35.7923104,15.4076151 34.5906426,15.1036671 C34.4576539,15.0700989 34.3287007,15.0202052 34.195712,14.9855364 C34.0662085,14.951418 34.0042082,14.870891 33.9781608,14.7421212 C33.8902965,14.3073857 33.8635153,13.8678809 33.8715863,13.427092 C33.8761722,13.1732211 33.9141427,12.9199005 33.9403736,12.6667634 C33.9458766,12.6124673 33.9622021,12.5589049 33.9777939,12.5062597 C34.0698771,12.1958916 34.142333,12.1526014 34.4556361,12.2366136 C35.4362675,12.4998396 36.4357924,12.5697275 37.4455895,12.5308397 C37.6227856,12.5242361 37.8010822,12.4897508 37.9744261,12.4486619 C38.0718289,12.4253659 38.1703322,12.3758391 38.2495752,12.3140222 C38.4271381,12.1755305 38.4386943,11.9429378 38.2693859,11.7960082 C38.1565748,11.6978717 38.0243198,11.6167945 37.8898636,11.5505752 C37.6429632,11.4291428 37.385607,11.3300891 37.1370557,11.211775 C36.7146101,11.011283 36.2881291,10.8173946 35.8779735,10.594157 C35.4452557,10.3595466 35.0580292,10.0554151 34.7588504,9.66011758 C34.0553859,8.73048053 33.9033202,7.70912712 34.3131089,6.61916987 C34.5049795,6.10775943 34.8788154,5.72860399 35.3214386,5.41768552 C35.9174115,4.99909205 36.5893256,4.7617301 37.2920564,4.6014099 C38.1308942,4.40990613 38.9823889,4.37358645 39.8388363,4.39137943 C40.4792,4.40458658 41.1190133,4.43173463 41.7494716,4.55903694 C41.8975018,4.58875304 42.0405793,4.64194853 42.1873255,4.67716761 C42.3368232,4.71275356 42.4149655,4.80997291 42.4186341,4.95470133 C42.4250543,5.20857222 42.4347762,5.46427744 42.4125809,5.71649743 C42.3804801,6.08024452 42.2986691,6.43665431 42.1708165,6.78040723 C42.1517395,6.83213526 42.1304613,6.88312956 42.1071654,6.9326564 C41.9453777,7.27897738 41.8567797,7.32208407 41.4809261,7.27530873 C40.9069651,7.20376996 40.3330041,7.13571642 39.757759,7.07738482 C39.5807465,7.05959184 39.3996984,7.07096467 39.2214018,7.08252093 C39.1126262,7.08949138 39.0033002,7.1137045 38.8985602,7.14488806 C38.7510803,7.18817818 38.6424881,7.27824365 38.6164406,7.44113191 C38.59076,7.59906749 38.6940327,7.68656489 38.8057432,7.75645276 C38.9860576,7.86926389 39.1711412,7.9763886 39.3613609,8.07214048 C39.7854574,8.28583961 40.2192758,8.48009486 40.638603,8.70186503 C41.1461613,8.96986024 41.6139148,9.29692078 42.0191177,9.70817695 C42.7480793,10.4477777 43.0848618,11.3350418 43.0072698,12.3697858 C42.9847075,12.6698817 42.9423346,12.9745635 42.8601567,13.2631032 C42.6460907,14.0162779 42.1695325,14.5673098 41.4844113,14.941696 C40.9447522,15.236289 40.3608858,15.3953251 39.7561081,15.4659467 C39.2579049,15.5240949 38.7547489,15.5433554 38.4951916,15.5626158" id="Fill-6"></path>
                <path d="M45.0718051,7.62694926 C44.9015795,7.62694926 44.7515315,7.62768299 44.6011167,7.62658239 C44.4980275,7.6254818 44.3938377,7.62841672 44.2916657,7.61631016 C44.1122685,7.5952154 43.9822147,7.49616173 43.9246168,7.32483556 C43.889948,7.22211324 43.8662852,7.11040271 43.8650012,7.0021774 C43.8589479,6.47884384 43.861516,5.95495997 43.8618828,5.43144298 C43.8618828,5.40392807 43.8639006,5.37641316 43.8666521,5.34889825 C43.8998534,5.00349443 44.0779666,4.82538126 44.4253882,4.80667112 C44.63175,4.79566515 44.8388455,4.80190187 45.0453908,4.80080127 C45.1204148,4.8004344 45.1952553,4.80080127 45.2899066,4.80080127 C45.294309,4.71880684 45.301096,4.6524042 45.301096,4.58600155 C45.3020131,4.22078699 45.3080664,3.85557244 45.2996285,3.49054132 C45.2926581,3.17173524 45.4361025,2.94537926 45.707216,2.80395263 C45.8579977,2.72507656 46.0225369,2.65592242 46.1887269,2.62694005 C47.0020676,2.48477969 47.8179764,2.35564305 48.6340686,2.22779044 C48.740643,2.2112815 48.8532707,2.22008627 48.961496,2.23255969 C49.1273192,2.25200356 49.2194024,2.3604123 49.2403137,2.51981534 C49.2592073,2.66270943 49.2685624,2.80798815 49.269663,2.95216627 C49.2729648,3.51016862 49.2707636,4.06817097 49.2711304,4.62635675 C49.2711304,4.67404926 49.277734,4.72155833 49.2821364,4.78796098 C49.3448704,4.79236336 49.4037523,4.79988411 49.4630011,4.80006754 C49.8008842,4.80135157 50.1384004,4.79896694 50.4761,4.80135157 C50.767758,4.80355276 50.9445872,4.92039941 51.0326349,5.19976745 C51.0816114,5.3547681 51.1078423,5.52260904 51.1113275,5.6854973 C51.1214163,6.15380105 51.1149962,6.62247166 51.1146293,7.09095884 C51.1146293,7.1322312 51.1120613,7.17350356 51.1093098,7.21495936 C51.0871144,7.55926258 50.9642145,7.68271281 50.6188107,7.68876609 C50.2741406,7.69463593 49.9296539,7.68949982 49.5853507,7.69078385 C49.5321552,7.69078385 49.4789597,7.69793772 49.4138411,7.70270697 C49.4101724,7.78048245 49.404486,7.84780226 49.404486,7.9147552 C49.4037523,9.21712755 49.4037523,10.5189496 49.4041192,11.8213219 C49.4041192,12.2133177 49.5369245,12.3721704 49.9256184,12.4272002 C50.0540213,12.4451766 50.1862763,12.4422417 50.316697,12.4385731 C50.4656443,12.4345375 50.5001297,12.4385731 50.5470885,12.5807334 C50.6109231,12.7764561 50.6648523,12.9765812 50.7044738,13.1785407 C50.8071961,13.7068269 50.8662614,14.2400658 50.8669951,14.7791746 C50.8669951,14.8479619 50.8587407,14.917116 50.8611253,14.9855364 C50.8658946,15.1238447 50.8070126,15.2045551 50.6687044,15.2331706 C50.3119277,15.3074609 49.9586363,15.4044968 49.5992916,15.4580591 C48.9855257,15.5497755 48.367174,15.5952668 47.7460708,15.5152902 C47.0471921,15.4250413 46.4064616,15.2021705 45.8917494,14.6969968 C45.4250965,14.2385984 45.1739771,13.6730753 45.110326,13.0295933 C45.0751069,12.6741007 45.07474,12.3140222 45.0745566,11.9565119 C45.0725388,10.5648078 45.0771246,9.1731037 45.078959,7.78158305 C45.078959,7.74122785 45.0751069,7.70068921 45.0718051,7.62694926" id="Fill-7"></path>
                <path d="M52.6741744,8.05838303 C52.6741744,5.88066972 52.6741744,3.70313985 52.6745412,1.52542654 C52.6745412,1.44288181 52.6716063,1.35978679 52.6789436,1.27760893 C52.7033402,1.00245984 52.8777847,0.822879203 53.1525669,0.789311014 C53.2277743,0.780322811 53.3038989,0.779038782 53.3794732,0.779038782 C54.2544473,0.778305051 55.1297882,0.776103858 56.0047623,0.780506243 C56.1832424,0.781423407 56.364107,0.791328774 56.5383681,0.826547857 C56.8230557,0.884145733 56.9215591,1.00832969 56.9466894,1.29210011 C56.9534764,1.3676744 56.9534764,1.44361554 56.9534764,1.51918983 C56.9538433,5.83316064 56.9538433,10.1471315 56.9531095,14.4609188 C56.9531095,14.5707951 56.9494409,14.6817719 56.9373343,14.7909143 C56.905417,15.0757853 56.7616058,15.2236321 56.4776519,15.2628867 C56.3892373,15.2749933 56.298805,15.275727 56.2092898,15.275727 C55.2719486,15.2767359 54.3347908,15.2775613 53.397633,15.2749933 C53.2604253,15.2748098 53.1219336,15.2665554 52.9861934,15.2465612 C52.8275241,15.2225315 52.7260858,15.1253122 52.7031567,14.9611399 C52.6910502,14.8725419 52.6785767,14.7832101 52.6785767,14.6946121 C52.6758252,13.3918729 52.6749081,12.089684 52.6741744,10.7873117 C52.6738075,9.87748536 52.6741744,8.96784248 52.6741744,8.05838303" id="Fill-8"></path>
                <path d="M64.2012702,9.4623771 C64.4248747,8.90749311 64.6488461,8.35242569 64.8720837,7.7969914 C65.1648423,7.06894691 65.4570506,6.34071899 65.7487087,5.61249108 C65.8532653,5.35164974 66.0020293,5.12400973 66.2276515,4.95139954 C66.3800841,4.83473632 66.5506765,4.77310293 66.7443815,4.77328636 C67.5368109,4.77438696 68.3292402,4.77090174 69.1214862,4.77658815 C69.2645637,4.77768875 69.4113099,4.79841664 69.5485176,4.83748782 C69.7512107,4.89508569 69.8227495,5.03045904 69.7759741,5.2342528 C69.7541456,5.32725319 69.7189266,5.41841925 69.6811394,5.50665039 C67.8655223,9.77623049 66.0486212,14.0456272 64.2333709,18.3155741 C64.1378025,18.5400958 64.0172872,18.745357 63.8399077,18.915766 C63.6524395,19.0953466 63.4352551,19.1894476 63.1707452,19.1871072 C62.4815884,19.1819269 61.7924317,19.1866961 61.1034583,19.1839446 C60.9800081,19.1833943 60.8554573,19.1725718 60.7332911,19.1531279 C60.4223726,19.1047017 60.3192835,18.9408963 60.4086152,18.6435518 C60.4342958,18.5582556 60.4709823,18.4760778 60.5058345,18.3933496 C60.954511,17.3277889 61.4020868,16.2611276 61.8555325,15.1975847 C61.9081777,15.0734007 61.9070771,14.9695778 61.857,14.8459441 C60.6085569,11.7642744 59.3632321,8.68168743 58.1179073,5.59910049 C58.0819545,5.50976875 58.0432502,5.42025358 58.0199542,5.32725319 C57.9504332,5.04696799 58.0608597,4.86720392 58.3422455,4.81033977 C58.4629443,4.78612665 58.5882288,4.77567099 58.7113122,4.77530412 C59.7240443,4.77273606 60.7369598,4.77677158 61.7498753,4.77179917 C62.0301605,4.77016801 62.2578005,4.8721566 62.4533398,5.0638438 C62.6187961,5.22673206 62.7264711,5.42337194 62.8029625,5.64129001 C63.2272424,6.84901107 63.6544573,8.0559984 64.0813052,9.2633526 C64.1057018,9.3323233 64.1335835,9.40056027 64.1594475,9.46898068 C64.1733884,9.46677949 64.1875127,9.46476173 64.2012702,9.4623771" id="Fill-4"></path>
            </g>
        </g>
    </g>
</svg>