<?xml version="1.0" encoding="UTF-8"?>
<svg width="120px" height="56px" viewBox="0 0 120 56" version="1.1" xmlns="http://www.w3.org/2000/svg" xmlns:xlink="http://www.w3.org/1999/xlink">
    <title>Assets / Methods / Visa</title>
    <g id="Symbols" stroke="none" stroke-width="1" fill="none" fill-rule="evenodd">
        <g id="Content">
            <rect id="Guide" fill-opacity="0" fill="#FFFFFF" x="0" y="0" width="120" height="56"></rect>
            <path d="M50.3703704,15.4425065 L39.8888889,40.3334994 L33.0740741,40.3334994 L27.9259259,20.4944562 C27.6296296,19.2775632 27.3333333,18.8350567 26.4074074,18.3187991 C24.8148148,17.4706615 22.2592593,16.6593995 20,16.1800174 L20.1481481,15.4425065 L31.1481481,15.4425065 C32.5555556,15.4425065 33.8148148,16.3643952 34.1111111,17.9869191 L36.8518519,32.3683817 L43.5925926,15.4425065 L50.3703704,15.4425065 Z M77.1481481,32.2208795 C77.1851852,25.6570325 68.037037,25.2882771 68.0740741,22.375109 C68.1111111,21.4900959 68.962963,20.5313318 70.8148148,20.2732029 C71.7407407,20.1625763 74.2962963,20.0519497 77.1851852,21.3794693 L78.3333333,16.1062664 C76.7777778,15.5531332 74.7777778,15 72.2962963,15 C65.9259259,15 61.4074074,18.3925501 61.3703704,23.2232465 C61.3333333,26.8001744 64.5925926,28.7914538 67.037037,30.0083468 C69.5555556,31.2252398 70.4074074,31.9996263 70.4074074,33.1058926 C70.3703704,34.7652921 68.4074074,35.502803 66.5555556,35.5396786 C63.2962963,35.5765541 61.4074074,34.6546655 59.9259259,33.9540301 L58.7407407,39.4116108 C60.2592593,40.1122462 63.037037,40.7022549 65.9259259,40.7391304 C72.7037037,40.7391304 77.1111111,37.3834558 77.1481481,32.2208795 L77.1481481,32.2208795 Z M94.037037,40.3334994 L100,40.3334994 L94.7777778,15.4425065 L89.2592593,15.4425065 C88,15.4425065 86.962963,16.1431419 86.5185185,17.2494082 L76.8148148,40.2966239 L83.5925926,40.2966239 L84.9259259,36.5721938 L93.2222222,36.5721938 L94.037037,40.3334994 Z M86.8148148,31.5202442 L90.2222222,22.1907313 L92.1851852,31.5202442 L86.8148148,31.5202442 Z M59.5925926,15.4425065 L54.2592593,40.3334994 L47.8148148,40.3334994 L53.1481481,15.4425065 L59.5925926,15.4425065 Z" id="Visa" fill="#004F98"></path>
        </g>
    </g>
</svg>