<?xml version="1.0" encoding="utf-8"?>
<!-- Generator: Adobe Illustrator 24.0.0, SVG Export Plug-In . SVG Version: 6.00 Build 0)  -->
<svg version="1.1" id="Layer_1" xmlns="http://www.w3.org/2000/svg" xmlns:xlink="http://www.w3.org/1999/xlink" x="0px" y="0px"
	 viewBox="0 0 824.88 192.76" style="enable-background:new 0 0 824.88 192.76;" xml:space="preserve">
<style type="text/css">
	.st0{fill:#FFFFFF;}
	.st1{fill:#243F2E;}
	.st2{fill:#449B4C;}
</style>
<g>
	<path class="st0" d="M800.74,193.34H25.06c-13.59,0-24.6-11.01-24.6-24.6V25.19c0-13.59,11.01-24.6,24.6-24.6h775.68
		c13.59,0,24.6,11.01,24.6,24.6v143.56C825.34,182.33,814.33,193.34,800.74,193.34z"/>
</g>
<g>
	<path class="st1" d="M99.14,146.75h5.25v19.31h10.46v4.59H99.14V146.75z"/>
	<path class="st1" d="M126.4,169.66c-1.06,0.76-2.67,1.35-4.52,1.35c-1.39,0-2.71-0.33-3.76-1.06c-1.19-0.83-1.91-2.11-1.91-3.79
		c0-1.78,0.83-3.14,1.98-3.93c1.25-0.86,2.87-1.16,4.55-1.16c0.96,0,1.91,0.1,2.81,0.3v-0.63c0-0.79-0.26-1.39-0.63-1.72
		c-0.46-0.43-1.32-0.69-2.51-0.69c-1.82,0-3.47,0.59-4.75,1.29v-4.32c1.32-0.66,3.3-1.25,5.68-1.25c2.18,0,4.13,0.5,5.41,1.55
		c1.22,0.99,1.82,2.44,1.82,4.49v5.51c0,0.76,0.3,1.29,0.99,1.29c0.26,0,0.56-0.07,0.83-0.2v3.76c-0.56,0.3-1.45,0.5-2.41,0.5
		c-1.32,0-2.61-0.36-3.5-1.29H126.4z M125.54,164.28c-0.53-0.17-1.25-0.23-1.78-0.23c-1.29,0-2.57,0.4-2.57,1.65
		c0,1.06,0.92,1.62,2.08,1.62c0.86,0,1.68-0.3,2.28-0.66V164.28z"/>
	<path class="st1" d="M142.9,146.75h5.25v19.31h10.46v4.59H142.9V146.75z"/>
	<path class="st1" d="M168.91,154.05c5.18,0,9.04,3.7,9.04,8.48s-3.86,8.48-9.04,8.48c-5.18,0-9.04-3.7-9.04-8.48
		S163.72,154.05,168.91,154.05z M168.91,166.69c2.28,0,4.03-1.85,4.03-4.16s-1.75-4.16-4.03-4.16s-4.03,1.85-4.03,4.16
		S166.63,166.69,168.91,166.69z"/>
	<path class="st1" d="M191.61,170.12c-0.76,0.5-2.24,0.89-3.66,0.89c-1.65,0-3.2-0.53-4.22-1.62c-0.86-0.92-1.42-2.28-1.42-4.85
		v-5.97h-2.64v-4.16h2.64v-4.22l5.02-0.86v5.08h4.29v4.16h-4.29v5.45c0,1.58,0.36,2.77,1.88,2.77c0.83,0,1.75-0.33,2.41-0.66V170.12
		z"/>
	<path class="st1" d="M198.47,163.85c0.56,2.24,2.41,3.27,4.72,3.27c1.81,0,3.8-0.63,5.51-1.78v4.19c-1.58,0.99-4.03,1.49-6.17,1.49
		c-5.35,0-9.21-3.33-9.21-8.42c0-5.18,4.03-8.55,8.52-8.55c3.99,0,7.76,2.64,7.76,8.09c0,0.56-0.03,1.29-0.1,1.72H198.47z
		 M204.98,160.68c-0.3-1.75-1.58-2.8-3.2-2.8c-1.55,0-2.9,0.96-3.33,2.8H204.98z"/>
	<path class="st1" d="M212.86,154.41h4.92v2.18l0.07,0.03c1.12-1.58,2.71-2.41,4.72-2.41c0.33,0,0.69,0.03,1.06,0.13v4.72
		c-0.4-0.1-0.89-0.17-1.35-0.17c-1.75,0-3.2,0.53-4.39,1.92v9.83h-5.02V154.41z"/>
	<path class="st1" d="M228.6,146.39c1.58,0,2.9,1.29,2.9,2.87c0,1.58-1.32,2.87-2.9,2.87c-1.58,0-2.9-1.29-2.9-2.87
		C225.7,147.68,227.02,146.39,228.6,146.39z M226.09,154.41h5.02v16.24h-5.02V154.41z"/>
	<path class="st1" d="M239.39,163.85c0.56,2.24,2.41,3.27,4.72,3.27c1.81,0,3.8-0.63,5.51-1.78v4.19c-1.58,0.99-4.03,1.49-6.17,1.49
		c-5.35,0-9.21-3.33-9.21-8.42c0-5.18,4.03-8.55,8.52-8.55c3.99,0,7.76,2.64,7.76,8.09c0,0.56-0.03,1.29-0.1,1.72H239.39z
		 M245.89,160.68c-0.3-1.75-1.58-2.8-3.2-2.8c-1.55,0-2.9,0.96-3.33,2.8H245.89z"/>
	<path class="st1" d="M271.24,161.01c-1.55-2.08-3-4.09-4.49-6.17l-0.07,0.03c0.03,2.28,0.07,4.59,0.07,6.9v8.88h-5.05v-23.9h4.95
		l7.16,9.64c1.55,2.08,3,4.09,4.49,6.17l0.07-0.03c-0.03-2.28-0.07-4.59-0.07-6.9v-8.88h5.05v23.9h-4.95L271.24,161.01z"/>
	<path class="st1" d="M296.75,169.66c-1.06,0.76-2.67,1.35-4.52,1.35c-1.39,0-2.71-0.33-3.76-1.06c-1.19-0.83-1.91-2.11-1.91-3.79
		c0-1.78,0.83-3.14,1.98-3.93c1.25-0.86,2.87-1.16,4.55-1.16c0.96,0,1.91,0.1,2.81,0.3v-0.63c0-0.79-0.26-1.39-0.63-1.72
		c-0.46-0.43-1.32-0.69-2.51-0.69c-1.82,0-3.47,0.59-4.75,1.29v-4.32c1.32-0.66,3.3-1.25,5.68-1.25c2.18,0,4.13,0.5,5.41,1.55
		c1.22,0.99,1.82,2.44,1.82,4.49v5.51c0,0.76,0.3,1.29,0.99,1.29c0.26,0,0.56-0.07,0.82-0.2v3.76c-0.56,0.3-1.45,0.5-2.41,0.5
		c-1.32,0-2.61-0.36-3.5-1.29H296.75z M295.89,164.28c-0.53-0.17-1.25-0.23-1.78-0.23c-1.29,0-2.57,0.4-2.57,1.65
		c0,1.06,0.92,1.62,2.08,1.62c0.86,0,1.68-0.3,2.28-0.66V164.28z"/>
	<path class="st1" d="M315.85,170.12c-0.76,0.5-2.24,0.89-3.66,0.89c-1.65,0-3.2-0.53-4.22-1.62c-0.86-0.92-1.42-2.28-1.42-4.85
		v-5.97h-2.64v-4.16h2.64v-4.22l5.02-0.86v5.08h4.29v4.16h-4.29v5.45c0,1.58,0.36,2.77,1.88,2.77c0.83,0,1.75-0.33,2.41-0.66V170.12
		z"/>
	<path class="st1" d="M321.36,146.39c1.58,0,2.9,1.29,2.9,2.87c0,1.58-1.32,2.87-2.9,2.87c-1.58,0-2.9-1.29-2.9-2.87
		C318.46,147.68,319.78,146.39,321.36,146.39z M318.85,154.41h5.02v16.24h-5.02V154.41z"/>
	<path class="st1" d="M336.05,154.05c5.18,0,9.04,3.7,9.04,8.48s-3.86,8.48-9.04,8.48c-5.18,0-9.04-3.7-9.04-8.48
		S330.87,154.05,336.05,154.05z M336.05,166.69c2.28,0,4.03-1.85,4.03-4.16s-1.75-4.16-4.03-4.16s-4.03,1.85-4.03,4.16
		S333.77,166.69,336.05,166.69z"/>
	<path class="st1" d="M348.22,154.41h4.95v1.49l0.07,0.03c1.25-1.02,2.97-1.88,5.02-1.88c1.72,0,3.23,0.59,4.26,1.65
		c0.99,1.06,1.42,2.48,1.42,4.82v10.13h-5.02v-9.31c0-1.22-0.17-1.82-0.56-2.28c-0.43-0.5-1.02-0.69-1.72-0.69
		c-1.29,0-2.51,0.66-3.4,1.35v10.92h-5.02V154.41z"/>
	<path class="st1" d="M377.17,169.66c-1.06,0.76-2.67,1.35-4.52,1.35c-1.39,0-2.71-0.33-3.76-1.06c-1.19-0.83-1.91-2.11-1.91-3.79
		c0-1.78,0.83-3.14,1.98-3.93c1.25-0.86,2.87-1.16,4.55-1.16c0.96,0,1.91,0.1,2.81,0.3v-0.63c0-0.79-0.26-1.39-0.63-1.72
		c-0.46-0.43-1.32-0.69-2.51-0.69c-1.82,0-3.47,0.59-4.75,1.29v-4.32c1.32-0.66,3.3-1.25,5.68-1.25c2.18,0,4.13,0.5,5.41,1.55
		c1.22,0.99,1.82,2.44,1.82,4.49v5.51c0,0.76,0.3,1.29,0.99,1.29c0.26,0,0.56-0.07,0.82-0.2v3.76c-0.56,0.3-1.45,0.5-2.41,0.5
		c-1.32,0-2.61-0.36-3.5-1.29H377.17z M376.31,164.28c-0.53-0.17-1.25-0.23-1.78-0.23c-1.29,0-2.57,0.4-2.57,1.65
		c0,1.06,0.92,1.62,2.08,1.62c0.86,0,1.68-0.3,2.28-0.66V164.28z"/>
	<path class="st1" d="M385.74,145.43h5.02v25.22h-5.02V145.43z"/>
	<path class="st1" d="M399.04,163.85c0.56,2.24,2.41,3.27,4.72,3.27c1.81,0,3.8-0.63,5.51-1.78v4.19c-1.58,0.99-4.03,1.49-6.17,1.49
		c-5.35,0-9.21-3.33-9.21-8.42c0-5.18,4.03-8.55,8.52-8.55c3.99,0,7.76,2.64,7.76,8.09c0,0.56-0.03,1.29-0.1,1.72H399.04z
		 M405.55,160.68c-0.3-1.75-1.58-2.8-3.2-2.8c-1.55,0-2.9,0.96-3.33,2.8H405.55z"/>
	<path class="st1" d="M416.4,165.07c1.65,0,3.04,1.32,3.04,2.97s-1.39,2.97-3.04,2.97s-3.04-1.32-3.04-2.97
		S414.75,165.07,416.4,165.07z"/>
	<path class="st1" d="M431.45,146.75h6.96c3.23,0,5.64,0.46,7.26,1.35c1.85,1.02,2.71,2.64,2.71,4.62c0,2.57-1.42,4.06-3.6,4.85
		v0.07c3.04,0.89,4.55,2.87,4.55,5.81s-1.52,5.12-4.55,6.27c-1.65,0.63-3.7,0.92-6.24,0.92h-7.1V146.75z M439.47,156.66
		c2.15,0,3.66-0.79,3.66-2.74c0-0.76-0.23-1.58-1.12-2.08c-0.86-0.5-2.31-0.59-3.7-0.59h-1.62v5.41H439.47z M438.65,166.16
		c1.88,0,3.17-0.13,3.96-0.46c1.12-0.46,1.49-1.35,1.49-2.41c0-2.08-1.45-3.04-4.26-3.04h-3.13v5.91H438.65z"/>
	<path class="st1" d="M454.95,146.39c1.58,0,2.9,1.29,2.9,2.87c0,1.58-1.32,2.87-2.9,2.87s-2.9-1.29-2.9-2.87
		C452.04,147.68,453.36,146.39,454.95,146.39z M452.44,154.41h5.02v16.24h-5.02V154.41z"/>
	<path class="st1" d="M465.74,163.85c0.56,2.24,2.41,3.27,4.72,3.27c1.82,0,3.8-0.63,5.51-1.78v4.19c-1.58,0.99-4.03,1.49-6.17,1.49
		c-5.35,0-9.21-3.33-9.21-8.42c0-5.18,4.03-8.55,8.51-8.55c3.99,0,7.76,2.64,7.76,8.09c0,0.56-0.03,1.29-0.1,1.72H465.74z
		 M472.24,160.68c-0.3-1.75-1.58-2.8-3.2-2.8c-1.55,0-2.9,0.96-3.33,2.8H472.24z"/>
	<path class="st1" d="M480.12,154.41h4.95v1.49l0.07,0.03c1.25-1.02,2.97-1.88,5.02-1.88c1.72,0,3.24,0.59,4.26,1.65
		c0.99,1.06,1.42,2.48,1.42,4.82v10.13h-5.02v-9.31c0-1.22-0.17-1.82-0.56-2.28c-0.43-0.5-1.02-0.69-1.72-0.69
		c-1.29,0-2.51,0.66-3.4,1.35v10.92h-5.02V154.41z"/>
	<path class="st1" d="M512.76,177.91h-5.02v-23.5h4.92v0.83l0.07,0.03c1.06-0.73,2.41-1.22,4.03-1.22c4.16,0,7.69,3.3,7.69,8.35
		c0,5.21-3.73,8.61-8.48,8.61c-1.32,0-2.38-0.26-3.14-0.63l-0.07,0.03V177.91z M515.34,166.95c2.61,0,4.06-1.88,4.06-4.29
		c0-2.44-1.45-4.42-3.93-4.42c-1.02,0-1.98,0.36-2.71,0.89v7.2C513.39,166.66,514.31,166.95,515.34,166.95z"/>
	<path class="st1" d="M527.68,145.43h5.02v25.22h-5.02V145.43z"/>
	<path class="st1" d="M547.58,169.1c-1.25,1.09-2.84,1.91-4.95,1.91c-1.88,0-3.3-0.66-4.22-1.62c-1.06-1.09-1.55-2.57-1.55-4.98v-10
		h5.02v9.24c0,1.19,0.2,1.88,0.63,2.34c0.43,0.5,1.09,0.73,1.78,0.73c1.25,0,2.51-0.69,3.3-1.45v-10.86h5.02v16.24h-4.95v-1.52
		L547.58,169.1z"/>
	<path class="st1" d="M556.35,165.27c2.24,1.32,4.85,1.88,6.4,1.88c1.39,0,2.21-0.36,2.21-1.25c0-1.25-1.82-1.12-4.26-1.75
		c-3.07-0.76-4.88-2.05-4.88-4.72c0.03-3.43,3.07-5.38,7.1-5.38c1.95,0,4.36,0.4,6.2,1.29v4.32c-2.14-1.22-4.65-1.75-6.11-1.75
		c-1.32,0-2.11,0.4-2.11,1.16c0,1.19,1.75,1.09,4.16,1.68c3.1,0.76,4.98,1.95,4.98,4.75c-0.03,3.56-3.14,5.51-7.29,5.51
		c-1.95,0-4.46-0.4-6.4-1.35V165.27z"/>
	<path class="st1" d="M591.7,170.02c-0.92,0.53-2.21,0.99-3.83,0.99c-4.29,0-7.82-3.27-7.82-8.25c0-5.08,3.66-8.71,8.68-8.71
		c1.55,0,3,0.36,4.32,1.02l3.73-0.66v23.5h-5.02v-7.85L591.7,170.02z M591.76,158.87c-0.73-0.33-1.65-0.63-2.64-0.63
		c-2.61,0-4.03,1.98-4.03,4.39c0,2.38,1.39,4.32,3.93,4.32c0.96,0,1.98-0.3,2.74-0.83V158.87z"/>
	<path class="st1" d="M611.66,169.1c-1.25,1.09-2.84,1.91-4.95,1.91c-1.88,0-3.3-0.66-4.22-1.62c-1.06-1.09-1.55-2.57-1.55-4.98v-10
		h5.02v9.24c0,1.19,0.2,1.88,0.63,2.34c0.43,0.5,1.09,0.73,1.78,0.73c1.25,0,2.51-0.69,3.3-1.45v-10.86h5.02v16.24h-4.95v-1.52
		L611.66,169.1z"/>
	<path class="st1" d="M625.03,163.85c0.56,2.24,2.41,3.27,4.72,3.27c1.82,0,3.79-0.63,5.51-1.78v4.19
		c-1.58,0.99-4.03,1.49-6.17,1.49c-5.35,0-9.21-3.33-9.21-8.42c0-5.18,4.03-8.55,8.52-8.55c3.99,0,7.76,2.64,7.76,8.09
		c0,0.56-0.03,1.29-0.1,1.72H625.03z M631.53,160.68c-0.3-1.75-1.58-2.8-3.2-2.8c-1.55,0-2.9,0.96-3.33,2.8H631.53z"/>
	<path class="st1" d="M647.33,154.41h5.02v16.7c0,3-0.53,4.42-1.49,5.41c-1.22,1.25-3.17,1.75-4.92,1.75
		c-0.92,0-1.78-0.13-2.28-0.26v-4.13c0.53,0.1,1.19,0.17,1.65,0.17c1.75,0,2.01-0.96,2.01-2.61V154.41z M649.84,146.39
		c1.58,0,2.9,1.29,2.9,2.87c0,1.58-1.32,2.87-2.9,2.87s-2.9-1.29-2.9-2.87C646.94,147.68,648.26,146.39,649.84,146.39z"/>
	<path class="st1" d="M664.53,154.05c5.18,0,9.04,3.7,9.04,8.48s-3.86,8.48-9.04,8.48s-9.04-3.7-9.04-8.48
		S659.35,154.05,664.53,154.05z M664.53,166.69c2.28,0,4.03-1.85,4.03-4.16s-1.75-4.16-4.03-4.16s-4.03,1.85-4.03,4.16
		S662.25,166.69,664.53,166.69z"/>
	<path class="st1" d="M687.43,169.1c-1.25,1.09-2.84,1.91-4.95,1.91c-1.88,0-3.3-0.66-4.22-1.62c-1.06-1.09-1.55-2.57-1.55-4.98v-10
		h5.02v9.24c0,1.19,0.2,1.88,0.63,2.34c0.43,0.5,1.09,0.73,1.78,0.73c1.25,0,2.51-0.69,3.3-1.45v-10.86h5.02v16.24h-4.95v-1.52
		L687.43,169.1z"/>
	<path class="st1" d="M700.79,163.85c0.56,2.24,2.41,3.27,4.72,3.27c1.82,0,3.79-0.63,5.51-1.78v4.19
		c-1.58,0.99-4.03,1.49-6.17,1.49c-5.35,0-9.21-3.33-9.21-8.42c0-5.18,4.03-8.55,8.52-8.55c3.99,0,7.76,2.64,7.76,8.09
		c0,0.56-0.03,1.29-0.1,1.72H700.79z M707.3,160.68c-0.3-1.75-1.58-2.8-3.2-2.8c-1.55,0-2.9,0.96-3.33,2.8H707.3z"/>
	<path class="st1" d="M715.18,154.41h4.92v2.18l0.07,0.03c1.12-1.58,2.71-2.41,4.72-2.41c0.33,0,0.69,0.03,1.06,0.13v4.72
		c-0.4-0.1-0.89-0.17-1.35-0.17c-1.75,0-3.2,0.53-4.39,1.92v9.83h-5.02V154.41z"/>
	<path class="st1" d="M728.48,165.07c1.65,0,3.04,1.32,3.04,2.97s-1.39,2.97-3.04,2.97s-3.04-1.32-3.04-2.97
		S726.83,165.07,728.48,165.07z"/>
</g>
<g>
	<g>
		<path class="st2" d="M73.27,32.97c-22.13,0-40.07,17.94-40.07,40.07c0,22.13,17.94,40.07,40.07,40.07c13.7,0,24.8-11.1,24.8-24.8
			c0-13.7-9.54-25.08-24.8-24.8c-5.27,0.09-9.7-3.49-9.54-9.54c0.16-6.04,6.05-9.02,11.59-9.26c13.33-0.59,23.16,7.24,28.79,18.53
			c2.24,4.67,3.55,10.36,3.55,15.89c0,8.04-2.9,15.05-7.44,20.93c-0.3,0.39-0.37,1,0,1.37c0.37,0.37,0.97,0.37,1.34,0
			c3.48-3.47,11.78-13.11,11.78-28.38C113.33,50.91,95.39,32.97,73.27,32.97z M73.27,73.04c8.43,0,15.26,6.83,15.26,15.26
			c0,8.43-6.83,15.26-15.26,15.26S58,96.73,58,88.3C58,79.87,64.84,73.04,73.27,73.04z"/>
	</g>
</g>
<g>
	<g>
		<path class="st2" d="M259.52,39.16h5.84v21.5h11.65v5.11h-17.49V39.16z"/>
	</g>
	<g>
		<path class="st2" d="M284.14,58.19c0.62,2.5,2.68,3.64,5.26,3.64c2.02,0,4.23-0.7,6.14-1.98v4.67c-1.76,1.1-4.48,1.65-6.87,1.65
			c-5.95,0-10.25-3.71-10.25-9.37c0-5.77,4.48-9.52,9.48-9.52c4.45,0,8.64,2.94,8.64,9c0,0.62-0.04,1.43-0.11,1.91H284.14z
			 M291.38,54.66c-0.33-1.95-1.76-3.12-3.56-3.12c-1.73,0-3.23,1.07-3.71,3.12H291.38z"/>
	</g>
	<g>
		<path class="st2" d="M308.99,47.68h5.59v18.59c0,3.34-0.59,4.92-1.65,6.03c-1.36,1.4-3.53,1.95-5.48,1.95
			c-1.03,0-1.98-0.15-2.54-0.29v-4.59c0.59,0.11,1.32,0.18,1.84,0.18c1.95,0,2.24-1.07,2.24-2.9V47.68z M311.78,38.75
			c1.76,0,3.23,1.43,3.23,3.2c0,1.76-1.47,3.2-3.23,3.2c-1.76,0-3.23-1.43-3.23-3.2C308.55,40.18,310.02,38.75,311.78,38.75z"/>
	</g>
	<g>
		<path class="st2" d="M323.8,58.19c0.62,2.5,2.68,3.64,5.25,3.64c2.02,0,4.23-0.7,6.14-1.98v4.67c-1.76,1.1-4.48,1.65-6.87,1.65
			c-5.95,0-10.25-3.71-10.25-9.37c0-5.77,4.48-9.52,9.48-9.52c4.45,0,8.64,2.94,8.64,9c0,0.62-0.04,1.43-0.11,1.91H323.8z
			 M331.04,54.66c-0.33-1.95-1.76-3.12-3.56-3.12c-1.73,0-3.23,1.07-3.71,3.12H331.04z"/>
	</g>
	<g>
		<path class="st2" d="M351.77,64.03c-1.4,1.21-3.16,2.13-5.51,2.13c-2.09,0-3.68-0.74-4.7-1.8c-1.18-1.21-1.73-2.87-1.73-5.55
			V47.68h5.59v10.29c0,1.32,0.22,2.09,0.7,2.61c0.48,0.55,1.21,0.81,1.98,0.81c1.4,0,2.79-0.77,3.68-1.62V47.68h5.59v18.08h-5.51
			v-1.69L351.77,64.03z"/>
	</g>
	<g>
		<path class="st2" d="M382.86,64.77c-1.21,0.85-2.83,1.4-4.59,1.4c-4.56,0-8.49-3.53-8.49-9.08c0-5.7,4.15-9.81,9.55-9.81
			c1.36,0,2.46,0.26,3.42,0.66l0.07-0.04V37.69h5.59v28.08h-5.48v-0.96L382.86,64.77z M382.82,52.6c-0.81-0.4-1.8-0.7-2.9-0.7
			c-2.94,0-4.52,2.2-4.52,4.92c0,2.68,1.54,4.78,4.3,4.78c1.21,0,2.32-0.4,3.12-0.92V52.6z"/>
	</g>
	<g>
		<path class="st2" d="M401.97,47.28c5.77,0,10.07,4.12,10.07,9.44c0,5.33-4.3,9.44-10.07,9.44s-10.07-4.12-10.07-9.44
			C391.9,51.39,396.2,47.28,401.97,47.28z M401.97,61.35c2.54,0,4.48-2.06,4.48-4.63c0-2.57-1.95-4.63-4.48-4.63
			c-2.54,0-4.48,2.06-4.48,4.63C397.49,59.29,399.44,61.35,401.97,61.35z"/>
	</g>
	<g>
		<path class="st2" d="M418.33,38.75c1.76,0,3.23,1.43,3.23,3.2c0,1.76-1.47,3.2-3.23,3.2c-1.76,0-3.23-1.43-3.23-3.2
			C415.09,40.18,416.56,38.75,418.33,38.75z M415.53,47.68h5.59v18.08h-5.59V47.68z"/>
	</g>
	<g>
		<path class="st2" d="M437.47,65.17c-0.85,0.55-2.5,0.99-4.08,0.99c-1.84,0-3.56-0.59-4.7-1.8c-0.95-1.03-1.58-2.54-1.58-5.4v-6.65
			h-2.94v-4.63h2.94v-4.7l5.58-0.96v5.66h4.78v4.63h-4.78v6.06c0,1.76,0.4,3.09,2.09,3.09c0.92,0,1.95-0.37,2.68-0.74V65.17z"/>
	</g>
	<g>
		<path class="st2" d="M449.53,47.68H455v2.43l0.07,0.04c1.25-1.76,3.01-2.68,5.26-2.68c0.37,0,0.77,0.04,1.18,0.15v5.26
			c-0.44-0.11-0.99-0.18-1.51-0.18c-1.95,0-3.56,0.59-4.89,2.13v10.95h-5.59V47.68z"/>
	</g>
	<g>
		<path class="st2" d="M468.68,58.19c0.62,2.5,2.68,3.64,5.25,3.64c2.02,0,4.23-0.7,6.14-1.98v4.67c-1.76,1.1-4.48,1.65-6.87,1.65
			c-5.95,0-10.25-3.71-10.25-9.37c0-5.77,4.48-9.52,9.48-9.52c4.45,0,8.64,2.94,8.64,9c0,0.62-0.04,1.43-0.11,1.91H468.68z
			 M475.92,54.66c-0.33-1.95-1.76-3.12-3.56-3.12c-1.73,0-3.23,1.07-3.71,3.12H475.92z"/>
	</g>
	<g>
		<path class="st2" d="M484.19,59.77c2.5,1.47,5.4,2.09,7.13,2.09c1.54,0,2.46-0.4,2.46-1.4c0-1.4-2.02-1.25-4.74-1.95
			c-3.42-0.84-5.44-2.28-5.44-5.25c0.04-3.82,3.42-5.99,7.9-5.99c2.17,0,4.85,0.44,6.91,1.43v4.81c-2.39-1.36-5.18-1.95-6.8-1.95
			c-1.47,0-2.35,0.44-2.35,1.29c0,1.32,1.95,1.21,4.63,1.87c3.45,0.85,5.55,2.17,5.55,5.29c-0.04,3.97-3.49,6.14-8.12,6.14
			c-2.17,0-4.96-0.44-7.13-1.51V59.77z"/>
	</g>
	<g>
		<path class="st2" d="M514.58,65.17c-0.85,0.55-2.5,0.99-4.08,0.99c-1.84,0-3.56-0.59-4.7-1.8c-0.96-1.03-1.58-2.54-1.58-5.4v-6.65
			h-2.94v-4.63h2.94v-4.7l5.59-0.96v5.66h4.78v4.63h-4.78v6.06c0,1.76,0.4,3.09,2.09,3.09c0.92,0,1.95-0.37,2.68-0.74V65.17z"/>
	</g>
	<g>
		<path class="st2" d="M522.23,58.19c0.62,2.5,2.68,3.64,5.25,3.64c2.02,0,4.23-0.7,6.14-1.98v4.67c-1.76,1.1-4.48,1.65-6.87,1.65
			c-5.95,0-10.25-3.71-10.25-9.37c0-5.77,4.48-9.52,9.48-9.52c4.45,0,8.64,2.94,8.64,9c0,0.62-0.04,1.43-0.11,1.91H522.23z
			 M529.46,54.66c-0.33-1.95-1.76-3.12-3.56-3.12c-1.73,0-3.23,1.07-3.71,3.12H529.46z"/>
	</g>
	<g>
		<path class="st2" d="M538.25,47.68h5.48v2.43l0.07,0.04c1.25-1.76,3.01-2.68,5.26-2.68c0.37,0,0.77,0.04,1.18,0.15v5.26
			c-0.44-0.11-0.99-0.18-1.51-0.18c-1.95,0-3.56,0.59-4.89,2.13v10.95h-5.59V47.68z"/>
	</g>
	<g>
		<path class="st2" d="M573.64,64.03c-1.4,1.21-3.16,2.13-5.51,2.13c-2.09,0-3.68-0.74-4.7-1.8c-1.18-1.21-1.73-2.87-1.73-5.55
			V47.68h5.59v10.29c0,1.32,0.22,2.09,0.7,2.61c0.48,0.55,1.21,0.81,1.98,0.81c1.4,0,2.79-0.77,3.68-1.62V47.68h5.59v18.08h-5.51
			v-1.69L573.64,64.03z"/>
	</g>
	<g>
		<path class="st2" d="M583.93,47.68h5.51v1.65l0.07,0.04c1.4-1.14,3.31-2.09,5.59-2.09c1.91,0,3.6,0.66,4.74,1.84
			c1.1,1.18,1.58,2.76,1.58,5.37v11.28h-5.59V55.4c0-1.36-0.18-2.02-0.63-2.54c-0.48-0.55-1.14-0.77-1.91-0.77
			c-1.43,0-2.79,0.74-3.78,1.51v12.16h-5.59V47.68z"/>
	</g>
	<g>
		<path class="st2" d="M620.28,73.85h-5.59V47.68h5.48v0.92l0.07,0.04c1.18-0.81,2.68-1.36,4.48-1.36c4.63,0,8.56,3.67,8.56,9.3
			c0,5.81-4.15,9.59-9.44,9.59c-1.47,0-2.65-0.29-3.49-0.7l-0.07,0.04V73.85z M623.15,61.64c2.9,0,4.52-2.09,4.52-4.78
			c0-2.72-1.62-4.92-4.37-4.92c-1.14,0-2.2,0.4-3.01,0.99v8.01C620.98,61.31,622.01,61.64,623.15,61.64z"/>
	</g>
	<g>
		<path class="st2" d="M636.89,37.69h5.58v28.08h-5.58V37.69z"/>
	</g>
	<g>
		<path class="st2" d="M657.29,64.66c-1.18,0.85-2.98,1.51-5.03,1.51c-1.54,0-3.01-0.37-4.19-1.18c-1.32-0.92-2.13-2.35-2.13-4.23
			c0-1.98,0.92-3.49,2.2-4.37c1.4-0.96,3.2-1.29,5.07-1.29c1.07,0,2.13,0.11,3.12,0.33v-0.7c0-0.88-0.29-1.54-0.7-1.91
			c-0.51-0.48-1.47-0.77-2.79-0.77c-2.02,0-3.86,0.66-5.29,1.43v-4.81c1.47-0.73,3.67-1.4,6.32-1.4c2.43,0,4.59,0.55,6.03,1.73
			c1.36,1.1,2.02,2.72,2.02,5v6.14c0,0.85,0.33,1.43,1.1,1.43c0.29,0,0.62-0.07,0.92-0.22v4.19c-0.62,0.33-1.62,0.55-2.68,0.55
			c-1.47,0-2.9-0.4-3.9-1.43H657.29z M656.33,58.67c-0.59-0.18-1.4-0.26-1.98-0.26c-1.43,0-2.87,0.44-2.87,1.84
			c0,1.18,1.03,1.8,2.32,1.8c0.96,0,1.87-0.33,2.54-0.73V58.67z"/>
	</g>
	<g>
		<path class="st2" d="M669.64,38.75c1.76,0,3.23,1.43,3.23,3.2c0,1.76-1.47,3.2-3.23,3.2c-1.76,0-3.23-1.43-3.23-3.2
			C666.4,40.18,667.87,38.75,669.64,38.75z M666.84,47.68h5.59v18.08h-5.59V47.68z"/>
	</g>
	<g>
		<path class="st2" d="M676.55,59.77c2.5,1.47,5.4,2.09,7.13,2.09c1.54,0,2.46-0.4,2.46-1.4c0-1.4-2.02-1.25-4.74-1.95
			c-3.42-0.84-5.44-2.28-5.44-5.25c0.04-3.82,3.42-5.99,7.9-5.99c2.17,0,4.85,0.44,6.91,1.43v4.81c-2.39-1.36-5.18-1.95-6.8-1.95
			c-1.47,0-2.35,0.44-2.35,1.29c0,1.32,1.95,1.21,4.63,1.87c3.46,0.85,5.55,2.17,5.55,5.29c-0.04,3.97-3.49,6.14-8.12,6.14
			c-2.17,0-4.96-0.44-7.13-1.51V59.77z"/>
	</g>
	<g>
		<path class="st2" d="M698.01,38.75c1.76,0,3.23,1.43,3.23,3.2c0,1.76-1.47,3.2-3.23,3.2c-1.76,0-3.23-1.43-3.23-3.2
			C694.78,40.18,696.25,38.75,698.01,38.75z M695.22,47.68h5.59v18.08h-5.59V47.68z"/>
	</g>
	<g>
		<path class="st2" d="M705.43,47.68h5.48v2.43l0.07,0.04c1.25-1.76,3.01-2.68,5.26-2.68c0.37,0,0.77,0.04,1.18,0.15v5.26
			c-0.44-0.11-0.99-0.18-1.51-0.18c-1.95,0-3.56,0.59-4.89,2.13v10.95h-5.59V47.68z"/>
	</g>
	<g>
		<path class="st2" d="M720.25,59.55c1.84,0,3.38,1.47,3.38,3.31c0,1.84-1.54,3.31-3.38,3.31c-1.84,0-3.38-1.47-3.38-3.31
			C716.86,61.02,718.41,59.55,720.25,59.55z"/>
	</g>
	<g>
		<path class="st2" d="M256.98,84.42h6.28l4.26,11.69c0.88,2.39,1.76,4.85,2.57,7.24h0.07c0.84-2.43,1.73-4.81,2.65-7.28l4.37-11.65
			h5.99l-10.14,26.6h-5.88L256.98,84.42z"/>
	</g>
	<g>
		<path class="st2" d="M286.94,103.46c0.62,2.5,2.68,3.64,5.25,3.64c2.02,0,4.23-0.7,6.14-1.99v4.67c-1.76,1.1-4.48,1.65-6.87,1.65
			c-5.95,0-10.25-3.71-10.25-9.37c0-5.77,4.48-9.52,9.48-9.52c4.45,0,8.64,2.94,8.64,9c0,0.62-0.04,1.43-0.11,1.91H286.94z
			 M294.18,99.93c-0.33-1.95-1.76-3.12-3.56-3.12c-1.73,0-3.23,1.07-3.71,3.12H294.18z"/>
	</g>
	<g>
		<path class="st2" d="M305.75,84.02c1.76,0,3.23,1.43,3.23,3.2c0,1.76-1.47,3.2-3.23,3.2c-1.76,0-3.23-1.43-3.23-3.2
			C302.52,85.45,303.99,84.02,305.75,84.02z M302.96,92.95h5.59v18.08h-5.59V92.95z"/>
	</g>
	<g>
		<path class="st2" d="M313.18,82.95h5.59v28.07h-5.59V82.95z"/>
	</g>
	<g>
		<path class="st2" d="M323.4,82.95h5.59v28.07h-5.59V82.95z"/>
	</g>
	<g>
		<path class="st2" d="M342.54,92.54c5.77,0,10.07,4.12,10.07,9.44c0,5.33-4.3,9.44-10.07,9.44c-5.77,0-10.07-4.12-10.07-9.44
			C332.47,96.66,336.77,92.54,342.54,92.54z M342.54,106.62c2.54,0,4.48-2.06,4.48-4.63c0-2.57-1.95-4.63-4.48-4.63
			c-2.54,0-4.48,2.06-4.48,4.63C338.06,104.56,340.01,106.62,342.54,106.62z"/>
	</g>
	<g>
		<path class="st2" d="M356.11,92.95h5.51v1.65l0.07,0.04c1.4-1.14,3.31-2.09,5.59-2.09c1.91,0,3.6,0.66,4.74,1.84
			c1.1,1.18,1.58,2.76,1.58,5.36v11.28h-5.59v-10.36c0-1.36-0.18-2.02-0.62-2.54c-0.48-0.55-1.14-0.77-1.91-0.77
			c-1.43,0-2.79,0.74-3.79,1.51v12.16h-5.59V92.95z"/>
	</g>
	<g>
		<path class="st2" d="M377.64,105.04c2.5,1.47,5.4,2.09,7.13,2.09c1.54,0,2.46-0.4,2.46-1.4c0-1.4-2.02-1.25-4.74-1.95
			c-3.42-0.85-5.44-2.28-5.44-5.26c0.04-3.82,3.42-5.99,7.9-5.99c2.17,0,4.85,0.44,6.91,1.43v4.81c-2.39-1.36-5.18-1.95-6.8-1.95
			c-1.47,0-2.35,0.44-2.35,1.29c0,1.32,1.95,1.21,4.63,1.87c3.45,0.85,5.55,2.17,5.55,5.29c-0.04,3.97-3.49,6.14-8.12,6.14
			c-2.17,0-4.96-0.44-7.13-1.51V105.04z"/>
	</g>
	<g>
		<path class="st2" d="M395.69,98.57h9.08v4.56h-9.08V98.57z"/>
	</g>
	<g>
		<path class="st2" d="M408.73,119.11l4.74-10.07l-7.35-16.1H412l1.87,4.48c0.81,1.95,1.58,3.86,2.32,5.73h0.07
			c0.81-1.98,1.62-3.9,2.46-5.84l1.91-4.37h5.55l-11.76,26.16H408.73z"/>
	</g>
	<g>
		<path class="st2" d="M442.03,103.46c0.62,2.5,2.68,3.64,5.25,3.64c2.02,0,4.23-0.7,6.14-1.99v4.67c-1.76,1.1-4.48,1.65-6.87,1.65
			c-5.95,0-10.25-3.71-10.25-9.37c0-5.77,4.48-9.52,9.48-9.52c4.45,0,8.64,2.94,8.64,9c0,0.62-0.04,1.43-0.11,1.91H442.03z
			 M449.27,99.93c-0.33-1.95-1.76-3.12-3.56-3.12c-1.73,0-3.23,1.07-3.71,3.12H449.27z"/>
	</g>
	<g>
		<path class="st2" d="M458.06,92.95h5.51v1.65l0.07,0.04c1.4-1.14,3.31-2.09,5.59-2.09c1.91,0,3.6,0.66,4.74,1.84
			c1.1,1.18,1.58,2.76,1.58,5.36v11.28h-5.59v-10.36c0-1.36-0.18-2.02-0.62-2.54c-0.48-0.55-1.14-0.77-1.91-0.77
			c-1.43,0-2.79,0.74-3.79,1.51v12.16h-5.58V92.95z"/>
	</g>
	<g>
		<path class="st2" d="M479.59,105.04c2.5,1.47,5.4,2.09,7.13,2.09c1.54,0,2.46-0.4,2.46-1.4c0-1.4-2.02-1.25-4.74-1.95
			c-3.42-0.85-5.44-2.28-5.44-5.26c0.04-3.82,3.42-5.99,7.9-5.99c2.17,0,4.85,0.44,6.91,1.43v4.81c-2.39-1.36-5.18-1.95-6.8-1.95
			c-1.47,0-2.35,0.44-2.35,1.29c0,1.32,1.95,1.21,4.63,1.87c3.45,0.85,5.55,2.17,5.55,5.29c-0.04,3.97-3.49,6.14-8.12,6.14
			c-2.17,0-4.96-0.44-7.13-1.51V105.04z"/>
	</g>
	<g>
		<path class="st2" d="M502.86,103.46c0.62,2.5,2.68,3.64,5.25,3.64c2.02,0,4.23-0.7,6.14-1.99v4.67c-1.76,1.1-4.48,1.65-6.87,1.65
			c-5.95,0-10.25-3.71-10.25-9.37c0-5.77,4.48-9.52,9.48-9.52c4.45,0,8.64,2.94,8.64,9c0,0.62-0.04,1.43-0.11,1.91H502.86z
			 M510.1,99.93c-0.33-1.95-1.76-3.12-3.56-3.12c-1.73,0-3.23,1.07-3.71,3.12H510.1z"/>
	</g>
	<g>
		<path class="st2" d="M542.25,100.59c0-1.36-0.22-1.98-0.66-2.46c-0.51-0.55-1.18-0.77-1.91-0.77c-1.29,0-2.61,0.66-3.56,1.51
			c0.04,0.26,0.04,0.55,0.04,0.81v11.35h-5.59v-10.44c0-1.21-0.18-1.95-0.66-2.46c-0.51-0.55-1.18-0.77-1.91-0.77
			c-1.29,0-2.61,0.7-3.53,1.47v12.2h-5.58V92.95h5.51v1.62l0.07,0.04c1.4-1.18,3.23-2.06,5.44-2.06c1.95,0,4.19,0.77,5.25,2.57
			c1.95-1.73,4.08-2.57,6.36-2.57c2.02,0,3.6,0.7,4.67,1.8c1.14,1.18,1.65,2.76,1.65,5.33v11.35h-5.59V100.59z"/>
	</g>
	<g>
		<path class="st2" d="M552.4,82.95h5.59v10.8l0.07,0.04c1.1-0.74,2.72-1.25,4.45-1.25c4.48,0,8.53,3.49,8.53,9.11
			c0,5.73-4.15,9.77-9.78,9.77c-1.76,0-3.23-0.4-4.48-0.92l-4.37,0.73V82.95z M560.85,106.91c3.01,0,4.56-2.35,4.56-5
			c0-2.65-1.58-4.7-4.34-4.7c-1.21,0-2.28,0.4-3.09,0.88v8.12C558.72,106.62,559.82,106.91,560.85,106.91z"/>
	</g>
	<g>
		<path class="st2" d="M574.63,82.95h5.59v28.07h-5.59V82.95z"/>
	</g>
	<g>
		<path class="st2" d="M589.44,103.46c0.63,2.5,2.68,3.64,5.26,3.64c2.02,0,4.23-0.7,6.14-1.99v4.67c-1.76,1.1-4.48,1.65-6.87,1.65
			c-5.95,0-10.25-3.71-10.25-9.37c0-5.77,4.48-9.52,9.48-9.52c4.45,0,8.64,2.94,8.64,9c0,0.62-0.04,1.43-0.11,1.91H589.44z
			 M596.68,99.93c-0.33-1.95-1.76-3.12-3.56-3.12c-1.73,0-3.23,1.07-3.71,3.12H596.68z"/>
	</g>
	<g>
		<path class="st2" d="M608.78,104.82c1.84,0,3.38,1.47,3.38,3.31c0,1.84-1.54,3.31-3.38,3.31c-1.84,0-3.38-1.47-3.38-3.31
			C605.4,106.29,606.94,104.82,608.78,104.82z"/>
	</g>
</g>
<g>
	<g>
		<path class="st2" d="M173.29,116.53c-23.96,0-43.46-19.51-43.46-43.5c0-23.98,19.5-43.49,43.46-43.49
			c23.97,0,43.47,19.51,43.47,43.49C216.76,97.02,197.26,116.53,173.29,116.53z M173.29,37.89c-19.36,0-35.11,15.76-35.11,35.14
			c0,19.39,15.75,35.15,35.11,35.15c19.37,0,35.12-15.77,35.12-35.15C208.41,53.66,192.66,37.89,173.29,37.89z"/>
	</g>
</g>
<g>
	
		<rect x="135.75" y="68.96" transform="matrix(0.7764 -0.6303 0.6303 0.7764 -7.7441 125.8602)" class="st2" width="75.48" height="9.77"/>
</g>
<g>
	<path class="st1" d="M146.35,73.43h10.21v5.12h-10.21V73.43z"/>
	<path class="st1" d="M163.13,65.41l-6.07,2.19v-5.95l12.64-4.59v30.37h-6.57V65.41z"/>
	<path class="st1" d="M193.22,71.61c3.26,1.24,5.04,4.01,5.04,7.23c0,5.37-4.79,9.05-11.28,9.05s-11.28-3.68-11.28-9.05
		c0-3.22,1.78-5.99,5.04-7.23v-0.08c-2.64-1.03-4.09-3.39-4.09-6.12c0-4.79,4.5-8.35,10.33-8.35s10.33,3.55,10.33,8.35
		c0,2.73-1.45,5.08-4.09,6.12V71.61z M191.52,78.39c0-2.4-2.02-4.17-4.55-4.17c-2.52,0-4.55,1.78-4.55,4.17
		c0,2.36,1.94,4.09,4.55,4.09S191.52,80.74,191.52,78.39z M190.94,65.99c0-2.02-1.74-3.55-3.97-3.55s-3.97,1.53-3.97,3.55
		c0,2.07,1.78,3.6,3.97,3.6S190.94,68.06,190.94,65.99z"/>
</g>
</svg>
