<?xml version="1.0" encoding="utf-8"?>
<!-- Generator: Adobe Illustrator 24.0.0, SVG Export Plug-In . SVG Version: 6.00 Build 0)  -->
<svg version="1.1" id="Layer_1" xmlns="http://www.w3.org/2000/svg" xmlns:xlink="http://www.w3.org/1999/xlink" x="0px" y="0px"
	 viewBox="0 0 824.88 192.76" style="enable-background:new 0 0 824.88 192.76;" xml:space="preserve">
<style type="text/css">
	.st0{fill:#FFFFFF;}
	.st1{fill:#243F2E;}
	.st2{fill:#449B4C;}
</style>
<g>
	<path class="st0" d="M800.32,192.89H24.63c-13.59,0-24.6-11.01-24.6-24.6V24.74c0-13.59,11.01-24.6,24.6-24.6h775.68
		c13.59,0,24.6,11.01,24.6,24.6V168.3C824.92,181.88,813.9,192.89,800.32,192.89z"/>
</g>
<g>
	<path class="st1" d="M116.69,146.3h6.7c4.26,0,7.56,0.69,10.03,2.41c2.94,2.05,4.59,5.41,4.59,9.51c0,3.76-1.42,6.96-3.96,9.04
		c-2.44,1.98-5.88,2.94-10.89,2.94h-6.47V146.3z M123.39,165.61c3.4,0,5.58-0.59,7.06-1.88c1.42-1.22,2.31-3.14,2.31-5.51
		c0-2.51-0.99-4.62-2.77-5.88c-1.68-1.19-3.96-1.45-6.63-1.45h-1.42v14.72H123.39z"/>
	<path class="st1" d="M145.24,163.4c0.56,2.24,2.41,3.27,4.72,3.27c1.81,0,3.8-0.63,5.51-1.78v4.19c-1.58,0.99-4.03,1.49-6.17,1.49
		c-5.35,0-9.21-3.33-9.21-8.42c0-5.18,4.03-8.55,8.52-8.55c3.99,0,7.76,2.64,7.76,8.09c0,0.56-0.03,1.29-0.1,1.72H145.24z
		 M151.74,160.23c-0.3-1.75-1.58-2.8-3.2-2.8c-1.55,0-2.9,0.96-3.33,2.8H151.74z"/>
	<path class="st1" d="M177.08,160.56c-1.55-2.08-3-4.09-4.49-6.17l-0.07,0.03c0.03,2.28,0.07,4.59,0.07,6.9v8.88h-5.05v-23.9h4.95
		l7.16,9.64c1.55,2.08,3,4.09,4.49,6.17l0.07-0.03c-0.03-2.28-0.07-4.59-0.07-6.9v-8.88h5.05v23.9h-4.95L177.08,160.56z"/>
	<path class="st1" d="M202.59,169.21c-1.06,0.76-2.67,1.35-4.52,1.35c-1.39,0-2.71-0.33-3.76-1.06c-1.19-0.83-1.91-2.11-1.91-3.79
		c0-1.78,0.83-3.14,1.98-3.93c1.25-0.86,2.87-1.16,4.55-1.16c0.96,0,1.91,0.1,2.81,0.3v-0.63c0-0.79-0.26-1.39-0.63-1.72
		c-0.46-0.43-1.32-0.69-2.51-0.69c-1.82,0-3.47,0.59-4.75,1.29v-4.32c1.32-0.66,3.3-1.25,5.68-1.25c2.18,0,4.13,0.5,5.41,1.55
		c1.22,0.99,1.82,2.44,1.82,4.49v5.51c0,0.76,0.3,1.29,0.99,1.29c0.26,0,0.56-0.07,0.83-0.2V170c-0.56,0.3-1.45,0.5-2.41,0.5
		c-1.32,0-2.61-0.36-3.5-1.29H202.59z M201.73,163.83c-0.53-0.17-1.25-0.23-1.78-0.23c-1.29,0-2.57,0.4-2.57,1.65
		c0,1.06,0.92,1.62,2.08,1.62c0.86,0,1.68-0.3,2.28-0.66V163.83z"/>
	<path class="st1" d="M221.7,169.67c-0.76,0.5-2.24,0.89-3.66,0.89c-1.65,0-3.2-0.53-4.22-1.62c-0.86-0.92-1.42-2.28-1.42-4.85
		v-5.97h-2.64v-4.16h2.64v-4.22l5.02-0.86v5.08h4.29v4.16h-4.29v5.45c0,1.58,0.36,2.77,1.88,2.77c0.83,0,1.75-0.33,2.41-0.66V169.67
		z"/>
	<path class="st1" d="M227.21,145.94c1.58,0,2.9,1.29,2.9,2.87c0,1.58-1.32,2.87-2.9,2.87c-1.58,0-2.9-1.29-2.9-2.87
		C224.3,147.23,225.62,145.94,227.21,145.94z M224.7,153.96h5.02v16.24h-5.02V153.96z"/>
	<path class="st1" d="M241.89,153.6c5.18,0,9.04,3.7,9.04,8.48s-3.86,8.48-9.04,8.48c-5.18,0-9.04-3.7-9.04-8.48
		S236.71,153.6,241.89,153.6z M241.89,166.24c2.28,0,4.03-1.85,4.03-4.16s-1.75-4.16-4.03-4.16s-4.03,1.85-4.03,4.16
		S239.62,166.24,241.89,166.24z"/>
	<path class="st1" d="M254.07,153.96h4.95v1.49l0.07,0.03c1.25-1.02,2.97-1.88,5.02-1.88c1.72,0,3.23,0.59,4.26,1.65
		c0.99,1.06,1.42,2.48,1.42,4.82v10.13h-5.02v-9.31c0-1.22-0.17-1.82-0.56-2.28c-0.43-0.5-1.02-0.69-1.72-0.69
		c-1.29,0-2.51,0.66-3.4,1.35v10.92h-5.02V153.96z"/>
	<path class="st1" d="M283.01,169.21c-1.06,0.76-2.67,1.35-4.52,1.35c-1.39,0-2.71-0.33-3.76-1.06c-1.19-0.83-1.91-2.11-1.91-3.79
		c0-1.78,0.83-3.14,1.98-3.93c1.25-0.86,2.87-1.16,4.55-1.16c0.96,0,1.91,0.1,2.81,0.3v-0.63c0-0.79-0.26-1.39-0.63-1.72
		c-0.46-0.43-1.32-0.69-2.51-0.69c-1.82,0-3.47,0.59-4.75,1.29v-4.32c1.32-0.66,3.3-1.25,5.68-1.25c2.18,0,4.13,0.5,5.41,1.55
		c1.22,0.99,1.82,2.44,1.82,4.49v5.51c0,0.76,0.3,1.29,0.99,1.29c0.26,0,0.56-0.07,0.83-0.2V170c-0.56,0.3-1.45,0.5-2.41,0.5
		c-1.32,0-2.61-0.36-3.5-1.29H283.01z M282.15,163.83c-0.53-0.17-1.25-0.23-1.78-0.23c-1.29,0-2.57,0.4-2.57,1.65
		c0,1.06,0.92,1.62,2.08,1.62c0.86,0,1.68-0.3,2.28-0.66V163.83z"/>
	<path class="st1" d="M291.59,144.98h5.02v25.22h-5.02V144.98z"/>
	<path class="st1" d="M304.89,163.4c0.56,2.24,2.41,3.27,4.72,3.27c1.81,0,3.8-0.63,5.51-1.78v4.19c-1.58,0.99-4.03,1.49-6.17,1.49
		c-5.35,0-9.21-3.33-9.21-8.42c0-5.18,4.03-8.55,8.52-8.55c3.99,0,7.76,2.64,7.76,8.09c0,0.56-0.03,1.29-0.1,1.72H304.89z
		 M311.39,160.23c-0.3-1.75-1.58-2.8-3.2-2.8c-1.55,0-2.9,0.96-3.33,2.8H311.39z"/>
	<path class="st1" d="M327.2,146.3h5.25v19.31h10.46v4.59H327.2V146.3z"/>
	<path class="st1" d="M353.2,153.6c5.18,0,9.04,3.7,9.04,8.48s-3.86,8.48-9.04,8.48c-5.18,0-9.04-3.7-9.04-8.48
		S348.02,153.6,353.2,153.6z M353.2,166.24c2.28,0,4.03-1.85,4.03-4.16s-1.75-4.16-4.03-4.16s-4.03,1.85-4.03,4.16
		S350.92,166.24,353.2,166.24z"/>
	<path class="st1" d="M375.91,169.67c-0.76,0.5-2.24,0.89-3.66,0.89c-1.65,0-3.2-0.53-4.22-1.62c-0.86-0.92-1.42-2.28-1.42-4.85
		v-5.97h-2.64v-4.16h2.64v-4.22l5.02-0.86v5.08h4.29v4.16h-4.29v5.45c0,1.58,0.36,2.77,1.88,2.77c0.83,0,1.75-0.33,2.41-0.66V169.67
		z"/>
	<path class="st1" d="M382.77,163.4c0.56,2.24,2.41,3.27,4.72,3.27c1.81,0,3.8-0.63,5.51-1.78v4.19c-1.58,0.99-4.03,1.49-6.17,1.49
		c-5.35,0-9.21-3.33-9.21-8.42c0-5.18,4.03-8.55,8.52-8.55c3.99,0,7.76,2.64,7.76,8.09c0,0.56-0.03,1.29-0.1,1.72H382.77z
		 M389.27,160.23c-0.3-1.75-1.58-2.8-3.2-2.8c-1.55,0-2.9,0.96-3.33,2.8H389.27z"/>
	<path class="st1" d="M397.16,153.96h4.92v2.18l0.07,0.03c1.12-1.58,2.71-2.41,4.72-2.41c0.33,0,0.69,0.03,1.06,0.13v4.72
		c-0.4-0.1-0.89-0.17-1.35-0.17c-1.75,0-3.2,0.53-4.39,1.92v9.83h-5.02V153.96z"/>
	<path class="st1" d="M412.9,145.94c1.58,0,2.9,1.29,2.9,2.87c0,1.58-1.32,2.87-2.9,2.87c-1.58,0-2.9-1.29-2.9-2.87
		C409.99,147.23,411.31,145.94,412.9,145.94z M410.39,153.96h5.02v16.24h-5.02V153.96z"/>
	<path class="st1" d="M419.66,153.96h5.02v16.7c0,3-0.53,4.42-1.49,5.41c-1.22,1.25-3.17,1.75-4.92,1.75
		c-0.92,0-1.78-0.13-2.28-0.26v-4.13c0.53,0.1,1.19,0.17,1.65,0.17c1.75,0,2.01-0.96,2.01-2.61V153.96z M422.17,145.94
		c1.58,0,2.91,1.29,2.91,2.87c0,1.58-1.32,2.87-2.91,2.87c-1.58,0-2.9-1.29-2.9-2.87C419.27,147.23,420.59,145.94,422.17,145.94z"/>
	<path class="st1" d="M431.81,164.62c1.65,0,3.04,1.32,3.04,2.97s-1.39,2.97-3.04,2.97s-3.04-1.32-3.04-2.97
		S430.16,164.62,431.81,164.62z"/>
	<path class="st1" d="M455.4,159.77c-1.19-1.68-2.38-3.43-3.5-5.12l-0.07,0.03c0.03,1.72,0.07,3.96,0.07,5.94v9.57h-5.05v-23.9h5.05
		l7.1,10.1l7.1-10.1h4.98v23.9h-5.25v-9.57c0-1.98,0.03-4.22,0.07-5.94l-0.07-0.03c-1.12,1.68-2.31,3.43-3.5,5.12l-3.47,4.92
		L455.4,159.77z"/>
	<path class="st1" d="M479.46,163.4c0.56,2.24,2.41,3.27,4.72,3.27c1.82,0,3.8-0.63,5.51-1.78v4.19c-1.58,0.99-4.03,1.49-6.17,1.49
		c-5.35,0-9.21-3.33-9.21-8.42c0-5.18,4.03-8.55,8.51-8.55c3.99,0,7.76,2.64,7.76,8.09c0,0.56-0.03,1.29-0.1,1.72H479.46z
		 M485.96,160.23c-0.3-1.75-1.58-2.8-3.2-2.8c-1.55,0-2.9,0.96-3.33,2.8H485.96z"/>
	<path class="st1" d="M497.97,163.4c0.56,2.24,2.41,3.27,4.72,3.27c1.82,0,3.79-0.63,5.51-1.78v4.19c-1.58,0.99-4.03,1.49-6.17,1.49
		c-5.35,0-9.21-3.33-9.21-8.42c0-5.18,4.03-8.55,8.52-8.55c3.99,0,7.76,2.64,7.76,8.09c0,0.56-0.03,1.29-0.1,1.72H497.97z
		 M504.47,160.23c-0.3-1.75-1.58-2.8-3.2-2.8c-1.55,0-2.9,0.96-3.33,2.8H504.47z"/>
	<path class="st1" d="M512.36,153.96h4.92v2.18l0.07,0.03c1.12-1.58,2.71-2.41,4.72-2.41c0.33,0,0.69,0.03,1.06,0.13v4.72
		c-0.4-0.1-0.89-0.17-1.35-0.17c-1.75,0-3.2,0.53-4.39,1.92v9.83h-5.02V153.96z"/>
	<path class="st1" d="M544.27,169.31c-1.09,0.76-2.54,1.25-4.13,1.25c-4.09,0-7.62-3.17-7.62-8.15c0-5.12,3.73-8.81,8.58-8.81
		c1.22,0,2.21,0.23,3.07,0.59l0.07-0.03v-9.18h5.02v25.22h-4.92v-0.86L544.27,169.31z M544.24,158.38
		c-0.73-0.36-1.62-0.63-2.61-0.63c-2.64,0-4.06,1.98-4.06,4.42c0,2.41,1.39,4.29,3.86,4.29c1.09,0,2.08-0.36,2.81-0.83V158.38z"/>
	<path class="st1" d="M562.55,169.21c-1.06,0.76-2.67,1.35-4.52,1.35c-1.39,0-2.71-0.33-3.76-1.06c-1.19-0.83-1.91-2.11-1.91-3.79
		c0-1.78,0.83-3.14,1.98-3.93c1.25-0.86,2.87-1.16,4.55-1.16c0.96,0,1.92,0.1,2.81,0.3v-0.63c0-0.79-0.26-1.39-0.63-1.72
		c-0.46-0.43-1.32-0.69-2.51-0.69c-1.82,0-3.47,0.59-4.75,1.29v-4.32c1.32-0.66,3.3-1.25,5.68-1.25c2.18,0,4.13,0.5,5.41,1.55
		c1.22,0.99,1.81,2.44,1.81,4.49v5.51c0,0.76,0.3,1.29,0.99,1.29c0.26,0,0.56-0.07,0.83-0.2V170c-0.56,0.3-1.45,0.5-2.41,0.5
		c-1.32,0-2.61-0.36-3.5-1.29H562.55z M561.69,163.83c-0.53-0.17-1.25-0.23-1.78-0.23c-1.29,0-2.57,0.4-2.57,1.65
		c0,1.06,0.92,1.62,2.08,1.62c0.86,0,1.68-0.3,2.28-0.66V163.83z"/>
	<path class="st1" d="M571.13,153.96h4.95v1.49l0.07,0.03c1.25-1.02,2.97-1.88,5.02-1.88c1.72,0,3.24,0.59,4.26,1.65
		c0.99,1.06,1.42,2.48,1.42,4.82v10.13h-5.02v-9.31c0-1.22-0.17-1.82-0.56-2.28c-0.43-0.5-1.02-0.69-1.72-0.69
		c-1.29,0-2.51,0.66-3.4,1.35v10.92h-5.02V153.96z"/>
	<path class="st1" d="M598.29,164.82c2.24,1.32,4.85,1.88,6.4,1.88c1.39,0,2.21-0.36,2.21-1.25c0-1.25-1.82-1.12-4.26-1.75
		c-3.07-0.76-4.88-2.05-4.88-4.72c0.03-3.43,3.07-5.38,7.1-5.38c1.95,0,4.36,0.4,6.2,1.29v4.32c-2.14-1.22-4.65-1.75-6.11-1.75
		c-1.32,0-2.11,0.4-2.11,1.16c0,1.19,1.75,1.09,4.16,1.68c3.1,0.76,4.98,1.95,4.98,4.75c-0.03,3.56-3.14,5.51-7.29,5.51
		c-1.95,0-4.46-0.4-6.4-1.35V164.82z"/>
	<path class="st1" d="M620.07,177.46h-5.02v-23.5h4.92v0.83l0.07,0.03c1.06-0.73,2.41-1.22,4.03-1.22c4.16,0,7.69,3.3,7.69,8.35
		c0,5.21-3.73,8.61-8.48,8.61c-1.32,0-2.38-0.26-3.14-0.63l-0.07,0.03V177.46z M622.64,166.5c2.61,0,4.06-1.88,4.06-4.29
		c0-2.44-1.45-4.42-3.93-4.42c-1.02,0-1.98,0.36-2.71,0.89v7.2C620.69,166.21,621.62,166.5,622.64,166.5z"/>
	<path class="st1" d="M639.11,163.4c0.56,2.24,2.41,3.27,4.72,3.27c1.82,0,3.79-0.63,5.51-1.78v4.19c-1.58,0.99-4.03,1.49-6.17,1.49
		c-5.35,0-9.21-3.33-9.21-8.42c0-5.18,4.03-8.55,8.51-8.55c3.99,0,7.76,2.64,7.76,8.09c0,0.56-0.03,1.29-0.1,1.72H639.11z
		 M645.61,160.23c-0.3-1.75-1.58-2.8-3.2-2.8c-1.55,0-2.91,0.96-3.33,2.8H645.61z"/>
	<path class="st1" d="M653.5,144.98h5.02v25.22h-5.02V144.98z"/>
	<path class="st1" d="M666.8,163.4c0.56,2.24,2.41,3.27,4.72,3.27c1.82,0,3.79-0.63,5.51-1.78v4.19c-1.58,0.99-4.03,1.49-6.17,1.49
		c-5.35,0-9.21-3.33-9.21-8.42c0-5.18,4.03-8.55,8.51-8.55c3.99,0,7.76,2.64,7.76,8.09c0,0.56-0.03,1.29-0.1,1.72H666.8z
		 M673.3,160.23c-0.3-1.75-1.58-2.8-3.2-2.8c-1.55,0-2.91,0.96-3.33,2.8H673.3z"/>
	<path class="st1" d="M681.18,153.96h4.95v1.49l0.07,0.03c1.25-1.02,2.97-1.88,5.02-1.88c1.72,0,3.24,0.59,4.26,1.65
		c0.99,1.06,1.42,2.48,1.42,4.82v10.13h-5.02v-9.31c0-1.22-0.17-1.82-0.56-2.28c-0.43-0.5-1.02-0.69-1.72-0.69
		c-1.29,0-2.51,0.66-3.4,1.35v10.92h-5.02V153.96z"/>
	<path class="st1" d="M703.95,164.62c1.65,0,3.04,1.32,3.04,2.97s-1.39,2.97-3.04,2.97s-3.04-1.32-3.04-2.97
		S702.3,164.62,703.95,164.62z"/>
</g>
<g>
	<g>
		<path class="st2" d="M70.78,33.48c-22.88,0-41.43,18.55-41.43,41.43c0,22.88,18.55,41.43,41.43,41.43
			c14.16,0,25.64-11.48,25.64-25.64c0-14.16-9.86-25.93-25.64-25.64c-5.45,0.1-10.03-3.61-9.86-9.86c0.17-6.25,6.26-9.33,11.98-9.58
			c13.78-0.61,23.95,7.48,29.77,19.16c2.32,4.83,3.67,10.71,3.67,16.43c0,8.31-3,15.56-7.69,21.64c-0.31,0.41-0.38,1.03,0,1.41
			c0.38,0.38,1,0.38,1.38,0c3.6-3.59,12.18-13.56,12.18-29.34C112.21,52.03,93.66,33.48,70.78,33.48z M70.78,74.91
			c8.72,0,15.78,7.07,15.78,15.78c0,8.72-7.07,15.78-15.78,15.78S55,99.4,55,90.69C55,81.97,62.07,74.91,70.78,74.91z"/>
	</g>
</g>
<g>
	<g>
		<path class="st2" d="M263.02,61.17c2.93,1.98,6.61,2.85,8.78,2.85c2.2,0,3.84-0.87,3.84-2.93c0-2.55-2.58-2.77-6.12-3.91
			c-3.8-1.25-7.22-3.12-7.22-7.9c0-5.13,3.88-8.32,9.65-8.32c2.7,0,6,0.68,8.4,1.98v5.96c-2.93-1.82-6.31-2.66-8.43-2.66
			c-2.05,0-3.53,0.76-3.53,2.58c0,2.43,2.55,2.62,5.85,3.72c4.14,1.37,7.49,3.31,7.49,8.17c0,5.36-4.07,8.59-9.99,8.59
			c-2.74,0-6.12-0.68-8.7-2.01V61.17z"/>
	</g>
	<g>
		<path class="st2" d="M290.91,77.24h-5.78V50.19h5.66v0.95l0.08,0.04c1.22-0.84,2.77-1.41,4.64-1.41c4.79,0,8.85,3.8,8.85,9.61
			c0,6-4.29,9.92-9.76,9.92c-1.52,0-2.74-0.3-3.61-0.72l-0.08,0.04V77.24z M293.87,64.63c3,0,4.67-2.17,4.67-4.94
			c0-2.81-1.67-5.09-4.52-5.09c-1.18,0-2.28,0.42-3.12,1.03v8.28C291.63,64.29,292.69,64.63,293.87,64.63z"/>
	</g>
	<g>
		<path class="st2" d="M312.83,61.06c0.65,2.58,2.77,3.76,5.43,3.76c2.09,0,4.37-0.72,6.35-2.05v4.83
			c-1.82,1.14-4.64,1.71-7.11,1.71c-6.15,0-10.6-3.84-10.6-9.69c0-5.97,4.64-9.84,9.8-9.84c4.6,0,8.93,3.04,8.93,9.31
			c0,0.65-0.04,1.48-0.11,1.98H312.83z M320.32,57.41c-0.34-2.01-1.82-3.23-3.69-3.23c-1.79,0-3.34,1.1-3.84,3.23H320.32z"/>
	</g>
	<g>
		<path class="st2" d="M329.4,39.86h5.77v29.03h-5.77V39.86z"/>
	</g>
	<g>
		<path class="st2" d="M344.71,61.06c0.65,2.58,2.77,3.76,5.43,3.76c2.09,0,4.37-0.72,6.35-2.05v4.83c-1.82,1.14-4.64,1.71-7.1,1.71
			c-6.16,0-10.6-3.84-10.6-9.69c0-5.97,4.64-9.84,9.8-9.84c4.6,0,8.93,3.04,8.93,9.31c0,0.65-0.04,1.48-0.11,1.98H344.71z
			 M352.2,57.41c-0.34-2.01-1.82-3.23-3.69-3.23c-1.79,0-3.34,1.1-3.84,3.23H352.2z"/>
	</g>
	<g>
		<path class="st2" d="M361.28,50.19h5.7v1.71l0.08,0.04c1.44-1.18,3.42-2.17,5.78-2.17c1.98,0,3.72,0.68,4.9,1.9
			c1.14,1.22,1.63,2.85,1.63,5.55v11.66h-5.78V58.17c0-1.41-0.19-2.09-0.65-2.62c-0.49-0.57-1.18-0.8-1.98-0.8
			c-1.48,0-2.89,0.76-3.91,1.56v12.58h-5.77V50.19z"/>
	</g>
	<g>
		<path class="st2" d="M417.25,58.09c0-1.41-0.23-2.05-0.68-2.55c-0.53-0.57-1.22-0.8-1.98-0.8c-1.33,0-2.7,0.68-3.69,1.56
			c0.04,0.27,0.04,0.57,0.04,0.84v11.74h-5.78V58.09c0-1.25-0.19-2.01-0.68-2.55c-0.53-0.57-1.22-0.8-1.98-0.8
			c-1.33,0-2.7,0.72-3.65,1.52v12.61h-5.77V50.19h5.7v1.67l0.08,0.04c1.44-1.22,3.34-2.13,5.62-2.13c2.01,0,4.33,0.8,5.43,2.66
			c2.01-1.79,4.22-2.66,6.57-2.66c2.09,0,3.72,0.72,4.83,1.86c1.18,1.22,1.71,2.85,1.71,5.51v11.74h-5.78V58.09z"/>
	</g>
	<g>
		<path class="st2" d="M436.98,49.77c5.96,0,10.41,4.26,10.41,9.76c0,5.51-4.45,9.76-10.41,9.76s-10.41-4.26-10.41-9.76
			C426.57,54.03,431.01,49.77,436.98,49.77z M436.98,64.32c2.62,0,4.64-2.13,4.64-4.79c0-2.66-2.01-4.79-4.64-4.79
			c-2.62,0-4.64,2.13-4.64,4.79C432.34,62.2,434.35,64.32,436.98,64.32z"/>
	</g>
	<g>
		<path class="st2" d="M455.75,61.06c0.65,2.58,2.77,3.76,5.43,3.76c2.09,0,4.37-0.72,6.34-2.05v4.83c-1.82,1.14-4.63,1.71-7.1,1.71
			c-6.16,0-10.6-3.84-10.6-9.69c0-5.97,4.64-9.84,9.8-9.84c4.6,0,8.93,3.04,8.93,9.31c0,0.65-0.04,1.48-0.11,1.98H455.75z
			 M463.23,57.41c-0.34-2.01-1.82-3.23-3.69-3.23c-1.79,0-3.34,1.1-3.84,3.23H463.23z"/>
	</g>
	<g>
		<path class="st2" d="M484.1,68.28c-0.87,0.57-2.58,1.03-4.22,1.03c-1.9,0-3.69-0.61-4.86-1.86c-0.99-1.06-1.63-2.62-1.63-5.58
			v-6.88h-3.04v-4.79h3.04v-4.86l5.78-0.99v5.85h4.94v4.79h-4.94v6.27c0,1.82,0.42,3.19,2.17,3.19c0.95,0,2.01-0.38,2.77-0.76V68.28
			z"/>
	</g>
	<g>
		<path class="st2" d="M502.34,77.24h-5.78V50.19h5.66v0.95l0.08,0.04c1.22-0.84,2.77-1.41,4.64-1.41c4.79,0,8.85,3.8,8.85,9.61
			c0,6-4.29,9.92-9.76,9.92c-1.52,0-2.74-0.3-3.61-0.72l-0.08,0.04V77.24z M505.3,64.63c3,0,4.67-2.17,4.67-4.94
			c0-2.81-1.67-5.09-4.52-5.09c-1.18,0-2.28,0.42-3.12,1.03v8.28C503.06,64.29,504.12,64.63,505.3,64.63z"/>
	</g>
	<g>
		<path class="st2" d="M519.51,39.86h5.77v29.03h-5.77V39.86z"/>
	</g>
	<g>
		<path class="st2" d="M534.83,61.06c0.65,2.58,2.77,3.76,5.43,3.76c2.09,0,4.37-0.72,6.34-2.05v4.83c-1.82,1.14-4.63,1.71-7.1,1.71
			c-6.16,0-10.6-3.84-10.6-9.69c0-5.97,4.64-9.84,9.8-9.84c4.6,0,8.93,3.04,8.93,9.31c0,0.65-0.04,1.48-0.11,1.98H534.83z
			 M542.31,57.41c-0.34-2.01-1.82-3.23-3.69-3.23c-1.79,0-3.34,1.1-3.84,3.23H542.31z"/>
	</g>
	<g>
		<path class="st2" d="M549.15,68.88l-0.04-0.08l8.4-13.75l-0.04-0.08h-7.52v-4.79h16.57l0.04,0.08l-8.4,13.75l0.04,0.08h8.13v4.79
			H549.15z"/>
	</g>
	<g>
		<path class="st2" d="M580.12,67.74c-1.22,0.87-3.08,1.56-5.21,1.56c-1.6,0-3.12-0.38-4.33-1.22c-1.37-0.95-2.2-2.43-2.2-4.37
			c0-2.05,0.95-3.61,2.28-4.52c1.44-0.99,3.31-1.33,5.24-1.33c1.1,0,2.2,0.11,3.23,0.34v-0.72c0-0.91-0.3-1.6-0.72-1.98
			c-0.53-0.49-1.52-0.8-2.89-0.8c-2.09,0-3.99,0.68-5.47,1.48v-4.98c1.52-0.76,3.8-1.44,6.54-1.44c2.51,0,4.75,0.57,6.23,1.79
			c1.41,1.14,2.09,2.81,2.09,5.17v6.34c0,0.87,0.34,1.48,1.14,1.48c0.3,0,0.65-0.08,0.95-0.23v4.33c-0.65,0.34-1.67,0.57-2.77,0.57
			c-1.52,0-3-0.42-4.03-1.48H580.12z M579.13,61.55c-0.61-0.19-1.44-0.27-2.05-0.27c-1.48,0-2.96,0.46-2.96,1.9
			c0,1.22,1.06,1.86,2.39,1.86c0.99,0,1.94-0.34,2.62-0.76V61.55z"/>
	</g>
	<g>
		<path class="st2" d="M590,50.19h5.7v1.71l0.08,0.04c1.44-1.18,3.42-2.17,5.78-2.17c1.98,0,3.72,0.68,4.9,1.9
			c1.14,1.22,1.63,2.85,1.63,5.55v11.66h-5.78V58.17c0-1.41-0.19-2.09-0.65-2.62c-0.49-0.57-1.18-0.8-1.98-0.8
			c-1.48,0-2.89,0.76-3.91,1.56v12.58H590V50.19z"/>
	</g>
	<g>
		<path class="st2" d="M624.92,68.28c-0.87,0.57-2.58,1.03-4.22,1.03c-1.9,0-3.69-0.61-4.86-1.86c-0.99-1.06-1.63-2.62-1.63-5.58
			v-6.88h-3.04v-4.79h3.04v-4.86l5.78-0.99v5.85h4.94v4.79h-4.94v6.27c0,1.82,0.42,3.19,2.17,3.19c0.95,0,2.01-0.38,2.77-0.76V68.28
			z"/>
	</g>
	<g>
		<path class="st2" d="M637.39,39.86h5.78v11.17l0.08,0.04c1.14-0.76,2.81-1.29,4.6-1.29c4.63,0,8.81,3.61,8.81,9.42
			c0,5.93-4.29,10.11-10.11,10.11c-1.82,0-3.34-0.42-4.64-0.95l-4.52,0.76V39.86z M646.13,64.63c3.12,0,4.71-2.43,4.71-5.17
			s-1.63-4.86-4.48-4.86c-1.25,0-2.36,0.42-3.19,0.91v8.4C643.92,64.32,645.06,64.63,646.13,64.63z"/>
	</g>
	<g>
		<path class="st2" d="M660.38,39.86h5.78v29.03h-5.78V39.86z"/>
	</g>
	<g>
		<path class="st2" d="M673.83,40.96c1.82,0,3.34,1.48,3.34,3.31s-1.52,3.31-3.34,3.31c-1.82,0-3.34-1.48-3.34-3.31
			S672,40.96,673.83,40.96z M670.94,50.19h5.77v18.69h-5.77V50.19z"/>
	</g>
	<g>
		<path class="st2" d="M681.62,50.19h5.78v19.23c0,3.46-0.61,5.09-1.71,6.23c-1.41,1.44-3.65,2.01-5.66,2.01
			c-1.06,0-2.05-0.15-2.62-0.3v-4.75c0.61,0.11,1.37,0.19,1.9,0.19c2.01,0,2.32-1.1,2.32-3V50.19z M684.51,40.96
			c1.82,0,3.34,1.48,3.34,3.31s-1.52,3.31-3.34,3.31c-1.82,0-3.34-1.48-3.34-3.31S682.68,40.96,684.51,40.96z"/>
	</g>
	<g>
		<path class="st2" d="M690.02,50.19h6.08l2.2,6c0.72,1.98,1.44,4.03,2.09,5.93h0.08c0.68-1.9,1.48-4.03,2.24-5.97l2.32-5.96h5.7
			l-7.6,18.69h-5.51L690.02,50.19z"/>
	</g>
	<g>
		<path class="st2" d="M717.3,61.06c0.65,2.58,2.77,3.76,5.43,3.76c2.09,0,4.37-0.72,6.34-2.05v4.83c-1.82,1.14-4.63,1.71-7.1,1.71
			c-6.16,0-10.6-3.84-10.6-9.69c0-5.97,4.63-9.84,9.8-9.84c4.6,0,8.93,3.04,8.93,9.31c0,0.65-0.04,1.48-0.11,1.98H717.3z
			 M724.78,57.41c-0.34-2.01-1.82-3.23-3.69-3.23c-1.79,0-3.34,1.1-3.84,3.23H724.78z"/>
	</g>
	<g>
		<path class="st2" d="M733.87,50.19h5.7v1.71l0.08,0.04c1.44-1.18,3.42-2.17,5.77-2.17c1.98,0,3.72,0.68,4.9,1.9
			c1.14,1.22,1.63,2.85,1.63,5.55v11.66h-5.77V58.17c0-1.41-0.19-2.09-0.65-2.62c-0.49-0.57-1.18-0.8-1.98-0.8
			c-1.48,0-2.89,0.76-3.91,1.56v12.58h-5.78V50.19z"/>
	</g>
	<g>
		<path class="st2" d="M760.09,62.46c1.9,0,3.5,1.52,3.5,3.42c0,1.9-1.6,3.42-3.5,3.42c-1.9,0-3.5-1.52-3.5-3.42
			C756.59,63.98,758.19,62.46,760.09,62.46z"/>
	</g>
	<g>
		<path class="st2" d="M263.36,82.38h7.71c4.9,0,8.7,0.8,11.55,2.77c3.38,2.36,5.28,6.23,5.28,10.94c0,4.33-1.63,8.02-4.56,10.41
			c-2.81,2.28-6.76,3.38-12.54,3.38h-7.45V82.38z M271.07,104.6c3.91,0,6.42-0.68,8.13-2.17c1.63-1.41,2.66-3.61,2.66-6.34
			c0-2.89-1.14-5.32-3.19-6.76c-1.94-1.37-4.56-1.67-7.64-1.67h-1.63v16.95H271.07z"/>
	</g>
	<g>
		<path class="st2" d="M302,108.74c-1.22,0.88-3.08,1.56-5.21,1.56c-1.6,0-3.12-0.38-4.33-1.22c-1.37-0.95-2.2-2.43-2.2-4.37
			c0-2.05,0.95-3.61,2.28-4.52c1.44-0.99,3.31-1.33,5.24-1.33c1.1,0,2.2,0.11,3.23,0.34v-0.72c0-0.91-0.3-1.6-0.72-1.98
			c-0.53-0.49-1.52-0.8-2.89-0.8c-2.09,0-3.99,0.68-5.47,1.48v-4.98c1.52-0.76,3.8-1.44,6.53-1.44c2.51,0,4.75,0.57,6.23,1.79
			c1.41,1.14,2.09,2.81,2.09,5.17v6.34c0,0.87,0.34,1.48,1.14,1.48c0.3,0,0.65-0.08,0.95-0.23v4.33c-0.65,0.34-1.67,0.57-2.77,0.57
			c-1.52,0-3-0.42-4.03-1.48H302z M301.01,102.55c-0.61-0.19-1.44-0.27-2.05-0.27c-1.48,0-2.96,0.46-2.96,1.9
			c0,1.22,1.06,1.86,2.39,1.86c0.99,0,1.94-0.34,2.62-0.76V102.55z"/>
	</g>
	<g>
		<path class="st2" d="M322.41,108.74c-1.22,0.88-3.08,1.56-5.21,1.56c-1.6,0-3.12-0.38-4.33-1.22c-1.37-0.95-2.2-2.43-2.2-4.37
			c0-2.05,0.95-3.61,2.28-4.52c1.44-0.99,3.31-1.33,5.24-1.33c1.1,0,2.2,0.11,3.23,0.34v-0.72c0-0.91-0.3-1.6-0.72-1.98
			c-0.53-0.49-1.52-0.8-2.89-0.8c-2.09,0-3.99,0.68-5.47,1.48v-4.98c1.52-0.76,3.8-1.44,6.54-1.44c2.51,0,4.75,0.57,6.23,1.79
			c1.41,1.14,2.09,2.81,2.09,5.17v6.34c0,0.87,0.34,1.48,1.14,1.48c0.3,0,0.65-0.08,0.95-0.23v4.33c-0.65,0.34-1.67,0.57-2.77,0.57
			c-1.52,0-3-0.42-4.03-1.48H322.41z M321.42,102.55c-0.61-0.19-1.44-0.27-2.05-0.27c-1.48,0-2.96,0.46-2.96,1.9
			c0,1.22,1.06,1.86,2.39,1.86c0.99,0,1.94-0.34,2.62-0.76V102.55z"/>
	</g>
	<g>
		<path class="st2" d="M332.29,91.19h5.66v2.51l0.08,0.04c1.29-1.82,3.12-2.77,5.43-2.77c0.38,0,0.8,0.04,1.22,0.15v5.43
			c-0.46-0.11-1.03-0.19-1.56-0.19c-2.01,0-3.69,0.61-5.05,2.2v11.32h-5.78V91.19z"/>
	</g>
	<g>
		<path class="st2" d="M354.71,109.88l-0.04-0.08l8.4-13.75l-0.04-0.08h-7.52v-4.79h16.57l0.04,0.08l-8.4,13.75l0.04,0.08h8.13v4.79
			H354.71z"/>
	</g>
	<g>
		<path class="st2" d="M384.23,90.77c5.97,0,10.41,4.26,10.41,9.76c0,5.51-4.45,9.76-10.41,9.76c-5.96,0-10.41-4.26-10.41-9.76
			C373.82,95.03,378.27,90.77,384.23,90.77z M384.23,105.32c2.62,0,4.64-2.13,4.64-4.79c0-2.66-2.01-4.79-4.64-4.79
			c-2.62,0-4.63,2.13-4.63,4.79C379.6,103.2,381.61,105.32,384.23,105.32z"/>
	</g>
	<g>
		<path class="st2" d="M398.26,91.19h5.66v2.51l0.08,0.04c1.29-1.82,3.12-2.77,5.43-2.77c0.38,0,0.8,0.04,1.22,0.15v5.43
			c-0.46-0.11-1.03-0.19-1.56-0.19c-2.01,0-3.69,0.61-5.05,2.2v11.32h-5.78V91.19z"/>
	</g>
	<g>
		<path class="st2" d="M414.82,111.82c1.9,1.18,4.07,1.9,6.04,1.9c2.81,0,4.56-1.44,4.56-4.22v-1.03l-0.08-0.04
			c-1.1,0.8-2.81,1.25-4.37,1.25c-4.52,0-8.7-3.5-8.7-9.16c0-5.47,3.91-9.76,9.73-9.76c1.79,0,3.34,0.42,4.67,1.06l4.52-0.8v18.47
			c0,5.89-4.03,9.16-9.99,9.16c-2.39,0-4.75-0.57-6.38-1.37V111.82z M425.42,96.36c-0.72-0.38-1.82-0.68-2.85-0.68
			c-3,0-4.45,2.2-4.45,4.64c0,2.73,1.67,4.67,4.37,4.67c1.03,0,2.13-0.3,2.93-0.8V96.36z"/>
	</g>
	<g>
		<path class="st2" d="M440.82,102.06c0.65,2.58,2.77,3.76,5.43,3.76c2.09,0,4.37-0.72,6.35-2.05v4.83
			c-1.82,1.14-4.64,1.71-7.11,1.71c-6.15,0-10.6-3.84-10.6-9.69c0-5.96,4.63-9.84,9.8-9.84c4.6,0,8.93,3.04,8.93,9.31
			c0,0.65-0.04,1.48-0.11,1.98H440.82z M448.3,98.41c-0.34-2.01-1.82-3.23-3.69-3.23c-1.79,0-3.34,1.1-3.84,3.23H448.3z"/>
	</g>
	<g>
		<path class="st2" d="M457.38,91.19h5.7v1.71l0.08,0.04c1.44-1.18,3.42-2.17,5.77-2.17c1.98,0,3.72,0.68,4.9,1.9
			c1.14,1.22,1.63,2.85,1.63,5.55v11.66h-5.77V99.17c0-1.41-0.19-2.09-0.65-2.62c-0.49-0.57-1.18-0.8-1.98-0.8
			c-1.48,0-2.89,0.76-3.91,1.56v12.58h-5.78V91.19z"/>
	</g>
	<g>
		<path class="st2" d="M487.25,91.19h6l1.9,5.89c0.61,1.86,1.14,3.61,1.63,5.4h0.08c0.53-1.75,1.14-3.61,1.75-5.4l2.01-5.89h4.29
			l1.98,5.89c0.65,1.94,1.18,3.61,1.71,5.4h0.08c0.49-1.79,1.03-3.5,1.63-5.4l1.9-5.89h5.58l-6.38,18.69h-5.4l-1.67-4.98
			c-0.61-1.82-1.18-3.65-1.67-5.36h-0.08c-0.49,1.71-1.06,3.46-1.71,5.32l-1.71,5.02h-5.55L487.25,91.19z"/>
	</g>
	<g>
		<path class="st2" d="M524.79,102.06c0.65,2.58,2.77,3.76,5.43,3.76c2.09,0,4.37-0.72,6.34-2.05v4.83
			c-1.82,1.14-4.63,1.71-7.1,1.71c-6.16,0-10.6-3.84-10.6-9.69c0-5.96,4.63-9.84,9.8-9.84c4.6,0,8.93,3.04,8.93,9.31
			c0,0.65-0.04,1.48-0.11,1.98H524.79z M532.28,98.41c-0.34-2.01-1.82-3.23-3.69-3.23c-1.79,0-3.34,1.1-3.84,3.23H532.28z"/>
	</g>
	<g>
		<path class="st2" d="M549.84,103.69c2.58,1.52,5.58,2.17,7.37,2.17c1.6,0,2.55-0.42,2.55-1.44c0-1.44-2.09-1.29-4.9-2.01
			c-3.53-0.87-5.62-2.36-5.62-5.43c0.04-3.95,3.53-6.19,8.17-6.19c2.24,0,5.02,0.46,7.14,1.48v4.98c-2.47-1.41-5.36-2.01-7.03-2.01
			c-1.52,0-2.43,0.46-2.43,1.33c0,1.37,2.01,1.25,4.79,1.94c3.57,0.87,5.74,2.24,5.74,5.47c-0.04,4.1-3.61,6.35-8.4,6.35
			c-2.24,0-5.13-0.46-7.37-1.56V103.69z"/>
	</g>
	<g>
		<path class="st2" d="M579.66,108.74c-1.21,0.88-3.08,1.56-5.21,1.56c-1.6,0-3.12-0.38-4.33-1.22c-1.37-0.95-2.2-2.43-2.2-4.37
			c0-2.05,0.95-3.61,2.28-4.52c1.44-0.99,3.31-1.33,5.24-1.33c1.1,0,2.2,0.11,3.23,0.34v-0.72c0-0.91-0.3-1.6-0.72-1.98
			c-0.53-0.49-1.52-0.8-2.89-0.8c-2.09,0-3.99,0.68-5.47,1.48v-4.98c1.52-0.76,3.8-1.44,6.54-1.44c2.51,0,4.75,0.57,6.23,1.79
			c1.41,1.14,2.09,2.81,2.09,5.17v6.34c0,0.87,0.34,1.48,1.14,1.48c0.3,0,0.65-0.08,0.95-0.23v4.33c-0.65,0.34-1.67,0.57-2.77,0.57
			c-1.52,0-3-0.42-4.03-1.48H579.66z M578.68,102.55c-0.61-0.19-1.44-0.27-2.05-0.27c-1.48,0-2.96,0.46-2.96,1.9
			c0,1.22,1.06,1.86,2.39,1.86c0.99,0,1.94-0.34,2.62-0.76V102.55z"/>
	</g>
	<g>
		<path class="st2" d="M613.71,99.09c0-1.41-0.23-2.05-0.68-2.54c-0.53-0.57-1.22-0.8-1.98-0.8c-1.33,0-2.7,0.68-3.69,1.56
			c0.04,0.27,0.04,0.57,0.04,0.84v11.74h-5.77V99.09c0-1.25-0.19-2.01-0.68-2.54c-0.53-0.57-1.21-0.8-1.98-0.8
			c-1.33,0-2.7,0.72-3.65,1.52v12.61h-5.78V91.19h5.7v1.67l0.08,0.04c1.44-1.22,3.34-2.13,5.62-2.13c2.01,0,4.33,0.8,5.43,2.66
			c2.01-1.79,4.22-2.66,6.57-2.66c2.09,0,3.72,0.72,4.83,1.86c1.18,1.22,1.71,2.85,1.71,5.51v11.74h-5.78V99.09z"/>
	</g>
	<g>
		<path class="st2" d="M628.95,102.06c0.65,2.58,2.77,3.76,5.43,3.76c2.09,0,4.37-0.72,6.34-2.05v4.83
			c-1.82,1.14-4.63,1.71-7.1,1.71c-6.16,0-10.6-3.84-10.6-9.69c0-5.96,4.63-9.84,9.8-9.84c4.6,0,8.93,3.04,8.93,9.31
			c0,0.65-0.04,1.48-0.11,1.98H628.95z M636.44,98.41c-0.34-2.01-1.82-3.23-3.69-3.23c-1.79,0-3.34,1.1-3.84,3.23H636.44z"/>
	</g>
	<g>
		<path class="st2" d="M645.52,91.19h5.7v1.71l0.08,0.04c1.44-1.18,3.42-2.17,5.77-2.17c1.98,0,3.72,0.68,4.9,1.9
			c1.14,1.22,1.63,2.85,1.63,5.55v11.66h-5.77V99.17c0-1.41-0.19-2.09-0.65-2.62c-0.49-0.57-1.18-0.8-1.98-0.8
			c-1.48,0-2.89,0.76-3.91,1.56v12.58h-5.78V91.19z"/>
	</g>
	<g>
		<path class="st2" d="M675.16,91.19h6.08l2.2,6c0.72,1.98,1.44,4.03,2.09,5.93h0.08c0.68-1.9,1.48-4.03,2.24-5.96l2.32-5.96h5.7
			l-7.6,18.69h-5.51L675.16,91.19z"/>
	</g>
	<g>
		<path class="st2" d="M706.92,90.77c5.96,0,10.41,4.26,10.41,9.76c0,5.51-4.45,9.76-10.41,9.76c-5.97,0-10.41-4.26-10.41-9.76
			C696.51,95.03,700.96,90.77,706.92,90.77z M706.92,105.32c2.62,0,4.64-2.13,4.64-4.79c0-2.66-2.01-4.79-4.64-4.79
			c-2.62,0-4.64,2.13-4.64,4.79C702.29,103.2,704.3,105.32,706.92,105.32z"/>
	</g>
	<g>
		<path class="st2" d="M730.18,90.77c5.97,0,10.41,4.26,10.41,9.76c0,5.51-4.45,9.76-10.41,9.76c-5.96,0-10.41-4.26-10.41-9.76
			C719.77,95.03,724.22,90.77,730.18,90.77z M730.18,105.32c2.62,0,4.64-2.13,4.64-4.79c0-2.66-2.01-4.79-4.64-4.79
			c-2.62,0-4.63,2.13-4.63,4.79C725.55,103.2,727.56,105.32,730.18,105.32z"/>
	</g>
	<g>
		<path class="st2" d="M744.2,91.19h5.66v2.51l0.08,0.04c1.29-1.82,3.12-2.77,5.43-2.77c0.38,0,0.8,0.04,1.21,0.15v5.43
			c-0.46-0.11-1.03-0.19-1.56-0.19c-2.01,0-3.69,0.61-5.05,2.2v11.32h-5.78V91.19z"/>
	</g>
	<g>
		<path class="st2" d="M759.52,103.46c1.9,0,3.5,1.52,3.5,3.42c0,1.9-1.6,3.42-3.5,3.42c-1.9,0-3.5-1.52-3.5-3.42
			C756.02,104.98,757.62,103.46,759.52,103.46z"/>
	</g>
</g>
<g>
	<g>
		<path class="st2" d="M174.2,119.88c-24.77,0-44.93-20.17-44.93-44.97c0-24.79,20.16-44.97,44.93-44.97
			c24.78,0,44.94,20.17,44.94,44.97C219.14,99.7,198.98,119.88,174.2,119.88z M174.2,38.57c-20.02,0-36.3,16.3-36.3,36.34
			c0,20.04,16.28,36.34,36.3,36.34c20.03,0,36.31-16.3,36.31-36.34C210.51,54.87,194.23,38.57,174.2,38.57z"/>
	</g>
</g>
<g>
	
		<rect x="135.39" y="70.68" transform="matrix(0.7764 -0.6303 0.6303 0.7764 -8.7327 126.8628)" class="st2" width="78.04" height="10.11"/>
</g>
<g>
	<path class="st1" d="M146.35,75.31h10.55v5.3h-10.55V75.31z"/>
	<path class="st1" d="M163.7,67.02l-6.28,2.26v-6.15l13.07-4.74v31.4h-6.79V67.02z"/>
	<path class="st1" d="M194.8,73.43c3.38,1.28,5.21,4.14,5.21,7.48c0,5.55-4.96,9.36-11.66,9.36c-6.71,0-11.66-3.8-11.66-9.36
		c0-3.33,1.84-6.2,5.21-7.48v-0.09c-2.73-1.07-4.23-3.5-4.23-6.32c0-4.96,4.66-8.63,10.68-8.63c6.02,0,10.68,3.67,10.68,8.63
		c0,2.82-1.5,5.26-4.23,6.32V73.43z M193.05,80.44c0-2.48-2.09-4.32-4.7-4.32c-2.61,0-4.7,1.84-4.7,4.32c0,2.44,2.01,4.23,4.7,4.23
		C191.05,84.67,193.05,82.87,193.05,80.44z M192.45,67.62c0-2.09-1.79-3.67-4.1-3.67c-2.31,0-4.1,1.58-4.1,3.67
		c0,2.14,1.84,3.72,4.1,3.72C190.62,71.34,192.45,69.75,192.45,67.62z"/>
</g>
</svg>
