<?xml version="1.0" encoding="utf-8"?>
<!-- Generator: Adobe Illustrator 24.0.0, SVG Export Plug-In . SVG Version: 6.00 Build 0)  -->
<svg version="1.1" id="Layer_1" xmlns="http://www.w3.org/2000/svg" xmlns:xlink="http://www.w3.org/1999/xlink" x="0px" y="0px"
	 viewBox="0 0 824.88 192.76" style="enable-background:new 0 0 824.88 192.76;" xml:space="preserve">
<style type="text/css">
	.st0{fill:#FFFFFF;}
	.st1{fill:#449B4C;}
	.st2{fill:#243F2E;}
</style>
<g>
	<path class="st0" d="M800.74,193.34H25.06c-13.59,0-24.6-11.01-24.6-24.6V25.19c0-13.59,11.01-24.6,24.6-24.6h775.68
		c13.59,0,24.6,11.01,24.6,24.6v143.56C825.34,182.33,814.33,193.34,800.74,193.34z"/>
</g>
<g>
	<g>
		<path class="st1" d="M70.3,33.17c-21.84,0-39.54,17.7-39.54,39.54c0,21.84,17.7,39.54,39.54,39.54
			c13.52,0,24.48-10.96,24.48-24.48c0-13.52-9.41-24.75-24.48-24.48c-5.2,0.09-9.58-3.44-9.41-9.41c0.16-5.96,5.97-8.9,11.44-9.14
			c13.15-0.58,22.86,7.14,28.41,18.29c2.21,4.61,3.51,10.23,3.51,15.69c0,7.93-2.86,14.85-7.34,20.65c-0.3,0.39-0.37,0.99,0,1.35
			c0.36,0.36,0.95,0.36,1.32,0c3.44-3.43,11.63-12.94,11.63-28.01C109.84,50.88,92.14,33.17,70.3,33.17z M70.3,72.71
			c8.32,0,15.06,6.74,15.06,15.06c0,8.32-6.74,15.06-15.06,15.06S55.24,96.1,55.24,87.78C55.24,79.46,61.98,72.71,70.3,72.71z"/>
	</g>
</g>
<g>
	<g>
		<path class="st1" d="M244.13,64.79c2.54,1.72,5.74,2.48,7.62,2.48c1.91,0,3.33-0.76,3.33-2.54c0-2.21-2.24-2.41-5.31-3.4
			c-3.3-1.09-6.27-2.71-6.27-6.86c0-4.46,3.37-7.23,8.38-7.23c2.34,0,5.21,0.59,7.29,1.72v5.18c-2.54-1.58-5.48-2.31-7.33-2.31
			c-1.78,0-3.07,0.66-3.07,2.24c0,2.11,2.21,2.28,5.08,3.23c3.6,1.19,6.5,2.87,6.5,7.1c0,4.65-3.53,7.46-8.68,7.46
			c-2.38,0-5.31-0.59-7.56-1.75V64.79z"/>
	</g>
	<g>
		<path class="st1" d="M268.36,78.75h-5.02v-23.5h4.92v0.82l0.07,0.03c1.06-0.73,2.41-1.22,4.03-1.22c4.16,0,7.69,3.3,7.69,8.35
			c0,5.21-3.73,8.61-8.48,8.61c-1.32,0-2.38-0.26-3.14-0.63l-0.07,0.03V78.75z M270.93,67.79c2.61,0,4.06-1.88,4.06-4.29
			c0-2.44-1.45-4.42-3.93-4.42c-1.02,0-1.98,0.36-2.71,0.89v7.19C268.98,67.49,269.91,67.79,270.93,67.79z"/>
	</g>
	<g>
		<path class="st1" d="M285.78,47.23c1.58,0,2.9,1.29,2.9,2.87c0,1.58-1.32,2.87-2.9,2.87c-1.58,0-2.9-1.29-2.9-2.87
			C282.88,48.52,284.2,47.23,285.78,47.23z M283.27,55.25h5.02v16.24h-5.02V55.25z"/>
	</g>
	<g>
		<path class="st1" d="M296.57,64.69c0.56,2.24,2.41,3.27,4.72,3.27c1.81,0,3.8-0.63,5.51-1.78v4.19c-1.58,0.99-4.03,1.48-6.17,1.48
			c-5.35,0-9.21-3.33-9.21-8.42c0-5.18,4.03-8.55,8.52-8.55c3.99,0,7.76,2.64,7.76,8.09c0,0.56-0.03,1.29-0.1,1.72H296.57z
			 M303.07,61.52c-0.3-1.75-1.58-2.81-3.2-2.81c-1.55,0-2.9,0.96-3.33,2.81H303.07z"/>
	</g>
	<g>
		<path class="st1" d="M310.96,46.27h5.02v25.22h-5.02V46.27z"/>
	</g>
	<g>
		<path class="st1" d="M324.26,64.69c0.56,2.24,2.41,3.27,4.72,3.27c1.81,0,3.8-0.63,5.51-1.78v4.19c-1.58,0.99-4.03,1.48-6.17,1.48
			c-5.35,0-9.21-3.33-9.21-8.42c0-5.18,4.03-8.55,8.52-8.55c3.99,0,7.76,2.64,7.76,8.09c0,0.56-0.03,1.29-0.1,1.72H324.26z
			 M330.76,61.52c-0.3-1.75-1.58-2.81-3.2-2.81c-1.55,0-2.9,0.96-3.33,2.81H330.76z"/>
	</g>
	<g>
		<path class="st1" d="M338.65,55.25h4.95v1.48l0.07,0.03c1.25-1.02,2.97-1.88,5.02-1.88c1.72,0,3.23,0.59,4.26,1.65
			c0.99,1.06,1.42,2.48,1.42,4.82v10.13h-5.02v-9.31c0-1.22-0.17-1.82-0.56-2.28c-0.43-0.5-1.02-0.69-1.72-0.69
			c-1.29,0-2.51,0.66-3.4,1.35v10.92h-5.02V55.25z"/>
	</g>
	<g>
		<path class="st1" d="M365.8,66.11c2.24,1.32,4.85,1.88,6.4,1.88c1.39,0,2.21-0.36,2.21-1.25c0-1.25-1.82-1.12-4.26-1.75
			c-3.07-0.76-4.88-2.05-4.88-4.72c0.03-3.43,3.07-5.38,7.1-5.38c1.95,0,4.36,0.4,6.2,1.29v4.32c-2.15-1.22-4.65-1.75-6.11-1.75
			c-1.32,0-2.11,0.4-2.11,1.16c0,1.19,1.75,1.09,4.16,1.68c3.1,0.76,4.98,1.95,4.98,4.75c-0.03,3.56-3.14,5.51-7.29,5.51
			c-1.95,0-4.46-0.4-6.4-1.35V66.11z"/>
	</g>
	<g>
		<path class="st1" d="M390.59,54.89c5.18,0,9.04,3.7,9.04,8.48c0,4.79-3.86,8.48-9.04,8.48c-5.18,0-9.04-3.7-9.04-8.48
			C381.54,58.58,385.41,54.89,390.59,54.89z M390.59,67.53c2.28,0,4.03-1.85,4.03-4.16c0-2.31-1.75-4.16-4.03-4.16
			s-4.03,1.85-4.03,4.16C386.56,65.68,388.31,67.53,390.59,67.53z"/>
	</g>
	<g>
		<path class="st1" d="M402.76,46.27h5.02v25.22h-5.02V46.27z"/>
	</g>
	<g>
		<path class="st1" d="M411.94,46.27h5.02v25.22h-5.02V46.27z"/>
	</g>
	<g>
		<path class="st1" d="M433.06,64.69c0.56,2.24,2.41,3.27,4.72,3.27c1.82,0,3.8-0.63,5.51-1.78v4.19c-1.58,0.99-4.03,1.48-6.17,1.48
			c-5.35,0-9.21-3.33-9.21-8.42c0-5.18,4.03-8.55,8.51-8.55c3.99,0,7.76,2.64,7.76,8.09c0,0.56-0.03,1.29-0.1,1.72H433.06z
			 M439.56,61.52c-0.3-1.75-1.58-2.81-3.2-2.81c-1.55,0-2.9,0.96-3.33,2.81H439.56z"/>
	</g>
	<g>
		<path class="st1" d="M449.95,47.23c1.58,0,2.9,1.29,2.9,2.87c0,1.58-1.32,2.87-2.9,2.87s-2.9-1.29-2.9-2.87
			C447.05,48.52,448.37,47.23,449.95,47.23z M447.45,55.25h5.02v16.24h-5.02V55.25z"/>
	</g>
	<g>
		<path class="st1" d="M456.62,55.25h4.95v1.48l0.07,0.03c1.25-1.02,2.97-1.88,5.02-1.88c1.72,0,3.23,0.59,4.26,1.65
			c0.99,1.06,1.42,2.48,1.42,4.82v10.13h-5.02v-9.31c0-1.22-0.17-1.82-0.56-2.28c-0.43-0.5-1.02-0.69-1.72-0.69
			c-1.29,0-2.51,0.66-3.4,1.35v10.92h-5.02V55.25z"/>
	</g>
	<g>
		<path class="st1" d="M480.97,47.59h5.64l3.83,10.5c0.79,2.15,1.58,4.36,2.31,6.5h0.07c0.76-2.18,1.55-4.32,2.38-6.53l3.93-10.46
			h5.38l-9.11,23.9h-5.28L480.97,47.59z"/>
	</g>
	<g>
		<path class="st1" d="M507.87,64.69c0.56,2.24,2.41,3.27,4.72,3.27c1.82,0,3.8-0.63,5.51-1.78v4.19c-1.58,0.99-4.03,1.48-6.17,1.48
			c-5.35,0-9.21-3.33-9.21-8.42c0-5.18,4.03-8.55,8.52-8.55c3.99,0,7.76,2.64,7.76,8.09c0,0.56-0.03,1.29-0.1,1.72H507.87z
			 M514.37,61.52c-0.3-1.75-1.58-2.81-3.2-2.81c-1.55,0-2.9,0.96-3.33,2.81H514.37z"/>
	</g>
	<g>
		<path class="st1" d="M522.26,55.25h4.92v2.18l0.07,0.03c1.12-1.58,2.71-2.41,4.72-2.41c0.33,0,0.69,0.03,1.06,0.13v4.72
			c-0.4-0.1-0.89-0.17-1.35-0.17c-1.75,0-3.2,0.53-4.39,1.91v9.84h-5.02V55.25z"/>
	</g>
	<g>
		<path class="st1" d="M536.64,73.17c1.65,1.02,3.53,1.65,5.25,1.65c2.44,0,3.96-1.25,3.96-3.66v-0.89l-0.07-0.03
			c-0.96,0.69-2.44,1.09-3.8,1.09c-3.93,0-7.56-3.04-7.56-7.95c0-4.75,3.4-8.48,8.45-8.48c1.55,0,2.9,0.36,4.06,0.92l3.93-0.69
			v16.04c0,5.12-3.5,7.95-8.68,7.95c-2.08,0-4.13-0.5-5.54-1.19V73.17z M545.85,59.74c-0.63-0.33-1.58-0.59-2.47-0.59
			c-2.61,0-3.86,1.91-3.86,4.03c0,2.38,1.45,4.06,3.79,4.06c0.89,0,1.85-0.26,2.54-0.69V59.74z"/>
	</g>
	<g>
		<path class="st1" d="M555.09,55.25h4.95v1.48l0.07,0.03c1.25-1.02,2.97-1.88,5.02-1.88c1.72,0,3.23,0.59,4.26,1.65
			c0.99,1.06,1.42,2.48,1.42,4.82v10.13h-5.02v-9.31c0-1.22-0.17-1.82-0.56-2.28c-0.43-0.5-1.02-0.69-1.72-0.69
			c-1.29,0-2.51,0.66-3.4,1.35v10.92h-5.02V55.25z"/>
	</g>
	<g>
		<path class="st1" d="M585.62,69.93c-1.25,1.09-2.84,1.91-4.95,1.91c-1.88,0-3.3-0.66-4.22-1.62c-1.06-1.09-1.55-2.57-1.55-4.98
			v-10h5.02v9.24c0,1.19,0.2,1.88,0.63,2.34c0.43,0.49,1.09,0.73,1.78,0.73c1.25,0,2.51-0.69,3.3-1.45V55.25h5.02v16.24h-4.95v-1.52
			L585.62,69.93z M576.54,50.1c0-1.39,1.15-2.54,2.54-2.54s2.54,1.16,2.54,2.54s-1.15,2.54-2.54,2.54S576.54,51.49,576.54,50.1z
			 M583.93,50.1c0-1.39,1.16-2.54,2.54-2.54c1.39,0,2.54,1.16,2.54,2.54s-1.16,2.54-2.54,2.54
			C585.09,52.64,583.93,51.49,583.93,50.1z"/>
	</g>
	<g>
		<path class="st1" d="M596.18,73.17c1.65,1.02,3.53,1.65,5.25,1.65c2.44,0,3.96-1.25,3.96-3.66v-0.89l-0.07-0.03
			c-0.96,0.69-2.44,1.09-3.79,1.09c-3.93,0-7.56-3.04-7.56-7.95c0-4.75,3.4-8.48,8.45-8.48c1.55,0,2.9,0.36,4.06,0.92l3.93-0.69
			v16.04c0,5.12-3.5,7.95-8.68,7.95c-2.08,0-4.13-0.5-5.54-1.19V73.17z M605.38,59.74c-0.63-0.33-1.58-0.59-2.48-0.59
			c-2.61,0-3.86,1.91-3.86,4.03c0,2.38,1.45,4.06,3.79,4.06c0.89,0,1.85-0.26,2.54-0.69V59.74z"/>
	</g>
	<g>
		<path class="st1" d="M618.75,64.69c0.56,2.24,2.41,3.27,4.72,3.27c1.82,0,3.8-0.63,5.51-1.78v4.19c-1.58,0.99-4.03,1.48-6.17,1.48
			c-5.35,0-9.21-3.33-9.21-8.42c0-5.18,4.03-8.55,8.51-8.55c3.99,0,7.76,2.64,7.76,8.09c0,0.56-0.03,1.29-0.1,1.72H618.75z
			 M625.25,61.52c-0.3-1.75-1.58-2.81-3.2-2.81c-1.55,0-2.9,0.96-3.33,2.81H625.25z"/>
	</g>
	<g>
		<path class="st1" d="M633.14,55.25h4.95v1.48l0.07,0.03c1.25-1.02,2.97-1.88,5.02-1.88c1.72,0,3.23,0.59,4.26,1.65
			c0.99,1.06,1.42,2.48,1.42,4.82v10.13h-5.02v-9.31c0-1.22-0.16-1.82-0.56-2.28c-0.43-0.5-1.02-0.69-1.72-0.69
			c-1.29,0-2.51,0.66-3.4,1.35v10.92h-5.02V55.25z"/>
	</g>
	<g>
		<path class="st1" d="M660.76,46.27h5.02v9.7l0.07,0.03c0.99-0.66,2.44-1.12,3.99-1.12c4.03,0,7.66,3.14,7.66,8.19
			c0,5.15-3.73,8.78-8.78,8.78c-1.58,0-2.9-0.36-4.03-0.83l-3.93,0.66V46.27z M668.35,67.79c2.71,0,4.09-2.11,4.09-4.49
			c0-2.38-1.42-4.22-3.89-4.22c-1.09,0-2.05,0.36-2.77,0.79v7.29C666.43,67.53,667.42,67.79,668.35,67.79z"/>
	</g>
	<g>
		<path class="st1" d="M680.72,46.27h5.02v25.22h-5.02V46.27z"/>
	</g>
	<g>
		<path class="st1" d="M694.02,64.69c0.56,2.24,2.41,3.27,4.72,3.27c1.81,0,3.79-0.63,5.51-1.78v4.19
			c-1.58,0.99-4.03,1.48-6.17,1.48c-5.35,0-9.21-3.33-9.21-8.42c0-5.18,4.03-8.55,8.52-8.55c3.99,0,7.76,2.64,7.76,8.09
			c0,0.56-0.03,1.29-0.1,1.72H694.02z M700.52,61.52c-0.3-1.75-1.58-2.81-3.2-2.81c-1.55,0-2.9,0.96-3.33,2.81H700.52z"/>
	</g>
	<g>
		<path class="st1" d="M710.92,47.23c1.58,0,2.9,1.29,2.9,2.87c0,1.58-1.32,2.87-2.9,2.87s-2.9-1.29-2.9-2.87
			C708.01,48.52,709.33,47.23,710.92,47.23z M708.41,55.25h5.02v16.24h-5.02V55.25z"/>
	</g>
	<g>
		<path class="st1" d="M717.58,46.27h5.02v9.7l0.07,0.03c0.99-0.66,2.44-1.12,3.99-1.12c4.03,0,7.66,3.14,7.66,8.19
			c0,5.15-3.73,8.78-8.78,8.78c-1.58,0-2.91-0.36-4.03-0.83l-3.93,0.66V46.27z M725.17,67.79c2.71,0,4.09-2.11,4.09-4.49
			c0-2.38-1.42-4.22-3.89-4.22c-1.09,0-2.05,0.36-2.77,0.79v7.29C723.26,67.53,724.25,67.79,725.17,67.79z"/>
	</g>
	<g>
		<path class="st1" d="M741.67,64.69c0.56,2.24,2.41,3.27,4.72,3.27c1.82,0,3.8-0.63,5.51-1.78v4.19c-1.58,0.99-4.03,1.48-6.17,1.48
			c-5.35,0-9.21-3.33-9.21-8.42c0-5.18,4.03-8.55,8.52-8.55c3.99,0,7.76,2.64,7.76,8.09c0,0.56-0.03,1.29-0.1,1.72H741.67z
			 M748.17,61.52c-0.3-1.75-1.58-2.81-3.2-2.81c-1.55,0-2.9,0.96-3.33,2.81H748.17z"/>
	</g>
	<g>
		<path class="st1" d="M756.06,55.25h4.95v1.48l0.07,0.03c1.25-1.02,2.97-1.88,5.02-1.88c1.72,0,3.23,0.59,4.26,1.65
			c0.99,1.06,1.42,2.48,1.42,4.82v10.13h-5.02v-9.31c0-1.22-0.17-1.82-0.56-2.28c-0.43-0.5-1.02-0.69-1.72-0.69
			c-1.29,0-2.51,0.66-3.4,1.35v10.92h-5.02V55.25z"/>
	</g>
	<g>
		<path class="st1" d="M778.83,65.91c1.65,0,3.04,1.32,3.04,2.97s-1.39,2.97-3.04,2.97c-1.65,0-3.04-1.32-3.04-2.97
			S777.18,65.91,778.83,65.91z"/>
	</g>
	<g>
		<path class="st1" d="M252.06,87.59h5.08l9.7,23.9h-5.61l-1.91-5.02h-9.64l-1.95,5.02h-5.38L252.06,87.59z M251.3,102.34h6.44
			l-0.99-2.67c-0.69-1.88-1.55-4.26-2.18-6.07h-0.07c-0.63,1.82-1.49,4.19-2.24,6.21L251.3,102.34z"/>
	</g>
	<g>
		<path class="st1" d="M281.92,110.6c-1.55,0.86-3.47,1.25-5.31,1.25c-5.21,0-9.04-3.56-9.04-8.45c0-5.12,4.22-8.52,9.31-8.52
			c1.82,0,3.5,0.43,4.82,1.09v4.65c-1.45-0.92-3.04-1.52-4.59-1.52c-2.67,0-4.52,1.82-4.52,4.26c0,2.47,1.88,4.22,4.59,4.22
			c1.58,0,3.4-0.59,4.75-1.62V110.6z"/>
	</g>
	<g>
		<path class="st1" d="M285.45,86.27h5.02V96.7l0.07,0.03c1.19-0.99,2.9-1.85,4.95-1.85c1.72,0,3.23,0.59,4.26,1.65
			c0.99,1.06,1.42,2.48,1.42,4.82v10.13h-5.02v-9.31c0-1.22-0.17-1.82-0.56-2.28c-0.43-0.5-1.02-0.69-1.72-0.69
			c-1.29,0-2.51,0.66-3.4,1.35v10.92h-5.02V86.27z"/>
	</g>
	<g>
		<path class="st1" d="M315.78,110.96c-0.76,0.5-2.24,0.89-3.66,0.89c-1.65,0-3.2-0.53-4.22-1.62c-0.86-0.92-1.42-2.28-1.42-4.85
			v-5.97h-2.64v-4.16h2.64v-4.22l5.02-0.86v5.08h4.29v4.16h-4.29v5.45c0,1.58,0.36,2.77,1.88,2.77c0.83,0,1.75-0.33,2.41-0.66
			V110.96z"/>
	</g>
	<g>
		<path class="st1" d="M322.64,104.69c0.56,2.24,2.41,3.27,4.72,3.27c1.82,0,3.8-0.63,5.51-1.78v4.19
			c-1.58,0.99-4.03,1.49-6.17,1.49c-5.35,0-9.21-3.33-9.21-8.42c0-5.18,4.03-8.55,8.51-8.55c3.99,0,7.76,2.64,7.76,8.09
			c0,0.56-0.03,1.29-0.1,1.72H322.64z M329.14,101.52c-0.3-1.75-1.58-2.81-3.2-2.81c-1.55,0-2.9,0.96-3.33,2.81H329.14z"/>
	</g>
	<g>
		<path class="st1" d="M337.03,95.25h4.95v1.48l0.07,0.03c1.25-1.02,2.97-1.88,5.02-1.88c1.72,0,3.23,0.59,4.26,1.65
			c0.99,1.06,1.42,2.48,1.42,4.82v10.13h-5.02v-9.31c0-1.22-0.17-1.82-0.56-2.28c-0.43-0.5-1.02-0.69-1.72-0.69
			c-1.29,0-2.51,0.66-3.4,1.35v10.92h-5.02V95.25z"/>
	</g>
	<g>
		<path class="st1" d="M362.97,95.25h5.21l1.65,5.12c0.53,1.62,0.99,3.14,1.42,4.69h0.07c0.46-1.52,0.99-3.13,1.52-4.69l1.75-5.12
			h3.73l1.72,5.12c0.56,1.68,1.02,3.14,1.49,4.69h0.07c0.43-1.55,0.89-3.04,1.42-4.69l1.65-5.12h4.85l-5.54,16.24h-4.69l-1.45-4.32
			c-0.53-1.58-1.02-3.17-1.45-4.65h-0.07c-0.43,1.49-0.92,3-1.48,4.62l-1.49,4.36h-4.82L362.97,95.25z"/>
	</g>
	<g>
		<path class="st1" d="M394.48,87.23c1.58,0,2.9,1.29,2.9,2.87c0,1.58-1.32,2.87-2.9,2.87s-2.9-1.29-2.9-2.87
			C391.58,88.52,392.9,87.23,394.48,87.23z M391.97,95.25h5.02v16.24h-5.02V95.25z"/>
	</g>
	<g>
		<path class="st1" d="M401.15,95.25h4.92v2.18l0.07,0.03c1.12-1.58,2.71-2.41,4.72-2.41c0.33,0,0.69,0.03,1.06,0.13v4.72
			c-0.4-0.1-0.89-0.17-1.35-0.17c-1.75,0-3.2,0.53-4.39,1.91v9.84h-5.02V95.25z"/>
	</g>
	<g>
		<path class="st1" d="M423.52,113.17c1.65,1.02,3.53,1.65,5.25,1.65c2.44,0,3.96-1.25,3.96-3.66v-0.89l-0.07-0.03
			c-0.96,0.69-2.44,1.09-3.79,1.09c-3.93,0-7.56-3.04-7.56-7.95c0-4.75,3.4-8.48,8.45-8.48c1.55,0,2.9,0.36,4.06,0.92l3.93-0.69
			v16.04c0,5.12-3.5,7.95-8.68,7.95c-2.08,0-4.13-0.5-5.54-1.19V113.17z M432.73,99.74c-0.63-0.33-1.58-0.59-2.48-0.59
			c-2.61,0-3.86,1.91-3.86,4.03c0,2.38,1.45,4.06,3.79,4.06c0.89,0,1.85-0.26,2.54-0.69V99.74z"/>
	</g>
	<g>
		<path class="st1" d="M446.09,104.69c0.56,2.24,2.41,3.27,4.72,3.27c1.82,0,3.8-0.63,5.51-1.78v4.19
			c-1.58,0.99-4.03,1.49-6.17,1.49c-5.35,0-9.21-3.33-9.21-8.42c0-5.18,4.03-8.55,8.52-8.55c3.99,0,7.76,2.64,7.76,8.09
			c0,0.56-0.03,1.29-0.1,1.72H446.09z M452.59,101.52c-0.3-1.75-1.58-2.81-3.2-2.81c-1.55,0-2.9,0.96-3.33,2.81H452.59z"/>
	</g>
	<g>
		<path class="st1" d="M481.47,102.11c0-1.22-0.2-1.78-0.59-2.21c-0.46-0.5-1.06-0.69-1.72-0.69c-1.16,0-2.34,0.59-3.2,1.35
			c0.03,0.23,0.03,0.5,0.03,0.73v10.2h-5.02v-9.37c0-1.09-0.17-1.75-0.59-2.21c-0.46-0.5-1.06-0.69-1.72-0.69
			c-1.15,0-2.34,0.63-3.17,1.32v10.96h-5.02V95.25h4.95v1.45l0.07,0.03c1.25-1.06,2.9-1.85,4.88-1.85c1.75,0,3.76,0.69,4.72,2.31
			c1.75-1.55,3.66-2.31,5.71-2.31c1.81,0,3.23,0.63,4.19,1.62c1.02,1.06,1.49,2.48,1.49,4.79v10.2h-5.02V102.11z"/>
	</g>
	<g>
		<path class="st1" d="M494.7,104.69c0.56,2.24,2.41,3.27,4.72,3.27c1.82,0,3.8-0.63,5.51-1.78v4.19c-1.58,0.99-4.03,1.49-6.17,1.49
			c-5.35,0-9.21-3.33-9.21-8.42c0-5.18,4.03-8.55,8.51-8.55c3.99,0,7.76,2.64,7.76,8.09c0,0.56-0.03,1.29-0.1,1.72H494.7z
			 M501.2,101.52c-0.3-1.75-1.58-2.81-3.2-2.81c-1.55,0-2.9,0.96-3.33,2.81H501.2z"/>
	</g>
	<g>
		<path class="st1" d="M511.6,87.23c1.58,0,2.9,1.29,2.9,2.87c0,1.58-1.32,2.87-2.9,2.87c-1.58,0-2.9-1.29-2.9-2.87
			C508.69,88.52,510.01,87.23,511.6,87.23z M509.09,95.25h5.02v16.24h-5.02V95.25z"/>
	</g>
	<g>
		<path class="st1" d="M518.26,95.25h4.95v1.48l0.07,0.03c1.25-1.02,2.97-1.88,5.02-1.88c1.72,0,3.23,0.59,4.26,1.65
			c0.99,1.06,1.42,2.48,1.42,4.82v10.13h-5.02v-9.31c0-1.22-0.17-1.82-0.56-2.28c-0.43-0.5-1.02-0.69-1.72-0.69
			c-1.29,0-2.51,0.66-3.4,1.35v10.92h-5.02V95.25z"/>
	</g>
	<g>
		<path class="st1" d="M537.6,106.11c2.24,1.32,4.85,1.88,6.4,1.88c1.39,0,2.21-0.36,2.21-1.25c0-1.25-1.82-1.12-4.26-1.75
			c-3.07-0.76-4.88-2.05-4.88-4.72c0.03-3.43,3.07-5.38,7.1-5.38c1.95,0,4.36,0.4,6.2,1.29v4.32c-2.15-1.22-4.65-1.75-6.11-1.75
			c-1.32,0-2.11,0.4-2.11,1.16c0,1.19,1.75,1.09,4.16,1.68c3.1,0.76,4.98,1.95,4.98,4.75c-0.03,3.56-3.14,5.51-7.29,5.51
			c-1.95,0-4.46-0.4-6.4-1.35V106.11z"/>
	</g>
	<g>
		<path class="st1" d="M563.51,110.5c-1.06,0.76-2.67,1.35-4.52,1.35c-1.39,0-2.71-0.33-3.76-1.06c-1.19-0.83-1.91-2.11-1.91-3.79
			c0-1.78,0.83-3.14,1.98-3.93c1.25-0.86,2.87-1.16,4.55-1.16c0.96,0,1.91,0.1,2.81,0.3v-0.63c0-0.79-0.26-1.39-0.63-1.72
			c-0.46-0.43-1.32-0.69-2.51-0.69c-1.82,0-3.47,0.59-4.75,1.29v-4.32c1.32-0.66,3.3-1.25,5.68-1.25c2.18,0,4.13,0.5,5.41,1.55
			c1.22,0.99,1.82,2.44,1.82,4.49v5.51c0,0.76,0.3,1.29,0.99,1.29c0.26,0,0.56-0.07,0.83-0.2v3.76c-0.56,0.3-1.45,0.5-2.41,0.5
			c-1.32,0-2.61-0.36-3.5-1.29H563.51z M562.65,105.12c-0.53-0.17-1.25-0.23-1.78-0.23c-1.29,0-2.57,0.4-2.57,1.65
			c0,1.06,0.92,1.62,2.08,1.62c0.86,0,1.68-0.3,2.28-0.66V105.12z"/>
	</g>
	<g>
		<path class="st1" d="M593.08,102.11c0-1.22-0.2-1.78-0.59-2.21c-0.46-0.5-1.06-0.69-1.72-0.69c-1.16,0-2.34,0.59-3.2,1.35
			c0.03,0.23,0.03,0.5,0.03,0.73v10.2h-5.02v-9.37c0-1.09-0.17-1.75-0.59-2.21c-0.46-0.5-1.06-0.69-1.72-0.69
			c-1.16,0-2.34,0.63-3.17,1.32v10.96h-5.02V95.25h4.95v1.45l0.07,0.03c1.25-1.06,2.9-1.85,4.88-1.85c1.75,0,3.76,0.69,4.72,2.31
			c1.75-1.55,3.66-2.31,5.71-2.31c1.82,0,3.24,0.63,4.19,1.62c1.02,1.06,1.49,2.48,1.49,4.79v10.2h-5.02V102.11z"/>
	</g>
	<g>
		<path class="st1" d="M620.86,110.6c-1.09,0.76-2.54,1.25-4.13,1.25c-4.09,0-7.62-3.17-7.62-8.15c0-5.12,3.73-8.81,8.58-8.81
			c1.22,0,2.21,0.23,3.07,0.59l0.07-0.03v-9.18h5.02v25.22h-4.92v-0.86L620.86,110.6z M620.83,99.67c-0.73-0.36-1.62-0.63-2.61-0.63
			c-2.64,0-4.06,1.98-4.06,4.42c0,2.41,1.39,4.29,3.86,4.29c1.09,0,2.08-0.36,2.81-0.83V99.67z"/>
	</g>
	<g>
		<path class="st1" d="M639.14,110.5c-1.06,0.76-2.67,1.35-4.52,1.35c-1.39,0-2.71-0.33-3.76-1.06c-1.19-0.83-1.92-2.11-1.92-3.79
			c0-1.78,0.83-3.14,1.98-3.93c1.25-0.86,2.87-1.16,4.55-1.16c0.96,0,1.91,0.1,2.81,0.3v-0.63c0-0.79-0.26-1.39-0.63-1.72
			c-0.46-0.43-1.32-0.69-2.51-0.69c-1.81,0-3.46,0.59-4.75,1.29v-4.32c1.32-0.66,3.3-1.25,5.68-1.25c2.18,0,4.13,0.5,5.41,1.55
			c1.22,0.99,1.82,2.44,1.82,4.49v5.51c0,0.76,0.3,1.29,0.99,1.29c0.26,0,0.56-0.07,0.83-0.2v3.76c-0.56,0.3-1.45,0.5-2.41,0.5
			c-1.32,0-2.61-0.36-3.5-1.29H639.14z M638.28,105.12c-0.53-0.17-1.25-0.23-1.78-0.23c-1.29,0-2.57,0.4-2.57,1.65
			c0,1.06,0.92,1.62,2.08,1.62c0.86,0,1.68-0.3,2.28-0.66V105.12z"/>
	</g>
	<g>
		<path class="st1" d="M647.72,95.25h4.92v2.18l0.07,0.03c1.12-1.58,2.71-2.41,4.72-2.41c0.33,0,0.69,0.03,1.06,0.13v4.72
			c-0.4-0.1-0.89-0.17-1.35-0.17c-1.75,0-3.2,0.53-4.39,1.91v9.84h-5.02V95.25z"/>
	</g>
	<g>
		<path class="st1" d="M669.4,110.5c-1.06,0.76-2.67,1.35-4.52,1.35c-1.39,0-2.71-0.33-3.76-1.06c-1.19-0.83-1.91-2.11-1.91-3.79
			c0-1.78,0.83-3.14,1.98-3.93c1.25-0.86,2.87-1.16,4.55-1.16c0.96,0,1.92,0.1,2.81,0.3v-0.63c0-0.79-0.26-1.39-0.63-1.72
			c-0.46-0.43-1.32-0.69-2.51-0.69c-1.81,0-3.46,0.59-4.75,1.29v-4.32c1.32-0.66,3.3-1.25,5.68-1.25c2.18,0,4.13,0.5,5.41,1.55
			c1.22,0.99,1.81,2.44,1.81,4.49v5.51c0,0.76,0.3,1.29,0.99,1.29c0.26,0,0.56-0.07,0.83-0.2v3.76c-0.56,0.3-1.45,0.5-2.41,0.5
			c-1.32,0-2.61-0.36-3.5-1.29H669.4z M668.54,105.12c-0.53-0.17-1.25-0.23-1.78-0.23c-1.29,0-2.57,0.4-2.57,1.65
			c0,1.06,0.92,1.62,2.08,1.62c0.86,0,1.68-0.3,2.28-0.66V105.12z"/>
	</g>
	<g>
		<path class="st1" d="M688.71,109.93c-1.25,1.09-2.84,1.92-4.95,1.92c-1.88,0-3.3-0.66-4.22-1.62c-1.06-1.09-1.55-2.58-1.55-4.98
			v-10H683v9.24c0,1.19,0.2,1.88,0.63,2.34c0.43,0.5,1.09,0.73,1.78,0.73c1.25,0,2.51-0.69,3.3-1.45V95.25h5.02v16.24h-4.95v-1.52
			L688.71,109.93z"/>
	</g>
	<g>
		<path class="st1" d="M698.84,99.41h-2.31v-4.16h2.31v-2.41c0-2.28,0.46-4.22,1.72-5.41c1.16-1.12,2.97-1.52,4.59-1.52
			c0.92,0,1.88,0.13,2.77,0.46v4.06c-0.63-0.17-1.62-0.3-2.18-0.3c-1.55,0-1.88,0.99-1.88,2.38v2.74h3.76v4.16h-3.76v12.08h-5.02
			V99.41z"/>
	</g>
	<g>
		<path class="st1" d="M712.37,105.91c1.65,0,3.04,1.32,3.04,2.97s-1.39,2.97-3.04,2.97s-3.04-1.32-3.04-2.97
			S710.72,105.91,712.37,105.91z"/>
	</g>
</g>
<g>
	<g>
		<path class="st1" d="M169.02,115.64c-23.65,0-42.89-19.26-42.89-42.93c0-23.67,19.24-42.92,42.89-42.92
			c23.65,0,42.9,19.26,42.9,42.92C211.92,96.38,192.67,115.64,169.02,115.64z M169.02,38.03c-19.11,0-34.65,15.56-34.65,34.68
			c0,19.13,15.54,34.69,34.65,34.69c19.12,0,34.66-15.56,34.66-34.69C203.68,53.58,188.13,38.03,169.02,38.03z"/>
	</g>
</g>
<g>
	
		<rect x="131.97" y="68.68" transform="matrix(0.7764 -0.6303 0.6303 0.7764 -8.4884 123.0906)" class="st1" width="74.49" height="9.65"/>
</g>
<g>
	<path class="st2" d="M142.43,73.1h10.07v5.06h-10.07V73.1z"/>
	<path class="st2" d="M158.99,65.18l-6,2.16v-5.87l12.48-4.53v29.98h-6.48V65.18z"/>
	<path class="st2" d="M188.69,71.3c3.22,1.22,4.98,3.96,4.98,7.14c0,5.3-4.73,8.93-11.13,8.93s-11.13-3.63-11.13-8.93
		c0-3.18,1.75-5.91,4.98-7.14v-0.08c-2.61-1.02-4.04-3.34-4.04-6.04c0-4.73,4.45-8.24,10.2-8.24s10.2,3.51,10.2,8.24
		c0,2.69-1.43,5.02-4.04,6.04V71.3z M187.01,77.99c0-2.37-2-4.12-4.49-4.12s-4.49,1.75-4.49,4.12c0,2.33,1.92,4.04,4.49,4.04
		S187.01,80.32,187.01,77.99z M186.44,65.76c0-2-1.71-3.51-3.92-3.51s-3.92,1.51-3.92,3.51c0,2.04,1.75,3.55,3.92,3.55
		S186.44,67.79,186.44,65.76z"/>
</g>
<g>
	<path class="st2" d="M91.55,146.75h6.7c4.26,0,7.56,0.69,10.03,2.41c2.94,2.05,4.59,5.41,4.59,9.51c0,3.76-1.42,6.96-3.96,9.04
		c-2.44,1.98-5.88,2.94-10.89,2.94h-6.47V146.75z M98.25,166.06c3.4,0,5.58-0.59,7.06-1.88c1.42-1.22,2.31-3.14,2.31-5.51
		c0-2.51-0.99-4.62-2.77-5.88c-1.68-1.19-3.96-1.45-6.63-1.45h-1.42v14.72H98.25z"/>
	<path class="st2" d="M118.48,146.39c1.58,0,2.9,1.29,2.9,2.87c0,1.58-1.32,2.87-2.9,2.87c-1.58,0-2.9-1.29-2.9-2.87
		C115.57,147.68,116.89,146.39,118.48,146.39z M115.97,154.41h5.02v16.24h-5.02V154.41z"/>
	<path class="st2" d="M129.27,163.85c0.56,2.24,2.41,3.27,4.72,3.27c1.81,0,3.8-0.63,5.51-1.78v4.19c-1.58,0.99-4.03,1.49-6.17,1.49
		c-5.35,0-9.21-3.33-9.21-8.42c0-5.18,4.03-8.55,8.52-8.55c3.99,0,7.76,2.64,7.76,8.09c0,0.56-0.03,1.29-0.1,1.72H129.27z
		 M135.77,160.68c-0.3-1.75-1.58-2.8-3.2-2.8c-1.55,0-2.9,0.96-3.33,2.8H135.77z"/>
	<path class="st2" d="M161.11,161.01c-1.55-2.08-3-4.09-4.49-6.17l-0.07,0.03c0.03,2.28,0.07,4.59,0.07,6.9v8.88h-5.05v-23.9h4.95
		l7.16,9.64c1.55,2.08,3,4.09,4.49,6.17l0.07-0.03c-0.03-2.28-0.07-4.59-0.07-6.9v-8.88h5.05v23.9h-4.95L161.11,161.01z"/>
	<path class="st2" d="M186.62,169.66c-1.06,0.76-2.67,1.35-4.52,1.35c-1.39,0-2.71-0.33-3.76-1.06c-1.19-0.83-1.91-2.11-1.91-3.79
		c0-1.78,0.83-3.14,1.98-3.93c1.25-0.86,2.87-1.16,4.55-1.16c0.96,0,1.91,0.1,2.81,0.3v-0.63c0-0.79-0.26-1.39-0.63-1.72
		c-0.46-0.43-1.32-0.69-2.51-0.69c-1.82,0-3.47,0.59-4.75,1.29v-4.32c1.32-0.66,3.3-1.25,5.68-1.25c2.18,0,4.13,0.5,5.41,1.55
		c1.22,0.99,1.82,2.44,1.82,4.49v5.51c0,0.76,0.3,1.29,0.99,1.29c0.26,0,0.56-0.07,0.83-0.2v3.76c-0.56,0.3-1.45,0.5-2.41,0.5
		c-1.32,0-2.61-0.36-3.5-1.29H186.62z M185.76,164.28c-0.53-0.17-1.25-0.23-1.78-0.23c-1.29,0-2.57,0.4-2.57,1.65
		c0,1.06,0.92,1.62,2.08,1.62c0.86,0,1.68-0.3,2.28-0.66V164.28z"/>
	<path class="st2" d="M205.73,170.12c-0.76,0.5-2.24,0.89-3.66,0.89c-1.65,0-3.2-0.53-4.22-1.62c-0.86-0.92-1.42-2.28-1.42-4.85
		v-5.97h-2.64v-4.16h2.64v-4.22l5.02-0.86v5.08h4.29v4.16h-4.29v5.45c0,1.58,0.36,2.77,1.88,2.77c0.83,0,1.75-0.33,2.41-0.66V170.12
		z"/>
	<path class="st2" d="M211.24,146.39c1.58,0,2.9,1.29,2.9,2.87c0,1.58-1.32,2.87-2.9,2.87c-1.58,0-2.9-1.29-2.9-2.87
		C208.33,147.68,209.65,146.39,211.24,146.39z M208.73,154.41h5.02v16.24h-5.02V154.41z"/>
	<path class="st2" d="M225.92,154.05c5.18,0,9.04,3.7,9.04,8.48s-3.86,8.48-9.04,8.48c-5.18,0-9.04-3.7-9.04-8.48
		S220.74,154.05,225.92,154.05z M225.92,166.69c2.28,0,4.03-1.85,4.03-4.16s-1.75-4.16-4.03-4.16s-4.03,1.85-4.03,4.16
		S223.65,166.69,225.92,166.69z"/>
	<path class="st2" d="M238.1,154.41h4.95v1.49l0.07,0.03c1.25-1.02,2.97-1.88,5.02-1.88c1.72,0,3.23,0.59,4.26,1.65
		c0.99,1.06,1.42,2.48,1.42,4.82v10.13h-5.02v-9.31c0-1.22-0.17-1.82-0.56-2.28c-0.43-0.5-1.02-0.69-1.72-0.69
		c-1.29,0-2.51,0.66-3.4,1.35v10.92h-5.02V154.41z"/>
	<path class="st2" d="M267.04,169.66c-1.06,0.76-2.67,1.35-4.52,1.35c-1.39,0-2.71-0.33-3.76-1.06c-1.19-0.83-1.91-2.11-1.91-3.79
		c0-1.78,0.83-3.14,1.98-3.93c1.25-0.86,2.87-1.16,4.55-1.16c0.96,0,1.91,0.1,2.81,0.3v-0.63c0-0.79-0.26-1.39-0.63-1.72
		c-0.46-0.43-1.32-0.69-2.51-0.69c-1.82,0-3.47,0.59-4.75,1.29v-4.32c1.32-0.66,3.3-1.25,5.68-1.25c2.18,0,4.13,0.5,5.41,1.55
		c1.22,0.99,1.82,2.44,1.82,4.49v5.51c0,0.76,0.3,1.29,0.99,1.29c0.26,0,0.56-0.07,0.83-0.2v3.76c-0.56,0.3-1.45,0.5-2.41,0.5
		c-1.32,0-2.61-0.36-3.5-1.29H267.04z M266.18,164.28c-0.53-0.17-1.25-0.23-1.78-0.23c-1.29,0-2.57,0.4-2.57,1.65
		c0,1.06,0.92,1.62,2.08,1.62c0.86,0,1.68-0.3,2.28-0.66V164.28z"/>
	<path class="st2" d="M275.62,145.43h5.02v25.22h-5.02V145.43z"/>
	<path class="st2" d="M284.79,145.43h5.02v25.22h-5.02V145.43z"/>
	<path class="st2" d="M301.99,154.05c5.18,0,9.04,3.7,9.04,8.48s-3.86,8.48-9.04,8.48c-5.18,0-9.04-3.7-9.04-8.48
		S296.8,154.05,301.99,154.05z M301.99,166.69c2.28,0,4.03-1.85,4.03-4.16s-1.75-4.16-4.03-4.16s-4.03,1.85-4.03,4.16
		S299.71,166.69,301.99,166.69z"/>
	<path class="st2" d="M324.69,170.12c-0.76,0.5-2.24,0.89-3.66,0.89c-1.65,0-3.2-0.53-4.22-1.62c-0.86-0.92-1.42-2.28-1.42-4.85
		v-5.97h-2.64v-4.16h2.64v-4.22l5.02-0.86v5.08h4.29v4.16h-4.29v5.45c0,1.58,0.36,2.77,1.88,2.77c0.83,0,1.75-0.33,2.41-0.66V170.12
		z"/>
	<path class="st2" d="M338.22,170.12c-0.76,0.5-2.24,0.89-3.66,0.89c-1.65,0-3.2-0.53-4.22-1.62c-0.86-0.92-1.42-2.28-1.42-4.85
		v-5.97h-2.64v-4.16h2.64v-4.22l5.02-0.86v5.08h4.29v4.16h-4.29v5.45c0,1.58,0.36,2.77,1.88,2.77c0.83,0,1.75-0.33,2.41-0.66V170.12
		z"/>
	<path class="st2" d="M345.08,163.85c0.56,2.24,2.41,3.27,4.72,3.27c1.81,0,3.8-0.63,5.51-1.78v4.19c-1.58,0.99-4.03,1.49-6.17,1.49
		c-5.35,0-9.21-3.33-9.21-8.42c0-5.18,4.03-8.55,8.52-8.55c3.99,0,7.76,2.64,7.76,8.09c0,0.56-0.03,1.29-0.1,1.72H345.08z
		 M351.59,160.68c-0.3-1.75-1.58-2.8-3.2-2.8c-1.55,0-2.9,0.96-3.33,2.8H351.59z"/>
	<path class="st2" d="M359.47,154.41h4.92v2.18l0.07,0.03c1.12-1.58,2.71-2.41,4.72-2.41c0.33,0,0.69,0.03,1.06,0.13v4.72
		c-0.4-0.1-0.89-0.17-1.35-0.17c-1.75,0-3.2,0.53-4.39,1.92v9.83h-5.02V154.41z"/>
	<path class="st2" d="M375.21,146.39c1.58,0,2.9,1.29,2.9,2.87c0,1.58-1.32,2.87-2.9,2.87c-1.58,0-2.9-1.29-2.9-2.87
		C372.31,147.68,373.63,146.39,375.21,146.39z M372.7,154.41h5.02v16.24h-5.02V154.41z"/>
	<path class="st2" d="M386,163.85c0.56,2.24,2.41,3.27,4.72,3.27c1.81,0,3.8-0.63,5.51-1.78v4.19c-1.58,0.99-4.03,1.49-6.17,1.49
		c-5.35,0-9.21-3.33-9.21-8.42c0-5.18,4.03-8.55,8.52-8.55c3.99,0,7.76,2.64,7.76,8.09c0,0.56-0.03,1.29-0.1,1.72H386z
		 M392.5,160.68c-0.3-1.75-1.58-2.8-3.2-2.8c-1.55,0-2.9,0.96-3.33,2.8H392.5z"/>
	<path class="st2" d="M403.36,165.07c1.65,0,3.04,1.32,3.04,2.97s-1.39,2.97-3.04,2.97s-3.04-1.32-3.04-2.97
		S401.71,165.07,403.36,165.07z"/>
	<path class="st2" d="M426.96,160.22c-1.19-1.68-2.38-3.43-3.5-5.12l-0.07,0.03c0.03,1.72,0.07,3.96,0.07,5.94v9.57h-5.05v-23.9
		h5.05l7.1,10.1l7.1-10.1h4.98v23.9h-5.25v-9.57c0-1.98,0.03-4.22,0.07-5.94l-0.07-0.03c-1.12,1.68-2.31,3.43-3.5,5.12l-3.47,4.92
		L426.96,160.22z"/>
	<path class="st2" d="M451.01,163.85c0.56,2.24,2.41,3.27,4.72,3.27c1.81,0,3.79-0.63,5.51-1.78v4.19
		c-1.58,0.99-4.03,1.49-6.17,1.49c-5.35,0-9.21-3.33-9.21-8.42c0-5.18,4.03-8.55,8.52-8.55c3.99,0,7.76,2.64,7.76,8.09
		c0,0.56-0.03,1.29-0.1,1.72H451.01z M457.52,160.68c-0.3-1.75-1.58-2.8-3.2-2.8c-1.55,0-2.9,0.96-3.33,2.8H457.52z"/>
	<path class="st2" d="M465.4,145.43h5.02v10.43l0.07,0.03c1.19-0.99,2.91-1.85,4.95-1.85c1.72,0,3.23,0.59,4.26,1.65
		c0.99,1.06,1.42,2.48,1.42,4.82v10.13h-5.02v-9.31c0-1.22-0.17-1.82-0.56-2.28c-0.43-0.5-1.02-0.69-1.72-0.69
		c-1.29,0-2.51,0.66-3.4,1.35v10.92h-5.02V145.43z"/>
	<path class="st2" d="M485.2,154.41h4.92v2.18l0.07,0.03c1.12-1.58,2.71-2.41,4.72-2.41c0.33,0,0.69,0.03,1.06,0.13v4.72
		c-0.4-0.1-0.89-0.17-1.35-0.17c-1.75,0-3.2,0.53-4.39,1.92v9.83h-5.02V154.41z"/>
	<path class="st2" d="M515.39,169.66c-1.06,0.76-2.67,1.35-4.52,1.35c-1.39,0-2.71-0.33-3.76-1.06c-1.19-0.83-1.91-2.11-1.91-3.79
		c0-1.78,0.83-3.14,1.98-3.93c1.25-0.86,2.87-1.16,4.55-1.16c0.96,0,1.92,0.1,2.81,0.3v-0.63c0-0.79-0.26-1.39-0.63-1.72
		c-0.46-0.43-1.32-0.69-2.51-0.69c-1.82,0-3.47,0.59-4.75,1.29v-4.32c1.32-0.66,3.3-1.25,5.68-1.25c2.18,0,4.13,0.5,5.41,1.55
		c1.22,0.99,1.81,2.44,1.81,4.49v5.51c0,0.76,0.3,1.29,0.99,1.29c0.26,0,0.56-0.07,0.83-0.2v3.76c-0.56,0.3-1.45,0.5-2.41,0.5
		c-1.32,0-2.61-0.36-3.5-1.29H515.39z M514.54,164.28c-0.53-0.17-1.25-0.23-1.78-0.23c-1.29,0-2.57,0.4-2.57,1.65
		c0,1.06,0.92,1.62,2.08,1.62c0.86,0,1.68-0.3,2.28-0.66V164.28z"/>
	<path class="st2" d="M523.97,145.43h5.02v25.22h-5.02V145.43z"/>
	<path class="st2" d="M532.68,165.27c2.24,1.32,4.85,1.88,6.4,1.88c1.39,0,2.21-0.36,2.21-1.25c0-1.25-1.82-1.12-4.26-1.75
		c-3.07-0.76-4.88-2.05-4.88-4.72c0.03-3.43,3.07-5.38,7.1-5.38c1.95,0,4.36,0.4,6.2,1.29v4.32c-2.14-1.22-4.65-1.75-6.11-1.75
		c-1.32,0-2.11,0.4-2.11,1.16c0,1.19,1.75,1.09,4.16,1.68c3.1,0.76,4.98,1.95,4.98,4.75c-0.03,3.56-3.14,5.51-7.29,5.51
		c-1.95,0-4.46-0.4-6.4-1.35V165.27z"/>
	<path class="st2" d="M557.27,154.41h4.95v1.49l0.07,0.03c1.25-1.02,2.97-1.88,5.02-1.88c1.72,0,3.24,0.59,4.26,1.65
		c0.99,1.06,1.42,2.48,1.42,4.82v10.13h-5.02v-9.31c0-1.22-0.17-1.82-0.56-2.28c-0.43-0.5-1.02-0.69-1.72-0.69
		c-1.29,0-2.51,0.66-3.4,1.35v10.92h-5.02V154.41z"/>
	<path class="st2" d="M587.8,169.1c-1.25,1.09-2.84,1.91-4.95,1.91c-1.88,0-3.3-0.66-4.22-1.62c-1.06-1.09-1.55-2.57-1.55-4.98v-10
		h5.02v9.24c0,1.19,0.2,1.88,0.63,2.34c0.43,0.5,1.09,0.73,1.78,0.73c1.25,0,2.51-0.69,3.3-1.45v-10.86h5.02v16.24h-4.95v-1.52
		L587.8,169.1z"/>
	<path class="st2" d="M597.03,154.41h4.92v2.18l0.07,0.03c1.12-1.58,2.71-2.41,4.72-2.41c0.33,0,0.69,0.03,1.06,0.13v4.72
		c-0.4-0.1-0.89-0.17-1.35-0.17c-1.75,0-3.2,0.53-4.39,1.92v9.83h-5.02V154.41z"/>
	<path class="st2" d="M617.89,163.95c2.54,1.72,5.74,2.48,7.63,2.48c1.91,0,3.33-0.76,3.33-2.54c0-2.21-2.24-2.41-5.31-3.4
		c-3.3-1.09-6.27-2.71-6.27-6.87c0-4.46,3.37-7.23,8.38-7.23c2.34,0,5.21,0.59,7.29,1.72v5.18c-2.54-1.58-5.48-2.31-7.33-2.31
		c-1.78,0-3.07,0.66-3.07,2.24c0,2.11,2.21,2.28,5.08,3.23c3.6,1.19,6.5,2.87,6.5,7.1c0,4.65-3.53,7.46-8.68,7.46
		c-2.38,0-5.31-0.59-7.56-1.75V163.95z"/>
	<path class="st2" d="M642.11,177.91h-5.02v-23.5h4.92v0.83l0.07,0.03c1.06-0.73,2.41-1.22,4.03-1.22c4.16,0,7.69,3.3,7.69,8.35
		c0,5.21-3.73,8.61-8.48,8.61c-1.32,0-2.38-0.26-3.14-0.63l-0.07,0.03V177.91z M644.69,166.95c2.61,0,4.06-1.88,4.06-4.29
		c0-2.44-1.45-4.42-3.93-4.42c-1.02,0-1.98,0.36-2.71,0.89v7.2C642.74,166.66,643.66,166.95,644.69,166.95z"/>
	<path class="st2" d="M659.54,146.39c1.58,0,2.9,1.29,2.9,2.87c0,1.58-1.32,2.87-2.9,2.87s-2.9-1.29-2.9-2.87
		C656.63,147.68,657.95,146.39,659.54,146.39z M657.03,154.41h5.02v16.24h-5.02V154.41z"/>
	<path class="st2" d="M670.33,163.85c0.56,2.24,2.41,3.27,4.72,3.27c1.82,0,3.79-0.63,5.51-1.78v4.19
		c-1.58,0.99-4.03,1.49-6.17,1.49c-5.35,0-9.21-3.33-9.21-8.42c0-5.18,4.03-8.55,8.51-8.55c3.99,0,7.76,2.64,7.76,8.09
		c0,0.56-0.03,1.29-0.1,1.72H670.33z M676.83,160.68c-0.3-1.75-1.58-2.8-3.2-2.8c-1.55,0-2.91,0.96-3.33,2.8H676.83z"/>
	<path class="st2" d="M684.71,145.43h5.02v25.22h-5.02V145.43z"/>
	<path class="st2" d="M698.01,163.85c0.56,2.24,2.41,3.27,4.72,3.27c1.82,0,3.79-0.63,5.51-1.78v4.19
		c-1.58,0.99-4.03,1.49-6.17,1.49c-5.35,0-9.21-3.33-9.21-8.42c0-5.18,4.03-8.55,8.52-8.55c3.99,0,7.76,2.64,7.76,8.09
		c0,0.56-0.03,1.29-0.1,1.72H698.01z M704.52,160.68c-0.3-1.75-1.58-2.8-3.2-2.8c-1.55,0-2.9,0.96-3.33,2.8H704.52z"/>
	<path class="st2" d="M712.4,154.41h4.95v1.49l0.07,0.03c1.25-1.02,2.97-1.88,5.02-1.88c1.72,0,3.24,0.59,4.26,1.65
		c0.99,1.06,1.42,2.48,1.42,4.82v10.13h-5.02v-9.31c0-1.22-0.17-1.82-0.56-2.28c-0.43-0.5-1.02-0.69-1.72-0.69
		c-1.29,0-2.51,0.66-3.4,1.35v10.92h-5.02V154.41z"/>
	<path class="st2" d="M735.17,165.07c1.65,0,3.04,1.32,3.04,2.97s-1.39,2.97-3.04,2.97s-3.04-1.32-3.04-2.97
		S733.52,165.07,735.17,165.07z"/>
</g>
</svg>
