<svg width="256" height="49" viewBox="0 0 256 49" fill="none" xmlns="http://www.w3.org/2000/svg">
<path d="M4.47813 38.2338V33.5061H7.8693C10.7418 33.5061 12.3377 31.5312 12.3377 29.2172C12.3377 26.8833 10.7618 24.9284 7.8693 24.9284H1.64551V38.2338H4.47813ZM7.49029 31.0126H4.47813V27.4219H7.49029C8.60738 27.4219 9.4452 28.1002 9.4452 29.2172C9.4452 30.3144 8.60738 31.0126 7.49029 31.0126Z" fill="white"/>
<path d="M24.1474 38.2338V35.7403H18.522V24.9284H15.6894V38.2338H24.1474Z" fill="white"/>
<path d="M40.1345 38.2338L35.0078 24.9284H31.4571L26.3105 38.2338H29.5421L30.3799 35.9796H36.085L36.9029 38.2338H40.1345ZM35.3071 33.4861H31.1579L33.2325 27.761L35.3071 33.4861Z" fill="white"/>
<path d="M48.1578 38.2338V32.7879L53.2446 24.9284H50.013L46.7415 30.2745L43.4301 24.9284H40.1985L45.3252 32.7879V38.2338H48.1578Z" fill="white"/>
<path d="M68.0139 38.2338C72.1831 38.2338 75.0755 35.6006 75.0755 31.5911C75.0755 27.5815 72.1831 24.9284 68.0139 24.9284H62.7676V38.2338H68.0139ZM68.0139 35.7403H65.6002V27.4219H68.0139C70.7468 27.4219 72.1831 29.2372 72.1831 31.5911C72.1831 33.8452 70.6471 35.7403 68.0139 35.7403Z" fill="white"/>
<path d="M88.0971 38.2338V35.7403H81.5142V32.7281H87.9575V30.2346H81.5142V27.4219H88.0971V24.9284H78.6816V38.2338H88.0971Z" fill="white"/>
<path d="M96.635 38.4731C100.226 38.4731 101.961 36.6379 101.961 34.2043C101.961 29.2372 94.321 30.6535 94.321 28.539C94.321 27.7411 94.9993 27.2025 96.2161 27.2025C97.5726 27.2025 99.0088 27.6613 100.086 28.6587L101.662 26.5841C100.345 25.3673 98.5899 24.7289 96.4754 24.7289C93.3436 24.7289 91.4286 26.5642 91.4286 28.7784C91.4286 33.7853 99.0886 32.1696 99.0886 34.5234C99.0886 35.2815 98.3306 35.9996 96.7747 35.9996C94.9394 35.9996 93.4832 35.1817 92.5457 34.2043L91.0097 36.3586C92.2464 37.6154 94.0817 38.4731 96.635 38.4731Z" fill="white"/>
<path d="M114.88 38.2338V35.7403H108.297V32.7281H114.74V30.2346H108.297V27.4219H114.88V24.9284H105.464V38.2338H114.88Z" fill="white"/>
<path d="M129.462 38.2338L126.47 33.167C127.906 32.8278 129.382 31.5711 129.382 29.2172C129.382 26.7437 127.687 24.9284 124.914 24.9284H118.69V38.2338H121.523V33.5061H123.597L126.21 38.2338H129.462ZM124.495 31.0126H121.523V27.4219H124.495C125.632 27.4219 126.49 28.1002 126.49 29.2172C126.49 30.3343 125.632 31.0126 124.495 31.0126Z" fill="white"/>
<path d="M138.834 38.2338V27.4219H142.704V24.9284H132.091V27.4219H135.981V38.2338H138.834Z" fill="white"/>
<path d="M158.061 38.2338C162.231 38.2338 165.123 35.6006 165.123 31.5911C165.123 27.5815 162.231 24.9284 158.061 24.9284H152.815V38.2338H158.061ZM158.061 35.7403H155.648V27.4219H158.061C160.794 27.4219 162.231 29.2372 162.231 31.5911C162.231 33.8452 160.695 35.7403 158.061 35.7403Z" fill="white"/>
<path d="M171.562 38.2338V24.9284H168.729V38.2338H171.562Z" fill="white"/>
<path d="M188.207 38.2338L183.08 24.9284H179.529L174.383 38.2338H177.614L178.452 35.9796H184.157L184.975 38.2338H188.207ZM183.379 33.4861H179.23L181.305 27.761L183.379 33.4861Z" fill="white"/>
<path d="M205.454 38.2338V24.9284H201.464L198.232 32.9675L195.001 24.9284H191.031V38.2338H193.864V28.918L197.614 38.2338H198.851L202.601 28.918V38.2338H205.454Z" fill="white"/>
<path d="M215.996 38.4731C220.025 38.4731 222.957 35.6006 222.957 31.5911C222.957 27.5815 220.025 24.709 215.996 24.709C211.986 24.709 209.054 27.5815 209.054 31.5911C209.054 35.6006 211.986 38.4731 215.996 38.4731ZM215.996 35.9597C213.542 35.9597 211.966 34.0646 211.966 31.5911C211.966 29.0976 213.542 27.2224 215.996 27.2224C218.449 27.2224 220.045 29.0976 220.045 31.5911C220.045 34.0646 218.449 35.9597 215.996 35.9597Z" fill="white"/>
<path d="M238.45 38.2338V24.9284H235.617V33.2866L229.453 24.9284H226.541V38.2338H229.374V29.5564L235.717 38.2338H238.45Z" fill="white"/>
<path d="M247.916 38.2338C252.085 38.2338 254.977 35.6006 254.977 31.5911C254.977 27.5815 252.085 24.9284 247.916 24.9284H242.669V38.2338H247.916ZM247.916 35.7403H245.502V27.4219H247.916C250.649 27.4219 252.085 29.2372 252.085 31.5911C252.085 33.8452 250.549 35.7403 247.916 35.7403Z" fill="white"/>
<path d="M119.278 3.32422H122.434L120.006 6.17394L127.048 18.2853L116.364 6.41142L119.278 3.32422Z" fill="#08A4DA"/>
<path d="M123.405 3.32422H134.818L137.974 6.41142L127.533 18.2853L121.22 6.17394L123.405 3.32422Z" fill="#08A4DA"/>
<path d="M0 14.9609H116.875L118.537 16.6233H0V14.9609Z" fill="#08A4DA"/>
<path d="M256 16.6233H136.893L138.555 14.9609H256V16.6233Z" fill="#08A4DA"/>
<path fill-rule="evenodd" clip-rule="evenodd" d="M256 48.2078H0V46.5455H256V48.2078Z" fill="#08A4DA"/>
</svg>
