<svg width="256" height="49" viewBox="0 0 256 49" fill="none" xmlns="http://www.w3.org/2000/svg">
<g clip-path="url(#clip0)">
<path d="M122.225 3.54321H119.074L116.165 6.62514L126.831 18.4787L119.801 6.38807L122.225 3.54321Z" fill="white"/>
<path d="M134.587 3.54321H123.195L121.013 6.38807L127.315 18.4787L137.739 6.62514L134.587 3.54321Z" fill="white"/>
<path fill-rule="evenodd" clip-rule="evenodd" d="M116.759 15.9895H0V17.649H118.419L116.759 15.9895ZM135.77 17.649H255.563V15.9895H137.43L135.77 17.649Z" fill="white"/>
</g>
<path d="M4.4705 38.7976V34.078H7.85588C10.7235 34.078 12.3166 32.1065 12.3166 29.7965C12.3166 27.4665 10.7434 25.515 7.85588 25.515H1.64272V38.7976H4.4705ZM7.47752 31.5887H4.4705V28.0042H7.47752C8.5927 28.0042 9.42909 28.6813 9.42909 29.7965C9.42909 30.8918 8.5927 31.5887 7.47752 31.5887ZM24.1062 38.7976V36.3084H18.4904V25.515H15.6626V38.7976H24.1062ZM40.066 38.7976L34.9481 25.515H31.4034L26.2656 38.7976H29.4917L30.328 36.5473H36.0234L36.8399 38.7976H40.066ZM35.2468 34.0581H31.1047L33.1757 28.3428L35.2468 34.0581ZM48.0756 38.7976V33.3611L53.1537 25.515H49.9276L46.6617 30.8519L43.356 25.515H40.1299L45.2478 33.3611V38.7976H48.0756ZM67.8978 38.7976C72.0598 38.7976 74.9474 36.169 74.9474 32.1662C74.9474 28.1635 72.0598 25.515 67.8978 25.515H62.6604V38.7976H67.8978ZM67.8978 36.3084H65.4882V28.0042H67.8978C70.626 28.0042 72.0598 29.8164 72.0598 32.1662C72.0598 34.4165 70.5265 36.3084 67.8978 36.3084ZM87.9467 38.7976V36.3084H81.3751V33.3013H87.8073V30.8121H81.3751V28.0042H87.9467V25.515H78.5473V38.7976H87.9467ZM96.47 39.0366C100.055 39.0366 101.787 37.2045 101.787 34.775C101.787 29.8164 94.16 31.2303 94.16 29.1194C94.16 28.3228 94.8371 27.7852 96.0519 27.7852C97.406 27.7852 98.8398 28.2432 99.9152 29.2389L101.488 27.1678C100.174 25.9531 98.4216 25.3158 96.3107 25.3158C93.1842 25.3158 91.2725 27.1479 91.2725 29.3584C91.2725 34.3568 98.9195 32.7438 98.9195 35.0936C98.9195 35.8503 98.1627 36.5672 96.6094 36.5672C94.7774 36.5672 93.3236 35.7508 92.3877 34.775L90.8543 36.9257C92.089 38.1803 93.9211 39.0366 96.47 39.0366ZM114.684 38.7976V36.3084H108.112V33.3013H114.544V30.8121H108.112V28.0042H114.684V25.515H105.284V38.7976H114.684ZM129.241 38.7976L126.254 33.7395C127.688 33.4009 129.161 32.1463 129.161 29.7965C129.161 27.3271 127.469 25.515 124.7 25.515H118.487V38.7976H121.315V34.078H123.386L125.995 38.7976H129.241ZM124.282 31.5887H121.315V28.0042H124.282C125.417 28.0042 126.274 28.6813 126.274 29.7965C126.274 30.9117 125.417 31.5887 124.282 31.5887ZM138.597 38.7976V28.0042H142.46V25.515H131.866V28.0042H135.749V38.7976H138.597ZM157.792 38.7976C161.954 38.7976 164.841 36.169 164.841 32.1662C164.841 28.1635 161.954 25.515 157.792 25.515H152.554V38.7976H157.792ZM157.792 36.3084H155.382V28.0042H157.792C160.52 28.0042 161.954 29.8164 161.954 32.1662C161.954 34.4165 160.42 36.3084 157.792 36.3084ZM171.269 38.7976V25.515H168.441V38.7976H171.269ZM187.885 38.7976L182.768 25.515H179.223L174.085 38.7976H177.311L178.147 36.5473H183.843L184.659 38.7976H187.885ZM183.066 34.0581H178.924L180.995 28.3428L183.066 34.0581ZM205.103 38.7976V25.515H201.12L197.894 33.5403L194.668 25.515H190.705V38.7976H193.533V29.4978L197.277 38.7976H198.511L202.255 29.4978V38.7976H205.103ZM215.627 39.0366C219.649 39.0366 222.577 36.169 222.577 32.1662C222.577 28.1635 219.649 25.2959 215.627 25.2959C211.624 25.2959 208.697 28.1635 208.697 32.1662C208.697 36.169 211.624 39.0366 215.627 39.0366ZM215.627 36.5274C213.177 36.5274 211.604 34.6356 211.604 32.1662C211.604 29.677 213.177 27.8051 215.627 27.8051C218.076 27.8051 219.669 29.677 219.669 32.1662C219.669 34.6356 218.076 36.5274 215.627 36.5274ZM238.043 38.7976V25.515H235.215V33.8589L229.062 25.515H226.154V38.7976H228.982V30.135L235.315 38.7976H238.043ZM247.492 38.7976C251.654 38.7976 254.542 36.169 254.542 32.1662C254.542 28.1635 251.654 25.515 247.492 25.515H242.255V38.7976H247.492ZM247.492 36.3084H245.083V28.0042H247.492C250.221 28.0042 251.654 29.8164 251.654 32.1662C251.654 34.4165 250.121 36.3084 247.492 36.3084Z" fill="white"/>
<path fill-rule="evenodd" clip-rule="evenodd" d="M255.563 48.7762H0V47.1167H255.563V48.7762Z" fill="white"/>
<defs>
<clipPath id="clip0">
<rect width="255.563" height="19.914" fill="white" transform="translate(0 0.224121)"/>
</clipPath>
</defs>
</svg>
