<svg width="32" height="32" viewBox="0 0 32 32" fill="none" xmlns="http://www.w3.org/2000/svg">
<path fill-rule="evenodd" clip-rule="evenodd" d="M30 16C30 23.732 23.732 30 16 30C8.26801 30 2 23.732 2 16C2 8.26801 8.26801 2 16 2C23.732 2 30 8.26801 30 16ZM32 16C32 24.8366 24.8366 32 16 32C7.16344 32 0 24.8366 0 16C0 7.16344 7.16344 0 16 0C24.8366 0 32 7.16344 32 16ZM6.71145 20V18.6173C6.94603 18.409 7.17848 18.2029 7.4088 17.9991L8.11255 17.3875C8.65849 16.9088 9.12765 16.4612 9.52004 16.0446C9.91244 15.628 10.2131 15.227 10.4221 14.8414C10.6311 14.4558 10.7356 14.0681 10.7356 13.6781C10.7356 13.2526 10.6205 12.9335 10.3901 12.7208C10.1598 12.5036 9.81221 12.3951 9.34731 12.3951C9.14684 12.3951 8.93999 12.4194 8.72673 12.4682C8.51774 12.5125 8.30661 12.579 8.09336 12.6676C7.8801 12.7518 7.66684 12.8515 7.45358 12.9668C7.24459 13.082 7.03987 13.2105 6.8394 13.3523L6.66667 11.3979C6.86286 11.3004 7.07825 11.2096 7.31284 11.1254C7.55168 11.0367 7.80333 10.9592 8.06776 10.8927C8.33647 10.8218 8.61157 10.7664 8.89307 10.7265C9.17883 10.6866 9.4646 10.6667 9.75036 10.6667C10.3987 10.6667 10.9467 10.7775 11.3946 10.9991C11.8467 11.2162 12.1879 11.5309 12.4182 11.943C12.6528 12.3507 12.7701 12.8405 12.7701 13.4122C12.7701 13.8819 12.6762 14.3495 12.4886 14.8148C12.3009 15.2757 12.0152 15.7388 11.6313 16.2042C11.2517 16.6695 10.7697 17.1393 10.1854 17.6135L9.41293 18.245H10.2686H11.5737H12.8724V20H6.71145ZM14.6873 14.1368L14.2331 12.548C14.8131 12.2555 15.3932 11.9652 15.9732 11.6771L17.7134 10.7996L18.6667 10.8594V12.4349V14.0437V17.1282V18.6239V20H16.6962V18.6239V17.1282V14.4425V13.1125C16.5189 13.2035 16.3419 13.2945 16.1652 13.3856C15.6747 13.6337 15.182 13.8841 14.6873 14.1368ZM24.1079 18.6667H22.5535V16.1296H20V14.5371H22.5535V12H24.1079V14.5371H26.6667V16.1296H24.1079V18.6667Z" fill="#D7182A"/>
</svg>
