<svg width="256" height="48" viewBox="0 0 256 48" fill="none" xmlns="http://www.w3.org/2000/svg">
<g clip-path="url(#clip0_1196_10794)">
<path d="M116.871 14.8965H0.5V16.5517H118.526L116.871 14.8965Z" fill="#08A4DA"/>
<path d="M136.803 16.5517H255.397V14.8965H138.458L136.803 16.5517Z" fill="#08A4DA"/>
<path d="M122.406 3.31055H119.264L116.362 6.38444L127 18.2071L119.989 6.14799L122.406 3.31055Z" fill="#08A4DA"/>
<path d="M134.737 3.31055H123.374L121.198 6.14799L127.484 18.2071L137.88 6.38444L134.737 3.31055Z" fill="#08A4DA"/>
</g>
<path d="M0.5 38.0659V25.274H5.51282C7.50926 25.274 9.1306 25.8608 10.3768 27.0345C11.6293 28.2082 12.2555 29.7502 12.2555 31.6606C12.2555 32.9341 11.9703 34.0579 11.3999 35.0318C10.8356 36.0057 10.0451 36.7548 9.0283 37.2792C8.01147 37.8037 6.84585 38.0659 5.53142 38.0659H0.5ZM3.20636 35.6686H5.51282C6.32503 35.6686 7.03805 35.4844 7.65187 35.116C8.26568 34.7477 8.72449 34.2639 9.0283 33.6646C9.3383 33.0652 9.49331 32.3972 9.49331 31.6606C9.49331 30.4931 9.1461 29.5379 8.45168 28.795C7.75727 28.0459 6.78384 27.6713 5.53142 27.6713H3.20636V35.6686Z" fill="white"/>
<path d="M14.838 38.0659V25.274H23.8313V27.6713H17.5443V30.3589H23.6918V32.7562H17.5443V35.6686H23.8313V38.0659H14.838Z" fill="white"/>
<path d="M25.7348 36.2585L27.2229 34.1328C27.7127 34.6509 28.3017 35.0723 28.9899 35.397C29.6843 35.7216 30.4407 35.8839 31.2592 35.8839C31.9722 35.8839 32.5178 35.7497 32.896 35.4813C33.2742 35.2066 33.4633 34.8663 33.4633 34.4605C33.4633 34.1983 33.3579 33.9736 33.1471 33.7863C32.9363 33.5928 32.6604 33.446 32.3194 33.3462C31.9784 33.24 31.5878 33.1308 31.1476 33.0184C30.7135 32.8998 30.2671 32.7905 29.8083 32.6906C29.3495 32.5845 28.9 32.4347 28.4598 32.2412C28.0258 32.0414 27.6383 31.8135 27.2973 31.5575C26.9563 31.2953 26.6804 30.9426 26.4695 30.4994C26.2587 30.0561 26.1533 29.5473 26.1533 28.9729C26.1533 27.8742 26.5904 26.9533 27.4647 26.2104C28.3451 25.4613 29.5138 25.0867 30.9708 25.0867C33.0045 25.0867 34.6568 25.6798 35.9279 26.8659L34.4212 28.898C33.919 28.4361 33.3455 28.0896 32.7007 27.8586C32.0559 27.6213 31.3987 27.5027 30.729 27.5027C30.1648 27.5027 29.7246 27.6182 29.4084 27.8492C29.0922 28.074 28.9341 28.3799 28.9341 28.7669C28.9341 29.0042 29.0364 29.2102 29.241 29.385C29.4518 29.5598 29.7277 29.6971 30.0687 29.797C30.4159 29.8907 30.8065 29.9968 31.2406 30.1154C31.6808 30.2278 32.1272 30.337 32.5798 30.4432C33.0324 30.5493 33.4757 30.7054 33.9097 30.9114C34.3499 31.1112 34.7405 31.3453 35.0815 31.6137C35.4288 31.8759 35.7047 32.2287 35.9093 32.6719C36.1201 33.1152 36.2255 33.6209 36.2255 34.189C36.2255 35.4126 35.7884 36.4052 34.9141 37.1669C34.0461 37.9223 32.7906 38.3 31.1476 38.3C28.8907 38.3 27.0865 37.6195 25.7348 36.2585Z" fill="white"/>
<path d="M38.6964 38.0659V25.274H47.6897V27.6713H41.4027V30.3589H47.5502V32.7562H41.4027V35.6686H47.6897V38.0659H38.6964Z" fill="white"/>
<path d="M50.4674 38.0659V25.274H56.4103C57.7123 25.274 58.7508 25.6579 59.5259 26.4258C60.3071 27.1937 60.6977 28.1832 60.6977 29.3943C60.6977 29.9312 60.6171 30.4276 60.4559 30.8833C60.2947 31.339 60.0777 31.7199 59.8049 32.0258C59.5321 32.3254 59.2345 32.5752 58.912 32.7749C58.5958 32.9685 58.2579 33.1089 57.8983 33.1963L60.7721 38.0659H57.6472L55.1548 33.5241H53.1738V38.0659H50.4674ZM53.1738 31.1268H56.029C56.5746 31.1268 57.0241 30.9707 57.3775 30.6586C57.7371 30.3402 57.9169 29.9125 57.9169 29.3756C57.9169 28.8575 57.7371 28.4454 57.3775 28.1395C57.0241 27.8274 56.5746 27.6713 56.029 27.6713H53.1738V31.1268Z" fill="white"/>
<path d="M62.592 27.6713V25.274H72.7292V27.6713H69.0277V38.0659H66.312V27.6713H62.592Z" fill="white"/>
<path d="M80.6842 38.0659V25.274H85.697C87.6935 25.274 89.3148 25.8608 90.561 27.0345C91.8135 28.2082 92.4397 29.7502 92.4397 31.6606C92.4397 32.9341 92.1545 34.0579 91.5841 35.0318C91.0199 36.0057 90.2293 36.7548 89.2125 37.2792C88.1957 37.8037 87.0301 38.0659 85.7156 38.0659H80.6842ZM83.3906 35.6686H85.697C86.5092 35.6686 87.2223 35.4844 87.8361 35.116C88.4499 34.7477 88.9087 34.2639 89.2125 33.6646C89.5225 33.0652 89.6775 32.3972 89.6775 31.6606C89.6775 30.4931 89.3303 29.5379 88.6359 28.795C87.9415 28.0459 86.9681 27.6713 85.7156 27.6713H83.3906V35.6686Z" fill="white"/>
<path d="M95.0222 38.0659V25.274H97.7285V38.0659H95.0222Z" fill="white"/>
<path d="M99.5856 38.0659L104.478 25.274H107.872L112.764 38.0659H109.695L108.895 35.9027H103.454L102.655 38.0659H99.5856ZM104.189 33.5054H108.151L106.17 27.999L104.189 33.5054Z" fill="white"/>
<path d="M114.602 38.0659V25.274H118.397L121.475 33.2712L124.563 25.274H128.376V38.0659H125.651V28.8418L122.071 38.0659H120.889L117.309 28.8418V38.0659H114.602Z" fill="white"/>
<path d="M131.451 34.3388C131.123 33.5147 130.959 32.6282 130.959 31.6793C130.959 30.7303 131.123 29.8438 131.451 29.0198C131.786 28.1957 132.245 27.4965 132.828 26.9221C133.411 26.3415 134.114 25.8858 134.939 25.5549C135.764 25.224 136.65 25.0586 137.599 25.0586C138.864 25.0586 139.998 25.3395 141.003 25.9014C142.013 26.4633 142.804 27.2499 143.374 28.2612C143.945 29.2726 144.23 30.412 144.23 31.6793C144.23 32.9466 143.945 34.086 143.374 35.0973C142.804 36.1087 142.013 36.8953 141.003 37.4572C139.998 38.019 138.864 38.3 137.599 38.3C136.65 38.3 135.764 38.1345 134.939 37.8037C134.114 37.4728 133.411 37.0202 132.828 36.4458C132.245 35.8652 131.786 35.1629 131.451 34.3388ZM133.739 31.6793C133.739 32.8904 134.093 33.8955 134.8 34.6946C135.506 35.4875 136.439 35.8839 137.599 35.8839C138.752 35.8839 139.682 35.4875 140.389 34.6946C141.096 33.8955 141.449 32.8904 141.449 31.6793C141.449 30.4619 141.096 29.4599 140.389 28.6733C139.682 27.8804 138.752 27.484 137.599 27.484C136.433 27.484 135.497 27.8804 134.79 28.6733C134.09 29.4599 133.739 30.4619 133.739 31.6793Z" fill="white"/>
<path d="M146.794 38.0659V25.274H149.575L155.462 33.3087V25.274H158.168V38.0659H155.555L149.5 29.7221V38.0659H146.794Z" fill="white"/>
<path d="M161.336 38.0659V25.274H166.349C168.346 25.274 169.967 25.8608 171.213 27.0345C172.466 28.2082 173.092 29.7502 173.092 31.6606C173.092 32.9341 172.807 34.0579 172.236 35.0318C171.672 36.0057 170.882 36.7548 169.865 37.2792C168.848 37.8037 167.682 38.0659 166.368 38.0659H161.336ZM164.043 35.6686H166.349C167.161 35.6686 167.874 35.4844 168.488 35.116C169.102 34.7477 169.561 34.2639 169.865 33.6646C170.175 33.0652 170.33 32.3972 170.33 31.6606C170.33 30.4931 169.983 29.5379 169.288 28.795C168.594 28.0459 167.62 27.6713 166.368 27.6713H164.043V35.6686Z" fill="white"/>
<path d="M180.359 36.2585L181.847 34.1328C182.337 34.6509 182.926 35.0723 183.614 35.397C184.308 35.7216 185.065 35.8839 185.883 35.8839C186.596 35.8839 187.142 35.7497 187.52 35.4813C187.898 35.2066 188.087 34.8663 188.087 34.4605C188.087 34.1983 187.982 33.9736 187.771 33.7863C187.56 33.5928 187.284 33.446 186.943 33.3462C186.602 33.24 186.212 33.1308 185.771 33.0184C185.337 32.8998 184.891 32.7905 184.432 32.6906C183.973 32.5845 183.524 32.4347 183.084 32.2412C182.65 32.0414 182.262 31.8135 181.921 31.5575C181.58 31.2953 181.304 30.9426 181.093 30.4994C180.883 30.0561 180.777 29.5473 180.777 28.9729C180.777 27.8742 181.214 26.9533 182.089 26.2104C182.969 25.4613 184.138 25.0867 185.595 25.0867C187.628 25.0867 189.281 25.6798 190.552 26.8659L189.045 28.898C188.543 28.4361 187.969 28.0896 187.325 27.8586C186.68 27.6213 186.023 27.5027 185.353 27.5027C184.789 27.5027 184.348 27.6182 184.032 27.8492C183.716 28.074 183.558 28.3799 183.558 28.7669C183.558 29.0042 183.66 29.2102 183.865 29.385C184.076 29.5598 184.352 29.6971 184.693 29.797C185.04 29.8907 185.43 29.9968 185.864 30.1154C186.305 30.2278 186.751 30.337 187.204 30.4432C187.656 30.5493 188.1 30.7054 188.534 30.9114C188.974 31.1112 189.364 31.3453 189.705 31.6137C190.053 31.8759 190.329 32.2287 190.533 32.6719C190.744 33.1152 190.849 33.6209 190.849 34.189C190.849 35.4126 190.412 36.4052 189.538 37.1669C188.67 37.9223 187.414 38.3 185.771 38.3C183.515 38.3 181.71 37.6195 180.359 36.2585Z" fill="white"/>
<path d="M193.32 38.0659V25.274H199.263C199.933 25.274 200.54 25.3832 201.086 25.6017C201.638 25.8202 202.087 26.1168 202.434 26.4914C202.788 26.8659 203.058 27.3029 203.244 27.8024C203.436 28.2956 203.532 28.8262 203.532 29.3943C203.532 29.9562 203.436 30.4838 203.244 30.9769C203.058 31.4701 202.788 31.9072 202.434 32.288C202.081 32.6626 201.632 32.9591 201.086 33.1776C200.54 33.3961 199.933 33.5054 199.263 33.5054H196.027V38.0659H193.32ZM196.027 31.108H198.882C199.427 31.108 199.877 30.952 200.23 30.6398C200.59 30.3277 200.77 29.9125 200.77 29.3943C200.77 28.8699 200.59 28.4517 200.23 28.1395C199.877 27.8274 199.427 27.6713 198.882 27.6713H196.027V31.108Z" fill="white"/>
<path d="M205.78 34.3388C205.451 33.5147 205.287 32.6282 205.287 31.6793C205.287 30.7303 205.451 29.8438 205.78 29.0198C206.114 28.1957 206.573 27.4965 207.156 26.9221C207.739 26.3415 208.443 25.8858 209.267 25.5549C210.092 25.224 210.978 25.0586 211.927 25.0586C213.192 25.0586 214.326 25.3395 215.331 25.9014C216.341 26.4633 217.132 27.2499 217.702 28.2612C218.273 29.2726 218.558 30.412 218.558 31.6793C218.558 32.9466 218.273 34.086 217.702 35.0973C217.132 36.1087 216.341 36.8953 215.331 37.4572C214.326 38.019 213.192 38.3 211.927 38.3C210.978 38.3 210.092 38.1345 209.267 37.8037C208.443 37.4728 207.739 37.0202 207.156 36.4458C206.573 35.8652 206.114 35.1629 205.78 34.3388ZM208.067 31.6793C208.067 32.8904 208.421 33.8955 209.128 34.6946C209.834 35.4875 210.768 35.8839 211.927 35.8839C213.08 35.8839 214.01 35.4875 214.717 34.6946C215.424 33.8955 215.777 32.8904 215.777 31.6793C215.777 30.4619 215.424 29.4599 214.717 28.6733C214.01 27.8804 213.08 27.484 211.927 27.484C210.761 27.484 209.825 27.8804 209.118 28.6733C208.418 29.4599 208.067 30.4619 208.067 31.6793Z" fill="white"/>
<path d="M221.122 38.0659V25.274H227.065C228.367 25.274 229.405 25.6579 230.18 26.4258C230.962 27.1937 231.352 28.1832 231.352 29.3943C231.352 29.9312 231.272 30.4276 231.11 30.8833C230.949 31.339 230.732 31.7199 230.459 32.0258C230.187 32.3254 229.889 32.5752 229.567 32.7749C229.25 32.9685 228.912 33.1089 228.553 33.1963L231.427 38.0659H228.302L225.809 33.5241H223.828V38.0659H221.122ZM223.828 31.1268H226.683C227.229 31.1268 227.679 30.9707 228.032 30.6586C228.392 30.3402 228.571 29.9125 228.571 29.3756C228.571 28.8575 228.392 28.4454 228.032 28.1395C227.679 27.8274 227.229 27.6713 226.683 27.6713H223.828V31.1268Z" fill="white"/>
<path d="M233.246 27.6713V25.274H243.384V27.6713H239.682V38.0659H236.967V27.6713H233.246Z" fill="white"/>
<path d="M244.906 36.2585L246.394 34.1328C246.884 34.6509 247.473 35.0723 248.161 35.397C248.855 35.7216 249.612 35.8839 250.43 35.8839C251.143 35.8839 251.689 35.7497 252.067 35.4813C252.445 35.2066 252.634 34.8663 252.634 34.4605C252.634 34.1983 252.529 33.9736 252.318 33.7863C252.107 33.5928 251.831 33.446 251.49 33.3462C251.149 33.24 250.759 33.1308 250.319 33.0184C249.885 32.8998 249.438 32.7905 248.979 32.6906C248.521 32.5845 248.071 32.4347 247.631 32.2412C247.197 32.0414 246.809 31.8135 246.468 31.5575C246.127 31.2953 245.851 30.9426 245.641 30.4994C245.43 30.0561 245.324 29.5473 245.324 28.9729C245.324 27.8742 245.762 26.9533 246.636 26.2104C247.516 25.4613 248.685 25.0867 250.142 25.0867C252.176 25.0867 253.828 25.6798 255.099 26.8659L253.592 28.898C253.09 28.4361 252.517 28.0896 251.872 27.8586C251.227 27.6213 250.57 27.5027 249.9 27.5027C249.336 27.5027 248.896 27.6182 248.579 27.8492C248.263 28.074 248.105 28.3799 248.105 28.7669C248.105 29.0042 248.207 29.2102 248.412 29.385C248.623 29.5598 248.899 29.6971 249.24 29.797C249.587 29.8907 249.978 29.9968 250.412 30.1154C250.852 30.2278 251.298 30.337 251.751 30.4432C252.203 30.5493 252.647 30.7054 253.081 30.9114C253.521 31.1112 253.912 31.3453 254.253 31.6137C254.6 31.8759 254.876 32.2287 255.08 32.6719C255.291 33.1152 255.397 33.6209 255.397 34.189C255.397 35.4126 254.959 36.4052 254.085 37.1669C253.217 37.9223 251.962 38.3 250.319 38.3C248.062 38.3 246.258 37.6195 244.906 36.2585Z" fill="white"/>
<path fill-rule="evenodd" clip-rule="evenodd" d="M255.397 47.9999H0.5V46.3447H255.397V47.9999Z" fill="#08A4DA"/>
<defs>
<clipPath id="clip0_1196_10794">
<rect width="254.897" height="19.8621" fill="white" transform="translate(0.5)"/>
</clipPath>
</defs>
</svg>
