<svg width="128" height="41" viewBox="0 0 128 41" fill="none" xmlns="http://www.w3.org/2000/svg">
<path d="M95.1827 24.0718C95.7309 24.0718 96.279 24.1311 96.8138 24.2525C97.3294 24.3622 97.8212 24.5636 98.2686 24.851C98.6894 25.1251 99.0405 25.497 99.2953 25.9355C99.5649 26.4362 99.6894 27.0051 99.6508 27.5755C99.6138 28.6629 99.2731 29.5518 98.6286 30.2436C97.9649 30.9489 97.1088 31.4439 96.1664 31.6673V31.7147C96.9317 31.8347 97.6291 32.2234 98.1338 32.811C98.6538 33.4051 98.8968 34.1769 98.8657 35.128C98.8544 35.8802 98.658 36.6179 98.2938 37.2761C97.9383 37.8984 97.4464 38.4287 96.8568 38.8272C96.1985 39.2648 95.4676 39.5819 94.6983 39.7635C93.8079 39.9813 92.8938 40.088 91.9798 40.0791H85.7324L89.048 24.0718H95.1827ZM90.6405 33.2317L89.8687 37.0524H92.0168C92.4138 37.0539 92.8094 37.0169 93.1975 36.9398C93.5469 36.8721 93.8834 36.7496 94.1946 36.5769C94.4835 36.4169 94.7279 36.1843 94.9057 35.8999C95.0923 35.5858 95.1931 35.2273 95.1946 34.8599C95.2137 34.6308 95.1746 34.4007 95.0808 34.1909C94.9871 33.981 94.8417 33.7984 94.6583 33.6599C94.2835 33.3784 93.7427 33.2377 93.0331 33.2377L90.6405 33.2317ZM91.9102 27.1044L91.2198 30.5177H93.479C93.7575 30.5162 94.0361 30.4866 94.3086 30.4288C94.5901 30.3725 94.8598 30.2658 95.1057 30.1132C95.3501 29.9606 95.5575 29.7532 95.7131 29.5073C95.8858 29.2233 95.9775 28.8975 95.9783 28.5651C95.9961 28.0407 95.8094 27.6644 95.4168 27.4377C94.9563 27.1958 94.4403 27.0793 93.9205 27.0999L91.9102 27.1044ZM99.8657 40.0791L103.181 24.0718H113.221L112.56 27.2821H106.039L105.402 30.3829H111.609L110.974 33.4125H104.766L104.077 36.8495H111.214L110.55 40.0791H99.8657ZM115.039 24.0703L114.354 27.3044H118.751L116.117 40.0791H119.796L122.443 27.3044H126.742L127.406 24.0703H115.039Z" fill="#1B2C5B"/>
<path d="M14.2221 8.67494C14.8666 7.81569 15.2147 6.72088 15.2621 5.39349C15.3022 4.74591 15.1953 4.09765 14.9495 3.4972C14.7142 2.95221 14.3465 2.47458 13.8799 2.10758C13.3616 1.70896 12.7695 1.41693 12.1377 1.24833C11.3823 1.04287 10.602 0.943155 9.81919 0.952037H3.35997L2.49183 5.09275H6.2844L2.00591 7.40532L0 16.9741H4.94663L6.13773 11.1134H6.75699L8.69179 16.9741H14.4577L11.634 10.4364C12.6677 10.1523 13.5779 9.53329 14.2221 8.67642V8.67494ZM9.50956 7.44088C9.11697 7.67495 8.58068 7.79199 7.8992 7.79199H6.87847L7.44439 5.09867H8.39697C8.94512 5.09867 9.37475 5.18608 9.68585 5.35941C9.99696 5.53274 10.1451 5.85422 10.1273 6.32089C10.1081 6.83199 9.90215 7.20384 9.50956 7.43495V7.44088ZM16.1199 40.0999H10.8414L11.1273 30.8689L6.18218 40.1014H1.22962L0.597032 24.0763H5.20737L5.60589 33.2362L10.591 24.0763H14.8221L14.6621 33.2362L19.5806 24.0763H24.1154L16.1199 40.0999ZM39.6471 5.72682C39.3906 5.41342 39.0665 5.1622 38.699 4.99201C38.263 4.79448 37.7879 4.69824 37.3094 4.71053C36.9165 4.70559 36.5287 4.79824 36.1805 4.98015C36.0224 5.05581 35.8888 5.17444 35.795 5.32247C35.7012 5.4705 35.651 5.64194 35.6501 5.81718C35.641 5.96017 35.6734 6.10274 35.7433 6.22781C35.8132 6.35288 35.9177 6.45515 36.0442 6.52237C36.4323 6.73718 36.8397 6.91199 37.2634 7.04236C37.8782 7.24532 38.4753 7.5031 39.0471 7.81273C39.533 8.07198 39.9745 8.40828 40.3582 8.80827C40.7093 9.17864 40.9819 9.61716 41.1627 10.0972C41.3493 10.6186 41.4293 11.1727 41.3997 11.7268C41.3627 12.7519 41.1108 13.6275 40.6412 14.3505C40.1879 15.0616 39.5893 15.663 38.8871 16.1164C38.1799 16.572 37.4026 16.9083 36.5864 17.1119C35.7938 17.3181 34.9787 17.4246 34.1597 17.429C32.9272 17.4275 31.702 17.2215 30.5346 16.8186C29.9852 16.6278 29.4553 16.3848 28.9524 16.0927C28.4887 15.829 28.0605 15.5001 27.6798 15.1208L31.305 11.8171C31.4827 12.0349 31.6946 12.226 31.9272 12.3801C32.1716 12.5475 32.4309 12.6882 32.7005 12.8038C32.9672 12.9149 33.2412 13.0053 33.5227 13.0734C33.7746 13.1401 34.0338 13.1742 34.2931 13.1771C34.7257 13.1949 35.1553 13.106 35.5464 12.9164C35.6831 12.8529 35.8007 12.7546 35.8873 12.6314C35.974 12.5081 36.0268 12.3642 36.0403 12.2141C36.0538 12.064 36.0276 11.913 35.9643 11.7763C35.901 11.6395 35.8029 11.5218 35.6797 11.4349C35.4279 11.2216 34.9509 11.0038 34.2486 10.7786C33.7136 10.6049 33.1918 10.393 32.6872 10.1446C32.226 9.9214 31.8027 9.62748 31.4324 9.27346C31.079 8.92815 30.8032 8.51149 30.6235 8.05124C30.4221 7.4973 30.3378 6.90758 30.3761 6.3194C30.3996 5.51709 30.5989 4.72971 30.9598 4.01275C31.3206 3.30077 31.8268 2.67242 32.4457 2.16832C33.1131 1.62922 33.8725 1.21517 34.6872 0.94611C35.597 0.643733 36.5506 0.49357 37.5094 0.50167C38.5982 0.504166 39.6787 0.691518 40.7049 1.05574C41.1641 1.2187 41.6101 1.42759 42.0338 1.67796C42.4101 1.89573 42.7508 2.16981 43.0471 2.49277L39.6471 5.72682ZM55.3477 40.091L58.7077 24.0704H63.8751L61.4573 35.611H66.758L65.8173 40.091H55.3477ZM53.9552 31.7977C54.6011 30.937 54.9477 29.8422 54.9981 28.5148C55.0335 27.8697 54.9242 27.2248 54.6781 26.6274C54.4433 26.0817 54.0762 25.603 53.61 25.2348C53.0911 24.8362 52.4985 24.5442 51.8663 24.3756C51.1109 24.17 50.3306 24.0702 49.5478 24.0793H43.093L42.2264 28.2215H46.0189L41.736 30.5355L39.7345 40.1014H44.6812L45.8708 34.2407H46.493L48.4263 40.1014H54.1922L51.3744 33.5622C52.4066 33.2757 53.3146 32.6552 53.9566 31.7977H53.9552ZM49.2441 30.5637C48.8515 30.7963 48.3137 30.9133 47.6337 30.9133H46.6145L47.1774 28.2215H48.133C48.6796 28.2215 49.1093 28.3089 49.4204 28.4807C49.7315 28.6555 49.8796 28.9755 49.8619 29.4437C49.8426 29.9563 49.6367 30.3296 49.2441 30.5637ZM15.6147 16.9741L18.9747 0.953517H29.2427L28.3287 5.32089H22.8946L22.5717 6.86162H27.7628L26.9035 10.9297H21.7184L21.3673 12.6038H27.4457L26.5331 16.9727L15.6147 16.9741ZM50.0782 17.4023C48.9502 17.4234 47.8274 17.2433 46.7626 16.8704C45.863 16.5546 45.0459 16.0407 44.3715 15.3667C43.7339 14.7126 43.251 13.9239 42.9582 13.0586C42.6424 12.1114 42.5063 11.1136 42.5567 10.1164C42.5969 8.83114 42.8778 7.5648 43.3849 6.38311C43.8612 5.24131 44.5588 4.2051 45.4376 3.33424C46.3163 2.46338 47.3588 1.77509 48.5048 1.30907C49.7557 0.800887 51.0955 0.547544 52.4455 0.563891C53.7196 0.563891 54.8322 0.741668 55.7877 1.09574C56.6825 1.40981 57.4959 1.92536 58.1729 2.60091C58.807 3.25128 59.2899 4.03942 59.5847 4.90756C59.9003 5.85422 60.0366 6.85125 59.9877 7.84976C59.9481 9.13373 59.6719 10.3994 59.1729 11.5831C58.6973 12.7174 58.0043 13.7476 57.1329 14.6156C56.2446 15.4901 55.1944 16.183 54.0411 16.6556C52.7829 17.1656 51.4356 17.4194 50.0782 17.4023ZM54.6263 8.24087C54.6441 7.85461 54.595 7.46818 54.4811 7.09866C54.3755 6.75615 54.1982 6.44002 53.9611 6.17126C53.7161 5.89803 53.4122 5.68423 53.0722 5.54608C52.6846 5.38931 52.2695 5.31222 51.8515 5.31941C51.303 5.31314 50.7612 5.44132 50.2737 5.69274C49.807 5.9357 49.3907 6.27051 49.0515 6.6794C48.7055 7.09758 48.433 7.57147 48.2456 8.08087C48.053 8.59494 47.9419 9.13716 47.9211 9.68679C47.9029 10.0737 47.9525 10.4607 48.0678 10.8305C48.1704 11.1782 48.3503 11.4981 48.594 11.7665C48.8377 12.0348 49.139 12.2446 49.4752 12.3801C49.8707 12.5386 50.293 12.6157 50.7196 12.6068C51.2626 12.6144 51.7994 12.4903 52.2841 12.2453C52.7478 12.0068 53.1581 11.6749 53.4944 11.272C53.8411 10.8557 54.1137 10.3801 54.3003 9.86901C54.4959 9.34753 54.607 8.79642 54.6263 8.23939V8.24087ZM85.229 5.36534L82.8083 16.9727H77.6616L80.069 5.36534H76.1135L77.0513 0.953517H90.0038L89.066 5.36534H85.229ZM98.8793 5.72682C98.6224 5.41325 98.2977 5.16201 97.9296 4.99201C97.4964 4.79569 97.0245 4.69949 96.5489 4.71053C96.1556 4.70497 95.767 4.79764 95.4186 4.98015C95.2605 5.05581 95.1269 5.17444 95.0331 5.32247C94.9393 5.4705 94.8891 5.64194 94.8882 5.81718C94.8791 5.96017 94.9115 6.10274 94.9814 6.22781C95.0513 6.35288 95.1557 6.45515 95.2823 6.52237C95.6689 6.73718 96.0778 6.91199 96.5 7.04236C97.1148 7.24532 97.7119 7.5031 98.2852 7.81273C98.7696 8.07198 99.2111 8.40828 99.5948 8.80827C99.9459 9.17864 100.22 9.61716 100.399 10.0972C100.586 10.6186 100.667 11.1727 100.638 11.7268C100.599 12.7519 100.346 13.6275 99.8793 14.3505C99.4245 15.0616 98.8274 15.663 98.1237 16.1164C97.4165 16.572 96.6393 16.9083 95.823 17.1119C95.0309 17.318 94.2163 17.4245 93.3978 17.429C92.1638 17.4275 90.9386 17.2215 89.7712 16.8186C89.2222 16.6278 88.6929 16.3847 88.1905 16.0927C87.7242 15.8272 87.2956 15.5004 86.9164 15.1208L90.5415 11.8171C90.7208 12.0349 90.9312 12.226 91.1653 12.3801C91.4082 12.546 91.6675 12.6882 91.9371 12.8038C92.2067 12.9164 92.4838 13.0068 92.7667 13.0734C93.0186 13.1401 93.2778 13.1742 93.5371 13.1771C93.9697 13.1949 94.3993 13.106 94.7904 12.9164C94.9271 12.8529 95.0447 12.7546 95.1313 12.6314C95.218 12.5081 95.2708 12.3642 95.2843 12.2141C95.2978 12.064 95.2716 11.913 95.2083 11.7763C95.145 11.6395 95.0469 11.5218 94.9237 11.4349C94.6719 11.2216 94.1949 11.0038 93.4941 10.7786C92.9585 10.6052 92.4362 10.3933 91.9312 10.1446C91.47 9.9214 91.0467 9.62748 90.6764 9.27346C90.3229 8.92792 90.0467 8.51135 89.866 8.05124C89.6651 7.4972 89.5814 6.90748 89.6201 6.3194C89.6437 5.51709 89.8429 4.72971 90.2038 4.01275C90.5646 3.30077 91.0708 2.67242 91.6897 2.16832C92.3575 1.62891 93.1174 1.21482 93.9326 0.94611C94.8377 0.644574 95.7861 0.493924 96.74 0.500188C97.8289 0.502684 98.9094 0.690036 99.9356 1.05426C100.396 1.21722 100.842 1.42611 101.266 1.67647C101.641 1.89425 101.983 2.16832 102.278 2.49128L98.8793 5.72682ZM74.0691 8.67494C74.715 7.81569 75.0617 6.72088 75.1106 5.39349C75.1474 4.74732 75.038 4.10117 74.7906 3.50313C74.5558 2.95777 74.1887 2.47962 73.7224 2.11203C73.2041 1.71341 72.612 1.42137 71.9802 1.25278C71.2242 1.04768 70.4435 0.948461 69.6602 0.957962H63.2114L62.3432 5.09867H66.1358L61.8544 7.41421L59.847 16.9786H64.7951L65.9847 11.1179H66.6114L68.5447 16.9786H74.312L71.4898 10.4394C72.5209 10.1523 73.4278 9.53185 74.0691 8.67494ZM69.358 7.44088C68.9639 7.67495 68.4276 7.79199 67.7477 7.79199H66.7254L67.3017 5.09275H68.2543C68.8025 5.09275 69.2321 5.18015 69.5432 5.35349C69.8543 5.52682 70.0024 5.8483 69.9832 6.31644C69.9624 6.83051 69.7536 7.20384 69.361 7.43495L69.358 7.44088ZM29.9657 40.4984C28.8376 40.519 27.7149 40.3384 26.6502 39.9651C25.753 39.6479 24.938 39.1342 24.265 38.4614C23.6268 37.808 23.1434 37.0198 22.8502 36.1547C22.5343 35.2076 22.3982 34.2097 22.4487 33.2125C22.489 31.9273 22.7699 30.661 23.2769 29.4792C23.7538 28.3378 24.4517 27.3019 25.3304 26.4311C26.209 25.5604 27.2512 24.8719 28.3968 24.4052C29.6477 23.897 30.9875 23.6437 32.3375 23.66C33.4743 23.6381 34.6059 23.8182 35.6797 24.1919C36.5731 24.5074 37.3879 25.0215 38.0649 25.697C38.699 26.3489 39.1834 27.137 39.4767 28.0052C39.7923 28.9503 39.9286 29.9489 39.8797 30.9459C39.8401 32.2299 39.5639 33.4955 39.0649 34.6792C38.59 35.8139 37.8969 36.8442 37.0249 37.7118C36.1367 38.5856 35.0865 39.2775 33.9331 39.7488C32.6737 40.2603 31.3249 40.5152 29.9657 40.4984ZM34.5153 31.3385C34.5327 30.9516 34.4831 30.5647 34.3686 30.1948C34.265 29.8476 34.0847 29.5282 33.8411 29.26C33.5975 28.9918 33.2968 28.7817 32.9612 28.6452C32.5731 28.4887 32.1574 28.4121 31.739 28.42C31.1908 28.4128 30.6491 28.5399 30.1613 28.7903C29.6946 29.0348 29.2783 29.3696 28.939 29.7785C28.5925 30.1985 28.3199 30.6744 28.1331 31.1859C27.9405 31.7014 27.8309 32.2437 27.8087 32.7933C27.7905 33.1802 27.8401 33.5672 27.9553 33.937C28.0587 34.2843 28.2389 34.6039 28.4825 34.8721C28.7261 35.1403 29.027 35.3504 29.3627 35.4866C29.7583 35.6451 30.1805 35.7236 30.6072 35.7133C31.1502 35.7209 31.687 35.5968 32.1716 35.3518C32.6353 35.1133 33.0457 34.7814 33.382 34.3785C33.7286 33.9607 34.0012 33.4866 34.1879 32.9755C34.3849 32.4511 34.496 31.8955 34.5153 31.334V31.3385ZM70.8617 24.0704H77.3609C78.2602 24.0719 79.1535 24.1978 80.0201 24.4437C80.8794 24.6793 81.6853 25.0822 82.3935 25.6319C83.1075 26.1948 83.6853 26.9178 84.0809 27.7459C84.506 28.6141 84.6972 29.6659 84.6527 30.9014C84.6207 32.2169 84.3282 33.5131 83.792 34.7148C83.2965 35.8172 82.5765 36.8041 81.6779 37.6125C80.7691 38.4161 79.7145 39.0377 78.5713 39.4436C77.34 39.8819 76.0412 40.1005 74.7343 40.0895H67.5032L70.8617 24.0704ZM73.435 35.5918H75.0987C75.9351 35.6175 76.7586 35.3808 77.4537 34.9148C78.1487 34.4487 78.6804 33.7768 78.9742 32.9933C79.1624 32.5044 79.2676 31.9859 79.2853 31.46C79.3016 31.0689 79.2557 30.6777 79.1476 30.3029C79.0491 29.953 78.8711 29.6306 78.6276 29.3607C78.365 29.0817 78.0437 28.8646 77.6868 28.7252C77.2461 28.5564 76.7764 28.4759 76.3046 28.4881H74.9239L73.435 35.5918Z" fill="#DC202C"/>
</svg>
