<svg xmlns="http://www.w3.org/2000/svg" xmlns:xlink="http://www.w3.org/1999/xlink" width="32" height="32" viewBox="0 0 32 32">
    <defs>
        <path id="w7fmyi3cta" d="M15.82 17.758c3.057 0 5.532 2.478 5.532 5.535 0 3.055-2.475 5.534-5.532 5.534-3.061 0-5.54-2.479-5.54-5.534 0-3.057 2.479-5.535 5.54-5.535M16.002 0C7.162 0 0 7.197 0 16.076 0 24.956 7.166 32 16.002 32c4.828 0 8.575-3.896 8.575-8.86 0-4.962-4.004-8.727-8.855-8.824 0 0-5.408.15-4.69-5.21.442-3.331 5.283-5.92 11.233-3.222 4.355 1.973 7.62 7.78 7.325 12.339-.457 7.072-4.12 10.766-7.944 12.535-.125.06-.392.188-.265.248.125.06.347-.04.46-.084C27.147 28.892 32 23.244 32 16.076 32 7.196 24.838 0 16.002 0"/>
    </defs>
    <g fill="none" fill-rule="evenodd">
        <g>
            <g transform="translate(-19 -16) translate(19 16)">
                <mask id="ocp62n8t9b" fill="#fff">
                    <use xlink:href="#w7fmyi3cta"/>
                </mask>
                <use fill="#000" xlink:href="#w7fmyi3cta"/>
                <g fill="#00A94F" mask="url(#ocp62n8t9b)">
                    <path d="M0 0H32V32H0z"/>
                </g>
            </g>
        </g>
    </g>
</svg>
