<svg xmlns="http://www.w3.org/2000/svg" width="164" height="119" viewBox="0 0 164 119">
    <defs>
        <filter id="2jsq1ih9ja" width="106.9%" height="110.2%" x="-3.5%" y="-5.1%" filterUnits="objectBoundingBox">
            <feOffset dy="2" in="SourceAlpha" result="shadowOffsetOuter1"/>
            <feGaussianBlur in="shadowOffsetOuter1" result="shadowBlurOuter1" stdDeviation="12"/>
            <feColorMatrix in="shadowBlurOuter1" result="shadowMatrixOuter1" values="0 0 0 0 0 0 0 0 0 0 0 0 0 0 0 0 0 0 0.0212513317 0"/>
            <feMerge>
                <feMergeNode in="shadowMatrixOuter1"/>
                <feMergeNode in="SourceGraphic"/>
            </feMerge>
        </filter>
    </defs>
    <g fill="none" fill-rule="evenodd">
        <g fill="#0EE56F">
            <g filter="url(#2jsq1ih9ja)" transform="translate(-80 20) translate(0 -20)">
                <g>
                    <path d="M43.149 39.703c.241-.13.512.112.412.368l-6.314 16.024c-.118.3-.353.537-.65.659L19.83 63.605c-.18.074-.167.335.02.39l12.498 3.67c.164.048.252.226.19.384l-2.536 6.437c-.14.352-.438.617-.804.712l-14.607 3.821c-.136.036-.278-.031-.337-.16l-2.074-4.484c-.075-.161.01-.35.179-.402l8.014-2.456c.197-.06.194-.34-.004-.397L9.735 68.096c-.335-.095-.61-.333-.752-.652L5.68 60.05c-.062-.14-.006-.304.13-.376zm15.994 10.36c2.038 0 3.419.493 4.122 1.468.697.991.714 2.332.036 4.024l-.89 2.112c-.156.369-.473.644-.86.745l-4.33 1.125c-.254.066-.474-.188-.372-.431l1.305-3.122c.415-1.036.135-1.546-.843-1.559-.873 0-1.634.585-1.938 1.343l-1.428 3.559c-.38.947-.195 1.384.595 1.791l.006.002 2.17.798c1.25.51 2.07 1.193 2.452 2.038.362.86.22 2.114-.453 3.79l-1.878 4.682c-.801 1.998-2.024 3.559-3.658 4.698-1.64 1.153-3.477 1.725-5.5 1.727-2.066.002-3.46-.492-4.193-1.497-.734-1.005-.746-2.39-.033-4.168l1.252-3.072c.153-.374.472-.654.862-.757l4.387-1.152c.253-.066.473.185.375.428l-1.703 4.196c-.38.948-.129 1.633.814 1.632.873-.001 1.712-.643 2.064-1.518l1.76-4.39c.392-.977.128-1.633-.765-1.996l-2.014-.712c-2.591-.828-3.193-2.577-1.865-5.887l1.557-3.88c.707-1.764 1.84-3.209 3.414-4.333 1.573-1.124 3.418-1.68 5.552-1.683zm15.29-.017c4.158-.005 5.552 2.15 3.838 6.424l-1.788 4.344c-.153.373-.473.653-.862.755l-4.35 1.138c-.254.067-.474-.185-.375-.429l2.436-5.963c.462-1.152.23-1.852-.644-1.85-.873.001-1.75.701-2.212 1.854L63.96 72.566c-.445 1.107-.147 1.85.726 1.85.873-.002 1.66-.687 2.129-1.854l.645-1.648c.15-.383.473-.672.87-.775L72.677 69c.251-.066.471.182.376.425l-1.176 2.984c-1.69 4.215-4.833 6.42-8.992 6.424-4.31.006-5.56-2.544-3.618-7.386l5.622-14.015c1.948-4.856 5.275-7.382 9.544-7.387zm15.124-.018c4.366-.005 5.627 2.515 3.68 7.371l-5.622 14.015c-1.948 4.857-5.239 7.398-9.606 7.402-4.269.006-5.56-2.544-3.618-7.386l5.621-14.015c1.937-4.827 5.276-7.382 9.545-7.387zm15.442-.019c4.367-.005 5.628 2.515 3.68 7.372l-5.622 14.015c-1.948 4.857-5.238 7.397-9.605 7.402-4.27.005-5.561-2.545-3.618-7.386l5.621-14.016c1.936-4.827 5.275-7.382 9.544-7.387zm15.443-.018c4.366-.005 5.627 2.515 3.68 7.371L118.5 71.377c-1.948 4.857-5.24 7.398-9.606 7.402-4.269.006-5.56-2.544-3.618-7.386l5.622-14.015c1.936-4.827 5.275-7.382 9.544-7.387zm16.512.153c2.171-.014 3.627.544 4.382 1.671.734 1.143.685 2.756-.159 4.866l-4.788 11.956c-.153.379-.476.664-.87.766l-1.152.297c-.28.073-.474.327-.472.617l.063 7.697c.001.176-.14.319-.316.32l-4.185.005c-.354 0-.642-.286-.644-.64l-.05-6.14c-.002-.206-.198-.357-.398-.305l-1.793.464c-.191.05-.347.187-.42.37l-2.322 5.84c-.096.244-.331.405-.593.406l-4.649.03c-.224.001-.379-.225-.295-.434l10.914-27.334c.098-.244.332-.404.594-.406zm19.955.04c.228 0 .385.232.298.444l-1.483 3.638c-.098.242-.332.4-.593.4l-4.817.008c-.26 0-.492.157-.59.397l-2.85 6.969c-.099.241.119.494.372.43l3.18-.787c.253-.063.47.189.372.43l-1.285 3.152c-.155.38-.482.663-.88.761l-3.314.822c-.282.069-.515.27-.625.54l-2.414 5.95c-.086.21.069.44.295.44l4.809-.008c.23 0 .385.232.299.444l-1.483 3.638c-.098.242-.333.4-.593.4l-10.157.016c-.225 0-.38-.228-.294-.436L146.253 50.6c.099-.242.334-.4.595-.401zm-69.07 4.263c-.9.001-1.777.701-2.239 1.854l-6.517 16.246c-.444 1.108-.146 1.852.727 1.85.873 0 1.78-.745 2.225-1.853l6.517-16.247c.445-1.109.16-1.852-.712-1.85zm15.443-.019c-.9.002-1.777.702-2.24 1.854l-6.516 16.246c-.445 1.109-.147 1.852.726 1.851.873-.001 1.781-.746 2.226-1.854l6.517-16.247c.445-1.108.16-1.851-.713-1.85zm15.443-.018c-.902.001-1.778.701-2.24 1.854l-6.517 16.246c-.444 1.108-.146 1.852.727 1.85.873 0 1.781-.745 2.226-1.853l6.516-16.247c.445-1.109.16-1.852-.712-1.85zm15.622.239l-.8.005c-.256.002-.486.158-.581.396l-4.662 11.652c-.1.246.125.5.38.433l2.31-.605c.394-.103.714-.386.865-.763l3.571-8.904c.576-1.44.156-2.222-1.083-2.214z" transform="translate(80)"/>
                </g>
            </g>
        </g>
    </g>
</svg>
