<svg xmlns="http://www.w3.org/2000/svg" width="32" height="32" viewBox="0 0 32 32">
    <g fill="none" fill-rule="evenodd">
        <g fill="#00AF43">
            <g>
                <path d="M16 16c3.366 0 6.095 2.729 6.095 6.095 0 3.367-2.73 6.096-6.094 6.096-3.367 0-6.095-2.73-6.095-6.096s2.728-6.094 6.095-6.094M16 0C7.164 0 0 7.164 0 16s7.164 16 16 16c5.471 0 9.904-4.434 9.904-9.905 0-5.469-3.809-10.013-9.903-9.904-2.104.037-3.877-1.392-3.81-3.81.066-2.413 2.417-3.601 4.628-3.698 5.321-.235 9.25 2.888 11.495 7.4.894 1.865 1.42 4.137 1.42 6.346 0 3.21-1.157 6.009-2.97 8.358-.122.156-.15.397-.002.545.147.147.386.147.534 0C28.686 25.946 32 22.095 32 16.001 32 7.164 24.836 0 16 0" transform="translate(-19 -16) translate(19 16)"/>
            </g>
        </g>
    </g>
</svg>
