<?xml version="1.0" encoding="utf-8"?>
<!-- Generator: Adobe Illustrator 25.2.1, SVG Export Plug-In . SVG Version: 6.00 Build 0)  -->
<svg version="1.1" id="Layer_1" xmlns="http://www.w3.org/2000/svg" xmlns:xlink="http://www.w3.org/1999/xlink" x="0px" y="0px"
	 viewBox="0 0 48 51.4" style="enable-background:new 0 0 48 51.4;" xml:space="preserve">
<style type="text/css">
	.st0{fill:#0EE56F;}
</style>
<g>
	<g>
		<g transform="translate(-80 20) translate(0 -20)">
			<g>
				<path class="st0" d="M123.1,5.2l-37.3,20c-0.1,0.1-0.2,0.2-0.1,0.4L89,33c0.1,0.3,0.4,0.6,0.8,0.7l10.6,3c0.2,0.1,0.2,0.3,0,0.4
					l-8,2.5c-0.2,0.1-0.3,0.2-0.2,0.4l2.1,4.5c0.1,0.1,0.2,0.2,0.3,0.2l14.6-3.8c0.4-0.1,0.7-0.4,0.8-0.7l2.5-6.4
					c0.1-0.2,0-0.3-0.2-0.4l-12.5-3.7c-0.2-0.1-0.2-0.3,0-0.4l16.8-6.9c0.3-0.1,0.5-0.4,0.7-0.7l6.3-16
					C123.7,5.3,123.4,5.1,123.1,5.2z"/>
			</g>
		</g>
	</g>
</g>
</svg>
