<svg xmlns="http://www.w3.org/2000/svg" width="202" height="37" viewBox="0 0 202 37">
    <defs>
        <filter id="2e39fxvnea">
            <feColorMatrix in="SourceGraphic" values="0 0 0 0 0.000000 0 0 0 0 0.686275 0 0 0 0 0.262745 0 0 0 1.000000 0"/>
        </filter>
    </defs>
    <g fill="none" fill-rule="evenodd">
        <g>
            <g>
                <path fill="#00AF43" d="M143 25.155h4.05V10.053H143v15.102zm11.176.3c3.275 0 5.83-2.25 5.83-5.603 0-3.374-2.555-5.567-5.83-5.567-3.218 0-5.83 2.193-5.83 5.567 0 3.352 2.593 5.602 5.83 5.602zm0-3.562c-.89 0-1.742-.75-1.742-2.04 0-1.296.87-2.007 1.742-2.007.89 0 1.741.711 1.741 2.006 0 1.29-.85 2.041-1.74 2.041zm11.677-9.744h-3.898v2.437h-1.46v3.26h1.46v2.942c0 2.793 1.551 4.666 4.77 4.666.852 0 1.363-.076 1.968-.206v-3.334c-.341.055-.662.092-.964.092-1.062 0-1.876-.393-1.876-1.462v-2.698h2.708v-3.26h-2.708v-2.437zm14.336 7.553c0-3.542-2.329-5.417-5.186-5.417-3.162 0-5.547 2.305-5.547 5.602 0 3.187 2.234 5.567 6.323 5.567 1.343 0 2.593-.264 3.69-.789v-3.052c-.945.413-1.967.785-3.122.785-1.268 0-2.442-.469-2.953-1.48h6.7c.057-.356.095-.766.095-1.216zm-6.946-.995c.284-.843.946-1.368 1.74-1.368.87 0 1.364.638 1.383 1.368h-3.123zm8.326 6.448h4.05v-4.537c0-1.891 1.08-2.454 2.272-2.454.323 0 .663.037 1.005.113v-3.71c-.266-.076-.531-.112-.872-.112-.964 0-2.102.41-2.8 1.629h-.04l-.397-1.498h-3.218v10.57zm10.268-11.82c1.154 0 2.102-.918 2.102-2.06 0-1.145-.948-2.063-2.102-2.063-1.174 0-2.101.918-2.101 2.062 0 1.143.927 2.06 2.1 2.06zm-2.025 11.82h4.05V14.587h-4.05v10.568zm7.962-11.82c1.153 0 2.1-.918 2.1-2.06 0-1.145-.947-2.063-2.1-2.063-1.174 0-2.102.918-2.102 2.062 0 1.143.928 2.06 2.102 2.06zm-1.977 1.251V25.96c0 .486-.226.711-.775.711h-.814v3.54h1.4c2.5 0 4.392-1.049 4.392-4.328V14.586h-4.203zM17.107 17.107c3.597 0 6.516 2.917 6.516 6.516s-2.919 6.517-6.516 6.517c-3.6 0-6.516-2.918-6.516-6.517 0-3.6 2.917-6.516 6.516-6.516m0-17.107C7.659 0 0 7.659 0 17.107c0 9.446 7.659 17.105 17.107 17.105 5.848 0 10.588-4.74 10.588-10.59 0-5.847-4.072-10.705-10.588-10.589-2.249.04-4.145-1.488-4.074-4.072.071-2.58 2.584-3.851 4.949-3.955 5.689-.25 9.889 3.089 12.29 7.911.955 1.995 1.516 4.424 1.516 6.786 0 3.432-1.235 6.424-3.175 8.935-.129.167-.16.425-.001.583.157.157.413.157.57 0 1.486-1.482 5.03-5.598 5.03-12.114C34.212 7.659 26.552 0 17.107 0M49.765 14.21c-1.417 0-2.514.683-3.156 1.662h-.075l-.398-1.366H43v10.41h4.043V18.88c0-.665.473-1.163 1.248-1.163.737 0 1.115.37 1.115 1.22v5.98h4.046v-7.015c0-2.344-1.362-3.692-3.687-3.692zm11.617 10.196c.719.531 1.611.7 2.505.7.827 0 1.568-.148 2.025-.403v-2.892c-.175.085-.348.127-.501.127-.391 0-.544-.255-.544-.68v-3.02c0-1.318-.37-2.297-1.329-2.999-.914-.68-2.33-1.02-3.876-1.02-1.612 0-3.048.361-3.963.765v3.275c.892-.361 1.98-.702 3.113-.702.567 0 1.112.085 1.437.384.219.212.306.446.306.765v.149c-.523-.106-1.045-.17-1.634-.17-1.044 0-2.177.19-3.005.786-.719.51-1.263 1.382-1.263 2.51 0 1.127.522 1.956 1.372 2.51.697.446 1.546.659 2.525.659 1.068 0 2.005-.276 2.788-.744h.044zm-1.09-2.19c-.218.084-.501.147-.763.147-.5 0-.957-.232-.957-.743 0-.554.522-.767 1.09-.767.152 0 .434.022.63.065v1.297zm11.517-10.11h-3.893v2.4H66.46v3.211h1.456v2.898c0 2.749 1.548 4.597 4.762 4.597.85 0 1.36-.075 1.966-.204V21.72c-.34.058-.66.093-.965.093-1.058 0-1.87-.388-1.87-1.438v-2.659h2.702v-3.21H71.81v-2.402zm6.364 1.167c1.154 0 2.099-.904 2.099-2.03s-.945-2.031-2.099-2.031c-1.17 0-2.097.905-2.097 2.032 0 1.125.926 2.029 2.097 2.029zm-2.021 11.644h4.044v-10.41h-4.044v10.41zm11.096.295c3.27 0 5.822-2.216 5.822-5.519 0-3.322-2.553-5.483-5.822-5.483-3.214 0-5.822 2.16-5.822 5.483 0 3.303 2.59 5.519 5.822 5.519zm0-3.507c-.889 0-1.74-.74-1.74-2.012 0-1.275.87-1.976 1.74-1.976.888 0 1.739.701 1.739 1.976 0 1.273-.85 2.012-1.74 2.012zm13.885-7.495c-1.418 0-2.513.683-3.156 1.662h-.076l-.396-1.366h-3.139v10.41h4.046V18.88c0-.665.473-1.163 1.247-1.163.737 0 1.115.37 1.115 1.22v5.98h4.044v-7.015c0-2.344-1.36-3.692-3.685-3.692zm11.617 10.196c.719.531 1.612.7 2.505.7.827 0 1.567-.148 2.024-.403v-2.892c-.174.085-.349.127-.5.127-.393 0-.544-.255-.544-.68v-3.02c0-1.318-.37-2.297-1.329-2.999-.914-.68-2.33-1.02-3.877-1.02-1.611 0-3.048.361-3.963.765v3.275c.893-.361 1.982-.702 3.115-.702.566 0 1.11.085 1.437.384.217.212.305.446.305.765v.149c-.522-.106-1.046-.17-1.633-.17-1.047 0-2.179.19-3.006.786-.719.51-1.264 1.382-1.264 2.51 0 1.127.523 1.956 1.373 2.51.696.446 1.546.659 2.526.659 1.067 0 2.004-.276 2.787-.744h.044zm-.827-2.19c-.218.084-.502.147-.762.147-.502 0-.96-.232-.96-.743 0-.554.524-.767 1.09-.767.152 0 .435.022.632.065v1.297zm7.024 2.7h4.046V10.04h-4.046v14.878zM135 19.546c0-3.49-2.325-5.335-5.178-5.335-3.157 0-5.538 2.27-5.538 5.519 0 3.137 2.23 5.483 6.313 5.483 1.342 0 2.589-.26 3.685-.776v-3.01c-.946.407-1.966.776-3.118.776-1.266 0-2.438-.46-2.948-1.457h6.69c.056-.351.094-.757.094-1.2zm-6.675-.979c.285-.83.946-1.346 1.74-1.346.87 0 1.36.626 1.38 1.346h-3.12z" transform="translate(0 1)"/>
            </g>
        </g>
    </g>
</svg>
