<?xml version="1.0" encoding="iso-8859-1"?>
<!-- Generator: Adobe Illustrator 23.0.1, SVG Export Plug-In . SVG Version: 6.00 Build 0)  -->
<svg version="1.1" id="Layer_1" xmlns="http://www.w3.org/2000/svg" xmlns:xlink="http://www.w3.org/1999/xlink" x="0px" y="0px"
	 viewBox="0 0 1366 292" style="enable-background:new 0 0 1366 292;" xml:space="preserve">
<g>
	<g>
		<path style="fill:#FF4200;" d="M1284.89,91.812c13.37-13.37,19.487-31.277,18.383-48.81l16.333,16.333l0,0l32.477,32.477
			c18.555,18.555,18.555,48.639,0,67.194l-78.393,78.393c-18.555,18.555-48.638,18.555-67.193,0l0,0
			c-18.555-18.555-18.555-48.639,0-67.194L1284.89,91.812z"/>
	</g>
	<path style="fill:#8F00FF;" d="M1273.691,13.419c18.555,18.555,18.555,48.639,0,67.194l-33.597,33.597l-33.597-33.597
		c-18.555-18.555-18.555-48.639,0-67.194l0,0C1225.052-5.136,1255.136-5.136,1273.691,13.419L1273.691,13.419z"/>
</g>
<g>
	<path style="fill:#FFFFFF;" d="M177.383,62.058c-43.735,0-79.189,35.454-79.189,79.189s35.454,79.189,79.189,79.189
		s79.189-35.454,79.189-79.189S221.117,62.058,177.383,62.058z M177.383,188.759c-26.199,0-47.513-21.314-47.513-47.513
		s21.314-47.513,47.513-47.513s47.513,21.314,47.513,47.513S203.581,188.759,177.383,188.759z"/>
	<path style="fill:#FFFFFF;" d="M738.038,62.058c-17.828,0-34.278,5.894-47.513,15.837V30.382c0-8.747-7.091-15.838-15.838-15.838
		h-15.838v205.89h31.675v-15.837c13.235,9.942,29.685,15.837,47.513,15.837c43.735,0,79.189-35.454,79.189-79.189
		S781.773,62.058,738.038,62.058z M738.038,188.759c-26.199,0-47.513-21.314-47.513-47.513s21.314-47.513,47.513-47.513
		s47.513,21.314,47.513,47.513S764.237,188.759,738.038,188.759z"/>
	<path style="fill:#FFFFFF;" d="M592.331,125.408c0,26.677-22.099,48.289-48.952,47.492c-25.842-0.767-46.075-22.649-46.075-48.503
		V77.895c0-8.747-7.091-15.838-15.838-15.838h-15.838l0,62.102c0,43.713,34.892,80.119,78.603,80.435
		c18.053,0.131,34.718-5.784,48.099-15.835v22.745c0,25.854-20.232,47.735-46.075,48.503c-22.715,0.674-42.028-14.687-47.441-35.584
		c-1.813-7-8.099-11.907-15.33-11.907h-17.856c0,44.185,36.188,79.918,80.542,79.177c43.419-0.725,77.835-37.055,77.835-80.481
		V62.058h-31.675V125.408z"/>
	<path style="fill:#FFFFFF;" d="M357.933,62.058c-17.828,0-34.278,5.894-47.513,15.837V62.058h-31.675v158.377h31.675v-79.189
		c0-26.199,21.314-47.513,47.513-47.513s47.513,21.314,47.513,47.513v63.351c0,8.747,7.091,15.838,15.838,15.838h15.838v-79.189
		C437.121,97.511,401.667,62.058,357.933,62.058z"/>
	<path style="fill:#FFFFFF;" d="M31.675,141.246V93.733h47.513V62.058H31.675V46.22c0-8.747-7.091-15.838-15.838-15.838H0v110.864
		c0,43.735,35.454,79.189,79.189,79.189v-31.675C52.99,188.759,31.675,167.445,31.675,141.246z"/>
	<path style="fill:#FFFFFF;" d="M1095.971,93.733V62.058h-47.513V46.22c0-8.747-7.091-15.838-15.838-15.838h-15.838v110.864
		c0,43.735,35.454,79.189,79.189,79.189v-31.675c-26.199,0-47.513-21.314-47.513-47.513V93.733H1095.971z"/>
	<path style="fill:#FFFFFF;" d="M992.237,152.333c0.508-3.624,0.789-7.322,0.789-11.086c0-44.759-37.133-80.844-82.274-79.13
		c-41.043,1.559-74.486,35.002-76.045,76.045c-1.714,45.14,34.371,82.274,79.13,82.274c25.694,0,48.511-12.249,62.975-31.214
		l-9.751-5.63c-9.48-5.473-21.128-5.692-30.762-0.494c-7.825,4.222-16.96,6.313-26.63,5.483
		c-20.434-1.753-37.348-16.735-42.037-36.248H992.237z M918.718,93.978c18.311,1.837,33.826,14.383,39.877,31.43h-89.54
		C876.104,105.539,896.005,91.7,918.718,93.978z"/>
</g>
<g>
</g>
<g>
</g>
<g>
</g>
<g>
</g>
<g>
</g>
<g>
</g>
<g>
</g>
<g>
</g>
<g>
</g>
<g>
</g>
<g>
</g>
<g>
</g>
<g>
</g>
<g>
</g>
<g>
</g>
</svg>
