<svg width="32" height="32" viewBox="0 0 32 32" fill="none" xmlns="http://www.w3.org/2000/svg">
<path fill-rule="evenodd" clip-rule="evenodd" d="M26 2H28V5H31V7H28V10H26V7H23V5H26V2ZM8.6543 10.3105C7.83398 10.6387 7.14258 11.1279 6.58008 11.7783L8.03027 13.4658C8.90918 12.5459 9.98438 12.0859 11.2559 12.0859C11.7949 12.0859 12.252 12.2207 12.627 12.4902C13.0078 12.7598 13.1982 13.1465 13.1982 13.6504C13.1982 13.9023 13.1572 14.1426 13.0752 14.3711C12.999 14.5996 12.8496 14.8604 12.627 15.1533C12.4102 15.4404 12.1582 15.7246 11.8711 16.0059C11.5898 16.2812 11.1855 16.6357 10.6582 17.0693C10.1367 17.4971 9.59473 17.9248 9.03223 18.3525C8.46973 18.7803 7.74023 19.3252 6.84375 19.9873V22H15.8789V19.75H10.9834C12.6357 18.5488 13.8486 17.4766 14.6221 16.5332C15.4014 15.5898 15.791 14.6289 15.791 13.6504C15.791 12.8711 15.5859 12.1885 15.1758 11.6025C14.7715 11.0166 14.2236 10.5742 13.5322 10.2754C12.8408 9.9707 12.0645 9.81836 11.2031 9.81836C10.3242 9.81836 9.47461 9.98242 8.6543 10.3105ZM20.7744 9.99414L16.9951 13.791L18.4453 15.3203L20.4492 13.29V22H23.0068V9.99414H20.7744Z" fill="#FFDC3E"/>
<path fill-rule="evenodd" clip-rule="evenodd" d="M29.2057 11.3399C29.7201 12.7977 30 14.3661 30 16C30 23.732 23.732 30 16 30C8.26801 30 2 23.732 2 16C2 8.26801 8.26801 2 16 2C17.961 2 19.8278 2.40317 21.522 3.13114L23.2637 1.73998C21.0839 0.627434 18.6152 0 16 0C7.16344 0 0 7.16344 0 16C0 24.8366 7.16344 32 16 32C24.8366 32 32 24.8366 32 16C32 13.8888 31.5911 11.8732 30.8482 10.0279L29.2057 11.3399Z" fill="#FFDC3E"/>
</svg>
