<svg width="81" height="49" viewBox="0 0 81 49" fill="none" xmlns="http://www.w3.org/2000/svg">
<g clip-path="url(#clip0_1330_5499)">
<path d="M4.13469 0.5H77.7347C79.4947 0.5 80.9347 1.94 80.9347 3.7V45.3C80.9347 47.06 79.4947 48.5 77.7347 48.5H4.13469C2.37469 48.5 0.934692 47.06 0.934692 45.3V3.7C0.934692 1.94 2.37469 0.5 4.13469 0.5Z" fill="#030303"/>
<g clip-path="url(#clip1_1330_5499)">
<path d="M73.4182 28.436C72.8129 28.4381 72.2314 28.2117 71.8012 27.8066C71.3711 27.4015 71.1275 26.8506 71.1238 26.2749C71.1365 25.7056 71.3844 25.1639 71.8138 24.7671C72.2431 24.3702 72.8195 24.15 73.4182 24.1541C74.0191 24.1495 74.598 24.3689 75.0309 24.7653C75.4638 25.1617 75.7162 25.7036 75.7341 26.2749C75.7253 26.8527 75.4772 27.4038 75.0435 27.8085C74.6099 28.2132 74.0258 28.4387 73.4182 28.436Z" fill="#999999"/>
<path d="M73.4232 27.4449C73.0984 27.4456 72.7865 27.324 72.5558 27.1065C72.3251 26.8891 72.1944 26.5935 72.1924 26.2846C72.199 25.979 72.3319 25.6882 72.5622 25.4751C72.7926 25.262 73.1019 25.1437 73.4232 25.1458C73.746 25.143 74.057 25.2608 74.2895 25.4737C74.5221 25.6866 74.6575 25.9777 74.6669 26.2846C74.6621 26.5949 74.5286 26.8909 74.2956 27.1082C74.0626 27.3255 73.7488 27.4464 73.4224 27.4449" fill="#3AC8EA"/>
<path d="M69.5483 26.3937C69.5375 27.0057 69.5765 27.6175 69.665 28.2238H68.221C68.1575 28.2286 68.0937 28.2209 68.0334 28.2012C67.9732 28.1814 67.9179 28.15 67.8711 28.109C67.8242 28.0679 67.7868 28.0181 67.7611 27.9626C67.7355 27.9071 67.7222 27.8472 67.7221 27.7866L67.6719 27.3195L67.6206 27.3794C67.3242 27.7095 66.9537 27.9722 66.5364 28.1481C66.1192 28.3241 65.6657 28.4088 65.2095 28.3961C63.5672 28.3961 62.6451 27.2866 62.6451 26.127C62.6451 24.2037 64.4729 23.2332 67.4888 23.2484V23.1237C67.4888 22.6229 67.271 21.7922 65.829 21.7922C64.9748 21.8362 64.1442 22.0746 63.407 22.4872C63.407 22.4872 62.9119 21.2667 63.699 20.9264C64.4767 20.5878 65.3242 20.4191 66.1794 20.4326C68.7939 20.4326 69.5483 21.9812 69.5483 23.6404V26.3937ZM67.5374 24.5C66.0786 24.4689 64.688 24.7663 64.688 25.9247C64.6758 26.0732 64.6979 26.2224 64.7528 26.3619C64.8078 26.5014 64.8941 26.6277 65.0059 26.7321C65.1176 26.8364 65.252 26.9162 65.3997 26.9659C65.5473 27.0155 65.7046 27.0338 65.8605 27.0195C66.2107 27.0277 66.5547 26.9308 66.8437 26.7425C67.1327 26.5542 67.352 26.2841 67.4705 25.9706C67.5157 25.8341 67.5382 25.6917 67.5374 25.5486V24.5Z" fill="#999999"/>
<path d="M50.0335 22.8782C50.0591 22.1203 50.0119 21.3617 49.8923 20.612H51.2799C51.3453 20.6001 51.4127 20.602 51.4773 20.6175C51.5419 20.633 51.6022 20.6618 51.6539 20.7018C51.7056 20.7418 51.7474 20.7921 51.7765 20.8491C51.8057 20.9061 51.8213 20.9684 51.8224 21.0318C51.8866 21.4161 51.9289 21.7442 51.9289 21.7442C52.1722 21.3325 52.5304 20.9928 52.9639 20.7627C53.3975 20.5325 53.8895 20.4209 54.3856 20.44C54.8708 20.4245 55.3493 20.551 55.7565 20.8023C56.1638 21.0536 56.4801 21.4178 56.6629 21.8455C56.9194 21.4608 57.2626 21.1352 57.6678 20.8924C58.1631 20.5798 58.7486 20.4217 59.3427 20.44C60.6821 20.44 62.0548 21.2992 62.0548 23.737V28.2234H60.0451V24.0188C60.0451 22.7535 59.5784 22.0031 58.5894 22.0031C58.2691 22.012 57.9594 22.1143 57.7021 22.296C57.4448 22.4777 57.2523 22.73 57.1506 23.0191C57.0806 23.2254 57.0461 23.4411 57.0487 23.6578V28.2242H55.0397V23.8161C55.0397 22.7535 54.587 22.0038 53.6334 22.0038C53.2993 22.0185 52.9778 22.1295 52.7115 22.322C52.4453 22.5146 52.247 22.7796 52.1428 23.082C52.0754 23.2894 52.0415 23.5054 52.0421 23.7226V28.2242H50.0335V22.8782Z" fill="#999999"/>
<path d="M45.2988 20.4841C44.1871 20.4773 43.1174 20.8868 42.3205 21.6239C41.5237 22.3611 41.0637 23.3668 41.04 24.4239C41.0474 25.4924 41.4998 26.5146 42.298 27.2666C43.0962 28.0187 44.1752 28.4392 45.2988 28.4361C46.4267 28.4408 47.5109 28.0221 48.3161 27.2708C49.1212 26.5195 49.5821 25.4965 49.5987 24.4239C49.5657 23.3629 49.0971 22.3564 48.2934 21.62C47.4897 20.8836 46.4147 20.4759 45.2988 20.4841ZM45.3085 26.6534C44.6886 26.6552 44.0933 26.4232 43.6529 26.0082C43.2126 25.5933 42.9631 25.0293 42.9592 24.4398C42.9724 23.8569 43.2262 23.3023 43.6658 22.896C44.1054 22.4896 44.6955 22.2642 45.3085 22.2683C45.924 22.2631 46.5171 22.4876 46.9606 22.8935C47.4041 23.2995 47.6626 23.8546 47.6807 24.4398C47.6719 25.0316 47.4177 25.5962 46.9735 26.0108C46.5292 26.4253 45.9308 26.6563 45.3085 26.6534Z" fill="#999999"/>
<path d="M36.9389 20.4841C35.8273 20.4773 34.7575 20.8868 33.9606 21.6239C33.1638 22.3611 32.7038 23.3668 32.6802 24.4238C32.6876 25.4924 33.1399 26.5146 33.9381 27.2666C34.7363 28.0186 35.8154 28.4392 36.9389 28.4361C38.0668 28.4409 39.1512 28.0222 39.9563 27.2709C40.7615 26.5196 41.2224 25.4965 41.2388 24.4238C41.206 23.3628 40.7375 22.3563 39.9338 21.6198C39.13 20.8834 38.0549 20.4757 36.9389 20.4841ZM36.9486 26.6534C36.3287 26.6551 35.7334 26.4232 35.2931 26.0082C34.8527 25.5933 34.6033 25.0293 34.5993 24.4397C34.6125 23.8569 34.8663 23.3023 35.3059 22.896C35.7455 22.4896 36.3356 22.2642 36.9486 22.2683C37.5641 22.2631 38.1572 22.4876 38.6007 22.8935C39.0442 23.2995 39.3028 23.8546 39.3208 24.4397C39.312 25.0316 39.0579 25.5962 38.6136 26.0108C38.1694 26.4253 37.571 26.6563 36.9486 26.6534Z" fill="#999999"/>
<path d="M26.3996 20.6054V22.1381H30.0723L26.0317 28.2245H32.987V26.6911H29.2537L33.2266 20.6054H26.3996Z" fill="#999999"/>
<path d="M25.4379 26.3937C25.4276 27.0056 25.4666 27.6175 25.5545 28.2238H24.1114C24.0478 28.2288 23.9838 28.2212 23.9234 28.2015C23.863 28.1818 23.8076 28.1504 23.7606 28.1094C23.7136 28.0683 23.6761 28.0184 23.6504 27.9629C23.6247 27.9073 23.6114 27.8473 23.6113 27.7866L23.5611 27.3194L23.5109 27.3794C23.2143 27.7099 22.8434 27.9729 22.4256 28.149C22.0078 28.325 21.5538 28.4096 21.0971 28.3965C19.4548 28.3965 18.5339 27.2869 18.5339 26.1274C18.5339 24.2041 20.3617 23.2336 23.3764 23.2487V23.1237C23.3764 22.6229 23.1586 21.7922 21.7174 21.7922C20.8638 21.8362 20.0339 22.0746 19.2973 22.4872C19.2973 22.4872 18.8011 21.2666 19.5894 20.9264C20.367 20.5877 21.2145 20.419 22.0697 20.4326C24.6834 20.4326 25.4379 21.9812 25.4379 23.6404V26.3937ZM23.4269 24.5C21.9694 24.4689 20.5775 24.7663 20.5775 25.9247C20.5653 26.0733 20.5875 26.2226 20.6425 26.3622C20.6975 26.5017 20.7839 26.6282 20.8958 26.7325C21.0077 26.8369 21.1423 26.9167 21.29 26.9662C21.4378 27.0158 21.5952 27.034 21.7512 27.0195C22.1013 27.0275 22.4452 26.9305 22.7341 26.7422C23.023 26.554 23.2423 26.284 23.3608 25.9706C23.4058 25.834 23.4281 25.6916 23.4269 25.5485V24.5Z" fill="#999999"/>
<path d="M5.87481 22.8791C5.90042 22.1212 5.85317 21.3626 5.73364 20.6129H7.1212C7.18665 20.6011 7.25404 20.6029 7.31865 20.6184C7.38326 20.634 7.44351 20.6627 7.4952 20.7027C7.54689 20.7427 7.58875 20.793 7.61786 20.85C7.64696 20.907 7.66261 20.9694 7.6637 21.0327C7.72786 21.417 7.77025 21.7451 7.77025 21.7451C8.01361 21.3335 8.37182 20.9939 8.80533 20.7638C9.23884 20.5336 9.73079 20.4219 10.2269 20.4409C10.7121 20.4254 11.1906 20.5519 11.5978 20.8032C12.0051 21.0546 12.3214 21.4187 12.5042 21.8464C12.7609 21.462 13.1042 21.1364 13.5091 20.8933C14.0036 20.581 14.588 20.4227 15.1813 20.4402C16.5218 20.4402 17.8946 21.2994 17.8946 23.7372V28.2236H15.8864V24.0197C15.8864 22.7544 15.4197 22.004 14.4308 22.004C14.1104 22.013 13.8007 22.1152 13.5434 22.2969C13.2861 22.4786 13.0936 22.731 12.9919 23.02C12.9219 23.2263 12.8875 23.442 12.89 23.6587V28.2251H10.881V23.8171C10.881 22.7544 10.4291 22.0047 9.47475 22.0047C9.14062 22.0194 8.81909 22.1304 8.55285 22.3229C8.28661 22.5155 8.08826 22.7806 7.98414 23.0829C7.91674 23.2903 7.88278 23.5063 7.88342 23.7235V28.2251H5.87481V22.8791Z" fill="#999999"/>
</g>
</g>
<defs>
<clipPath id="clip0_1330_5499">
<rect width="80" height="48" fill="white" transform="translate(0.934692 0.5)"/>
</clipPath>
<clipPath id="clip1_1330_5499">
<rect width="70" height="27" fill="white" transform="translate(5.73364 11)"/>
</clipPath>
</defs>
</svg>
