<svg width="81" height="49" viewBox="0 0 81 49" fill="none" xmlns="http://www.w3.org/2000/svg">
<g clip-path="url(#clip0_1330_5481)">
<path d="M3.66741 0.5H77.2674C79.0274 0.5 80.4674 1.94 80.4674 3.7V45.3C80.4674 47.06 79.0274 48.5 77.2674 48.5H3.66741C1.90741 48.5 0.467407 47.06 0.467407 45.3V3.7C0.467407 1.94 1.90741 0.5 3.66741 0.5Z" fill="#030303"/>
<g clip-path="url(#clip1_1330_5481)">
<path opacity="0.75" d="M11.3168 28.225H7.6911V24.5C7.6911 22.443 9.31462 20.775 11.3168 20.775C13.3189 20.775 14.9434 22.443 14.9434 24.5C14.9434 26.557 13.3199 28.225 11.3168 28.225ZM11.3168 17.05C7.31247 17.05 4.06543 20.385 4.06543 24.5V31.951H11.3168C15.322 31.951 18.5681 28.615 18.5681 24.5C18.5691 20.385 15.322 17.05 11.3168 17.05Z" fill="#999999"/>
<path d="M7.69207 28.226L7.69012 28.224L7.6911 28.223V24.501C7.6911 22.444 9.31462 20.776 11.3168 20.776C12.3173 20.776 13.2235 21.193 13.8795 21.867L13.8805 21.868L18.3218 26.43C18.4815 25.815 18.5681 25.169 18.5681 24.502C18.5681 20.387 15.3211 17.052 11.3168 17.052C7.31247 17.052 4.06543 20.386 4.06543 24.501V31.951H11.3168L7.69207 28.226Z" fill="#999999"/>
<path d="M25.9041 24.6359C26.3869 24.6359 26.7675 24.5119 27.0478 24.2639C27.3271 24.0159 27.4663 23.6969 27.4663 23.3069V23.2859C27.4663 22.8459 27.3252 22.5149 27.042 22.2909C26.7587 22.0679 26.3801 21.9559 25.9041 21.9559H24.4247V24.6359H25.9041ZM23.1661 20.7799H26.0122C26.4317 20.7799 26.8113 20.8379 27.1519 20.9549C27.4926 21.0719 27.7807 21.2389 28.0182 21.4579C28.2557 21.6769 28.4377 21.9389 28.5643 22.2419C28.6918 22.5459 28.755 22.8849 28.755 23.2589V23.2799C28.755 23.6969 28.6791 24.0619 28.5273 24.3759C28.3754 24.6899 28.1691 24.9529 27.9073 25.1649C27.6454 25.3769 27.3388 25.5379 26.9874 25.6469C26.6361 25.7569 26.2604 25.8109 25.8613 25.8109H24.4247V28.1949H23.1671V20.7799H23.1661Z" fill="#999999"/>
<path d="M32.6474 25.8539C32.4888 25.7899 32.3019 25.7379 32.0858 25.6949C31.8687 25.6529 31.641 25.6309 31.4006 25.6309C31.0083 25.6309 30.7027 25.7089 30.4827 25.8639C30.2627 26.0189 30.1528 26.2309 30.1528 26.4999V26.5209C30.1528 26.7889 30.254 26.9939 30.4564 27.1349C30.6589 27.2769 30.9081 27.3469 31.204 27.3469C31.4103 27.3469 31.6011 27.3189 31.7763 27.2619C31.9515 27.2059 32.1043 27.1259 32.2357 27.0239C32.3661 26.9219 32.4673 26.7979 32.5394 26.6529C32.6114 26.5079 32.6474 26.3479 32.6474 26.1709V25.8539ZM32.6163 28.1959V27.5069C32.4304 27.7329 32.1938 27.9239 31.9048 28.0789C31.6157 28.2339 31.2653 28.3119 30.8526 28.3119C30.5917 28.3119 30.3435 28.2749 30.1099 28.2009C29.8763 28.1269 29.6719 28.0169 29.4967 27.8719C29.3215 27.7269 29.1804 27.5469 29.0743 27.3319C28.9672 27.1169 28.9147 26.8679 28.9147 26.5849V26.5639C28.9147 26.2529 28.9702 25.9829 29.0801 25.7539C29.1901 25.5249 29.3429 25.3339 29.5396 25.1819C29.7352 25.0299 29.9688 24.9169 30.2404 24.8429C30.5119 24.7689 30.8059 24.7319 31.1222 24.7319C31.4522 24.7319 31.7325 24.7529 31.9622 24.7959C32.1929 24.8379 32.4138 24.8949 32.627 24.9649V24.8589C32.627 24.4709 32.5121 24.1739 32.2814 23.9689C32.0508 23.7639 31.7198 23.6619 31.2867 23.6619C30.9772 23.6619 30.7027 23.6939 30.4613 23.7569C30.2209 23.8209 29.9766 23.9049 29.7294 24.0109L29.3887 22.9829C29.6914 22.8419 30.0009 22.7289 30.3163 22.6439C30.6326 22.5589 31.0142 22.5169 31.4609 22.5169C32.2717 22.5169 32.8732 22.7239 33.2655 23.1369C33.6577 23.5499 33.8534 24.1309 33.8534 24.8799V28.1959H32.6163Z" fill="#999999"/>
<path d="M35.8272 29.9229C35.5664 29.9229 35.3338 29.8929 35.1313 29.8329C34.9289 29.7729 34.7303 29.6899 34.5385 29.5839L34.961 28.6299C35.0778 28.6939 35.1965 28.7449 35.3172 28.7839C35.4369 28.8229 35.5625 28.8419 35.6939 28.8419C35.873 28.8419 36.02 28.7959 36.1368 28.7039C36.2536 28.6119 36.3635 28.4429 36.4667 28.1959L34.1979 22.6019H35.5284L37.0751 26.7549L38.4874 22.6019H39.7868L37.6211 28.3549C37.5111 28.6449 37.3982 28.8879 37.2814 29.0859C37.1646 29.2839 37.0342 29.4439 36.8891 29.5679C36.7451 29.6919 36.5864 29.7819 36.4151 29.8379C36.2438 29.8939 36.0472 29.9229 35.8272 29.9229Z" fill="#999999"/>
<path d="M40.3795 20.7799H41.5524L45.4117 25.9069V20.7799H46.6702V28.1959H45.6102L41.638 22.9199V28.1959H40.3795V20.7799Z" fill="#999999"/>
<path d="M51.4902 25.0069C51.4697 24.8019 51.425 24.6099 51.3559 24.4299C51.2867 24.2499 51.1943 24.0949 51.0775 23.9639C50.9607 23.8329 50.8215 23.7289 50.6599 23.6519C50.4983 23.5739 50.3144 23.5349 50.108 23.5349C49.7226 23.5349 49.4053 23.6709 49.1542 23.9429C48.903 24.2149 48.7502 24.5699 48.6948 25.0079H51.4902V25.0069ZM50.2531 28.3229C49.8608 28.3229 49.4948 28.2519 49.1551 28.1109C48.8145 27.9699 48.5196 27.7719 48.2684 27.5179C48.0173 27.2639 47.8197 26.9579 47.6757 26.6009C47.5316 26.2439 47.4596 25.8509 47.4596 25.4199V25.3989C47.4596 24.9959 47.5248 24.6189 47.6552 24.2649C47.7857 23.9119 47.9696 23.6029 48.2071 23.3379C48.4446 23.0729 48.724 22.8649 49.0471 22.7129C49.3703 22.5609 49.7275 22.4849 50.1197 22.4849C50.5529 22.4849 50.9325 22.5659 51.2595 22.7289C51.5856 22.8909 51.8571 23.1099 52.0742 23.3859C52.2903 23.6609 52.4538 23.9809 52.5638 24.3449C52.6737 24.7089 52.7283 25.0919 52.7283 25.4949C52.7283 25.5509 52.7263 25.6099 52.7234 25.6699C52.7195 25.7299 52.7146 25.7919 52.7078 25.8549H48.7064C48.7746 26.3139 48.9517 26.6649 49.2379 26.9089C49.5231 27.1529 49.8686 27.2739 50.2745 27.2739C50.584 27.2739 50.8517 27.2179 51.0785 27.1049C51.3052 26.9919 51.5281 26.8259 51.7491 26.6069L52.481 27.2739C52.2202 27.5919 51.9087 27.8459 51.5476 28.0369C51.1855 28.2269 50.7543 28.3229 50.2531 28.3229Z" fill="#999999"/>
<path d="M57.083 25.8539C56.9243 25.7899 56.7374 25.7379 56.5213 25.6949C56.3043 25.6529 56.0765 25.6309 55.8361 25.6309C55.4439 25.6309 55.1382 25.7089 54.9183 25.8639C54.6983 26.0189 54.5883 26.2309 54.5883 26.4999V26.5209C54.5883 26.7889 54.6895 26.9939 54.892 27.1349C55.0944 27.2769 55.3436 27.3469 55.6395 27.3469C55.8458 27.3469 56.0366 27.3189 56.2118 27.2619C56.387 27.2059 56.5398 27.1259 56.6703 27.0239C56.8007 26.9219 56.9029 26.7979 56.9749 26.6529C57.0469 26.5079 57.083 26.3479 57.083 26.1709V25.8539ZM57.0518 28.1959V27.5069C56.8659 27.7329 56.6294 27.9239 56.3403 28.0789C56.0512 28.2339 55.7008 28.3119 55.2881 28.3119C55.0273 28.3119 54.7791 28.2749 54.5455 28.2009C54.3119 28.1269 54.1075 28.0169 53.9313 27.8719C53.7561 27.7269 53.615 27.5469 53.5089 27.3319C53.4018 27.1169 53.3492 26.8679 53.3492 26.5849V26.5639C53.3492 26.2529 53.4038 25.9829 53.5147 25.7539C53.6247 25.5249 53.7775 25.3339 53.9732 25.1819C54.1688 25.0299 54.4024 24.9169 54.674 24.8429C54.9455 24.7689 55.2395 24.7319 55.5558 24.7319C55.8858 24.7319 56.1661 24.7529 56.3958 24.7959C56.6255 24.8379 56.8474 24.8949 57.0606 24.9649V24.8589C57.0606 24.4709 56.9457 24.1739 56.715 23.9689C56.4843 23.7639 56.1534 23.6619 55.7203 23.6619C55.4108 23.6619 55.1353 23.6939 54.8949 23.7569C54.6545 23.8209 54.4102 23.9049 54.163 24.0109L53.8233 22.9829C54.126 22.8419 54.4345 22.7289 54.7508 22.6439C55.0672 22.5589 55.4487 22.5169 55.8955 22.5169C56.7063 22.5169 57.3078 22.7239 57.7 23.1369C58.0923 23.5499 58.2879 24.1309 58.2879 24.8799V28.1959H57.0518Z" fill="#999999"/>
<path d="M59.4141 22.6019H60.6716V23.8629C60.8439 23.4389 61.0872 23.0999 61.4036 22.8459C61.7199 22.5919 62.118 22.4749 62.5998 22.4959V23.8519H62.5278C62.2523 23.8519 62.0022 23.8979 61.7754 23.9899C61.5486 24.0819 61.3529 24.2199 61.1875 24.4029C61.022 24.5869 60.8955 24.8179 60.8059 25.0969C60.7164 25.3759 60.6716 25.6989 60.6716 26.0669V28.1959H59.4141V22.6019Z" fill="#999999"/>
<path d="M63.4456 20.7799H64.8773L67.2065 24.2869L69.5347 20.7799H70.9675V28.1959H69.634V22.8769L67.2172 26.3739H67.1734L64.779 22.8989V28.1959H63.4456V20.7799Z" fill="#999999"/>
<path d="M75.8283 25.0069C75.8079 24.8019 75.7631 24.6099 75.694 24.4299C75.6249 24.2499 75.5324 24.0949 75.4156 23.9639C75.2988 23.8329 75.1596 23.7289 74.998 23.6519C74.8365 23.5739 74.6525 23.5349 74.4462 23.5349C74.0607 23.5349 73.7434 23.6709 73.4923 23.9429C73.2412 24.2149 73.0884 24.5699 73.0329 25.0079H75.8283V25.0069ZM74.5902 28.3229C74.198 28.3229 73.832 28.2519 73.4923 28.1109C73.1516 27.9699 72.8567 27.7719 72.6056 27.5179C72.3545 27.2639 72.1569 26.9579 72.0128 26.6009C71.8688 26.2439 71.7968 25.8509 71.7968 25.4199V25.3989C71.7968 24.9959 71.862 24.6189 71.9924 24.2649C72.1228 23.9119 72.3068 23.6029 72.5443 23.3379C72.7818 23.0729 73.0611 22.8649 73.3843 22.7129C73.7074 22.5609 74.0646 22.4849 74.4569 22.4849C74.89 22.4849 75.2696 22.5659 75.5957 22.7289C75.9217 22.8909 76.1943 23.1099 76.4104 23.3859C76.6264 23.6609 76.7899 23.9809 76.8999 24.3449C77.0099 24.7089 77.0644 25.0919 77.0644 25.4949C77.0644 25.5509 77.0625 25.6099 77.0596 25.6699C77.0557 25.7299 77.0508 25.7919 77.044 25.8549H73.0426C73.1108 26.3139 73.2879 26.6649 73.5731 26.9089C73.8583 27.1529 74.2038 27.2739 74.6097 27.2739C74.9192 27.2739 75.1869 27.2179 75.4137 27.1049C75.6404 26.9919 75.8633 26.8259 76.0843 26.6069L76.8162 27.2739C76.5544 27.5919 76.2439 27.8459 75.8828 28.0369C75.5236 28.2269 75.0925 28.3229 74.5902 28.3229Z" fill="#999999"/>
</g>
</g>
<defs>
<clipPath id="clip0_1330_5481">
<rect width="80" height="48" fill="white" transform="translate(0.467407 0.5)"/>
</clipPath>
<clipPath id="clip1_1330_5481">
<rect width="73" height="15" fill="white" transform="translate(4.06543 17)"/>
</clipPath>
</defs>
</svg>
