<svg width="81" height="49" viewBox="0 0 81 49" fill="none" xmlns="http://www.w3.org/2000/svg">
<g clip-path="url(#clip0_1185_5498)">
<path d="M77.398 48.5H3.79802C2.03071 48.5 0.598022 47.0673 0.598022 45.3V3.7C0.598022 1.93269 2.03071 0.5 3.79802 0.5H77.398C79.1653 0.5 80.598 1.93269 80.598 3.7V45.3C80.598 47.0673 79.1653 48.5 77.398 48.5Z" fill="#030303"/>
<path fill-rule="evenodd" clip-rule="evenodd" d="M65.7564 17.4101L63.9719 28.7638C63.9372 28.9835 64.107 29.1826 64.3297 29.1826H66.1248C66.4219 29.1826 66.6753 28.9662 66.7212 28.6724L68.481 17.5228C68.5158 17.3031 68.3459 17.104 68.1228 17.104H66.1147C65.9358 17.104 65.7839 17.2335 65.7564 17.4101Z" fill="#999999"/>
<path fill-rule="evenodd" clip-rule="evenodd" d="M43.3785 21.1262H41.2858C41.0856 21.1262 40.8983 21.2255 40.7862 21.3914L37.899 25.6432L36.6758 21.5574C36.599 21.3018 36.3635 21.1262 36.0967 21.1262H34.0397C33.7914 21.1262 33.6164 21.3707 33.6966 21.6056L36.0008 28.3701L33.8334 31.4282C33.6636 31.6681 33.8351 32 34.1295 32H36.22C36.4179 32 36.6035 31.903 36.7167 31.7405L43.6762 21.6952C43.8427 21.4548 43.6711 21.1262 43.3785 21.1262Z" fill="#999999"/>
<path fill-rule="evenodd" clip-rule="evenodd" d="M60.4006 25.1789C60.1993 26.3685 59.2553 27.1674 58.0505 27.1674C57.4467 27.1674 56.9629 26.9729 56.6523 26.6051C56.344 26.2407 56.2285 25.721 56.326 25.143C56.5132 23.9635 57.4731 23.1394 58.6593 23.1394C59.2507 23.1394 59.7307 23.3355 60.0474 23.7067C60.3664 24.0806 60.492 24.6031 60.4006 25.1789ZM63.3024 21.1262H61.2202C61.042 21.1262 60.89 21.2557 60.862 21.4323L60.7706 22.0142L60.6249 21.8034C60.1741 21.1492 59.1689 20.9299 58.1654 20.9299C55.8652 20.9299 53.9002 22.6735 53.5179 25.1183C53.3189 26.3382 53.6014 27.5038 54.2933 28.3173C54.9284 29.0646 55.8349 29.3757 56.9152 29.3757C58.7698 29.3757 59.7979 28.1849 59.7979 28.1849L59.7048 28.7635C59.6701 28.9833 59.8399 29.1823 60.0631 29.1823H61.9378C62.2355 29.1823 62.4883 28.9665 62.5349 28.6727L63.6606 21.5449C63.6953 21.3252 63.5249 21.1262 63.3024 21.1262Z" fill="#999999"/>
<path fill-rule="evenodd" clip-rule="evenodd" d="M29.3874 25.1789C29.1861 26.3685 28.242 27.1674 27.0373 27.1674C26.4335 27.1674 25.9497 26.9729 25.6391 26.6051C25.3313 26.2407 25.2153 25.721 25.3128 25.143C25.5001 23.9635 26.4598 23.1394 27.6461 23.1394C28.2375 23.1394 28.7174 23.3355 29.0342 23.7067C29.3532 24.0806 29.4787 24.6031 29.3874 25.1789ZM32.2891 21.1262H30.207C30.0287 21.1262 29.8768 21.2557 29.8487 21.4323L29.7573 22.0142L29.6121 21.8034C29.1609 21.1492 28.1557 20.9299 27.1522 20.9299C24.852 20.9299 22.887 22.6735 22.5047 25.1183C22.3057 26.3382 22.5882 27.5038 23.28 28.3173C23.9152 29.0646 24.8217 29.3757 25.902 29.3757C27.7565 29.3757 28.7847 28.1849 28.7847 28.1849L28.6917 28.7635C28.6569 28.9833 28.8268 29.1823 29.0498 29.1823H30.9246C31.2223 29.1823 31.4751 28.9665 31.5217 28.6727L32.6474 21.5449C32.6822 21.3252 32.5117 21.1262 32.2891 21.1262Z" fill="#999999"/>
<path fill-rule="evenodd" clip-rule="evenodd" d="M19.7941 21.1763C19.5565 22.737 18.3645 22.737 17.2114 22.737H16.5555L17.0157 19.823C17.0432 19.6469 17.1951 19.5174 17.3734 19.5174H17.6745C18.4593 19.5174 19.2005 19.5174 19.5828 19.9642C19.8116 20.2317 19.8805 20.6285 19.7941 21.1763ZM19.2924 17.104H14.9442C14.6466 17.104 14.3937 17.3203 14.3472 17.6142L12.589 28.7637C12.5544 28.9835 12.7242 29.1825 12.9468 29.1825H15.0233C15.3204 29.1825 15.5732 28.9661 15.6198 28.6728L16.0947 25.6646C16.1406 25.3708 16.394 25.1544 16.6911 25.1544H18.0669C20.9311 25.1544 22.5844 23.7686 23.0161 21.021C23.2106 19.8202 23.0239 18.8761 22.4616 18.2151C21.8433 17.4885 20.7472 17.104 19.2924 17.104Z" fill="#999999"/>
<path fill-rule="evenodd" clip-rule="evenodd" d="M50.8078 21.1763C50.5701 22.737 49.3782 22.737 48.225 22.737H47.5691L48.0293 19.823C48.0568 19.6469 48.2088 19.5174 48.3871 19.5174H48.6881C49.473 19.5174 50.2141 19.5174 50.5964 19.9642C50.8251 20.2317 50.8942 20.6285 50.8078 21.1763ZM50.306 17.104H45.9579C45.6602 17.104 45.4074 17.3203 45.3608 17.6142L43.6027 28.7637C43.568 28.9835 43.7384 29.1825 43.9604 29.1825H46.1917C46.3997 29.1825 46.5768 29.0311 46.6093 28.8259L47.1082 25.6646C47.1543 25.3708 47.4077 25.1544 47.7048 25.1544H49.0806C51.9447 25.1544 53.598 23.7686 54.0297 21.021C54.2242 19.8202 54.0375 18.8761 53.4752 18.2151C52.8568 17.4885 51.7608 17.104 50.306 17.104Z" fill="#999999"/>
</g>
<defs>
<clipPath id="clip0_1185_5498">
<rect width="80" height="48" fill="white" transform="translate(0.598022 0.5)"/>
</clipPath>
</defs>
</svg>
