<svg width="81" height="49" viewBox="0 0 81 49" fill="none" xmlns="http://www.w3.org/2000/svg">
<g clip-path="url(#clip0_1330_5454)">
<path d="M76.8653 0.5H3.26531C1.498 0.5 0.0653076 1.93269 0.0653076 3.7V45.3C0.0653076 47.0673 1.498 48.5 3.26531 48.5H76.8653C78.6326 48.5 80.0653 47.0673 80.0653 45.3V3.7C80.0653 1.93269 78.6326 0.5 76.8653 0.5Z" fill="#030303"/>
<path fill-rule="evenodd" clip-rule="evenodd" d="M19.2125 23.8265C19.2049 23.5982 19.0908 23.4803 18.8689 23.4727H17.6855C17.4049 23.4887 17.2606 23.6337 17.2534 23.9063V25.9147C17.2606 26.1962 17.4203 26.3396 17.7319 26.3478H18.8162C18.9291 26.3478 19.0228 26.3082 19.0976 26.2277C19.1755 26.1674 19.2125 26.0895 19.2125 25.9933V23.8265ZM15.7336 23.5414C15.7414 23.039 15.86 22.6571 16.0903 22.3959C16.2106 22.2867 16.3618 22.1951 16.5453 22.1194C16.7357 22.0389 16.9204 22 17.0997 22H19.2725C20.2308 22.0077 20.7181 22.502 20.7336 23.4842V26.507C20.7263 26.8556 20.5818 27.1582 20.3015 27.4114C20.0247 27.677 19.6935 27.8126 19.3083 27.8207H17.2534V30H15.7336V23.5414Z" fill="#999999"/>
<path fill-rule="evenodd" clip-rule="evenodd" d="M23.2535 26.1811C23.2535 26.2678 23.2944 26.3364 23.3752 26.3876C23.4465 26.4495 23.5367 26.4817 23.6506 26.4817H24.8181C25.0823 26.4817 25.2189 26.3823 25.2265 26.1811V25.7572C25.2265 25.526 25.0872 25.4093 24.8069 25.4093H23.6506C23.4988 25.4093 23.3937 25.4337 23.3351 25.4802C23.2809 25.535 23.2535 25.6434 23.2535 25.804V26.1811ZM25.2265 23.8463C25.2342 23.6192 25.0985 23.5106 24.8177 23.5181H21.7567V22H25.2033C26.2069 22.0157 26.7165 22.4876 26.7336 23.4184V26.5941C26.7251 26.9959 26.5988 27.327 26.3533 27.5902C26.0966 27.863 25.7659 28 25.3603 28H23.2771C22.2631 27.9916 21.7493 27.5417 21.7336 26.6468V25.4216C21.7413 24.4864 22.2328 24.0113 23.2051 23.9948H25.2265V23.8463Z" fill="#999999"/>
<path fill-rule="evenodd" clip-rule="evenodd" d="M30.1741 28.5271C30.2711 28.5202 30.3546 28.4792 30.423 28.4061C30.4885 28.3377 30.5213 28.2593 30.5213 28.1705V27.8207H28.9562C28.7519 27.8207 28.5887 27.7902 28.4669 27.7295C28.3385 27.6741 28.2101 27.5709 28.0813 27.4246C27.959 27.2694 27.871 27.107 27.8178 26.9375C27.7619 26.7824 27.7336 26.5851 27.7336 26.3478V22H28.9562V25.8812C28.9562 26.1924 29.0646 26.3478 29.2839 26.3478H30.1468C30.2494 26.3478 30.3386 26.3082 30.4131 26.2277C30.4855 26.1597 30.5213 26.0787 30.5213 25.9835V22H31.7336V28.4142C31.727 28.8887 31.623 29.2687 31.423 29.5569C31.2195 29.8453 30.9418 29.9926 30.5875 30H27.7336V28.5271H30.1741Z" fill="#999999"/>
<path fill-rule="evenodd" clip-rule="evenodd" d="M33.7336 26.4817H36.0669C36.2805 26.4732 36.3912 26.3768 36.3979 26.1919V26.0554C36.3979 26.016 36.3873 25.9722 36.367 25.9249C36.3149 25.8104 36.2508 25.7533 36.1747 25.7533H35.0179C34.6746 25.7459 34.3817 25.6123 34.1354 25.3547C33.8866 25.1168 33.7587 24.8241 33.7516 24.4804V23.3484C33.7651 22.4652 34.1902 22.0157 35.0276 22H37.7336V23.5181H35.4412C35.1719 23.5181 35.0366 23.6112 35.0366 23.7967V23.9438C35.0366 24.1364 35.1751 24.2329 35.4512 24.2329H36.6043C36.9117 24.241 37.1734 24.3736 37.3918 24.6325C37.6123 24.8933 37.7267 25.2035 37.7336 25.5636V26.6712C37.7267 26.9823 37.5992 27.2927 37.3538 27.6023C37.2342 27.7544 37.1119 27.859 36.9896 27.918C36.8628 27.9724 36.6909 28 36.471 28H33.7336V26.4817Z" fill="#999999"/>
<path fill-rule="evenodd" clip-rule="evenodd" d="M40.253 26.1811C40.253 26.2678 40.2938 26.3364 40.3761 26.3876C40.4468 26.4495 40.5374 26.4817 40.65 26.4817H41.8198C42.0841 26.4817 42.2203 26.3823 42.2282 26.1811V25.7572C42.2282 25.526 42.0871 25.4093 41.8074 25.4093H40.65C40.4982 25.4093 40.3936 25.4337 40.3353 25.4802C40.2813 25.535 40.253 25.6434 40.253 25.804V26.1811ZM42.2282 23.8463C42.2347 23.6192 42.0988 23.5106 41.8178 23.5181H38.7566V22H42.2047C43.208 22.0157 43.7177 22.4876 43.7336 23.4184V26.5941C43.7255 26.9959 43.5981 27.327 43.354 27.5902C43.0988 27.863 42.7675 28 42.3613 28H40.276C39.2625 27.9916 38.7477 27.5417 38.7336 26.6468V25.4216C38.7403 24.4864 39.2312 24.0113 40.2051 23.9948H42.2282V23.8463Z" fill="#999999"/>
<path fill-rule="evenodd" clip-rule="evenodd" d="M44.7336 21.3332C44.7408 20.9351 44.8605 20.6154 45.095 20.3756C45.3226 20.1322 45.6211 20.007 45.9905 20H46.7336V21.425H46.2838C46.0365 21.432 45.9101 21.5773 45.9049 21.8575V22.17H46.7336V23.6464H45.9049V28H44.7336V21.3332Z" fill="#999999"/>
<path fill-rule="evenodd" clip-rule="evenodd" d="M51.1773 23.818V23.7826C51.1773 23.7045 51.1446 23.6383 51.0786 23.5889C51.0073 23.5411 50.9201 23.5181 50.8156 23.5181H49.7513C49.6147 23.5181 49.5046 23.5549 49.4193 23.6306C49.3135 23.7006 49.2596 23.7928 49.2596 23.9062V24.5159L51.1773 23.818ZM49.284 25.9638V26.0583C49.284 26.18 49.3167 26.2765 49.3831 26.3466C49.4312 26.4362 49.4959 26.4817 49.582 26.4817H52.7234V28H49.3831C49.0782 28 48.8412 27.9724 48.6731 27.9172C48.4897 27.859 48.3249 27.7635 48.1812 27.631C48.0131 27.4701 47.8986 27.3066 47.841 27.1382C47.7779 26.9628 47.7466 26.7298 47.7466 26.4397L47.7336 23.4012C47.7507 22.4829 48.2469 22.0157 49.222 22H51.2835C52.2358 22.0157 52.7182 22.4995 52.7336 23.4527V24.6531L49.284 25.9638Z" fill="#999999"/>
<path fill-rule="evenodd" clip-rule="evenodd" d="M55.5318 28C55.3006 28 55.0897 27.9798 54.8983 27.9421C54.6978 27.9108 54.4979 27.8212 54.2935 27.6705C54.084 27.4948 53.9393 27.2982 53.8599 27.0807C53.7759 26.8671 53.7353 26.6251 53.7353 26.3525V23.5378C53.7268 23.3083 53.7509 23.1065 53.8066 22.9321C53.8581 22.7573 53.9658 22.5868 54.1288 22.4195C54.3146 22.2438 54.504 22.1271 54.7045 22.0698C54.8969 22.0233 55.114 22 55.3572 22H57.6967V22.3525H55.4113C55.008 22.3525 54.6907 22.4323 54.4589 22.5919C54.2215 22.7663 54.1008 23.0664 54.1008 23.4894V26.306C54.1008 26.5043 54.1322 26.6969 54.1948 26.8829C54.2589 27.0658 54.3654 27.2261 54.519 27.3662C54.685 27.4877 54.851 27.5634 55.0123 27.5943C55.181 27.6301 55.3612 27.6469 55.5529 27.6469H57.7336V28H55.5318Z" fill="#999999"/>
<path fill-rule="evenodd" clip-rule="evenodd" d="M63.3679 24.3479H60.2895C59.9206 24.3562 59.6324 24.4653 59.424 24.6757C59.2089 24.8891 59.1025 25.1823 59.1025 25.5543V26.4528C59.1025 26.627 59.1215 26.7862 59.1605 26.9296C59.1992 27.0804 59.2959 27.2152 59.4485 27.3311C59.7145 27.5422 60.009 27.6466 60.3307 27.6466H62.1959C62.9752 27.6388 63.3679 27.2452 63.3679 26.464V24.3479ZM63.7334 26.3761C63.7334 26.6026 63.7155 26.8018 63.685 26.9767C63.6353 27.1672 63.5334 27.3505 63.3789 27.5248C63.0573 27.8496 62.6586 28.008 62.1833 27.9997H60.3526C59.8774 27.9997 59.4917 27.8636 59.1932 27.5927C58.8881 27.3248 58.7336 26.9525 58.7336 26.4751V25.568C58.7491 24.5439 59.2813 24.0199 60.3297 23.996H63.3789V23.5987C63.3789 23.2718 63.2801 22.9851 63.0834 22.7387C62.9585 22.5785 62.8109 22.4718 62.6431 22.4164C62.4736 22.3741 62.2833 22.3525 62.0711 22.3525H58.7447V22H61.8982C62.1864 22 62.4473 22.0194 62.683 22.0577C62.8047 22.0807 62.915 22.126 63.0172 22.1914C63.1247 22.254 63.2255 22.3452 63.3189 22.4647C63.6017 22.8143 63.7395 23.2174 63.7334 23.6718V26.3761Z" fill="#999999"/>
<path fill-rule="evenodd" clip-rule="evenodd" d="M67.2877 22.3525C66.4714 22.368 66.0694 22.8144 66.0846 23.6931V28H65.734V23.6946C65.7177 22.5643 66.2542 22 67.344 22H67.7336V22.3525H67.2877Z" fill="#999999"/>
<path fill-rule="evenodd" clip-rule="evenodd" d="M72.4443 22.3138H70.1547C69.9898 22.3138 69.8419 22.3363 69.7087 22.379C69.5692 22.4175 69.4345 22.521 69.3084 22.6893C69.1876 22.8427 69.1119 22.9947 69.0796 23.1467C69.0373 23.3001 69.0182 23.4841 69.0251 23.6986V26.463C69.0251 26.9226 69.1339 27.2352 69.3547 27.4032C69.4636 27.4811 69.5831 27.5394 69.7174 27.5786C69.8511 27.622 69.9998 27.6436 70.1642 27.6436H71.165C71.5388 27.6436 71.8447 27.5385 72.0797 27.3261C72.3161 27.127 72.4363 26.7833 72.4443 26.2938V22.3138ZM72.7336 26.3182C72.7078 27.4622 72.2126 28.0231 71.2478 27.9993H70.1745C69.9478 27.9993 69.745 27.9751 69.5659 27.9289C69.3815 27.8707 69.2048 27.7331 69.0348 27.5187C68.907 27.3261 68.8248 27.1314 68.7918 26.9318C68.7476 26.7328 68.7282 26.5111 68.735 26.2691V23.6895C68.7476 22.5275 69.2263 21.9498 70.1723 21.9587H72.4443V20H72.7336V26.3182Z" fill="#999999"/>
<path fill-rule="evenodd" clip-rule="evenodd" d="M8.12773 21.7322C8.2237 21.6858 8.31974 21.6499 8.41564 21.6272C8.59215 20.7078 9.33856 20.0178 10.2335 20.0178C11.1287 20.0178 11.8755 20.7087 12.0517 21.6282C12.3265 21.6847 12.5537 21.8063 12.7308 21.9867C12.738 21.8101 12.7315 21.64 12.7124 21.4799C12.5989 20.0904 11.5313 19 10.2297 19C8.88938 19 7.7984 20.1593 7.74169 21.6083C7.73386 21.7334 7.73155 21.8636 7.73562 22C7.84812 21.8965 7.97654 21.8035 8.12773 21.7322Z" fill="#E2001A"/>
<path fill-rule="evenodd" clip-rule="evenodd" d="M12.169 22H8.19594C8.00461 22 7.80662 22.0401 7.60252 22.1231C7.40601 22.2011 7.24429 22.2955 7.11523 22.4081C6.86847 22.6773 6.74233 23.071 6.73364 23.5889V26.4102C6.74233 26.9294 6.86847 27.3224 7.11523 27.5902C7.24429 27.7048 7.40601 27.799 7.60252 27.8777C7.80662 27.9591 8.00461 28 8.19594 28H12.169C13.195 27.9916 13.7172 27.4804 13.7336 26.4695V23.5299C13.7172 22.5174 13.195 22.0079 12.169 22Z" fill="#E2001A"/>
</g>
<defs>
<clipPath id="clip0_1330_5454">
<rect width="80" height="48" fill="white" transform="translate(0.0653076 0.5)"/>
</clipPath>
</defs>
</svg>
