<svg width="80" height="49" viewBox="0 0 80 49" fill="none" xmlns="http://www.w3.org/2000/svg">
<g clip-path="url(#clip0_1330_5472)">
<path d="M3.2 0.5H76.8C78.56 0.5 80 1.94 80 3.7V45.3C80 47.06 78.56 48.5 76.8 48.5H3.2C1.44 48.5 0 47.06 0 45.3V3.7C0 1.94 1.44 0.5 3.2 0.5Z" fill="#030303"/>
<path d="M49.12 38.6598C47.44 38.1798 46.16 36.6598 45.84 34.8998C45.76 34.6598 45.76 34.4998 46.16 34.4998C46.96 34.4998 47.76 34.4998 48.64 34.4998C48.8 34.4998 48.96 34.4998 49.04 34.7398C49.36 35.8598 50.8 36.0998 51.76 35.9398C52.88 35.7798 53.68 34.8998 53.76 33.7798C53.76 33.2198 53.76 32.6598 53.76 32.0198C52.96 33.1398 51.6 33.6998 50.24 33.5398C48.4 33.6198 46.8 32.4998 46.16 30.8198C45.84 30.0198 45.68 29.2198 45.68 28.4198C45.68 26.4998 45.68 24.6598 45.68 22.8198C45.68 22.4998 45.76 22.3398 46.16 22.3398C46.88 22.3398 47.68 22.3398 48.4 22.3398C48.8 22.3398 48.96 22.4198 48.96 22.8998C48.96 24.5798 48.96 26.2598 48.96 27.8598C48.96 28.2598 48.96 28.6598 49.12 29.0598C49.28 29.8598 49.92 30.4198 50.72 30.5798C51.52 30.7398 52.4 30.4998 52.96 29.8598C53.52 29.2198 53.76 28.3398 53.68 27.5398C53.68 25.9398 53.68 24.4198 53.68 22.8198C53.68 22.4198 53.76 22.3398 54.16 22.3398C54.96 22.3398 55.76 22.3398 56.48 22.3398C56.72 22.3398 56.8 22.4198 56.8 22.6598C56.8 26.4198 56.8 30.2598 56.8 34.0198C56.8 36.4998 54.96 38.5798 52.56 38.8998C52.08 38.8998 51.52 38.8998 51.04 38.8998C50.4 38.8198 49.76 38.7398 49.12 38.6598ZM26.08 25.3798C26.08 22.9798 26.08 20.4998 26.08 18.0998C26.08 17.6998 26.16 17.6198 26.56 17.6198C27.36 17.6198 28.08 17.6198 28.88 17.6198C29.2 17.6198 29.36 17.6198 29.36 18.0198C29.36 22.8998 29.36 27.8598 29.36 32.7398C29.36 33.0598 29.28 33.1398 28.88 33.1398C28.08 33.1398 27.36 33.1398 26.56 33.1398C26.16 33.1398 26.08 32.9798 26.08 32.6598C26.08 30.2598 26.08 27.7798 26.08 25.3798Z" fill="#999999"/>
<path d="M63.5999 15.38H66.9599C67.9999 15.38 68.8799 16.26 68.8799 17.3C68.8799 18.34 67.9999 19.22 66.9599 19.22C65.8399 19.22 64.7199 19.22 63.5999 19.22C63.4399 19.22 63.2799 19.14 63.1999 18.98C62.7199 18.42 62.1599 17.94 61.6799 17.38C61.6799 17.3 61.6799 17.3 61.6799 17.22C62.2399 16.58 62.7999 16.02 63.3599 15.54C63.3599 15.38 63.5199 15.38 63.5999 15.38Z" fill="#F7A01D"/>
<path d="M61.68 17.2199V17.2999C61.12 18.0199 60.48 18.6599 59.76 19.1399C58.64 19.1399 57.44 19.1399 56.32 19.1399C55.28 19.1399 54.48 18.2599 54.48 17.2199C54.48 16.1799 55.36 15.3799 56.4 15.3799H59.76C59.84 15.2999 59.92 15.2999 60 15.3799C60.64 15.8599 61.12 16.4199 61.68 17.0599C61.68 17.1399 61.68 17.1399 61.68 17.2199Z" fill="#06A4DE"/>
<path d="M59.84 19.1398L61.76 17.2198L63.68 19.1398C63.68 20.2598 63.68 21.3798 63.68 22.4998C63.68 23.5398 62.8 24.4198 61.76 24.4198C60.72 24.4198 59.84 23.5398 59.84 22.4998C59.84 21.3798 59.84 20.2598 59.84 19.1398Z" fill="#E91876"/>
<path d="M61.68 17.2199L59.76 15.3799C59.76 14.2599 59.76 13.1399 59.76 12.0199C59.76 10.9799 60.64 10.0999 61.68 10.0999C62.72 10.0999 63.6 10.9799 63.6 12.0199C63.6 13.1399 63.6 14.2599 63.6 15.3799L61.68 17.2199Z" fill="#CBDB2A"/>
<path d="M24.08 21.1399C23.44 19.0599 21.44 17.6999 19.28 17.6999C16.8 17.5399 14.24 17.6999 11.68 17.6199C11.52 17.6199 11.28 17.6199 11.12 17.5399V33.1399C12.16 33.1399 13.2 33.1399 14.24 33.1399C14.56 33.1399 14.64 33.0599 14.64 32.7399C14.64 31.5399 14.64 30.42 14.64 29.22C14.64 28.82 14.72 28.6599 15.12 28.7399C16.32 28.7399 17.52 28.7399 18.72 28.7399C20.24 28.8199 21.76 28.26 22.88 27.22C24.48 25.62 24.96 23.2199 24.08 21.1399ZM18.96 25.5399C17.6 25.6999 16.24 25.5399 14.88 25.6199C14.56 25.6199 14.64 25.3799 14.64 25.2199C14.64 24.5799 14.64 23.9399 14.64 23.2999C14.64 22.6599 14.64 21.9399 14.64 21.2999C14.64 21.0599 14.72 20.9799 14.96 20.9799C16.24 20.9799 17.44 20.9799 18.72 20.9799C19.92 20.9799 20.96 22.0199 20.96 23.2199C21.04 24.3399 20.16 25.4599 18.96 25.5399ZM43.36 22.4999C43.36 22.2599 43.28 22.1799 43.04 22.1799C42.4 22.1799 41.76 22.1799 41.12 22.1799C40.48 22.1799 40.4 22.1799 40.32 22.9799C40.32 23.1399 40.24 23.2199 40.24 23.3799C39.92 22.9799 39.44 22.5799 38.96 22.3399C36.72 21.4599 34.24 22.0999 32.64 23.7799C31.52 25.2199 31.04 27.0599 31.44 28.82C31.6 30.18 32.24 31.4599 33.36 32.3399C35.44 33.9399 38.48 33.86 40.4 32.02C40.48 32.26 40.48 32.4999 40.48 32.7399C40.48 33.2199 40.72 33.3 41.12 33.22C41.76 33.22 42.48 33.22 43.12 33.22C43.36 33.22 43.52 33.2199 43.52 32.8999C43.36 29.3799 43.36 25.9399 43.36 22.4999ZM37.28 30.5799C35.68 30.5799 34.4 29.22 34.48 27.62C34.56 26.0199 35.84 24.7399 37.44 24.8199C39.04 24.8199 40.32 26.1799 40.24 27.6999C40.16 29.2999 38.88 30.5799 37.28 30.5799Z" fill="#999999"/>
</g>
<defs>
<clipPath id="clip0_1330_5472">
<rect width="80" height="48" fill="white" transform="translate(0 0.5)"/>
</clipPath>
</defs>
</svg>
