<svg width="81" height="49" viewBox="0 0 81 49" fill="none" xmlns="http://www.w3.org/2000/svg">
<g clip-path="url(#clip0_1330_5513)">
<path d="M77.2021 0.5H3.6021C1.83479 0.5 0.4021 1.93269 0.4021 3.7V45.3C0.4021 47.0673 1.83479 48.5 3.6021 48.5H77.2021C78.9694 48.5 80.4021 47.0673 80.4021 45.3V3.7C80.4021 1.93269 78.9694 0.5 77.2021 0.5Z" fill="#030303"/>
<g clip-path="url(#clip1_1330_5513)">
<path d="M29.6942 29.12V20.1133H26.4996V17.9733H35.1877V20.1133H31.993V29.12H29.6942Z" fill="#999999"/>
<path d="M34.8254 29.1201V21.0334H36.9398V22.3134C37.4404 21.2267 38.0859 21.0334 38.7775 21.0334H39.5943V23.2001H38.9027C37.9081 23.2001 37.0189 23.7801 37.0189 25.5534V29.1267H34.8254V29.1201Z" fill="#999999"/>
<path d="M40.5889 26.1601V21.0334H42.7757V25.6601C42.7757 26.6067 43.2302 27.3067 44.1655 27.3067C45.0679 27.3067 45.641 26.6067 45.641 25.6734V21.0334H47.8278V29.1267H45.7464V28.1067C45.2194 28.9134 44.4356 29.3134 43.441 29.3134C41.6889 29.3067 40.5889 28.0867 40.5889 26.1601Z" fill="#999999"/>
<path d="M48.7631 26.8467L50.6667 26.4067C50.7589 27.0334 51.2529 27.5067 52.208 27.5067C52.9457 27.5067 53.3541 27.2 53.3541 26.82C53.3541 26.5134 53.1894 26.2867 52.4319 26.12L51.1804 25.8467C49.5798 25.4934 48.9014 24.7467 48.9014 23.3867C48.9014 22 50.0343 20.88 52.1619 20.88C54.4211 20.88 55.3301 22.2534 55.4223 23.1534L53.5056 23.58C53.4134 23.1067 53.0708 22.5867 52.1158 22.5867C51.5098 22.5867 51.0619 22.86 51.0619 23.26C51.0619 23.5934 51.2858 23.78 51.681 23.8734L53.5056 24.3C54.8954 24.62 55.5409 25.46 55.5409 26.6534C55.5409 27.9334 54.5331 29.28 52.2211 29.28C49.6786 29.2734 48.8487 27.7334 48.7631 26.8467Z" fill="#999999"/>
<path d="M59.7433 29.12C58.3271 29.12 57.3786 28.3266 57.3786 26.7533V22.9666H56.0349V21.0266H57.3786V19.2266L59.5655 18.5866V21.0266H61.1792V22.9666H59.5655V26.3533C59.5655 26.9466 59.8684 27.18 60.4547 27.18H61.2978V29.12H59.7433Z" fill="#999999"/>
<path d="M62.4834 29.12V17.98H64.6702V29.1267H62.4834V29.12Z" fill="#999999"/>
<path d="M71.2637 21.0334H73.602L70.2691 32.0267H67.9308L68.8529 29.1267H67.6475L65.4475 21.0334H67.7858L69.4325 27.2934L71.2637 21.0334Z" fill="#999999"/>
<path d="M7.73376 22.8604H12.8649V18.7138L16.9619 22.8604L12.8649 27.0004V29.1204H17.838V22.8604H22.4026V17.9804H7.73376V22.8604Z" fill="#999999"/>
</g>
</g>
<defs>
<clipPath id="clip0_1330_5513">
<rect width="80" height="48" fill="white" transform="translate(0.4021 0.5)"/>
</clipPath>
<clipPath id="clip1_1330_5513">
<rect width="66" height="14" fill="white" transform="translate(7.73376 18)"/>
</clipPath>
</defs>
</svg>
