<svg width="81" height="49" viewBox="0 0 81 49" fill="none" xmlns="http://www.w3.org/2000/svg">
<g clip-path="url(#clip0_1185_5522)">
<path d="M77.3327 0.5H3.73271C1.9654 0.5 0.532715 1.93269 0.532715 3.7V45.3C0.532715 47.0673 1.9654 48.5 3.73271 48.5H77.3327C79.1 48.5 80.5327 47.0673 80.5327 45.3V3.7C80.5327 1.93269 79.1 0.5 77.3327 0.5Z" fill="#030303"/>
<path fill-rule="evenodd" clip-rule="evenodd" d="M20.7136 14.332C20.0438 14.9671 20.1112 16.2281 20.8392 16.6805C21.538 17.1148 22.1801 17.0595 22.7122 16.5195C23.082 16.1442 23.1208 16.0428 23.1208 15.4515C23.1208 14.8649 23.0805 14.7572 22.7276 14.399C22.3759 14.042 22.2675 14 21.6992 14C21.1614 14 21.01 14.0509 20.7136 14.332ZM16.3405 14.5959C14.9865 14.7264 13.9542 15.0173 12.804 15.5924C11.5947 16.197 11.0384 16.5785 10.0924 17.452C7.79053 19.5773 6.38098 23.4443 6.81044 26.4563C7.35784 30.2949 9.30751 33.2002 12.4488 34.8585C14.3592 35.8671 14.9606 36.0058 17.397 35.9998C19.4204 35.9949 19.509 35.9843 20.5797 35.622C23.4079 34.665 25.7466 32.5516 26.9824 29.8367C27.6859 28.2909 27.91 27.2013 27.91 25.3259C27.91 23.0577 27.5268 21.6099 26.4224 19.7057C25.9344 18.8643 24.7025 17.4377 23.922 16.8102L23.4693 16.4463L23.0898 16.8546C21.8657 18.172 19.712 17.2298 19.734 15.3863C19.7385 15.0062 19.688 14.8157 19.5706 14.77C19.4187 14.7108 18.9532 14.6543 17.6861 14.5413C17.4635 14.5213 16.858 14.546 16.3405 14.5959ZM47.8081 18.4841C47.4228 18.6208 46.9808 18.9902 46.8039 19.3235C46.7402 19.4435 46.6539 19.8924 46.6121 20.3211C46.5366 21.0965 46.5342 21.1009 46.1604 21.1374C45.7993 21.1729 45.7846 21.1942 45.7846 21.6875C45.7846 22.1808 45.7993 22.2022 46.1604 22.2376L46.5362 22.2744V24.9445V27.6147L47.3167 27.6145H48.0972V24.9151V22.2157H48.5597H49.0223V21.6875V21.1594H48.5597H48.0972V20.4619C48.0972 19.8741 48.1377 19.7355 48.3542 19.5816C48.4956 19.4811 48.7557 19.3989 48.9324 19.3989C49.2359 19.3989 49.2535 19.3699 49.2535 18.8707V18.3426L48.7043 18.3518C48.4021 18.3569 47.9989 18.4165 47.8081 18.4841ZM74.2068 20.103C74.23 21.2769 74.2011 21.8636 74.1201 21.8636C74.0534 21.8636 73.9987 21.8155 73.9987 21.7567C73.9987 21.5699 72.8131 21.042 72.3936 21.042C71.8789 21.042 71.0762 21.435 70.7247 21.859C70.5746 22.0401 70.3325 22.565 70.1867 23.0254C69.6149 24.8301 70.2003 26.8889 71.4779 27.5663C72.1245 27.9091 73.2798 27.7135 73.8419 27.166C74.1199 26.8951 74.23 26.9418 74.23 27.3306C74.23 27.5731 74.2909 27.5978 74.9818 27.6339L75.7336 27.6732L75.7334 23.0079L75.7332 18.3426L74.9527 18.3425L74.1721 18.3422L74.2068 20.103ZM17.607 18.591C18.3185 18.9604 18.4602 19.6875 17.9262 20.2295C17.3724 20.7917 16.6469 20.6509 16.3473 19.9231C16.1495 19.4428 16.2616 19.0683 16.7101 18.71C17.0647 18.427 17.2448 18.4031 17.607 18.591ZM32.1504 21.3962C31.8064 21.5887 31.5072 21.7462 31.4855 21.7462C31.4639 21.7462 31.4462 21.6142 31.4462 21.4528C31.4462 21.1688 31.4211 21.1594 30.6657 21.1594L29.8852 21.1593L29.9168 25.7367L29.9483 30.314H30.6973H31.4462V28.6122C31.4462 27.6762 31.4919 26.9103 31.5478 26.9103C31.6035 26.9103 31.7172 26.9934 31.8002 27.095C31.8832 27.1965 32.1589 27.3872 32.4128 27.5187C33.594 28.1304 35.0935 27.2436 35.5058 25.6896C35.7084 24.9261 35.5853 23.0712 35.2947 22.5091C34.8407 21.6311 33.9771 21.0395 33.1555 21.0441C32.9468 21.0453 32.4946 21.2037 32.1504 21.3962ZM39.3339 21.2912C39.0415 21.4381 38.6955 21.7509 38.4901 22.0539C38.2985 22.3366 38.0923 22.5678 38.0317 22.5678C37.9711 22.5678 37.9216 22.2509 37.9216 21.8636V21.1594H37.17H36.4184V24.387V27.6145H37.17H37.9216V25.9069C37.9216 24.058 37.9815 23.8156 38.5762 23.257C39.0121 22.8475 39.3669 22.6711 39.779 22.6592L40.1186 22.6495V21.8457C40.1186 20.9352 40.0869 20.9129 39.3339 21.2912ZM41.6497 21.3939C40.3621 22.0551 39.8409 23.3262 40.1227 25.117C40.3083 26.2962 40.8374 27.021 41.8531 27.4877C42.4289 27.7523 43.4808 27.8109 44.0137 27.608C44.5369 27.4088 45.1835 26.9107 45.4283 26.5182L45.6552 26.1545L45.0147 25.8803C44.4013 25.6178 44.3674 25.6152 44.2158 25.8181C44.1287 25.9347 44.0558 26.0637 44.0538 26.1047C44.0517 26.1458 43.8605 26.2707 43.6287 26.3823C42.8295 26.7673 42.0036 26.2703 41.7303 25.2401C41.6623 24.9838 41.6318 24.7485 41.6625 24.7172C41.6933 24.686 42.6334 24.667 43.7515 24.6749L45.7846 24.6892L45.782 23.9512C45.7762 22.2569 44.7876 21.186 43.125 21.0731C42.4559 21.0277 42.294 21.0629 41.6497 21.3939ZM51.2193 21.1179C50.0224 21.6132 49.7445 21.8552 49.3598 22.7381C48.7379 24.1648 49.0896 26.2254 50.0913 27.0251C50.6449 27.4673 51.3667 27.7266 52.0501 27.7293C52.799 27.7323 53.172 27.6142 53.8002 27.1756C54.1887 26.9041 54.66 26.2557 54.5498 26.1439C54.5279 26.1218 54.2603 25.9949 53.9551 25.8621L53.4002 25.6207L53.1154 25.9643C52.7821 26.3661 52.1773 26.6006 51.7524 26.4924C51.3417 26.3877 50.7844 25.7123 50.6907 25.2056C50.6482 24.9752 50.6414 24.7582 50.6759 24.7233C50.7102 24.6885 51.6603 24.6666 52.787 24.675L54.8356 24.6901L54.7788 23.8931C54.6518 22.1124 53.7669 21.1689 52.1452 21.0851C51.7314 21.0637 51.3147 21.0785 51.2193 21.1179ZM58.5049 21.229C58.0161 21.4441 57.614 21.811 57.3916 22.245C57.131 22.7535 57.0008 22.6265 57.0008 21.8636V21.1594H56.2492H55.4976V24.387V27.6145H56.2492H57.0008V25.8181C57.0008 24.1027 57.0134 24.0045 57.2804 23.6372C57.6963 23.0651 58.2627 22.6851 58.6999 22.6851H59.0822V21.8636C59.0822 21.4117 59.0432 21.0441 58.9955 21.0466C58.9477 21.0492 58.727 21.1312 58.5049 21.229ZM62.7539 21.2846C62.5154 21.4123 62.1252 21.7827 61.8866 22.1078L61.4527 22.6989L61.4184 21.9291L61.3843 21.1594H60.6379H59.8916V24.387V27.6145H60.6432H61.3948V25.831C61.3948 24.0947 61.4029 24.0357 61.7 23.6005C62.0627 23.0693 62.632 22.6868 63.112 22.6518C63.4569 22.6266 63.4593 22.6214 63.4966 21.834C63.5391 20.9337 63.4843 20.8931 62.7539 21.2846ZM65.5106 21.2706C64.8106 21.557 64.364 21.9801 64.0251 22.6781C63.6568 23.4366 63.6553 25.1863 64.0222 26.0017C64.6764 27.4556 66.4396 28.1448 67.8905 27.5135C68.3531 27.3122 69.2578 26.4574 69.2578 26.2214C69.2578 26.1657 68.9871 26.0059 68.6563 25.8664L68.0548 25.6126L67.7828 25.9652C67.1385 26.801 66.0285 26.6655 65.5656 25.6948C65.4246 25.3991 65.3261 25.0449 65.3467 24.9076C65.3833 24.6631 65.427 24.6581 67.3805 24.6739C69.0964 24.6879 69.3867 24.6643 69.4465 24.5062C69.5945 24.1149 69.2786 22.6519 68.9409 22.1636C68.2531 21.1692 66.7285 20.7723 65.5106 21.2706ZM23.5635 22.1559C24.9078 23.0635 25.2754 25.7043 24.2794 27.2985C24.1007 27.5845 23.758 27.9706 23.5177 28.1567C23.1471 28.4435 22.9745 28.4948 22.3782 28.4948C21.8002 28.4948 21.5936 28.4375 21.2149 28.172C20.9617 27.9946 20.7275 27.8493 20.6946 27.8492C20.6616 27.8492 20.6347 28.5753 20.6347 29.463V31.0769L19.7963 31.1114L18.958 31.1459V26.5047V21.8636H19.8252C20.6867 21.8636 20.6925 21.8657 20.6925 22.1752C20.6925 22.4621 20.7086 22.4726 20.8948 22.3072C21.6478 21.6391 22.7088 21.579 23.5635 22.1559ZM11.8546 22.1863C11.9877 22.7984 12.8224 25.8859 12.867 25.9312C12.9061 25.9708 13.452 24.0666 13.8732 22.4211L14.0159 21.8636H14.8181C15.5281 21.8636 15.6132 21.8872 15.5596 22.069C15.4989 22.2739 15.0942 23.7695 14.273 26.8223L13.8388 28.4361H12.8852H11.9315L11.46 26.705C11.2007 25.7528 10.9358 24.7361 10.8714 24.4456C10.766 23.9701 10.4325 22.7529 10.2315 22.1103C10.1582 21.8755 10.1939 21.8636 10.9695 21.8636C11.7644 21.8636 11.7862 21.8716 11.8546 22.1863ZM18.033 25.155V28.4464L17.1946 28.4119L16.3563 28.3774L16.3255 25.1205L16.2948 21.8636H17.1639H18.033V25.155ZM43.701 22.2917C44.0401 22.4951 44.397 23.12 44.397 23.5107C44.397 23.7274 44.3119 23.7414 42.9969 23.7414H41.5967L41.6681 23.4532C41.9668 22.2453 42.8151 21.7605 43.701 22.2917ZM52.7787 22.3528C52.954 22.4927 53.1692 22.7815 53.2568 22.9945C53.5637 23.74 53.5615 23.7414 52.0287 23.7414C50.4959 23.7414 50.4937 23.74 50.8006 22.9945C51.1514 22.1422 52.1211 21.8277 52.7787 22.3528ZM67.3826 22.2815C67.6641 22.4816 67.9107 22.9149 68.0297 23.4187L68.1059 23.7414H66.7161C65.1576 23.7414 65.1215 23.7157 65.5119 22.8849C65.849 22.1676 66.7937 21.8628 67.3826 22.2815ZM73.4571 22.4651C73.596 22.5377 73.8268 22.7053 73.9698 22.8376C74.2115 23.0611 74.23 23.1764 74.23 24.4601V25.8421L73.8433 26.1415C73.5757 26.3486 73.3121 26.4409 72.988 26.4409C72.5968 26.4409 72.4604 26.3727 72.1622 26.028C71.7144 25.5103 71.6501 25.2475 71.7043 24.1579C71.7367 23.5054 71.8088 23.2006 71.9882 22.9552C72.4034 22.3875 72.956 22.2031 73.4571 22.4651ZM33.4294 22.5773C33.9782 22.8754 34.3012 24.4921 33.9827 25.3476C33.634 26.2847 32.9005 26.5477 31.9453 26.0783L31.4462 25.8332V24.3748V22.9165L31.822 22.6839C32.2361 22.4276 33.0541 22.3734 33.4294 22.5773ZM21.4952 23.2635C20.6801 23.5211 20.6925 23.4929 20.6925 25.0926C20.6925 26.5034 20.7019 26.5591 20.9693 26.737C21.3486 26.9892 21.958 27.0717 22.3402 26.9228C22.8913 26.7079 23.1198 26.1624 23.1203 25.0601C23.1208 24.1268 23.1065 24.0748 22.7449 23.6851C22.3369 23.2455 21.9574 23.1174 21.4952 23.2635Z" fill="#999999"/>
</g>
<defs>
<clipPath id="clip0_1185_5522">
<rect width="80" height="48" fill="white" transform="translate(0.532715 0.5)"/>
</clipPath>
</defs>
</svg>
