<?xml version="1.0" encoding="utf-8"?>
<!-- Generator: Adobe Illustrator 25.0.0, SVG Export Plug-In . SVG Version: 6.00 Build 0)  -->
<svg version="1.1" id="Component_3_1" xmlns="http://www.w3.org/2000/svg" xmlns:xlink="http://www.w3.org/1999/xlink" x="0px"
	 y="0px" viewBox="0 0 134.1 59.7" style="enable-background:new 0 0 134.1 59.7;" xml:space="preserve">
<style type="text/css">
	.st0{clip-path:url(#SVGID_2_);}
	.st1{fill:#17BEA3;}
	.st2{fill:#1B1E24;}
</style>
<g>
	<defs>
		<rect id="SVGID_1_" y="0" width="134.1" height="59.7"/>
	</defs>
	<clipPath id="SVGID_2_">
		<use xlink:href="#SVGID_1_"  style="overflow:visible;"/>
	</clipPath>
	<g id="Group_28" class="st0">
		<path id="Path_3" class="st1" d="M85.8,4.7c-0.2,1.3-0.5,2.5-0.9,3.7c-0.3,0.8-0.5,1.6-0.8,2.4c-0.2,0.5,0.1,1.1,0.6,1.2
			c0.1,0,0.2,0,0.3,0h2.2c0.6,0,1.2-0.4,1.4-1l0-0.1c1.8-4.1,2.8-6.3,3.1-6.8c0.3-0.5,0.7-0.9,1.2-1.2c0.8-0.2,1.6-0.3,2.5-0.3
			c0.7,0,1.3-0.7,1.3-1.4V0c-3.8,0.2-6.8,0.3-9,0.2c-2.1,0-5.3-0.1-9.5-0.2v1.4c0,0.7,0.5,1.3,1.2,1.3C81.2,2.8,83,3,84.7,3.4
			C85.3,3.5,85.8,4.1,85.8,4.7"/>
		<path id="Path_4" class="st1" d="M43,4.1c0.4,0.6,1.3,2.7,2.8,6.5l2.4,5.9c0.3,0.8,1.2,1.2,2,0.9c0.3-0.1,0.5-0.3,0.7-0.6
			c0.9-1.4,2.1-2.5,3.5-3.3c0.6-0.3,0.8-1,0.6-1.6c-0.5-1.5-1.1-3.3-1.7-5.2c-0.3-0.7-0.5-1.4-0.6-2.2c0-0.3,0.1-0.6,0.3-0.8
			c0.3-0.3,0.7-0.5,1.1-0.5c0.5-0.1,2-0.1,4.5-0.2C59.4,3,60,2.3,60,1.6V0c-5.4,0.2-9.2,0.3-11.5,0.3c-2.4,0-6.1-0.1-11.1-0.3v1.3
			c0,0.7,0.6,1.4,1.3,1.4c1.1,0,2.2,0.2,3.3,0.6C42.4,3.5,42.8,3.8,43,4.1"/>
		<path id="Path_5" class="st1" d="M71.8,42.5l-2.4,6l-2-5.1c-0.4-1-1.4-1.6-2.5-1.4c-1.1,0.2-2.2,0.3-3.2,0.3c-0.4,0-0.8,0-1.2,0
			c-0.6,0-1.2,0.5-1.2,1.1c0,0.2,0,0.3,0.1,0.5l0.7,1.7c2.6,6.9,4.4,11.6,5.2,14h4.2c0.5-1.6,1-3,1.4-4.2c0.4-1.2,1-2.6,1.6-4.3
			l3.2-8.2c0.2-0.4,0-0.9-0.5-1.1c-0.1,0-0.2-0.1-0.3-0.1h-2.2C72.3,41.9,72,42.1,71.8,42.5"/>
		<path id="Path_6" class="st2" d="M0,26.9c0-7.6,5.7-12.8,12.9-12.8c4.4-0.2,8.4,2.2,10.5,6l-4.5,2.2c-1.2-2.2-3.5-3.6-6-3.6
			c-4.3,0-7.5,3.4-7.5,8.1S8.7,35,12.9,35c2.5,0,4.8-1.4,6-3.6l4.5,2.2c-2.1,3.9-6.1,6.2-10.5,6.1C5.7,39.7,0,34.5,0,26.9"/>
		<path id="Path_7" class="st2" d="M42.6,35h-11L30,39.3h-5.8l9.5-24.7h6.6l9.5,24.7h-5.7L42.6,35z M32.9,30.5h8.2l-4.1-11.3
			L32.9,30.5z"/>
		<path id="Path_8" class="st2" d="M54.1,31.8c2,2.1,4.9,3.3,7.8,3.3c2.9,0,4.3-1.4,4.3-2.8c0-1.8-2.1-2.5-5-3.1
			c-4-0.9-9.2-2-9.2-7.5c0-4.1,3.5-7.4,9.4-7.4c3.5-0.1,7,1.1,9.6,3.4l-2.9,3.8c-1.9-1.7-4.5-2.7-7.1-2.7c-2.4,0-3.6,1-3.6,2.5
			c0,1.7,2.1,2.2,4.9,2.8c4.1,0.9,9.2,2.1,9.2,7.6c0,4.5-3.2,7.9-9.9,7.9c-4.7,0-8.1-1.6-10.5-3.9L54.1,31.8z"/>
		<rect id="Rectangle_25" x="74.7" y="14.6" class="st2" width="5.2" height="24.7"/>
		<path id="Path_9" class="st2" d="M88.6,22.7v16.6h-5.2V14.6h5.4l11.4,16v-16h5.2v24.7h-5.1L88.6,22.7z"/>
		<path id="Path_10" class="st2" d="M121.2,14.2c7.5,0,12.9,5.3,12.9,12.8s-5.4,12.8-12.9,12.8c-7.4,0-12.9-5.3-12.9-12.8
			S113.7,14.2,121.2,14.2 M121.2,18.8c-4.5,0-7.5,3.5-7.5,8.1c0,4.6,2.9,8.1,7.5,8.1c4.5,0,7.5-3.5,7.5-8.1
			C128.7,22.3,125.7,18.8,121.2,18.8"/>
		<rect id="Rectangle_26" x="51.5" y="44.6" class="st1" width="1.5" height="12.3"/>
		<path id="Path_11" class="st1" d="M33.1,44.6h8.1V46h-6.5v4H41v1.4h-6.4V57h-1.5V44.6z"/>
		<path id="Path_12" class="st1" d="M85.8,44.6h8.1V46h-6.5v4h6.4v1.4h-6.4v4.2h6.5V57h-8.1L85.8,44.6z"/>
	</g>
</g>
</svg>
